<svg width="843" height="165" viewBox="0 0 843 165" fill="none" xmlns="http://www.w3.org/2000/svg">
<path d="M21.72 24.28C21.72 26.6 20.92 28.5333 19.32 30.08C17.7467 31.6 15.3333 32.36 12.08 32.36H6.72V44H3.08V16.12H12.08C15.2267 16.12 17.6133 16.88 19.24 18.4C20.8933 19.92 21.72 21.88 21.72 24.28ZM12.08 29.36C14.1067 29.36 15.6 28.92 16.56 28.04C17.52 27.16 18 25.9067 18 24.28C18 20.84 16.0267 19.12 12.08 19.12H6.72V29.36H12.08ZM35.8041 44.36C33.7507 44.36 31.8841 43.8933 30.2041 42.96C28.5507 42.0267 27.2441 40.7067 26.2841 39C25.3507 37.2667 24.8841 35.2667 24.8841 33C24.8841 30.76 25.3641 28.7867 26.3241 27.08C27.3107 25.3467 28.6441 24.0267 30.3241 23.12C32.0041 22.1867 33.8841 21.72 35.9641 21.72C38.0441 21.72 39.9241 22.1867 41.6041 23.12C43.2841 24.0267 44.6041 25.3333 45.5641 27.04C46.5507 28.7467 47.0441 30.7333 47.0441 33C47.0441 35.2667 46.5374 37.2667 45.5241 39C44.5374 40.7067 43.1907 42.0267 41.4841 42.96C39.7774 43.8933 37.8841 44.36 35.8041 44.36ZM35.8041 41.16C37.1107 41.16 38.3374 40.8533 39.4841 40.24C40.6307 39.6267 41.5507 38.7067 42.2441 37.48C42.9641 36.2533 43.3241 34.76 43.3241 33C43.3241 31.24 42.9774 29.7467 42.2841 28.52C41.5907 27.2933 40.6841 26.3867 39.5641 25.8C38.4441 25.1867 37.2307 24.88 35.9241 24.88C34.5907 24.88 33.3641 25.1867 32.2441 25.8C31.1507 26.3867 30.2707 27.2933 29.6041 28.52C28.9374 29.7467 28.6041 31.24 28.6041 33C28.6041 34.7867 28.9241 36.2933 29.5641 37.52C30.2307 38.7467 31.1107 39.6667 32.2041 40.28C33.2974 40.8667 34.4974 41.16 35.8041 41.16ZM55.47 26.12C56.19 24.8667 57.2567 23.8267 58.67 23C60.11 22.1467 61.7767 21.72 63.67 21.72C65.6167 21.72 67.3767 22.1867 68.95 23.12C70.55 24.0533 71.8033 25.3733 72.71 27.08C73.6167 28.76 74.07 30.72 74.07 32.96C74.07 35.1733 73.6167 37.1467 72.71 38.88C71.8033 40.6133 70.55 41.96 68.95 42.92C67.3767 43.88 65.6167 44.36 63.67 44.36C61.8033 44.36 60.15 43.9467 58.71 43.12C57.2967 42.2667 56.2167 41.2133 55.47 39.96V54.4H51.83V22.08H55.47V26.12ZM70.35 32.96C70.35 31.3067 70.0167 29.8667 69.35 28.64C68.6833 27.4133 67.7767 26.48 66.63 25.84C65.51 25.2 64.27 24.88 62.91 24.88C61.5767 24.88 60.3367 25.2133 59.19 25.88C58.07 26.52 57.1633 27.4667 56.47 28.72C55.8033 29.9467 55.47 31.3733 55.47 33C55.47 34.6533 55.8033 36.1067 56.47 37.36C57.1633 38.5867 58.07 39.5333 59.19 40.2C60.3367 40.84 61.5767 41.16 62.91 41.16C64.27 41.16 65.51 40.84 66.63 40.2C67.7767 39.5333 68.6833 38.5867 69.35 37.36C70.0167 36.1067 70.35 34.64 70.35 32.96ZM82.5013 26.12C83.2213 24.8667 84.2879 23.8267 85.7013 23C87.1413 22.1467 88.8079 21.72 90.7013 21.72C92.6479 21.72 94.4079 22.1867 95.9812 23.12C97.5812 24.0533 98.8346 25.3733 99.7413 27.08C100.648 28.76 101.101 30.72 101.101 32.96C101.101 35.1733 100.648 37.1467 99.7413 38.88C98.8346 40.6133 97.5812 41.96 95.9812 42.92C94.4079 43.88 92.6479 44.36 90.7013 44.36C88.8346 44.36 87.1813 43.9467 85.7413 43.12C84.3279 42.2667 83.2479 41.2133 82.5013 39.96V54.4H78.8613V22.08H82.5013V26.12ZM97.3813 32.96C97.3813 31.3067 97.0479 29.8667 96.3813 28.64C95.7146 27.4133 94.8079 26.48 93.6613 25.84C92.5413 25.2 91.3013 24.88 89.9413 24.88C88.6079 24.88 87.3679 25.2133 86.2213 25.88C85.1013 26.52 84.1946 27.4667 83.5013 28.72C82.8346 29.9467 82.5013 31.3733 82.5013 33C82.5013 34.6533 82.8346 36.1067 83.5013 37.36C84.1946 38.5867 85.1013 39.5333 86.2213 40.2C87.3679 40.84 88.6079 41.16 89.9413 41.16C91.3013 41.16 92.5413 40.84 93.6613 40.2C94.8079 39.5333 95.7146 38.5867 96.3813 37.36C97.0479 36.1067 97.3813 34.64 97.3813 32.96ZM107.773 18.52C107.079 18.52 106.493 18.28 106.013 17.8C105.533 17.32 105.293 16.7333 105.293 16.04C105.293 15.3467 105.533 14.76 106.013 14.28C106.493 13.8 107.079 13.56 107.773 13.56C108.439 13.56 108.999 13.8 109.453 14.28C109.933 14.76 110.173 15.3467 110.173 16.04C110.173 16.7333 109.933 17.32 109.453 17.8C108.999 18.28 108.439 18.52 107.773 18.52ZM109.533 22.08V44H105.893V22.08H109.533ZM126.416 21.68C129.083 21.68 131.243 22.4933 132.896 24.12C134.55 25.72 135.376 28.04 135.376 31.08V44H131.776V31.6C131.776 29.4133 131.23 27.7467 130.136 26.6C129.043 25.4267 127.55 24.84 125.656 24.84C123.736 24.84 122.203 25.44 121.056 26.64C119.936 27.84 119.376 29.5867 119.376 31.88V44H115.736V22.08H119.376V25.2C120.096 24.08 121.07 23.2133 122.296 22.6C123.55 21.9867 124.923 21.68 126.416 21.68ZM149.082 44.36C147.402 44.36 145.896 44.08 144.562 43.52C143.229 42.9333 142.176 42.1333 141.402 41.12C140.629 40.08 140.202 38.8933 140.122 37.56H143.882C143.989 38.6533 144.496 39.5467 145.402 40.24C146.336 40.9333 147.549 41.28 149.042 41.28C150.429 41.28 151.522 40.9733 152.322 40.36C153.122 39.7467 153.522 38.9733 153.522 38.04C153.522 37.08 153.096 36.3733 152.242 35.92C151.389 35.44 150.069 34.9733 148.282 34.52C146.656 34.0933 145.322 33.6667 144.282 33.24C143.269 32.7867 142.389 32.1333 141.642 31.28C140.922 30.4 140.562 29.2533 140.562 27.84C140.562 26.72 140.896 25.6933 141.562 24.76C142.229 23.8267 143.176 23.0933 144.402 22.56C145.629 22 147.029 21.72 148.602 21.72C151.029 21.72 152.989 22.3333 154.482 23.56C155.976 24.7867 156.776 26.4667 156.882 28.6H153.242C153.162 27.4533 152.696 26.5333 151.842 25.84C151.016 25.1467 149.896 24.8 148.482 24.8C147.176 24.8 146.136 25.08 145.362 25.64C144.589 26.2 144.202 26.9333 144.202 27.84C144.202 28.56 144.429 29.16 144.882 29.64C145.362 30.0933 145.949 30.4667 146.642 30.76C147.362 31.0267 148.349 31.3333 149.602 31.68C151.176 32.1067 152.456 32.5333 153.442 32.96C154.429 33.36 155.269 33.9733 155.962 34.8C156.682 35.6267 157.056 36.7067 157.082 38.04C157.082 39.24 156.749 40.32 156.082 41.28C155.416 42.24 154.469 43 153.242 43.56C152.042 44.0933 150.656 44.36 149.082 44.36Z" fill="black"/>
<path d="M15.648 99.04H5.92L4.128 104H1.056L9.12 81.824H12.48L20.512 104H17.44L15.648 99.04ZM14.816 96.672L10.784 85.408L6.752 96.672H14.816ZM22.9385 95.168C22.9385 93.376 23.3012 91.808 24.0265 90.464C24.7518 89.0987 25.7438 88.0427 27.0025 87.296C28.2825 86.5493 29.7012 86.176 31.2585 86.176C32.7945 86.176 34.1278 86.5067 35.2585 87.168C36.3892 87.8293 37.2318 88.6613 37.7865 89.664V86.464H40.7305V104H37.7865V100.736C37.2105 101.76 36.3465 102.613 35.1945 103.296C34.0638 103.957 32.7412 104.288 31.2265 104.288C29.6692 104.288 28.2612 103.904 27.0025 103.136C25.7438 102.368 24.7518 101.291 24.0265 99.904C23.3012 98.5173 22.9385 96.9387 22.9385 95.168ZM37.7865 95.2C37.7865 93.8773 37.5198 92.7253 36.9865 91.744C36.4532 90.7627 35.7278 90.016 34.8105 89.504C33.9145 88.9707 32.9225 88.704 31.8345 88.704C30.7465 88.704 29.7545 88.96 28.8585 89.472C27.9625 89.984 27.2478 90.7307 26.7145 91.712C26.1812 92.6933 25.9145 93.8453 25.9145 95.168C25.9145 96.512 26.1812 97.6853 26.7145 98.688C27.2478 99.6693 27.9625 100.427 28.8585 100.96C29.7545 101.472 30.7465 101.728 31.8345 101.728C32.9225 101.728 33.9145 101.472 34.8105 100.96C35.7278 100.427 36.4532 99.6693 36.9865 98.688C37.5198 97.6853 37.7865 96.5227 37.7865 95.2ZM65.3508 92.512C66.1614 92.64 66.8974 92.9707 67.5588 93.504C68.2414 94.0373 68.7748 94.6987 69.1588 95.488C69.5641 96.2773 69.7668 97.12 69.7668 98.016C69.7668 99.1467 69.4788 100.171 68.9028 101.088C68.3268 101.984 67.4841 102.699 66.3748 103.232C65.2868 103.744 63.9961 104 62.5028 104H54.1828V81.696H62.1828C63.6974 81.696 64.9881 81.952 66.0548 82.464C67.1214 82.9547 67.9214 83.6267 68.4548 84.48C68.9881 85.3333 69.2548 86.2933 69.2548 87.36C69.2548 88.6827 68.8921 89.7813 68.1667 90.656C67.4628 91.5093 66.5241 92.128 65.3508 92.512ZM57.0948 91.328H61.9908C63.3561 91.328 64.4121 91.008 65.1588 90.368C65.9054 89.728 66.2788 88.8427 66.2788 87.712C66.2788 86.5813 65.9054 85.696 65.1588 85.056C64.4121 84.416 63.3348 84.096 61.9268 84.096H57.0948V91.328ZM62.2468 101.6C63.6974 101.6 64.8281 101.259 65.6388 100.576C66.4494 99.8933 66.8548 98.944 66.8548 97.728C66.8548 96.4907 66.4281 95.52 65.5748 94.816C64.7214 94.0907 63.5801 93.728 62.1508 93.728H57.0948V101.6H62.2468ZM76.7198 89.728C77.3171 88.6827 78.1918 87.8293 79.3438 87.168C80.4958 86.5067 81.8078 86.176 83.2798 86.176C84.8584 86.176 86.2771 86.5493 87.5358 87.296C88.7944 88.0427 89.7864 89.0987 90.5118 90.464C91.2371 91.808 91.5998 93.376 91.5998 95.168C91.5998 96.9387 91.2371 98.5173 90.5118 99.904C89.7864 101.291 88.7837 102.368 87.5037 103.136C86.2451 103.904 84.8371 104.288 83.2798 104.288C81.7651 104.288 80.4318 103.957 79.2798 103.296C78.1491 102.635 77.2958 101.792 76.7198 100.768V104H73.8078V80.32H76.7198V89.728ZM88.6238 95.168C88.6238 93.8453 88.3571 92.6933 87.8238 91.712C87.2904 90.7307 86.5651 89.984 85.6478 89.472C84.7518 88.96 83.7598 88.704 82.6718 88.704C81.6051 88.704 80.6131 88.9707 79.6958 89.504C78.7998 90.016 78.0744 90.7733 77.5198 91.776C76.9864 92.7573 76.7198 93.8987 76.7198 95.2C76.7198 96.5227 76.9864 97.6853 77.5198 98.688C78.0744 99.6693 78.7998 100.427 79.6958 100.96C80.6131 101.472 81.6051 101.728 82.6718 101.728C83.7598 101.728 84.7518 101.472 85.6478 100.96C86.5651 100.427 87.2904 99.6693 87.8238 98.688C88.3571 97.6853 88.6238 96.512 88.6238 95.168ZM102.876 92.832C102.876 90.656 103.367 88.704 104.348 86.976C105.329 85.2267 106.663 83.8613 108.348 82.88C110.055 81.8987 111.943 81.408 114.012 81.408C116.444 81.408 118.567 81.9947 120.38 83.168C122.193 84.3413 123.516 86.0053 124.348 88.16H120.86C120.241 86.816 119.345 85.7813 118.172 85.056C117.02 84.3307 115.633 83.968 114.012 83.968C112.455 83.968 111.057 84.3307 109.82 85.056C108.583 85.7813 107.612 86.816 106.908 88.16C106.204 89.4827 105.852 91.04 105.852 92.832C105.852 94.6027 106.204 96.16 106.908 97.504C107.612 98.8267 108.583 99.8507 109.82 100.576C111.057 101.301 112.455 101.664 114.012 101.664C115.633 101.664 117.02 101.312 118.172 100.608C119.345 99.8827 120.241 98.848 120.86 97.504H124.348C123.516 99.6373 122.193 101.291 120.38 102.464C118.567 103.616 116.444 104.192 114.012 104.192C111.943 104.192 110.055 103.712 108.348 102.752C106.663 101.771 105.329 100.416 104.348 98.688C103.367 96.96 102.876 95.008 102.876 92.832ZM127.595 95.2C127.595 93.3867 127.957 91.808 128.683 90.464C129.408 89.0987 130.411 88.0427 131.691 87.296C132.992 86.5493 134.475 86.176 136.139 86.176C138.293 86.176 140.064 86.6987 141.451 87.744C142.859 88.7893 143.787 90.24 144.235 92.096H141.099C140.8 91.0293 140.213 90.1867 139.339 89.568C138.485 88.9493 137.419 88.64 136.139 88.64C134.475 88.64 133.131 89.216 132.107 90.368C131.083 91.4987 130.571 93.1093 130.571 95.2C130.571 97.312 131.083 98.944 132.107 100.096C133.131 101.248 134.475 101.824 136.139 101.824C137.419 101.824 138.485 101.525 139.339 100.928C140.192 100.331 140.779 99.4773 141.099 98.368H144.235C143.765 100.16 142.827 101.6 141.419 102.688C140.011 103.755 138.251 104.288 136.139 104.288C134.475 104.288 132.992 103.915 131.691 103.168C130.411 102.421 129.408 101.365 128.683 100C127.957 98.6347 127.595 97.0347 127.595 95.2ZM163.595 81.696C166.028 81.696 168.129 82.1547 169.9 83.072C171.692 83.968 173.057 85.2587 173.996 86.944C174.956 88.6293 175.436 90.6133 175.436 92.896C175.436 95.1787 174.956 97.1627 173.996 98.848C173.057 100.512 171.692 101.792 169.9 102.688C168.129 103.563 166.028 104 163.595 104H156.652V81.696H163.595ZM163.595 101.6C166.476 101.6 168.673 100.843 170.188 99.328C171.702 97.792 172.46 95.648 172.46 92.896C172.46 90.1227 171.692 87.9573 170.156 86.4C168.641 84.8427 166.454 84.064 163.595 84.064H159.564V101.6H163.595ZM178.189 95.168C178.189 93.376 178.551 91.808 179.277 90.464C180.002 89.0987 180.994 88.0427 182.253 87.296C183.533 86.5493 184.962 86.176 186.541 86.176C187.906 86.176 189.175 86.496 190.349 87.136C191.522 87.7547 192.418 88.576 193.037 89.6V80.32H195.981V104H193.037V100.704C192.461 101.749 191.607 102.613 190.477 103.296C189.346 103.957 188.023 104.288 186.509 104.288C184.951 104.288 183.533 103.904 182.253 103.136C180.994 102.368 180.002 101.291 179.277 99.904C178.551 98.5173 178.189 96.9387 178.189 95.168ZM193.037 95.2C193.037 93.8773 192.77 92.7253 192.237 91.744C191.703 90.7627 190.978 90.016 190.061 89.504C189.165 88.9707 188.173 88.704 187.085 88.704C185.997 88.704 185.005 88.96 184.109 89.472C183.213 89.984 182.498 90.7307 181.965 91.712C181.431 92.6933 181.165 93.8453 181.165 95.168C181.165 96.512 181.431 97.6853 181.965 98.688C182.498 99.6693 183.213 100.427 184.109 100.96C185.005 101.472 185.997 101.728 187.085 101.728C188.173 101.728 189.165 101.472 190.061 100.96C190.978 100.427 191.703 99.6693 192.237 98.688C192.77 97.6853 193.037 96.5227 193.037 95.2ZM212.345 84.064V91.52H220.473V93.92H212.345V101.6H221.433V104H209.433V81.664H221.433V84.064H212.345ZM241.839 94.56C241.839 95.1147 241.807 95.7013 241.743 96.32H227.727C227.834 98.048 228.42 99.4027 229.487 100.384C230.575 101.344 231.887 101.824 233.423 101.824C234.682 101.824 235.727 101.536 236.559 100.96C237.412 100.363 238.01 99.5733 238.351 98.592H241.487C241.018 100.277 240.079 101.653 238.671 102.72C237.263 103.765 235.514 104.288 233.423 104.288C231.759 104.288 230.266 103.915 228.943 103.168C227.642 102.421 226.618 101.365 225.871 100C225.124 98.6133 224.751 97.0133 224.751 95.2C224.751 93.3867 225.114 91.7973 225.839 90.432C226.564 89.0667 227.578 88.0213 228.879 87.296C230.202 86.5493 231.716 86.176 233.423 86.176C235.087 86.176 236.559 86.5387 237.839 87.264C239.119 87.9893 240.1 88.992 240.783 90.272C241.487 91.5307 241.839 92.96 241.839 94.56ZM238.831 93.952C238.831 92.8427 238.586 91.8933 238.095 91.104C237.604 90.2933 236.932 89.6853 236.079 89.28C235.247 88.8533 234.319 88.64 233.295 88.64C231.823 88.64 230.564 89.1093 229.519 90.048C228.495 90.9867 227.908 92.288 227.759 93.952H238.831ZM266.822 81.696V84.064H257.126V91.584H264.998V93.952H257.126V104H254.214V81.696H266.822ZM277.475 88.864H273.795V104H270.883V88.864H268.611V86.464H270.883V85.216C270.883 83.2533 271.384 81.824 272.387 80.928C273.411 80.0107 275.043 79.552 277.283 79.552V81.984C276.003 81.984 275.096 82.24 274.563 82.752C274.051 83.2427 273.795 84.064 273.795 85.216V86.464H277.475V88.864ZM306.298 88.16C305.679 86.8587 304.783 85.856 303.61 85.152C302.436 84.4267 301.071 84.064 299.514 84.064C297.956 84.064 296.548 84.4267 295.29 85.152C294.052 85.856 293.071 86.88 292.346 88.224C291.642 89.5467 291.29 91.0827 291.29 92.832C291.29 94.5813 291.642 96.1173 292.346 97.44C293.071 98.7627 294.052 99.7867 295.29 100.512C296.548 101.216 297.956 101.568 299.514 101.568C301.69 101.568 303.482 100.917 304.89 99.616C306.298 98.3147 307.119 96.5547 307.354 94.336H298.458V91.968H310.458V94.208C310.287 96.0427 309.711 97.728 308.73 99.264C307.748 100.779 306.458 101.984 304.858 102.88C303.258 103.755 301.476 104.192 299.514 104.192C297.444 104.192 295.556 103.712 293.85 102.752C292.143 101.771 290.788 100.416 289.786 98.688C288.804 96.96 288.314 95.008 288.314 92.832C288.314 90.656 288.804 88.704 289.786 86.976C290.788 85.2267 292.143 83.872 293.85 82.912C295.556 81.9307 297.444 81.44 299.514 81.44C301.882 81.44 303.972 82.0267 305.786 83.2C307.62 84.3733 308.954 86.0267 309.786 88.16H306.298ZM321.54 86.176C323.054 86.176 324.377 86.5067 325.508 87.168C326.66 87.8293 327.513 88.6613 328.068 89.664V86.464H331.012V104.384C331.012 105.984 330.67 107.403 329.988 108.64C329.305 109.899 328.324 110.88 327.044 111.584C325.785 112.288 324.313 112.64 322.628 112.64C320.324 112.64 318.404 112.096 316.868 111.008C315.332 109.92 314.425 108.437 314.148 106.56H317.028C317.348 107.627 318.009 108.48 319.012 109.12C320.014 109.781 321.22 110.112 322.628 110.112C324.228 110.112 325.529 109.611 326.532 108.608C327.556 107.605 328.068 106.197 328.068 104.384V100.704C327.492 101.728 326.638 102.581 325.508 103.264C324.377 103.947 323.054 104.288 321.54 104.288C319.982 104.288 318.564 103.904 317.284 103.136C316.025 102.368 315.033 101.291 314.308 99.904C313.582 98.5173 313.22 96.9387 313.22 95.168C313.22 93.376 313.582 91.808 314.308 90.464C315.033 89.0987 316.025 88.0427 317.284 87.296C318.564 86.5493 319.982 86.176 321.54 86.176ZM328.068 95.2C328.068 93.8773 327.801 92.7253 327.268 91.744C326.734 90.7627 326.009 90.016 325.092 89.504C324.196 88.9707 323.204 88.704 322.116 88.704C321.028 88.704 320.036 88.96 319.14 89.472C318.244 89.984 317.529 90.7307 316.996 91.712C316.462 92.6933 316.196 93.8453 316.196 95.168C316.196 96.512 316.462 97.6853 316.996 98.688C317.529 99.6693 318.244 100.427 319.14 100.96C320.036 101.472 321.028 101.728 322.116 101.728C323.204 101.728 324.196 101.472 325.092 100.96C326.009 100.427 326.734 99.6693 327.268 98.688C327.801 97.6853 328.068 96.5227 328.068 95.2ZM361.648 81.696V104H358.736V93.888H347.376V104H344.464V81.696H347.376V91.488H358.736V81.696H361.648ZM375.324 86.144C376.647 86.144 377.842 86.432 378.908 87.008C379.975 87.5627 380.807 88.4053 381.404 89.536C382.023 90.6667 382.332 92.0427 382.332 93.664V104H379.452V94.08C379.452 92.3307 379.015 90.9973 378.14 90.08C377.266 89.1413 376.071 88.672 374.556 88.672C373.02 88.672 371.794 89.152 370.876 90.112C369.98 91.072 369.532 92.4693 369.532 94.304V104H366.62V80.32H369.532V88.96C370.108 88.064 370.898 87.3707 371.9 86.88C372.924 86.3893 374.066 86.144 375.324 86.144ZM398.532 81.696V104H395.62V81.696H398.532ZM404.999 83.616C404.445 83.616 403.975 83.424 403.591 83.04C403.207 82.656 403.015 82.1867 403.015 81.632C403.015 81.0773 403.207 80.608 403.591 80.224C403.975 79.84 404.445 79.648 404.999 79.648C405.533 79.648 405.981 79.84 406.343 80.224C406.727 80.608 406.919 81.0773 406.919 81.632C406.919 82.1867 406.727 82.656 406.343 83.04C405.981 83.424 405.533 83.616 404.999 83.616ZM406.407 86.464V104H403.495V86.464H406.407ZM431.134 81.696V98.176C431.134 100.011 430.568 101.483 429.438 102.592C428.307 103.68 426.814 104.224 424.958 104.224C423.08 104.224 421.576 103.669 420.446 102.56C419.315 101.429 418.75 99.8933 418.75 97.952H421.661C421.683 99.04 421.96 99.9253 422.494 100.608C423.048 101.291 423.87 101.632 424.958 101.632C426.046 101.632 426.856 101.312 427.39 100.672C427.923 100.011 428.19 99.1787 428.19 98.176V81.696H431.134ZM438.438 83.616C437.884 83.616 437.414 83.424 437.03 83.04C436.668 82.656 436.486 82.1867 436.486 81.632C436.486 81.0773 436.668 80.608 437.03 80.224C437.414 79.84 437.884 79.648 438.438 79.648C438.993 79.648 439.452 79.84 439.814 80.224C440.198 80.608 440.39 81.0773 440.39 81.632C440.39 82.1867 440.198 82.656 439.814 83.04C439.452 83.424 438.993 83.616 438.438 83.616ZM439.878 107.808C439.878 109.365 439.484 110.507 438.694 111.232C437.905 111.957 436.753 112.32 435.238 112.32H433.542V109.856H434.758C435.569 109.856 436.134 109.696 436.454 109.376C436.796 109.056 436.966 108.512 436.966 107.744V86.464H439.878V107.808ZM465.435 104L456.251 93.824V104H453.339V81.696H456.251V92.032L465.467 81.696H469.147L459.035 92.864L469.243 104H465.435ZM482.287 104L475.407 96.256V104H472.495V80.32H475.407V94.24L482.159 86.464H486.223L477.967 95.2L486.255 104H482.287ZM500.407 101.632H508.215V104H497.495V81.696H500.407V101.632ZM514.22 80.32V104H511.308V80.32H514.22ZM550.338 81.856V104H547.426V87.488L540.066 104H538.018L530.626 87.456V104H527.714V81.856H530.85L539.042 100.16L547.234 81.856H550.338ZM576.365 86.144C577.73 86.144 578.946 86.432 580.013 87.008C581.079 87.5627 581.922 88.4053 582.541 89.536C583.159 90.6667 583.469 92.0427 583.469 93.664V104H580.589V94.08C580.589 92.3307 580.151 90.9973 579.277 90.08C578.423 89.1413 577.261 88.672 575.789 88.672C574.274 88.672 573.069 89.1627 572.173 90.144C571.277 91.104 570.829 92.5013 570.829 94.336V104H567.949V94.08C567.949 92.3307 567.511 90.9973 566.637 90.08C565.783 89.1413 564.621 88.672 563.149 88.672C561.634 88.672 560.429 89.1627 559.533 90.144C558.637 91.104 558.189 92.5013 558.189 94.336V104H555.277V86.464H558.189V88.992C558.765 88.0747 559.533 87.3707 560.493 86.88C561.474 86.3893 562.551 86.144 563.725 86.144C565.197 86.144 566.498 86.4747 567.629 87.136C568.759 87.7973 569.602 88.768 570.157 90.048C570.647 88.8107 571.458 87.8507 572.589 87.168C573.719 86.4853 574.978 86.144 576.365 86.144ZM614.312 104H611.401L599.689 86.24V104H596.777V81.664H599.689L611.401 99.392V81.664H614.312V104ZM627.821 86.144C629.954 86.144 631.682 86.7947 633.005 88.096C634.327 89.376 634.989 91.232 634.989 93.664V104H632.109V94.08C632.109 92.3307 631.671 90.9973 630.797 90.08C629.922 89.1413 628.727 88.672 627.213 88.672C625.677 88.672 624.45 89.152 623.533 90.112C622.637 91.072 622.189 92.4693 622.189 94.304V104H619.277V86.464H622.189V88.96C622.765 88.064 623.543 87.3707 624.525 86.88C625.527 86.3893 626.626 86.144 627.821 86.144ZM658.389 104.224C656.319 104.224 654.431 103.744 652.725 102.784C651.018 101.803 649.663 100.448 648.661 98.72C647.679 96.9707 647.189 95.008 647.189 92.832C647.189 90.656 647.679 88.704 648.661 86.976C649.663 85.2267 651.018 83.872 652.725 82.912C654.431 81.9307 656.319 81.44 658.389 81.44C660.479 81.44 662.378 81.9307 664.085 82.912C665.791 83.872 667.135 85.216 668.117 86.944C669.098 88.672 669.589 90.6347 669.589 92.832C669.589 95.0293 669.098 96.992 668.117 98.72C667.135 100.448 665.791 101.803 664.085 102.784C662.378 103.744 660.479 104.224 658.389 104.224ZM658.389 101.696C659.946 101.696 661.343 101.333 662.581 100.608C663.839 99.8827 664.821 98.848 665.525 97.504C666.25 96.16 666.613 94.6027 666.613 92.832C666.613 91.04 666.25 89.4827 665.525 88.16C664.821 86.816 663.85 85.7813 662.613 85.056C661.375 84.3307 659.967 83.968 658.389 83.968C656.81 83.968 655.402 84.3307 654.165 85.056C652.927 85.7813 651.946 86.816 651.221 88.16C650.517 89.4827 650.165 91.04 650.165 92.832C650.165 94.6027 650.517 96.16 651.221 97.504C651.946 98.848 652.927 99.8827 654.165 100.608C655.423 101.333 656.831 101.696 658.389 101.696ZM681.081 104.288C679.438 104.288 677.945 103.915 676.601 103.168C675.278 102.421 674.233 101.365 673.465 100C672.718 98.6133 672.345 97.0133 672.345 95.2C672.345 93.408 672.729 91.8293 673.497 90.464C674.286 89.0773 675.353 88.0213 676.697 87.296C678.041 86.5493 679.545 86.176 681.209 86.176C682.873 86.176 684.377 86.5493 685.721 87.296C687.065 88.0213 688.121 89.0667 688.889 90.432C689.678 91.7973 690.073 93.3867 690.073 95.2C690.073 97.0133 689.667 98.6133 688.857 100C688.067 101.365 686.99 102.421 685.625 103.168C684.259 103.915 682.745 104.288 681.081 104.288ZM681.081 101.728C682.126 101.728 683.107 101.483 684.025 100.992C684.942 100.501 685.678 99.7653 686.233 98.784C686.809 97.8027 687.097 96.608 687.097 95.2C687.097 93.792 686.819 92.5973 686.265 91.616C685.71 90.6347 684.985 89.9093 684.089 89.44C683.193 88.9493 682.222 88.704 681.177 88.704C680.11 88.704 679.129 88.9493 678.233 89.44C677.358 89.9093 676.654 90.6347 676.121 91.616C675.587 92.5973 675.321 93.792 675.321 95.2C675.321 96.6293 675.577 97.8347 676.089 98.816C676.622 99.7973 677.326 100.533 678.201 101.024C679.075 101.493 680.035 101.728 681.081 101.728ZM717.345 88.224C717.345 90.08 716.705 91.6267 715.425 92.864C714.166 94.08 712.235 94.688 709.633 94.688H705.345V104H702.433V81.696H709.633C712.15 81.696 714.059 82.304 715.361 83.52C716.683 84.736 717.345 86.304 717.345 88.224ZM709.633 92.288C711.254 92.288 712.449 91.936 713.217 91.232C713.985 90.528 714.369 89.5253 714.369 88.224C714.369 85.472 712.79 84.096 709.633 84.096H705.345V92.288H709.633ZM723.876 89.696C724.452 88.6933 725.305 87.8613 726.436 87.2C727.588 86.5173 728.921 86.176 730.436 86.176C731.993 86.176 733.401 86.5493 734.66 87.296C735.94 88.0427 736.943 89.0987 737.668 90.464C738.393 91.808 738.756 93.376 738.756 95.168C738.756 96.9387 738.393 98.5173 737.668 99.904C736.943 101.291 735.94 102.368 734.66 103.136C733.401 103.904 731.993 104.288 730.436 104.288C728.943 104.288 727.62 103.957 726.468 103.296C725.337 102.613 724.473 101.771 723.876 100.768V112.32H720.964V86.464H723.876V89.696ZM735.78 95.168C735.78 93.8453 735.513 92.6933 734.98 91.712C734.447 90.7307 733.721 89.984 732.804 89.472C731.908 88.96 730.916 88.704 729.828 88.704C728.761 88.704 727.769 88.9707 726.852 89.504C725.956 90.016 725.231 90.7733 724.676 91.776C724.143 92.7573 723.876 93.8987 723.876 95.2C723.876 96.5227 724.143 97.6853 724.676 98.688C725.231 99.6693 725.956 100.427 726.852 100.96C727.769 101.472 728.761 101.728 729.828 101.728C730.916 101.728 731.908 101.472 732.804 100.96C733.721 100.427 734.447 99.6693 734.98 98.688C735.513 97.6853 735.78 96.512 735.78 95.168ZM769.008 108.224L764.56 103.776C763.472 104.075 762.363 104.224 761.232 104.224C759.163 104.224 757.275 103.744 755.568 102.784C753.862 101.803 752.507 100.448 751.504 98.72C750.523 96.9707 750.032 95.008 750.032 92.832C750.032 90.656 750.523 88.704 751.504 86.976C752.507 85.2267 753.862 83.872 755.568 82.912C757.275 81.9307 759.163 81.44 761.232 81.44C763.323 81.44 765.222 81.9307 766.928 82.912C768.635 83.872 769.979 85.216 770.96 86.944C771.942 88.672 772.432 90.6347 772.432 92.832C772.432 94.9653 771.963 96.8853 771.024 98.592C770.086 100.299 768.795 101.643 767.152 102.624L772.784 108.224H769.008ZM753.008 92.832C753.008 94.6027 753.36 96.16 754.064 97.504C754.79 98.848 755.771 99.8827 757.008 100.608C758.267 101.333 759.675 101.696 761.232 101.696C762.79 101.696 764.187 101.333 765.424 100.608C766.683 99.8827 767.664 98.848 768.368 97.504C769.094 96.16 769.456 94.6027 769.456 92.832C769.456 91.04 769.094 89.4827 768.368 88.16C767.664 86.816 766.694 85.7813 765.456 85.056C764.219 84.3307 762.811 83.968 761.232 83.968C759.654 83.968 758.246 84.3307 757.008 85.056C755.771 85.7813 754.79 86.816 754.064 88.16C753.36 89.4827 753.008 91.04 753.008 92.832ZM775.251 95.168C775.251 93.376 775.614 91.808 776.339 90.464C777.064 89.0987 778.056 88.0427 779.315 87.296C780.595 86.5493 782.024 86.176 783.603 86.176C785.118 86.176 786.44 86.5173 787.571 87.2C788.723 87.8613 789.566 88.6827 790.099 89.664V86.464H793.043V112.32H790.099V100.768C789.544 101.749 788.691 102.581 787.539 103.264C786.387 103.947 785.043 104.288 783.507 104.288C781.971 104.288 780.574 103.904 779.315 103.136C778.056 102.368 777.064 101.291 776.339 99.904C775.614 98.5173 775.251 96.9387 775.251 95.168ZM790.099 95.2C790.099 93.8773 789.832 92.7253 789.299 91.744C788.766 90.7627 788.04 90.016 787.123 89.504C786.227 88.9707 785.235 88.704 784.147 88.704C783.059 88.704 782.067 88.96 781.171 89.472C780.275 89.984 779.56 90.7307 779.027 91.712C778.494 92.6933 778.227 93.8453 778.227 95.168C778.227 96.512 778.494 97.6853 779.027 98.688C779.56 99.6693 780.275 100.427 781.171 100.96C782.067 101.472 783.059 101.728 784.147 101.728C785.235 101.728 786.227 101.472 787.123 100.96C788.04 100.427 788.766 99.6693 789.299 98.688C789.832 97.6853 790.099 96.5227 790.099 95.2ZM818.239 104L812.927 94.88H809.407V104H806.495V81.696H813.695C815.381 81.696 816.799 81.984 817.951 82.56C819.125 83.136 819.999 83.9147 820.575 84.896C821.151 85.8773 821.439 86.9973 821.439 88.256C821.439 89.792 820.991 91.1467 820.095 92.32C819.221 93.4933 817.898 94.272 816.127 94.656L821.727 104H818.239ZM809.407 92.544H813.695C815.274 92.544 816.458 92.16 817.247 91.392C818.037 90.6027 818.431 89.5573 818.431 88.256C818.431 86.9333 818.037 85.9093 817.247 85.184C816.479 84.4587 815.295 84.096 813.695 84.096H809.407V92.544ZM828.876 89.312C829.388 88.3093 830.113 87.5307 831.052 86.976C832.012 86.4213 833.175 86.144 834.54 86.144V89.152H833.772C830.508 89.152 828.876 90.9227 828.876 94.464V104H825.964V86.464H828.876V89.312ZM9.536 152.224C8.064 152.224 6.74133 151.968 5.568 151.456C4.416 150.923 3.50933 150.197 2.848 149.28C2.18667 148.341 1.84533 147.264 1.824 146.048H4.928C5.03467 147.093 5.46133 147.979 6.208 148.704C6.976 149.408 8.08533 149.76 9.536 149.76C10.9227 149.76 12.0107 149.419 12.8 148.736C13.6107 148.032 14.016 147.136 14.016 146.048C14.016 145.195 13.7813 144.501 13.312 143.968C12.8427 143.435 12.256 143.029 11.552 142.752C10.848 142.475 9.89867 142.176 8.704 141.856C7.232 141.472 6.048 141.088 5.152 140.704C4.27733 140.32 3.52 139.723 2.88 138.912C2.26133 138.08 1.952 136.971 1.952 135.584C1.952 134.368 2.26133 133.291 2.88 132.352C3.49867 131.413 4.36267 130.688 5.472 130.176C6.60267 129.664 7.89333 129.408 9.344 129.408C11.4347 129.408 13.1413 129.931 14.464 130.976C15.808 132.021 16.5653 133.408 16.736 135.136H13.536C13.4293 134.283 12.9813 133.536 12.192 132.896C11.4027 132.235 10.3573 131.904 9.056 131.904C7.84 131.904 6.848 132.224 6.08 132.864C5.312 133.483 4.928 134.357 4.928 135.488C4.928 136.299 5.152 136.96 5.6 137.472C6.06933 137.984 6.63467 138.379 7.296 138.656C7.97867 138.912 8.928 139.211 10.144 139.552C11.616 139.957 12.8 140.363 13.696 140.768C14.592 141.152 15.36 141.76 16 142.592C16.64 143.403 16.96 144.512 16.96 145.92C16.96 147.008 16.672 148.032 16.096 148.992C15.52 149.952 14.6667 150.731 13.536 151.328C12.4053 151.925 11.072 152.224 9.536 152.224ZM27.4533 152.288C26.1093 152.288 24.9039 152.064 23.8373 151.616C22.7706 151.147 21.9279 150.507 21.3093 149.696C20.6906 148.864 20.3493 147.915 20.2853 146.848H23.2933C23.3786 147.723 23.7839 148.437 24.5093 148.992C25.2559 149.547 26.2266 149.824 27.4213 149.824C28.5306 149.824 29.4053 149.579 30.0453 149.088C30.6853 148.597 31.0053 147.979 31.0053 147.232C31.0053 146.464 30.6639 145.899 29.9813 145.536C29.2986 145.152 28.2426 144.779 26.8133 144.416C25.5119 144.075 24.4453 143.733 23.6133 143.392C22.8026 143.029 22.0986 142.507 21.5013 141.824C20.9253 141.12 20.6373 140.203 20.6373 139.072C20.6373 138.176 20.9039 137.355 21.4373 136.608C21.9706 135.861 22.7279 135.275 23.7093 134.848C24.6906 134.4 25.8106 134.176 27.0693 134.176C29.0106 134.176 30.5786 134.667 31.7733 135.648C32.9679 136.629 33.6079 137.973 33.6933 139.68H30.7813C30.7173 138.763 30.3439 138.027 29.6613 137.472C28.9999 136.917 28.1039 136.64 26.9733 136.64C25.9279 136.64 25.0959 136.864 24.4773 137.312C23.8586 137.76 23.5493 138.347 23.5493 139.072C23.5493 139.648 23.7306 140.128 24.0933 140.512C24.4773 140.875 24.9466 141.173 25.5013 141.408C26.0773 141.621 26.8666 141.867 27.8693 142.144C29.1279 142.485 30.1519 142.827 30.9413 143.168C31.7306 143.488 32.4026 143.979 32.9573 144.64C33.5333 145.301 33.8319 146.165 33.8533 147.232C33.8533 148.192 33.5866 149.056 33.0533 149.824C32.5199 150.592 31.7626 151.2 30.7813 151.648C29.8213 152.075 28.7119 152.288 27.4533 152.288ZM60.2233 129.696V132.064H54.1433V152H51.2313V132.064H45.1193V129.696H60.2233ZM67.3598 136.864V147.2C67.3598 148.053 67.5411 148.661 67.9038 149.024C68.2664 149.365 68.8958 149.536 69.7917 149.536H71.9358V152H69.3118C67.6904 152 66.4744 151.627 65.6638 150.88C64.8531 150.133 64.4478 148.907 64.4478 147.2V136.864H62.1758V134.464H64.4478V130.048H67.3598V134.464H71.9358V136.864H67.3598ZM86.8433 129.696V143.808C86.8433 145.792 87.3233 147.264 88.2833 148.224C89.2646 149.184 90.6193 149.664 92.3473 149.664C94.0539 149.664 95.3873 149.184 96.3473 148.224C97.3286 147.264 97.8193 145.792 97.8193 143.808V129.696H100.731V143.776C100.731 145.632 100.358 147.2 99.6112 148.48C98.8646 149.739 97.8513 150.677 96.5713 151.296C95.3126 151.915 93.8939 152.224 92.3153 152.224C90.7366 152.224 89.3073 151.915 88.0273 151.296C86.7686 150.677 85.7659 149.739 85.0193 148.48C84.2939 147.2 83.9313 145.632 83.9313 143.776V129.696H86.8433ZM121.141 134.464V152H118.229V149.408C117.674 150.304 116.896 151.008 115.893 151.52C114.912 152.011 113.824 152.256 112.629 152.256C111.264 152.256 110.037 151.979 108.949 151.424C107.861 150.848 106.997 149.995 106.357 148.864C105.738 147.733 105.429 146.357 105.429 144.736V134.464H108.309V144.352C108.309 146.08 108.746 147.413 109.621 148.352C110.496 149.269 111.69 149.728 113.205 149.728C114.762 149.728 115.989 149.248 116.885 148.288C117.781 147.328 118.229 145.931 118.229 144.096V134.464H121.141ZM153.021 129.696L144.605 152H141.245L132.829 129.696H135.933L142.941 148.928L149.949 129.696H153.021ZM162.742 149.312L168.182 134.464H171.286L164.406 152H161.014L154.134 134.464H157.27L162.742 149.312ZM210.715 129.696L204.251 152H200.987L195.803 134.048L190.427 152L187.195 152.032L180.955 129.696H184.059L188.923 148.608L194.299 129.696H197.563L202.683 148.544L207.579 129.696H210.715ZM237.262 134.464L231.79 152H228.782L224.558 138.08L220.334 152H217.326L211.822 134.464H214.798L218.83 149.184L223.182 134.464H226.158L230.414 149.216L234.382 134.464H237.262ZM257.803 140.864L264.651 152H261.355L256.011 143.296L250.923 152H247.691L254.507 140.864L247.659 129.696H250.923L256.299 138.432L261.419 129.696H264.683L257.803 140.864ZM277.71 152L273.55 145.472L269.55 152H266.51L272.174 143.296L266.51 134.464H269.806L273.966 140.96L277.934 134.464H280.974L275.342 143.136L281.006 152H277.71ZM308.017 129.696L300.754 143.584V152H297.842V143.584L290.546 129.696H293.778L299.282 140.992L304.786 129.696H308.017ZM326.193 134.464L315.633 160.256H312.625L316.081 151.808L309.009 134.464H312.241L317.745 148.672L323.185 134.464H326.193ZM340.116 149.472H350.996V152H336.66V149.696L347.476 132.224H336.788V129.696H350.932V132L340.116 149.472ZM357.14 149.6H365.748V152H353.812V149.6L362.324 136.832H353.876V134.464H365.684V136.832L357.14 149.6ZM377.578 140.192C377.578 136.523 378.175 133.664 379.37 131.616C380.564 129.547 382.655 128.512 385.642 128.512C388.607 128.512 390.687 129.547 391.882 131.616C393.076 133.664 393.674 136.523 393.674 140.192C393.674 143.925 393.076 146.827 391.882 148.896C390.687 150.965 388.607 152 385.642 152C382.655 152 380.564 150.965 379.37 148.896C378.175 146.827 377.578 143.925 377.578 140.192ZM390.794 140.192C390.794 138.336 390.666 136.768 390.41 135.488C390.175 134.187 389.674 133.141 388.906 132.352C388.159 131.563 387.071 131.168 385.642 131.168C384.191 131.168 383.082 131.563 382.314 132.352C381.567 133.141 381.066 134.187 380.81 135.488C380.575 136.768 380.458 138.336 380.458 140.192C380.458 142.112 380.575 143.723 380.81 145.024C381.066 146.325 381.567 147.371 382.314 148.16C383.082 148.949 384.191 149.344 385.642 149.344C387.071 149.344 388.159 148.949 388.906 148.16C389.674 147.371 390.175 146.325 390.41 145.024C390.666 143.723 390.794 142.112 390.794 140.192ZM405.435 131.52V128.864H411.451V152H408.507V131.52H405.435ZM424.632 149.664C427.341 147.488 429.464 145.707 431 144.32C432.536 142.912 433.827 141.451 434.872 139.936C435.939 138.4 436.472 136.896 436.472 135.424C436.472 134.037 436.131 132.949 435.448 132.16C434.787 131.349 433.709 130.944 432.216 130.944C430.765 130.944 429.635 131.403 428.824 132.32C428.035 133.216 427.608 134.421 427.544 135.936H424.728C424.813 133.547 425.539 131.701 426.904 130.4C428.269 129.099 430.029 128.448 432.184 128.448C434.381 128.448 436.12 129.056 437.4 130.272C438.701 131.488 439.352 133.163 439.352 135.296C439.352 137.067 438.819 138.795 437.752 140.48C436.707 142.144 435.512 143.616 434.168 144.896C432.824 146.155 431.107 147.627 429.016 149.312H440.024V151.744H424.632V149.664ZM451.858 134.688C452.007 132.725 452.764 131.189 454.13 130.08C455.495 128.971 457.266 128.416 459.442 128.416C460.892 128.416 462.14 128.683 463.186 129.216C464.252 129.728 465.052 130.432 465.586 131.328C466.14 132.224 466.418 133.237 466.418 134.368C466.418 135.691 466.034 136.832 465.266 137.792C464.519 138.752 463.538 139.371 462.322 139.648V139.808C463.708 140.149 464.807 140.821 465.618 141.824C466.428 142.827 466.833 144.139 466.833 145.76C466.833 146.976 466.556 148.075 466.002 149.056C465.447 150.016 464.615 150.773 463.506 151.328C462.396 151.883 461.063 152.16 459.506 152.16C457.244 152.16 455.388 151.573 453.938 150.4C452.487 149.205 451.676 147.52 451.506 145.344H454.322C454.471 146.624 454.994 147.669 455.89 148.48C456.786 149.291 457.98 149.696 459.474 149.696C460.967 149.696 462.098 149.312 462.866 148.544C463.655 147.755 464.05 146.741 464.05 145.504C464.05 143.904 463.516 142.752 462.45 142.048C461.383 141.344 459.772 140.992 457.618 140.992H456.882V138.56H457.65C459.612 138.539 461.095 138.219 462.098 137.6C463.1 136.96 463.602 135.979 463.602 134.656C463.602 133.525 463.228 132.619 462.482 131.936C461.756 131.253 460.711 130.912 459.345 130.912C458.023 130.912 456.956 131.253 456.146 131.936C455.335 132.619 454.855 133.536 454.706 134.688H451.858ZM478.593 146.848V144.64L489.825 129.088H493.312V144.32H496.513V146.848H493.312V152H490.433V146.848H478.593ZM490.561 132.128L481.953 144.32H490.561V132.128ZM522.705 131.392H511.473V138.688C511.963 138.005 512.689 137.451 513.649 137.024C514.609 136.576 515.643 136.352 516.753 136.352C518.523 136.352 519.963 136.725 521.073 137.472C522.182 138.197 522.971 139.147 523.441 140.32C523.931 141.472 524.177 142.699 524.177 144C524.177 145.536 523.889 146.912 523.313 148.128C522.737 149.344 521.851 150.304 520.657 151.008C519.483 151.712 518.022 152.064 516.273 152.064C514.033 152.064 512.219 151.488 510.833 150.336C509.446 149.184 508.603 147.648 508.305 145.728H511.153C511.43 146.944 512.017 147.893 512.913 148.576C513.809 149.259 514.939 149.6 516.305 149.6C517.99 149.6 519.259 149.099 520.113 148.096C520.966 147.072 521.393 145.728 521.393 144.064C521.393 142.4 520.966 141.12 520.113 140.224C519.259 139.307 518.001 138.848 516.337 138.848C515.206 138.848 514.214 139.125 513.361 139.68C512.529 140.213 511.921 140.949 511.537 141.888H508.785V128.832H522.705V131.392ZM549.474 134.368C549.004 132 547.543 130.816 545.09 130.816C543.191 130.816 541.772 131.552 540.834 133.024C539.895 134.475 539.436 136.875 539.458 140.224C539.948 139.115 540.759 138.251 541.89 137.632C543.042 136.992 544.322 136.672 545.73 136.672C547.927 136.672 549.676 137.355 550.978 138.72C552.3 140.085 552.962 141.973 552.962 144.384C552.962 145.835 552.674 147.136 552.098 148.288C551.543 149.44 550.69 150.357 549.538 151.04C548.407 151.723 547.031 152.064 545.41 152.064C543.212 152.064 541.495 151.573 540.258 150.592C539.02 149.611 538.156 148.256 537.666 146.528C537.175 144.8 536.93 142.667 536.93 140.128C536.93 132.299 539.66 128.384 545.122 128.384C547.212 128.384 548.855 128.949 550.05 130.08C551.244 131.211 551.948 132.64 552.162 134.368H549.474ZM545.122 139.136C544.204 139.136 543.34 139.328 542.53 139.712C541.719 140.075 541.058 140.64 540.546 141.408C540.055 142.155 539.81 143.072 539.81 144.16C539.81 145.781 540.279 147.104 541.218 148.128C542.156 149.131 543.5 149.632 545.25 149.632C546.743 149.632 547.927 149.173 548.802 148.256C549.698 147.317 550.146 146.059 550.146 144.48C550.146 142.816 549.719 141.515 548.866 140.576C548.012 139.616 546.764 139.136 545.122 139.136ZM579.662 131.136L570.766 152H567.822L576.846 131.424H564.493V128.928H579.662V131.136ZM595.646 139.968C594.451 139.499 593.534 138.816 592.894 137.92C592.254 137.024 591.934 135.936 591.934 134.656C591.934 133.504 592.222 132.469 592.798 131.552C593.374 130.613 594.227 129.877 595.358 129.344C596.51 128.789 597.896 128.512 599.518 128.512C601.139 128.512 602.515 128.789 603.646 129.344C604.798 129.877 605.662 130.613 606.238 131.552C606.835 132.469 607.134 133.504 607.134 134.656C607.134 135.893 606.803 136.981 606.142 137.92C605.48 138.837 604.574 139.52 603.422 139.968C604.744 140.373 605.79 141.088 606.558 142.112C607.347 143.115 607.742 144.331 607.742 145.76C607.742 147.147 607.4 148.363 606.718 149.408C606.035 150.432 605.064 151.232 603.806 151.808C602.568 152.363 601.139 152.64 599.518 152.64C597.896 152.64 596.467 152.363 595.23 151.808C594.014 151.232 593.064 150.432 592.382 149.408C591.699 148.363 591.358 147.147 591.358 145.76C591.358 144.331 591.742 143.104 592.51 142.08C593.277 141.056 594.323 140.352 595.646 139.968ZM604.318 135.008C604.318 133.707 603.891 132.704 603.038 132C602.184 131.296 601.011 130.944 599.518 130.944C598.046 130.944 596.883 131.296 596.03 132C595.176 132.704 594.75 133.717 594.75 135.04C594.75 136.235 595.187 137.195 596.062 137.92C596.958 138.645 598.11 139.008 599.518 139.008C600.947 139.008 602.099 138.645 602.974 137.92C603.87 137.173 604.318 136.203 604.318 135.008ZM599.518 141.248C597.939 141.248 596.648 141.621 595.646 142.368C594.643 143.093 594.141 144.192 594.141 145.664C594.141 147.029 594.622 148.128 595.582 148.96C596.563 149.792 597.875 150.208 599.518 150.208C601.16 150.208 602.462 149.792 603.422 148.96C604.382 148.128 604.862 147.029 604.862 145.664C604.862 144.235 604.371 143.147 603.39 142.4C602.408 141.632 601.118 141.248 599.518 141.248ZM623.884 145.792C624.098 147.008 624.588 147.947 625.356 148.608C626.146 149.269 627.202 149.6 628.524 149.6C630.295 149.6 631.596 148.907 632.428 147.52C633.282 146.133 633.687 143.797 633.644 140.512C633.196 141.472 632.45 142.229 631.404 142.784C630.359 143.317 629.196 143.584 627.916 143.584C626.487 143.584 625.207 143.296 624.076 142.72C622.967 142.123 622.092 141.259 621.452 140.128C620.812 138.997 620.492 137.632 620.492 136.032C620.492 133.749 621.154 131.915 622.476 130.528C623.799 129.12 625.676 128.416 628.108 128.416C631.095 128.416 633.186 129.387 634.38 131.328C635.596 133.269 636.204 136.16 636.204 140C636.204 142.688 635.959 144.907 635.468 146.656C634.999 148.405 634.188 149.739 633.036 150.656C631.906 151.573 630.348 152.032 628.364 152.032C626.188 152.032 624.492 151.445 623.276 150.272C622.06 149.099 621.367 147.605 621.196 145.792H623.884ZM628.396 141.12C629.826 141.12 630.999 140.683 631.916 139.808C632.834 138.912 633.292 137.707 633.292 136.192C633.292 134.592 632.844 133.301 631.948 132.32C631.052 131.339 629.794 130.848 628.172 130.848C626.679 130.848 625.484 131.317 624.588 132.256C623.714 133.195 623.276 134.432 623.276 135.968C623.276 137.525 623.714 138.773 624.588 139.712C625.463 140.651 626.732 141.12 628.396 141.12Z" fill="black"/>
</svg>
