<svg width="843" height="299" viewBox="0 0 843 299" fill="none" xmlns="http://www.w3.org/2000/svg">
<path d="M69.5301 103.5C69.5301 103.916 69.4521 104.275 69.2961 104.579C69.1401 104.882 68.9147 105.129 68.6201 105.32C68.3341 105.51 67.9961 105.645 67.6061 105.723V105.775C68.3514 105.861 68.9061 106.095 69.2701 106.477C69.6341 106.858 69.8161 107.356 69.8161 107.972C69.8161 108.509 69.6904 108.99 69.4391 109.415C69.1877 109.831 68.7977 110.156 68.2691 110.39C67.7491 110.624 67.0774 110.741 66.2541 110.741C65.7687 110.741 65.3181 110.702 64.9021 110.624C64.4861 110.554 64.0874 110.424 63.7061 110.234V109.168C64.0961 109.358 64.5164 109.51 64.9671 109.623C65.4177 109.727 65.8511 109.779 66.2671 109.779C67.0991 109.779 67.6971 109.618 68.0611 109.298C68.4337 108.968 68.6201 108.518 68.6201 107.946C68.6201 107.556 68.5161 107.244 68.3081 107.01C68.1087 106.767 67.8141 106.589 67.4241 106.477C67.0341 106.364 66.5661 106.308 66.0201 106.308H65.1231V105.333H66.0331C66.5444 105.333 66.9691 105.259 67.3071 105.112C67.6537 104.964 67.9137 104.761 68.0871 104.501C68.2691 104.232 68.3601 103.924 68.3601 103.578C68.3601 103.127 68.2084 102.78 67.9051 102.538C67.6017 102.286 67.1901 102.161 66.6701 102.161C66.3407 102.161 66.0417 102.195 65.7731 102.265C65.5044 102.325 65.2531 102.416 65.0191 102.538C64.7937 102.65 64.5641 102.785 64.3301 102.941L63.7581 102.161C63.9834 101.987 64.2391 101.827 64.5251 101.68C64.8197 101.532 65.1447 101.415 65.5001 101.329C65.8554 101.242 66.2411 101.199 66.6571 101.199C67.6277 101.199 68.3471 101.415 68.8151 101.849C69.2917 102.282 69.5301 102.832 69.5301 103.5Z" fill="#0F0F0F"/>
<path d="M62.4417 110.611H56.3057V109.662L58.7367 107.205C59.2047 106.737 59.599 106.321 59.9197 105.957C60.2403 105.593 60.483 105.237 60.6477 104.891C60.8123 104.535 60.8947 104.15 60.8947 103.734C60.8947 103.222 60.743 102.837 60.4397 102.577C60.1363 102.308 59.742 102.174 59.2567 102.174C58.806 102.174 58.4073 102.252 58.0607 102.408C57.7227 102.564 57.376 102.78 57.0207 103.058L56.4097 102.291C56.6523 102.083 56.9167 101.896 57.2027 101.732C57.4973 101.567 57.8137 101.437 58.1517 101.342C58.4983 101.246 58.8667 101.199 59.2567 101.199C59.8373 101.199 60.3357 101.298 60.7517 101.498C61.1677 101.697 61.4883 101.983 61.7137 102.356C61.9477 102.72 62.0647 103.157 62.0647 103.669C62.0647 104.033 62.0083 104.379 61.8957 104.709C61.783 105.029 61.6227 105.346 61.4147 105.658C61.2067 105.97 60.9553 106.286 60.6607 106.607C60.366 106.927 60.041 107.261 59.6857 107.608L57.7487 109.519V109.571H62.4417V110.611Z" fill="#0F0F0F"/>
<path d="M52.8572 110.611H51.7392V104.124C51.7392 103.872 51.7392 103.66 51.7392 103.487C51.7478 103.313 51.7565 103.153 51.7652 103.006C51.7738 102.85 51.7825 102.689 51.7912 102.525C51.6525 102.663 51.5268 102.78 51.4142 102.876C51.3015 102.971 51.1585 103.092 50.9852 103.24L49.9972 104.046L49.3992 103.279L51.9082 101.329H52.8572V110.611Z" fill="#0F0F0F"/>
<path d="M41.7257 106.23H41.7517C41.8817 106.23 41.9597 106.347 41.9987 106.581C41.9987 108.583 42.6227 109.571 43.8837 109.571C44.7287 109.571 45.8207 109.103 47.1727 108.167L48.2387 107.27C48.3037 107.244 48.3557 107.218 48.3817 107.218C48.4987 107.231 48.5507 107.283 48.5507 107.387C48.5507 107.491 48.2257 107.816 47.5627 108.349C46.6267 109.064 45.8727 109.519 45.3267 109.701C44.6637 109.987 44.0787 110.117 43.5587 110.117C42.5837 110.117 41.9077 109.545 41.5047 108.401C41.3487 107.985 41.2577 107.777 41.2317 107.777C41.1537 107.777 40.8157 108.024 40.1787 108.518C39.3727 109.077 38.6707 109.35 38.0857 109.35H38.0727C37.5787 109.35 37.2797 109.129 37.1497 108.687C37.1367 108.609 37.1367 108.557 37.1367 108.518V108.401C37.1367 107.842 37.4747 107.309 38.1507 106.789C38.6577 106.451 39.2427 106.282 39.9057 106.282H39.9317C40.3607 106.282 40.8157 106.373 41.3357 106.529V106.516C41.4787 106.321 41.6217 106.23 41.7257 106.23ZM37.6697 108.31C37.6697 108.583 37.8127 108.752 38.0987 108.804H38.1897C38.7487 108.804 39.5937 108.284 40.7247 107.27C40.7247 107.244 40.7637 107.205 40.8417 107.114C40.4387 107.023 40.0747 106.971 39.7367 106.971C38.7877 106.971 38.1247 107.309 37.7477 107.972C37.6957 108.128 37.6697 108.232 37.6697 108.31Z" fill="#0F0F0F"/>
<path d="M31.733 84H31.889C32.487 84 32.877 84.689 33.046 86.041C33.397 88.316 33.566 90.89 33.566 93.776C33.566 98.235 33.15 105.151 32.331 114.537C32.136 116.669 31.98 119.308 31.837 122.467C31.655 122.883 31.408 123.091 31.083 123.091H31.018C30.693 123.091 30.472 122.922 30.342 122.571C30.342 122.519 30.329 122.467 30.316 122.389C30.329 121.609 30.342 121.011 30.342 120.582C30.342 116.435 29.198 112.574 26.91 109.012C26.416 108.271 25.636 107.348 24.557 106.243C23.192 105.086 22.061 104.319 21.164 103.968C20.826 103.838 20.618 103.773 20.527 103.773C18.226 107.972 15.054 114.03 10.998 121.947C9.191 125.327 7.943 127.576 7.267 128.72C7.098 128.889 6.89 128.98 6.656 128.98C6.201 128.889 5.98 128.681 5.98 128.33V128.304C5.98 128.161 6.422 126.393 7.293 123.013C8.073 119.919 8.463 117.423 8.463 115.551V115.369C8.463 110.468 5.993 107.127 1.04 105.32C0.481 105.112 0.169001 104.943 0.0910005 104.8C0.0390005 104.67 0.0130005 104.553 0.0130005 104.436V104.332C0.0130005 103.877 0.494001 103.565 1.456 103.435C5.512 102.421 9.204 101.901 12.545 101.901C15.21 101.901 17.654 102.2 19.877 102.785V102.759C23.374 96.467 26.377 91.358 28.873 87.471C29.484 86.418 30.264 85.352 31.213 84.26C31.421 84.091 31.59 84 31.733 84ZM20.917 103.123C22.126 103.539 23.413 104.332 24.765 105.528C26.013 106.789 26.832 107.725 27.183 108.336C28.587 110.312 29.627 112.587 30.316 115.161C30.784 117.124 31.018 118.853 31.018 120.348H31.044C32.006 108.414 32.487 99.535 32.487 93.698V92.06C32.487 89.018 32.292 86.886 31.889 85.664C31.85 85.625 31.824 85.612 31.811 85.612H31.707C31.551 85.716 31.252 86.106 30.836 86.743C27.183 92.32 23.881 97.78 20.917 103.123ZM1.3 104.566V104.592C2.171 104.943 3.068 105.411 3.991 105.983C4.628 106.347 5.46 107.036 6.474 108.076C8.268 110.052 9.152 112.821 9.152 116.37C9.152 118.918 8.71 122.025 7.813 125.704C7.878 125.652 8.372 124.742 9.282 122.987C14.001 113.913 17.212 107.803 18.902 104.644C19.344 103.851 19.565 103.448 19.565 103.435C17.537 102.928 15.483 102.681 13.416 102.681H12.961C9.529 102.681 5.642 103.305 1.3 104.566Z" fill="#0F0F0F"/>
<path d="M528.38 94C530.948 94 532.952 94.636 534.392 95.908C535.856 97.18 536.588 98.764 536.588 100.66C536.588 103.54 535.088 105.436 532.088 106.348C533.768 106.636 535.052 107.356 535.94 108.508C536.852 109.66 537.308 111.064 537.308 112.72C537.308 114.904 536.528 116.656 534.968 117.976C533.408 119.272 531.308 119.92 528.668 119.92C525.356 119.92 522.476 118.72 520.028 116.32C519.884 116.176 519.812 116.056 519.812 115.96C519.812 115.864 519.86 115.768 519.956 115.672C520.268 115.36 520.544 115.324 520.784 115.564C521.816 116.644 523.016 117.46 524.384 118.012C525.776 118.564 527.204 118.84 528.668 118.84C531.044 118.84 532.892 118.3 534.212 117.22C535.556 116.116 536.228 114.64 536.228 112.792C536.228 110.944 535.664 109.516 534.536 108.508C533.408 107.476 531.932 106.96 530.108 106.96H526.328C525.968 106.96 525.788 106.78 525.788 106.42C525.788 106.06 525.968 105.88 526.328 105.88H529.388C531.26 105.88 532.748 105.4 533.852 104.44C534.956 103.48 535.508 102.196 535.508 100.588C535.508 98.98 534.86 97.66 533.564 96.628C532.268 95.596 530.54 95.08 528.38 95.08C527.012 95.08 525.704 95.368 524.456 95.944C523.232 96.496 522.152 97.18 521.216 97.996C520.952 98.236 520.688 98.236 520.424 97.996C520.184 97.732 520.196 97.48 520.46 97.24C521.516 96.328 522.68 95.56 523.952 94.936C525.248 94.312 526.724 94 528.38 94Z" fill="#0F0F0F"/>
<path d="M507.258 94C509.802 94 511.818 94.684 513.306 96.052C514.794 97.42 515.538 98.944 515.538 100.624C515.538 102.304 514.986 103.768 513.882 105.016C512.802 106.264 511.482 107.344 509.922 108.256L505.314 110.776C503.778 111.592 502.458 112.54 501.354 113.62C500.25 114.676 499.698 115.816 499.698 117.04V117.94C499.698 118.3 499.878 118.48 500.238 118.48H513.918C514.278 118.48 514.458 118.3 514.458 117.94V113.98C514.458 113.62 514.638 113.44 514.998 113.44C515.358 113.44 515.538 113.62 515.538 113.98V119.02C515.538 119.38 515.358 119.56 514.998 119.56H499.158C498.798 119.56 498.618 119.38 498.618 119.02V117.04C498.618 115.12 499.77 113.272 502.074 111.496C502.746 110.968 503.466 110.5 504.234 110.092L508.842 107.536C510.378 106.72 511.698 105.748 512.802 104.62C513.906 103.468 514.458 102.172 514.458 100.732C514.458 99.268 513.81 97.96 512.514 96.808C511.218 95.656 509.466 95.08 507.258 95.08C505.794 95.08 504.366 95.356 502.974 95.908C501.606 96.46 500.406 97.276 499.374 98.356C499.11 98.62 498.882 98.656 498.69 98.464C498.498 98.272 498.402 98.116 498.402 97.996C498.402 97.876 498.474 97.744 498.618 97.6C501.066 95.2 503.946 94 507.258 94Z" fill="#0F0F0F"/>
<path d="M485.92 99.5799C485.656 99.8439 485.428 99.8679 485.236 99.6519C485.044 99.4359 484.948 99.2679 484.948 99.1479C484.948 99.0039 485.032 98.8719 485.2 98.7519L489.808 94.8999C490.312 94.5399 490.636 94.3599 490.78 94.3599C491.26 94.3599 491.5 94.5399 491.5 94.8999V117.94C491.5 118.3 491.68 118.48 492.04 118.48H494.56C494.92 118.48 495.1 118.66 495.1 119.02C495.1 119.38 494.92 119.56 494.56 119.56H487.36C487 119.56 486.82 119.38 486.82 119.02C486.82 118.66 487 118.48 487.36 118.48H489.88C490.24 118.48 490.42 118.3 490.42 117.94V96.1599C490.42 95.9199 490.252 95.9199 489.916 96.1599L485.92 99.5799Z" fill="#0F0F0F"/>
<path d="M478.567 110.74C478.567 110.38 478.387 110.2 478.027 110.2H472.087C469.999 110.2 468.451 110.608 467.443 111.424C466.459 112.24 465.967 113.284 465.967 114.556C465.967 115.804 466.423 116.836 467.335 117.652C468.271 118.444 469.675 118.84 471.547 118.84C473.875 118.84 475.927 117.664 477.703 115.312C478.015 114.904 478.303 114.46 478.567 113.98V110.74ZM472.951 101.2C474.967 101.2 476.587 101.776 477.811 102.928C479.035 104.056 479.647 105.46 479.647 107.14V117.94C479.647 118.3 479.827 118.48 480.187 118.48H482.707C483.067 118.48 483.247 118.66 483.247 119.02C483.247 119.38 483.067 119.56 482.707 119.56H479.107C478.747 119.56 478.567 119.38 478.567 119.02V117.004C478.567 116.764 478.519 116.596 478.423 116.5C478.327 116.404 478.183 116.452 477.991 116.644C477.343 117.46 476.443 118.216 475.291 118.912C474.139 119.584 472.939 119.92 471.691 119.92C469.459 119.92 467.767 119.428 466.615 118.444C465.463 117.436 464.887 116.14 464.887 114.556C464.887 112.972 465.547 111.676 466.867 110.668C468.187 109.636 469.927 109.12 472.087 109.12H478.027C478.387 109.12 478.567 108.94 478.567 108.58V107.14C478.567 105.748 478.039 104.596 476.983 103.684C475.927 102.748 474.631 102.28 473.095 102.28C471.559 102.28 470.299 102.496 469.315 102.928C468.331 103.336 467.635 103.696 467.227 104.008C466.843 104.32 466.543 104.332 466.327 104.044C466.135 103.756 466.171 103.516 466.435 103.324C468.163 101.908 470.335 101.2 472.951 101.2Z" fill="#0F0F0F"/>
<path d="M450.608 96.34C450.56 96.196 450.488 96.124 450.392 96.124C450.296 96.124 450.224 96.196 450.176 96.34L445.244 109.156C445.052 109.516 445.184 109.696 445.64 109.696H455.144C455.576 109.696 455.708 109.516 455.54 109.156L450.608 96.34ZM456.368 111.28C456.224 110.944 455.936 110.776 455.504 110.776H445.28C444.848 110.776 444.56 110.944 444.416 111.28L441.86 117.94C441.668 118.3 441.788 118.48 442.22 118.48H444.38C444.74 118.48 444.92 118.66 444.92 119.02C444.92 119.38 444.74 119.56 444.38 119.56H437.54C437.18 119.56 437 119.38 437 119.02C437 118.66 437.18 118.48 437.54 118.48H439.88C440.168 118.48 440.408 118.3 440.6 117.94L449.6 94.54C449.696 94.18 449.96 94 450.392 94C450.824 94 451.088 94.18 451.184 94.54L460.184 117.94C460.352 118.3 460.592 118.48 460.904 118.48H463.244C463.604 118.48 463.784 118.66 463.784 119.02C463.784 119.38 463.604 119.56 463.244 119.56H456.404C456.044 119.56 455.864 119.38 455.864 119.02C455.864 118.66 456.044 118.48 456.404 118.48H458.564C458.972 118.48 459.092 118.3 458.924 117.94L456.368 111.28Z" fill="#0F0F0F"/>
<path d="M90.7515 281.124C90.8715 281.148 90.9795 281.16 91.0755 281.16C91.1955 281.16 91.3155 281.16 91.4355 281.16H92.0835C92.7315 281.16 93.3435 281.076 93.9195 280.908C94.5195 280.716 95.0355 280.452 95.4675 280.116C95.9235 279.756 96.2835 279.312 96.5475 278.784C96.8115 278.256 96.9435 277.656 96.9435 276.984C96.9435 275.616 96.5115 274.596 95.6475 273.924C94.7835 273.228 93.7035 272.88 92.4075 272.88C91.5915 272.88 90.8715 273.036 90.2475 273.348C89.6475 273.636 89.1435 274.032 88.7355 274.536C88.3515 275.04 88.0635 275.628 87.8715 276.3C87.6795 276.972 87.5835 277.68 87.5835 278.424H84.5235C84.5715 277.2 84.7635 276.084 85.0995 275.076C85.4595 274.068 85.9635 273.204 86.6115 272.484C87.2595 271.764 88.0635 271.2 89.0235 270.792C90.0075 270.384 91.1355 270.18 92.4075 270.18C93.5115 270.18 94.5315 270.324 95.4675 270.612C96.4275 270.876 97.2555 271.284 97.9515 271.836C98.6475 272.388 99.1875 273.096 99.5715 273.96C99.9795 274.824 100.183 275.844 100.183 277.02C100.183 278.172 99.8475 279.192 99.1755 280.08C98.5035 280.968 97.6635 281.64 96.6555 282.096V282.168C98.2155 282.504 99.3675 283.236 100.111 284.364C100.88 285.492 101.264 286.824 101.264 288.36C101.264 289.632 101.024 290.76 100.543 291.744C100.087 292.704 99.4635 293.508 98.6715 294.156C97.8795 294.804 96.9435 295.296 95.8635 295.632C94.8075 295.944 93.6795 296.1 92.4795 296.1C91.1835 296.1 90.0075 295.92 88.9515 295.56C87.8955 295.2 86.9955 294.672 86.2515 293.976C85.5075 293.256 84.9315 292.38 84.5235 291.348C84.1395 290.316 83.9595 289.14 83.9835 287.82H87.0435C87.0915 289.476 87.5715 290.832 88.4835 291.888C89.3955 292.92 90.7275 293.436 92.4795 293.436C93.2235 293.436 93.9315 293.328 94.6035 293.112C95.2755 292.872 95.8635 292.548 96.3675 292.14C96.8715 291.708 97.2675 291.192 97.5555 290.592C97.8675 289.968 98.0235 289.272 98.0235 288.504C98.0235 287.712 97.8795 287.016 97.5915 286.416C97.3035 285.792 96.9195 285.276 96.4395 284.868C95.9595 284.436 95.3835 284.124 94.7115 283.932C94.0635 283.716 93.3555 283.608 92.5875 283.608C91.9395 283.608 91.3275 283.644 90.7515 283.716V281.124Z" fill="#0F0F0F"/>
<path d="M64.4836 279.216C64.4116 277.92 64.5436 276.72 64.8796 275.616C65.2156 274.512 65.7316 273.564 66.4276 272.772C67.1476 271.956 68.0356 271.32 69.0916 270.864C70.1476 270.408 71.3476 270.18 72.6916 270.18C73.7956 270.18 74.8276 270.348 75.7876 270.684C76.7716 270.996 77.6236 271.464 78.3436 272.088C79.0636 272.688 79.6276 273.444 80.0356 274.356C80.4676 275.268 80.6836 276.324 80.6836 277.524C80.6836 278.652 80.5036 279.648 80.1436 280.512C79.8076 281.376 79.3516 282.156 78.7756 282.852C78.1996 283.524 77.5396 284.136 76.7956 284.688C76.0516 285.24 75.2836 285.768 74.4916 286.272C73.6996 286.752 72.9076 287.232 72.1156 287.712C71.3236 288.168 70.5916 288.66 69.9196 289.188C69.2716 289.716 68.7076 290.292 68.2276 290.916C67.7716 291.516 67.4716 292.212 67.3276 293.004H80.4316V295.704H63.7636C63.8836 294.192 64.1476 292.908 64.5556 291.852C64.9876 290.772 65.5276 289.836 66.1756 289.044C66.8236 288.252 67.5556 287.556 68.3716 286.956C69.1876 286.356 70.0396 285.792 70.9276 285.264C72.0076 284.592 72.9556 283.98 73.7716 283.428C74.5876 282.852 75.2596 282.276 75.7876 281.7C76.3396 281.124 76.7476 280.5 77.0116 279.828C77.2996 279.156 77.4436 278.376 77.4436 277.488C77.4436 276.792 77.3116 276.168 77.0476 275.616C76.7836 275.04 76.4236 274.548 75.9676 274.14C75.5356 273.732 75.0196 273.42 74.4196 273.204C73.8196 272.988 73.1836 272.88 72.5116 272.88C71.6236 272.88 70.8556 273.072 70.2076 273.456C69.5836 273.816 69.0676 274.296 68.6596 274.896C68.2516 275.496 67.9516 276.18 67.7596 276.948C67.5916 277.692 67.5196 278.448 67.5436 279.216H64.4836Z" fill="#0F0F0F"/>
<path d="M55.7117 295.704H52.6517V277.416H46.0277V274.968C46.8917 274.968 47.7317 274.908 48.5477 274.788C49.3637 274.644 50.0957 274.392 50.7437 274.032C51.4157 273.672 51.9797 273.18 52.4357 272.556C52.8917 271.932 53.2037 271.14 53.3717 270.18H55.7117V295.704Z" fill="#0F0F0F"/>
<path d="M42.3517 295.632C41.8237 295.944 41.0917 296.1 40.1557 296.1C39.3637 296.1 38.7277 295.884 38.2477 295.452C37.7917 294.996 37.5637 294.264 37.5637 293.256C36.7237 294.264 35.7397 294.996 34.6117 295.452C33.5077 295.884 32.3077 296.1 31.0117 296.1C30.1717 296.1 29.3677 296.004 28.5997 295.812C27.8557 295.62 27.2077 295.32 26.6557 294.912C26.1037 294.504 25.6597 293.976 25.3237 293.328C25.0117 292.656 24.8557 291.852 24.8557 290.916C24.8557 289.86 25.0357 288.996 25.3957 288.324C25.7557 287.652 26.2237 287.112 26.7997 286.704C27.3997 286.272 28.0717 285.948 28.8157 285.732C29.5837 285.516 30.3637 285.336 31.1557 285.192C31.9957 285.024 32.7877 284.904 33.5317 284.832C34.2997 284.736 34.9717 284.616 35.5477 284.472C36.1237 284.304 36.5797 284.076 36.9157 283.788C37.2517 283.476 37.4197 283.032 37.4197 282.456C37.4197 281.784 37.2877 281.244 37.0237 280.836C36.7837 280.428 36.4597 280.116 36.0517 279.9C35.6677 279.684 35.2237 279.54 34.7197 279.468C34.2397 279.396 33.7597 279.36 33.2797 279.36C31.9837 279.36 30.9037 279.612 30.0397 280.116C29.1757 280.596 28.7077 281.52 28.6357 282.888H25.5757C25.6237 281.736 25.8637 280.764 26.2957 279.972C26.7277 279.18 27.3037 278.544 28.0237 278.064C28.7437 277.56 29.5597 277.2 30.4717 276.984C31.4077 276.768 32.4037 276.66 33.4597 276.66C34.2997 276.66 35.1277 276.72 35.9437 276.84C36.7837 276.96 37.5397 277.212 38.2117 277.596C38.8837 277.956 39.4237 278.472 39.8317 279.144C40.2397 279.816 40.4437 280.692 40.4437 281.772V291.348C40.4437 292.068 40.4797 292.596 40.5517 292.932C40.6477 293.268 40.9357 293.436 41.4157 293.436C41.6797 293.436 41.9917 293.376 42.3517 293.256V295.632ZM37.3837 286.092C36.9997 286.38 36.4957 286.596 35.8717 286.74C35.2477 286.86 34.5877 286.968 33.8917 287.064C33.2197 287.136 32.5357 287.232 31.8397 287.352C31.1437 287.448 30.5197 287.616 29.9677 287.856C29.4157 288.096 28.9597 288.444 28.5997 288.9C28.2637 289.332 28.0957 289.932 28.0957 290.7C28.0957 291.204 28.1917 291.636 28.3837 291.996C28.5997 292.332 28.8637 292.608 29.1757 292.824C29.5117 293.04 29.8957 293.196 30.3277 293.292C30.7597 293.388 31.2157 293.436 31.6957 293.436C32.7037 293.436 33.5677 293.304 34.2877 293.04C35.0077 292.752 35.5957 292.404 36.0517 291.996C36.5077 291.564 36.8437 291.108 37.0597 290.628C37.2757 290.124 37.3837 289.656 37.3837 289.224V286.092Z" fill="#0F0F0F"/>
<path d="M7.452 285.084H16.164L11.88 273.096H11.808L7.452 285.084ZM10.008 270H13.788L23.832 295.704H20.052L17.244 287.964H6.372L3.492 295.704H0L10.008 270Z" fill="#0F0F0F"/>
<path d="M516.58 273.624C517.588 273.624 518.476 273.792 519.244 274.128C520.036 274.44 520.648 274.908 521.08 275.532C521.536 276.132 521.764 276.864 521.764 277.728C521.764 278.664 521.5 279.528 520.972 280.32C520.468 281.088 519.808 281.76 518.992 282.336C518.176 282.888 517.312 283.332 516.4 283.668C517.528 283.692 518.596 283.908 519.604 284.316C520.612 284.7 521.44 285.288 522.088 286.08C522.736 286.872 523.06 287.892 523.06 289.14C523.06 290.244 522.796 291.264 522.268 292.2C521.764 293.112 521.056 293.928 520.144 294.648C519.256 295.392 518.236 296.016 517.084 296.52C515.932 297.048 514.72 297.444 513.448 297.708C512.2 297.972 510.964 298.104 509.74 298.104V297.456C510.964 297.432 512.164 297.228 513.34 296.844C514.516 296.484 515.572 295.956 516.508 295.26C517.468 294.564 518.224 293.7 518.776 292.668C519.352 291.636 519.64 290.46 519.64 289.14C519.64 287.724 519.292 286.56 518.596 285.648C517.924 284.712 517 284.196 515.824 284.1C515.464 284.244 515.14 284.376 514.852 284.496C514.588 284.592 514.348 284.64 514.132 284.64C513.94 284.64 513.796 284.604 513.7 284.532C513.604 284.436 513.556 284.316 513.556 284.172C513.556 283.956 513.652 283.788 513.844 283.668C514.036 283.548 514.252 283.488 514.492 283.488C514.684 283.488 514.876 283.512 515.068 283.56C515.284 283.584 515.512 283.608 515.752 283.632C516.736 282.888 517.444 282.072 517.876 281.184C518.308 280.272 518.524 279.36 518.524 278.448C518.524 277.32 518.236 276.504 517.66 276C517.108 275.472 516.352 275.208 515.392 275.208C514.408 275.208 513.496 275.472 512.656 276C511.84 276.528 511.156 277.332 510.604 278.412L509.992 278.124C510.352 277.332 510.82 276.6 511.396 275.928C511.972 275.232 512.68 274.68 513.52 274.272C514.384 273.84 515.404 273.624 516.58 273.624Z" fill="#0F0F0F"/>
<path d="M499.966 273.624C501.622 273.624 502.93 274.02 503.89 274.812C504.874 275.58 505.366 276.696 505.366 278.16C505.366 279.12 505.138 280.032 504.682 280.896C504.25 281.736 503.674 282.552 502.954 283.344C502.234 284.112 501.466 284.868 500.65 285.612C499.834 286.332 499.042 287.052 498.274 287.772C497.506 288.468 496.858 289.176 496.33 289.896H503.638C504.622 289.896 505.246 289.764 505.51 289.5C505.774 289.212 505.954 288.732 506.05 288.06H506.662C506.662 289.332 506.674 290.316 506.698 291.012C506.722 291.684 506.758 292.296 506.806 292.848C506.59 292.8 506.194 292.764 505.618 292.74C505.042 292.716 504.382 292.692 503.638 292.668C502.894 292.668 502.162 292.668 501.442 292.668H493.018V292.056C493.738 291.264 494.602 290.424 495.61 289.536C496.618 288.624 497.59 287.64 498.526 286.584C499.486 285.504 500.278 284.34 500.902 283.092C501.55 281.82 501.874 280.44 501.874 278.952C501.874 277.584 501.55 276.6 500.902 276C500.278 275.376 499.402 275.064 498.274 275.064C497.314 275.064 496.426 275.352 495.61 275.928C494.794 276.48 494.074 277.32 493.45 278.448L492.874 278.124C493.234 277.356 493.714 276.636 494.314 275.964C494.938 275.268 495.706 274.704 496.618 274.272C497.554 273.84 498.67 273.624 499.966 273.624Z" fill="#0F0F0F"/>
<path d="M486.966 273.732V288.96C486.966 290.112 487.23 290.892 487.758 291.3C488.286 291.708 489.174 291.912 490.422 291.912V292.668C489.942 292.644 489.234 292.62 488.298 292.596C487.386 292.548 486.438 292.524 485.454 292.524C484.35 292.524 483.282 292.548 482.25 292.596C481.242 292.62 480.462 292.644 479.91 292.668V291.912C481.11 291.912 482.046 291.72 482.718 291.336C483.39 290.928 483.726 290.136 483.726 288.96V280.248C483.726 279.096 483.606 278.244 483.366 277.692C483.126 277.14 482.694 276.78 482.07 276.612C481.47 276.444 480.63 276.36 479.55 276.36V275.568C481.278 275.52 482.718 275.364 483.87 275.1C485.022 274.836 486.054 274.38 486.966 273.732Z" fill="#0F0F0F"/>
<path d="M466.084 292.92C465.1 292.92 464.248 292.74 463.528 292.38C462.808 291.996 462.256 291.468 461.872 290.796C461.512 290.124 461.332 289.344 461.332 288.456C461.332 287.4 461.572 286.536 462.052 285.864C462.556 285.192 463.192 284.652 463.96 284.244C464.728 283.836 465.532 283.5 466.372 283.236C467.236 282.948 468.052 282.684 468.82 282.444C469.588 282.18 470.212 281.88 470.692 281.544C471.196 281.208 471.448 280.764 471.448 280.212V277.98C471.448 276.972 471.292 276.204 470.98 275.676C470.692 275.148 470.296 274.8 469.792 274.632C469.288 274.44 468.724 274.344 468.1 274.344C467.5 274.344 466.852 274.428 466.156 274.596C465.484 274.764 464.944 275.112 464.536 275.64C464.992 275.736 465.388 275.976 465.724 276.36C466.06 276.744 466.228 277.236 466.228 277.836C466.228 278.436 466.036 278.916 465.652 279.276C465.268 279.612 464.776 279.78 464.176 279.78C463.48 279.78 462.964 279.564 462.628 279.132C462.316 278.676 462.16 278.172 462.16 277.62C462.16 276.996 462.316 276.492 462.628 276.108C462.94 275.724 463.336 275.364 463.816 275.028C464.368 274.644 465.076 274.32 465.94 274.056C466.828 273.768 467.824 273.624 468.928 273.624C469.912 273.624 470.752 273.744 471.448 273.984C472.144 274.2 472.72 274.524 473.176 274.956C473.8 275.532 474.208 276.24 474.4 277.08C474.592 277.896 474.688 278.88 474.688 280.032V290.04C474.688 290.64 474.772 291.072 474.94 291.336C475.132 291.6 475.42 291.732 475.804 291.732C476.068 291.732 476.32 291.672 476.56 291.552C476.8 291.432 477.088 291.24 477.424 290.976L477.82 291.588C477.316 291.972 476.836 292.296 476.38 292.56C475.924 292.8 475.312 292.92 474.544 292.92C473.848 292.92 473.272 292.8 472.816 292.56C472.36 292.32 472.012 291.972 471.772 291.516C471.556 291.036 471.448 290.436 471.448 289.716C470.8 290.796 470.02 291.6 469.108 292.128C468.22 292.656 467.212 292.92 466.084 292.92ZM467.38 291.48C468.172 291.48 468.904 291.252 469.576 290.796C470.272 290.34 470.896 289.656 471.448 288.744V281.688C471.16 282.096 470.74 282.444 470.188 282.732C469.636 282.996 469.036 283.272 468.388 283.56C467.74 283.824 467.116 284.148 466.516 284.532C465.94 284.892 465.46 285.372 465.076 285.972C464.692 286.572 464.5 287.352 464.5 288.312C464.5 289.272 464.752 290.04 465.256 290.616C465.784 291.192 466.492 291.48 467.38 291.48Z" fill="#0F0F0F"/>
<path d="M448.88 267L457.664 289.644C458.024 290.556 458.432 291.168 458.888 291.48C459.344 291.768 459.764 291.924 460.148 291.948V292.668C459.668 292.62 459.08 292.596 458.384 292.596C457.688 292.572 456.992 292.56 456.296 292.56C455.36 292.56 454.484 292.572 453.668 292.596C452.852 292.596 452.192 292.62 451.688 292.668V291.948C452.912 291.9 453.692 291.696 454.028 291.336C454.364 290.952 454.292 290.148 453.812 288.924L447.116 271.032L447.692 270.564L441.428 286.836C441.044 287.796 440.816 288.612 440.744 289.284C440.672 289.932 440.732 290.448 440.924 290.832C441.14 291.216 441.488 291.492 441.968 291.66C442.472 291.828 443.096 291.924 443.84 291.948V292.668C443.168 292.62 442.46 292.596 441.716 292.596C440.996 292.572 440.324 292.56 439.7 292.56C439.1 292.56 438.584 292.572 438.152 292.596C437.744 292.596 437.36 292.62 437 292.668V291.948C437.48 291.828 437.972 291.552 438.476 291.12C438.98 290.664 439.436 289.896 439.844 288.816L448.304 267C448.4 267 448.496 267 448.592 267C448.688 267 448.784 267 448.88 267ZM453.272 282.3V283.02H442.544L442.904 282.3H453.272Z" fill="#0F0F0F"/>
<path d="M204.632 33.5278C205.616 33.5278 206.12 33.7678 206.12 34.2718V34.4398C206.12 34.7518 205.88 34.9438 205.424 35.0398C205.016 34.9678 204.728 34.9198 204.536 34.9198C203.696 34.9198 203.144 35.3998 202.832 36.3118C202.736 36.6478 202.688 36.9358 202.688 37.1998V37.4638C202.688 38.8558 203.792 40.2958 206 41.8078C207.296 42.7438 208.208 43.4878 208.76 44.0398C208.784 44.0398 208.88 44.1358 209.024 44.3038C213.584 41.9038 217.616 40.0318 221.168 38.6398C223.016 37.9678 224.096 37.6078 224.408 37.6078C224.624 37.6798 224.744 37.7518 224.744 37.8238C224.744 38.0398 224.192 38.3038 223.136 38.5678C221.168 39.2638 219.08 40.1518 216.872 41.1838C214.976 42.0238 211.256 43.9198 209.456 44.9758C210.896 47.0878 211.616 49.1758 211.616 51.2398C211.616 53.7118 210.488 55.7998 208.208 57.4798C206.744 58.4398 205.208 58.8958 203.624 58.8958C202.016 58.8958 200.672 58.3678 199.592 57.2878C198.944 56.5438 198.632 55.7038 198.632 54.7918V54.6718C198.632 52.0798 200.672 49.4158 204.728 46.6798C205.88 45.9358 206.936 45.3598 207.848 44.9278C206.888 43.9918 205.712 43.0798 204.296 42.1438C202.28 40.6798 201.248 39.1438 201.248 37.4878C201.248 35.5918 201.992 34.3438 203.456 33.7198C203.84 33.5758 204.224 33.5278 204.632 33.5278ZM199.328 54.5518C199.328 56.2078 200.216 57.3838 202.016 58.0558C202.352 58.1518 202.952 58.2238 203.792 58.2718C206.888 57.9118 209 56.3518 210.152 53.8558C210.416 52.9678 210.536 52.1038 210.536 51.2638C210.536 49.0798 209.792 47.1838 208.304 45.5518H208.28C206.912 46.1278 205.544 46.8718 204.104 48.0238C201.2 50.1598 199.328 52.3438 199.328 54.5518Z" fill="#0F0F0F"/>
<path d="M180.778 27.2158H180.898C181.186 27.2158 181.354 27.4318 181.402 27.8878C181.402 28.4878 180.994 29.2798 180.202 30.2398C178.858 32.0878 177.514 34.1758 176.146 36.5518C174.73 39.1438 174.01 40.9918 174.01 42.0718C174.01 42.5278 174.202 42.7918 174.538 42.8638H174.778C175.954 42.8638 178.282 41.0158 181.762 37.3438C183.658 35.3998 185.098 34.4158 186.082 34.4158H186.106C186.778 34.4158 187.45 34.8478 188.146 35.7118L190.018 37.8238C191.17 38.9998 192.73 39.5758 194.65 39.5758C196.498 39.5758 198.85 39.0238 201.73 37.8958L201.946 37.8718C201.994 37.8718 202.066 37.9438 202.138 38.0878V38.2078C202.138 38.3998 201.778 38.6158 201.01 38.8318C198.298 39.7918 196.09 40.2958 194.362 40.2958H193.93C191.674 40.2958 189.874 39.5038 188.578 37.9678C188.578 37.9678 188.146 37.4878 187.306 36.5278C186.778 36.0958 186.274 35.8798 185.794 35.8798C185.002 35.8798 183.826 36.5758 182.29 37.9678L177.562 42.2638C176.002 43.5838 174.874 44.2318 174.154 44.2318C173.554 44.2318 173.146 43.8478 172.906 43.1038C172.81 42.8158 172.762 42.5278 172.762 42.2638V41.9758C172.882 40.0078 174.154 36.9358 176.578 32.8078C176.986 32.1598 177.586 31.2958 178.33 30.2398C178.402 30.0958 178.426 29.9998 178.426 29.9518V29.9278C178.402 29.9278 178.378 29.9278 178.378 29.9038C178.186 29.9038 177.058 30.8398 175.018 32.7358C171.346 35.8798 168.658 38.0158 166.954 39.1438C163.21 41.8078 160.474 43.1278 158.77 43.1278C157.906 43.1278 157.33 42.7198 157.042 41.9278C156.946 41.5678 156.898 41.2078 156.898 40.8478C156.898 39.6478 157.282 38.0398 158.026 36.0478C158.29 35.7358 158.554 35.5678 158.794 35.5678H158.962C159.394 35.5678 159.682 35.8078 159.826 36.2878V36.4558C159.826 36.6238 159.586 37.2238 159.13 38.2798C158.77 39.2878 158.602 40.0318 158.602 40.5118V40.7998C158.602 41.3998 158.866 41.7598 159.418 41.8798C159.49 41.8798 159.61 41.9038 159.706 41.9038H159.778C161.746 41.9038 166.21 39.0718 173.122 33.4318C175.306 31.6558 177.394 29.8318 179.362 28.0078C179.962 27.4798 180.418 27.2158 180.778 27.2158ZM160.93 31.3918C161.05 31.3918 161.122 31.4638 161.146 31.6558C161.146 32.0638 160.93 32.4238 160.498 32.7598C160.042 33.1918 159.634 33.4078 159.346 33.4078C159.082 33.4078 158.962 33.3118 158.962 33.0958C159.106 32.6158 159.562 32.1118 160.33 31.5838C160.57 31.4398 160.762 31.3918 160.93 31.3918Z" fill="#0F0F0F"/>
<path d="M158.025 7.43994C158.457 7.43994 158.649 7.65594 158.649 8.06394C158.649 8.47194 158.169 10.1759 157.185 13.1279C156.297 16.0559 155.577 18.6479 155.001 20.8799H155.025C166.809 20.7839 174.249 20.7359 177.369 20.7359H181.401C181.929 20.7359 182.673 20.7359 183.633 20.7599C183.969 20.8559 184.137 20.9519 184.137 21.0959C184.137 21.2399 183.945 21.3599 183.561 21.4079H180.033C176.817 21.4079 168.441 21.5519 154.905 21.8639H154.737C151.905 32.5919 150.489 43.2239 150.489 53.7359V54.7679C150.489 56.0639 150.537 57.9119 150.609 60.3119H150.657C150.801 60.2639 150.945 60.2159 151.089 60.1919C151.353 60.1919 151.497 60.3599 151.521 60.6959C151.521 61.1519 151.281 61.6079 150.801 62.0399C150.681 62.1119 150.513 62.1599 150.345 62.1599H150.249C149.745 62.1599 149.385 61.6799 149.169 60.7439V56.5199C149.169 44.7599 150.633 33.2159 153.537 21.8879H153.297C150.873 27.3359 148.473 31.9439 146.145 35.7119C145.161 37.4639 143.769 39.4079 141.993 41.5199C140.433 43.1759 139.113 44.0159 138.057 44.0159C136.737 44.0159 135.897 42.9119 135.489 40.7039C135.393 40.4399 135.297 40.3199 135.249 40.2959H135.201C135.057 40.2959 134.529 40.7759 133.617 41.7119C132.177 43.0079 131.049 43.6559 130.233 43.6559C129.513 43.6559 129.105 43.1759 128.985 42.2159V42.0239C128.985 40.4399 129.777 38.5919 130.809 37.3679C132.057 35.9039 133.281 35.1599 134.505 35.1599H134.529C135.465 35.1599 136.329 35.6159 137.097 36.5279C137.097 36.5759 137.121 36.6479 137.145 36.7919C137.145 37.1759 136.905 37.3919 136.401 37.4639C136.281 37.4639 135.969 37.2479 135.489 36.8399C135.153 36.6239 134.793 36.5279 134.409 36.5279H134.361C133.065 36.5279 131.697 37.8959 130.857 39.7439C130.473 40.7999 130.257 41.4959 130.257 41.8559C130.257 42.2879 130.401 42.4799 130.713 42.4799C131.649 42.4799 133.401 41.0159 135.897 38.0399C135.993 37.9919 136.089 37.9439 136.137 37.9439H136.281C136.569 37.9439 136.713 38.3279 136.713 39.0719C136.713 40.3919 136.929 41.4479 137.385 42.3119C137.697 42.6239 138.057 42.7919 138.513 42.7919C140.577 42.7919 143.793 38.7599 148.185 30.6719C149.625 27.9119 151.017 25.0079 152.337 22.0079C152.361 21.9599 152.361 21.9359 152.361 21.9119H152.337C151.713 21.9119 149.985 21.9359 147.153 21.9599C141.393 21.9599 138.321 21.7679 137.889 21.4079C137.457 21.2879 137.241 21.1199 137.241 20.9279C137.241 20.5919 137.673 20.3039 138.513 20.0399C138.825 19.9679 139.185 19.9199 139.593 19.9199H140.241C140.817 19.9199 141.105 20.0879 141.105 20.4239V20.5679C141.105 20.6399 141.081 20.7359 140.985 20.8559V20.8799C142.137 20.9039 143.025 20.9279 143.721 20.9279H152.841C154.617 16.7759 155.961 13.0559 156.897 9.71994C157.161 8.20794 157.521 7.43994 158.025 7.43994Z" fill="#0F0F0F"/>
<path d="M100.046 30.5039C100.43 30.5759 100.622 30.7439 100.622 31.0319C100.622 31.2239 100.118 32.1839 99.1099 33.9359C96.7819 38.3519 95.6299 41.9039 95.6299 44.6159C95.7019 45.6239 95.8939 46.1279 96.2539 46.1279H96.4699C97.5019 46.0079 99.0859 44.0879 101.174 40.2959C103.502 36.1679 105.326 34.1279 106.646 34.1279H106.694C107.75 34.1279 108.446 35.4239 108.83 38.0399C108.974 39.8639 109.118 40.7519 109.286 40.7519C109.454 40.9679 109.694 41.0639 110.03 41.0639C110.654 41.0639 112.094 40.2959 114.35 38.7119C115.214 38.2559 115.838 38.0159 116.246 38.0159C116.798 38.0159 117.494 38.5199 118.382 39.5519C119.486 40.5119 120.686 40.9919 121.958 40.9919H122.102C124.214 40.9919 127.046 39.9119 130.646 37.7759L130.886 37.7039C131.054 37.7759 131.126 37.8719 131.126 38.0159C131.102 38.1839 130.502 38.5439 129.374 39.0959C126.326 40.7759 123.854 41.5919 121.886 41.5919C120.038 41.5919 118.502 40.9679 117.302 39.7439C116.942 39.4079 116.606 39.2399 116.27 39.2399H116.126C115.622 39.2399 114.59 39.7919 113.054 40.8719C111.374 41.9039 110.174 42.4319 109.454 42.4319H109.286C108.35 42.4319 107.798 41.6639 107.63 40.1279C107.486 37.5359 107.222 36.0479 106.91 35.6399C106.742 35.3999 106.55 35.2799 106.334 35.2799H106.31C105.254 35.2799 103.19 37.9679 100.094 43.3439C98.4619 46.0799 97.1659 47.4239 96.1819 47.4239C95.3419 47.4239 94.8619 46.5359 94.7179 44.7599V44.5199C94.7179 41.6879 96.1819 37.2959 99.1339 31.3439C99.4219 30.7919 99.7099 30.5039 100.046 30.5039Z" fill="#0F0F0F"/>
<path d="M95.8016 4.65576H95.9216C96.2096 4.65576 96.4016 4.84776 96.4496 5.20776C95.7296 7.72776 94.0496 13.1278 91.3616 21.4078C87.4736 33.5518 85.5296 42.8638 85.5296 49.2958C85.5296 52.6318 86.0576 55.4158 87.0896 57.6718C87.1136 57.8398 87.1376 57.9358 87.1616 57.9838C87.0416 58.5358 86.8016 58.7998 86.4656 58.7998H86.2496C85.6256 58.7998 85.1456 57.8878 84.8096 56.0398C84.4736 54.5998 84.3296 52.8478 84.3296 50.8318C84.3296 43.6318 86.7296 32.3038 91.5776 16.8238L92.9216 12.2878V12.2398H92.8736C89.8976 19.3198 87.1376 25.2718 84.6416 30.0958C79.6016 39.5758 75.6176 44.3278 72.6656 44.3278C71.3936 44.3278 70.5536 43.2958 70.1216 41.2078C70.0256 40.6558 69.9056 40.3918 69.8096 40.3918C69.7136 40.3918 69.3776 40.7518 68.7536 41.5198C67.1936 43.0318 65.8256 43.7998 64.6256 43.7998C63.7136 43.7998 63.1376 43.3678 62.8736 42.4798C62.8016 42.2398 62.7776 41.9998 62.7776 41.7358V41.6398C62.7776 39.4318 64.0016 37.3198 66.4256 35.3278C67.5056 34.5838 68.4176 34.2238 69.1856 34.2238H69.4016C70.3856 34.2238 71.1056 34.8958 71.5616 36.1918V36.4078C71.5616 36.7198 71.3216 36.9118 70.8656 37.0078C70.5536 37.0078 70.3136 36.7678 70.1936 36.2878C69.8816 35.7118 69.5456 35.4238 69.1616 35.4238H68.9696C68.0336 35.4238 66.9296 36.3118 65.6336 38.0638C64.6736 39.4798 64.2176 40.6078 64.2176 41.4718V41.6158C64.2176 42.3838 64.6256 42.7678 65.4416 42.7678C66.6416 42.7678 68.2256 41.4718 70.1936 38.8558C70.4576 38.6398 70.6256 38.5438 70.7216 38.5438H70.9136C71.1536 38.5438 71.2976 39.2398 71.3696 40.6078C71.7056 42.2878 72.3296 43.1278 73.2176 43.1278H73.3856C74.8256 43.1278 76.8656 41.2558 79.5296 37.5118C81.8096 34.0558 83.8496 30.4798 85.6256 26.7598C88.7696 20.4718 91.8416 13.4638 94.8176 5.71176C95.2016 5.01576 95.5376 4.65576 95.8016 4.65576Z" fill="#0F0F0F"/>
<path d="M27.84 0H28.128C28.512 0 28.752 0.336002 28.848 0.984001C28.848 1.296 28.056 4.44 26.496 10.464H26.544C34.296 4.68 41.4 1.8 47.832 1.8C52.248 1.8 55.536 3.072 57.672 5.64C59.016 7.488 59.688 9.84 59.688 12.672C59.688 18.672 56.976 26.616 51.576 36.48C51.552 36.48 51.096 37.272 50.16 38.832H50.256C56.184 38.088 60.624 37.704 63.576 37.704C64.248 37.704 64.656 37.824 64.848 38.088V38.184C64.848 38.52 64.464 38.688 63.672 38.688C60.36 38.688 55.608 39.12 49.416 40.008C47.76 42.6 45.072 45.912 41.352 49.944C37.848 53.568 35.328 55.968 33.768 57.168C30.84 59.592 28.344 61.464 26.256 62.736C20.112 66.528 14.448 68.424 9.24 68.424C5.856 68.424 3.264 67.44 1.416 65.52C0.48 64.392 0 63.168 0 61.848C0 58.824 2.064 55.656 6.192 52.344C9.192 50.184 12.528 48.384 16.176 46.944C17.568 46.392 18.672 45.984 19.512 45.72C19.512 43.248 20.04 37.8 21.096 29.352C21.84 24.432 22.704 19.68 23.64 15.144C20.112 18.312 17.16 21.312 14.712 24.168C11.208 28.344 8.64 31.776 7.032 34.416C5.856 36.216 4.896 37.896 4.128 39.48C4.416 39.48 4.608 39.744 4.68 40.296C4.56 40.776 4.2 41.04 3.552 41.04H3.384C2.448 40.92 1.968 40.536 1.968 39.912C1.968 39.12 3.384 36.504 6.24 32.088C8.136 29.112 11.16 25.32 15.288 20.688C18.84 17.016 21.048 14.856 21.936 14.208C22.344 13.848 23.112 13.176 24.24 12.24C24.792 9.696 25.368 7.272 25.92 4.968H25.8C25.104 4.968 24.72 4.704 24.624 4.176V3.936C24.624 2.904 25.416 1.68 27 0.288002C27.432 0.0960016 27.72 0 27.84 0ZM20.76 45.264C25.32 43.632 32.28 41.928 41.688 40.2C45.816 39.528 47.952 39.168 48.144 39.12C50.568 35.352 52.896 30.552 55.152 24.768C56.952 19.776 57.864 15.6 57.864 12.192C57.864 7.968 56.304 5.208 53.208 3.912C51.6 3.36 49.896 3.096 48.072 3.096C41.568 3.096 34.128 6.504 25.8 13.32C24.264 19.656 22.896 26.952 21.72 35.232C21.072 40.656 20.76 43.992 20.76 45.264ZM20.688 46.512C20.592 48.312 20.544 50.112 20.544 51.864V54.024C20.472 54.816 20.304 55.2 19.968 55.2H19.728C19.464 55.032 19.32 54.72 19.32 54.264V52.344C19.32 51 19.344 49.176 19.416 46.896C14.76 48.6 11.04 50.352 8.256 52.2C6.936 53.04 5.496 54.264 3.936 55.848C2.064 58.128 1.128 60.072 1.128 61.656V61.992C1.128 64.248 2.736 65.856 5.952 66.768C6.84 66.936 7.632 67.008 8.352 67.008H8.544C13.368 67.008 18.792 65.232 24.768 61.656C27.456 60 30.336 57.864 33.432 55.296C38.16 51.168 41.904 47.376 44.688 43.944C45.888 42.504 46.8 41.304 47.448 40.344H47.4C36.36 42.144 27.6 44.112 21.144 46.296C20.832 46.416 20.688 46.488 20.688 46.512Z" fill="#0F0F0F"/>
<path d="M658.51 47.7201C659.022 47.3361 659.406 47.0161 659.662 46.7601C659.95 46.5041 660.174 46.4241 660.334 46.5201C660.494 46.5841 660.686 46.7601 660.91 47.0481C661.166 47.3041 661.102 47.5921 660.718 47.9121C659.566 48.9041 658.238 49.7681 656.734 50.5041C655.23 51.2081 653.31 51.5601 650.974 51.5601C647.582 51.5601 644.846 50.3921 642.766 48.0561C640.718 45.7201 639.694 42.7281 639.694 39.0801C639.694 35.4321 640.718 32.4401 642.766 30.1041C644.846 27.7681 647.55 26.6001 650.878 26.6001C654.238 26.6001 656.974 27.6561 659.086 29.7681C661.198 31.8801 662.254 34.4241 662.254 37.4001V38.1201C662.254 39.0801 661.774 39.5601 660.814 39.5601H641.902C641.358 39.5601 641.118 39.8001 641.182 40.2801C641.374 43.0641 642.318 45.4001 644.014 47.2881C645.742 49.1761 648.094 50.1201 651.07 50.1201C654.078 50.1201 656.558 49.3201 658.51 47.7201ZM641.23 37.5441C641.23 37.9281 641.454 38.1201 641.902 38.1201H660.094C660.574 38.1201 660.814 37.8801 660.814 37.4001C660.814 34.8401 659.87 32.6481 657.982 30.8241C656.126 28.9681 653.758 28.0401 650.878 28.0401C648.03 28.0401 645.71 29.0481 643.918 31.0641C642.126 33.0801 641.23 35.2401 641.23 37.5441Z" fill="#0F0F0F"/>
<path d="M607.818 49.6401H611.178C611.658 49.6401 611.898 49.4001 611.898 48.9201V29.2401C611.898 28.7601 611.658 28.5201 611.178 28.5201H607.818C607.338 28.5201 607.098 28.2801 607.098 27.8001C607.098 27.3201 607.338 27.0801 607.818 27.0801H612.618C613.098 27.0801 613.338 27.3201 613.338 27.8001V30.4881C613.338 30.8081 613.402 31.0321 613.53 31.1601C613.658 31.2881 613.85 31.2241 614.106 30.9681C616.698 28.0561 619.514 26.6001 622.554 26.6001C625.594 26.6001 627.93 27.4321 629.562 29.0961C631.226 30.7281 632.058 33.0961 632.058 36.2001V48.9201C632.058 49.4001 632.298 49.6401 632.778 49.6401H636.138C636.618 49.6401 636.858 49.8801 636.858 50.3601C636.858 50.8401 636.618 51.0801 636.138 51.0801H627.018C626.538 51.0801 626.298 50.8401 626.298 50.3601C626.298 49.8801 626.538 49.6401 627.018 49.6401H629.898C630.378 49.6401 630.618 49.4001 630.618 48.9201V36.2001C630.618 33.4801 629.914 31.4481 628.506 30.1041C627.098 28.7281 625.178 28.0401 622.746 28.0401C620.314 28.0401 618.01 29.1281 615.834 31.3041C614.874 32.2641 614.042 33.3361 613.338 34.5201V48.9201C613.338 49.4001 613.578 49.6401 614.058 49.6401H616.938C617.418 49.6401 617.658 49.8801 617.658 50.3601C617.658 50.8401 617.418 51.0801 616.938 51.0801H607.818C607.338 51.0801 607.098 50.8401 607.098 50.3601C607.098 49.8801 607.338 49.6401 607.818 49.6401Z" fill="#0F0F0F"/>
<path d="M575.117 46.712C572.173 43.448 570.701 39.304 570.701 34.28C570.701 29.256 572.173 25.128 575.117 21.896C578.061 18.632 581.949 17 586.781 17C591.613 17 595.501 18.632 598.445 21.896C601.389 25.128 602.861 29.256 602.861 34.28C602.861 39.304 601.389 43.448 598.445 46.712C595.501 49.944 591.613 51.56 586.781 51.56C581.949 51.56 578.061 49.944 575.117 46.712ZM576.173 22.904C573.485 25.88 572.141 29.672 572.141 34.28C572.141 38.888 573.485 42.68 576.173 45.656C578.861 48.632 582.397 50.12 586.781 50.12C591.165 50.12 594.701 48.632 597.389 45.656C600.077 42.68 601.421 38.888 601.421 34.28C601.421 29.672 600.077 25.88 597.389 22.904C594.701 19.928 591.165 18.44 586.781 18.44C582.397 18.44 578.861 19.928 576.173 22.904Z" fill="#0F0F0F"/>
<path d="M548.541 47.7201C549.053 47.3361 549.437 47.0161 549.693 46.7601C549.981 46.5041 550.205 46.4241 550.365 46.5201C550.525 46.5841 550.717 46.7601 550.941 47.0481C551.197 47.3041 551.133 47.5921 550.749 47.9121C549.597 48.9041 548.269 49.7681 546.765 50.5041C545.261 51.2081 543.341 51.5601 541.005 51.5601C537.613 51.5601 534.877 50.3921 532.797 48.0561C530.749 45.7201 529.725 42.7281 529.725 39.0801C529.725 35.4321 530.749 32.4401 532.797 30.1041C534.877 27.7681 537.581 26.6001 540.909 26.6001C544.269 26.6001 547.005 27.6561 549.117 29.7681C551.229 31.8801 552.285 34.4241 552.285 37.4001V38.1201C552.285 39.0801 551.805 39.5601 550.845 39.5601H531.933C531.389 39.5601 531.149 39.8001 531.213 40.2801C531.405 43.0641 532.349 45.4001 534.045 47.2881C535.773 49.1761 538.125 50.1201 541.101 50.1201C544.109 50.1201 546.589 49.3201 548.541 47.7201ZM531.261 37.5441C531.261 37.9281 531.485 38.1201 531.933 38.1201H550.125C550.605 38.1201 550.845 37.8801 550.845 37.4001C550.845 34.8401 549.901 32.6481 548.013 30.8241C546.157 28.9681 543.789 28.0401 540.909 28.0401C538.061 28.0401 535.741 29.0481 533.949 31.0641C532.157 33.0801 531.261 35.2401 531.261 37.5441Z" fill="#0F0F0F"/>
<path d="M516.272 51.0799C515.792 51.0799 515.552 50.8399 515.552 50.3599C515.552 49.8799 515.792 49.6399 516.272 49.6399H519.632C520.112 49.6399 520.352 49.3999 520.352 48.9199V29.2399C520.352 28.7599 520.112 28.5199 519.632 28.5199H516.272C515.792 28.5199 515.552 28.2799 515.552 27.7999C515.552 27.3199 515.792 27.0799 516.272 27.0799H521.072C521.552 27.0799 521.792 27.3199 521.792 27.7999V48.9199C521.792 49.3999 522.032 49.6399 522.512 49.6399H525.872C526.352 49.6399 526.592 49.8799 526.592 50.3599C526.592 50.8399 526.352 51.0799 525.872 51.0799H516.272ZM519.44 22.7119C519.088 22.3279 518.912 21.8639 518.912 21.3199C518.912 20.7759 519.088 20.3279 519.44 19.9759C519.824 19.5919 520.288 19.3999 520.832 19.3999C521.376 19.3999 521.824 19.5919 522.176 19.9759C522.56 20.3279 522.752 20.7759 522.752 21.3199C522.752 21.8639 522.56 22.3279 522.176 22.7119C521.824 23.0639 521.376 23.2399 520.832 23.2399C520.288 23.2399 519.824 23.0639 519.44 22.7119Z" fill="#0F0F0F"/>
<path d="M487.756 49.6401H490.636C491.02 49.6401 491.42 49.4001 491.836 48.9201L498.7 39.3681C498.892 39.0801 498.892 38.7921 498.7 38.5041L492.076 29.2401C491.788 28.7601 491.388 28.5201 490.876 28.5201H487.996C487.516 28.5201 487.276 28.2801 487.276 27.8001C487.276 27.3201 487.516 27.0801 487.996 27.0801H497.116C497.596 27.0801 497.836 27.3201 497.836 27.8001C497.836 28.2801 497.596 28.5201 497.116 28.5201H494.236C493.98 28.5201 493.788 28.6001 493.66 28.7601C493.564 28.8881 493.596 29.0481 493.756 29.2401L499.516 37.2561C499.74 37.5761 499.964 37.5761 500.188 37.2561L505.996 29.2401C506.156 29.0481 506.172 28.8881 506.044 28.7601C505.948 28.6001 505.772 28.5201 505.516 28.5201H502.636C502.156 28.5201 501.916 28.2801 501.916 27.8001C501.916 27.3201 502.156 27.0801 502.636 27.0801H511.756C512.236 27.0801 512.476 27.3201 512.476 27.8001C512.476 28.2801 512.236 28.5201 511.756 28.5201H508.876C508.364 28.5201 507.964 28.7601 507.676 29.2401L501.052 38.5041C500.86 38.7921 500.86 39.0801 501.052 39.3681L507.916 48.9201C508.332 49.4001 508.732 49.6401 509.116 49.6401H511.996C512.476 49.6401 512.716 49.8801 512.716 50.3601C512.716 50.8401 512.476 51.0801 511.996 51.0801H502.876C502.396 51.0801 502.156 50.8401 502.156 50.3601C502.156 49.8801 502.396 49.6401 502.876 49.6401H505.756C506.012 49.6401 506.188 49.5761 506.284 49.4481C506.412 49.2881 506.396 49.1121 506.236 48.9201L500.188 40.5681C499.964 40.2481 499.74 40.2481 499.516 40.5681L493.516 48.9201C493.356 49.1121 493.324 49.2881 493.42 49.4481C493.548 49.5761 493.74 49.6401 493.996 49.6401H496.876C497.356 49.6401 497.596 49.8801 497.596 50.3601C497.596 50.8401 497.356 51.0801 496.876 51.0801H487.756C487.276 51.0801 487.036 50.8401 487.036 50.3601C487.036 49.8801 487.276 49.6401 487.756 49.6401Z" fill="#0F0F0F"/>
<path d="M474.741 51.0799C474.261 51.0799 474.021 50.8399 474.021 50.3599C474.021 49.8799 474.261 49.6399 474.741 49.6399H478.101C478.581 49.6399 478.821 49.3999 478.821 48.9199V29.2399C478.821 28.7599 478.581 28.5199 478.101 28.5199H474.741C474.261 28.5199 474.021 28.2799 474.021 27.7999C474.021 27.3199 474.261 27.0799 474.741 27.0799H479.541C480.021 27.0799 480.261 27.3199 480.261 27.7999V48.9199C480.261 49.3999 480.501 49.6399 480.981 49.6399H484.341C484.821 49.6399 485.061 49.8799 485.061 50.3599C485.061 50.8399 484.821 51.0799 484.341 51.0799H474.741ZM477.909 22.7119C477.557 22.3279 477.381 21.8639 477.381 21.3199C477.381 20.7759 477.557 20.3279 477.909 19.9759C478.293 19.5919 478.757 19.3999 479.301 19.3999C479.845 19.3999 480.293 19.5919 480.645 19.9759C481.029 20.3279 481.221 20.7759 481.221 21.3199C481.221 21.8639 481.029 22.3279 480.645 22.7119C480.293 23.0639 479.845 23.2399 479.301 23.2399C478.757 23.2399 478.293 23.0639 477.909 22.7119Z" fill="#0F0F0F"/>
<path d="M437.72 49.64H441.08C441.56 49.64 441.8 49.4 441.8 48.92V19.64C441.8 19.16 441.56 18.92 441.08 18.92H437.72C437.24 18.92 437 18.68 437 18.2C437 17.72 437.24 17.48 437.72 17.48H443C443.512 17.48 443.912 17.72 444.2 18.2L463.88 48.2C463.944 48.328 464.04 48.392 464.168 48.392C464.296 48.36 464.36 48.216 464.36 47.96V19.64C464.36 19.16 464.12 18.92 463.64 18.92H460.76C460.28 18.92 460.04 18.68 460.04 18.2C460.04 17.72 460.28 17.48 460.76 17.48H469.88C470.36 17.48 470.6 17.72 470.6 18.2C470.6 18.68 470.36 18.92 469.88 18.92H466.52C466.04 18.92 465.8 19.16 465.8 19.64V48.92C465.8 49.4 466.04 49.64 466.52 49.64H469.88C470.36 49.64 470.6 49.88 470.6 50.36C470.6 50.84 470.36 51.08 469.88 51.08H464.6C464.088 51.08 463.688 50.84 463.4 50.36L443.72 20.36C443.656 20.232 443.56 20.184 443.432 20.216C443.304 20.216 443.24 20.344 443.24 20.6V48.92C443.24 49.4 443.48 49.64 443.96 49.64H446.84C447.32 49.64 447.56 49.88 447.56 50.36C447.56 50.84 447.32 51.08 446.84 51.08H437.72C437.24 51.08 437 50.84 437 50.36C437 49.88 437.24 49.64 437.72 49.64Z" fill="#0F0F0F"/>
<path d="M315.201 215.488C315.137 214.528 314.913 213.616 314.529 212.752C314.177 211.888 313.681 211.152 313.041 210.544C312.433 209.904 311.697 209.408 310.833 209.056C310.001 208.672 309.073 208.48 308.049 208.48C306.993 208.48 306.033 208.672 305.169 209.056C304.337 209.408 303.617 209.904 303.009 210.544C302.401 211.184 301.921 211.936 301.569 212.8C301.217 213.632 301.009 214.528 300.945 215.488H315.201ZM319.137 222.4C318.593 225.184 317.393 227.28 315.537 228.688C313.681 230.096 311.345 230.8 308.529 230.8C306.545 230.8 304.817 230.48 303.345 229.84C301.905 229.2 300.689 228.304 299.697 227.152C298.705 226 297.953 224.624 297.441 223.024C296.961 221.424 296.689 219.68 296.625 217.792C296.625 215.904 296.913 214.176 297.489 212.608C298.065 211.04 298.865 209.68 299.889 208.528C300.945 207.376 302.177 206.48 303.585 205.84C305.025 205.2 306.593 204.88 308.289 204.88C310.497 204.88 312.321 205.344 313.761 206.272C315.233 207.168 316.401 208.32 317.265 209.728C318.161 211.136 318.769 212.672 319.089 214.336C319.441 216 319.585 217.584 319.521 219.088H300.945C300.913 220.176 301.041 221.216 301.329 222.208C301.617 223.168 302.081 224.032 302.721 224.8C303.361 225.536 304.177 226.128 305.169 226.576C306.161 227.024 307.329 227.248 308.673 227.248C310.401 227.248 311.809 226.848 312.897 226.048C314.017 225.248 314.753 224.032 315.105 222.4H319.137Z" fill="#0F0F0F"/>
<path d="M291.841 230.272H288.001V226.336H287.905C287.041 227.872 285.937 229.008 284.593 229.744C283.249 230.448 281.665 230.8 279.841 230.8C278.209 230.8 276.849 230.592 275.761 230.176C274.673 229.728 273.793 229.104 273.121 228.304C272.449 227.504 271.969 226.56 271.681 225.472C271.425 224.352 271.297 223.12 271.297 221.776V205.456H275.377V222.256C275.377 223.792 275.825 225.008 276.721 225.904C277.617 226.8 278.849 227.248 280.417 227.248C281.665 227.248 282.737 227.056 283.633 226.672C284.561 226.288 285.329 225.744 285.937 225.04C286.545 224.336 286.993 223.52 287.281 222.592C287.601 221.632 287.761 220.592 287.761 219.472V205.456H291.841V230.272Z" fill="#0F0F0F"/>
<path d="M262.747 215.488C262.683 214.528 262.46 213.616 262.076 212.752C261.724 211.888 261.228 211.152 260.588 210.544C259.98 209.904 259.244 209.408 258.38 209.056C257.548 208.672 256.62 208.48 255.596 208.48C254.54 208.48 253.58 208.672 252.716 209.056C251.884 209.408 251.164 209.904 250.556 210.544C249.948 211.184 249.468 211.936 249.116 212.8C248.764 213.632 248.556 214.528 248.492 215.488H262.747ZM266.684 222.4C266.14 225.184 264.94 227.28 263.084 228.688C261.228 230.096 258.892 230.8 256.076 230.8C254.092 230.8 252.364 230.48 250.892 229.84C249.452 229.2 248.236 228.304 247.244 227.152C246.252 226 245.5 224.624 244.988 223.024C244.508 221.424 244.236 219.68 244.172 217.792C244.172 215.904 244.46 214.176 245.036 212.608C245.612 211.04 246.412 209.68 247.436 208.528C248.492 207.376 249.724 206.48 251.132 205.84C252.572 205.2 254.14 204.88 255.836 204.88C258.044 204.88 259.868 205.344 261.308 206.272C262.78 207.168 263.948 208.32 264.812 209.728C265.708 211.136 266.315 212.672 266.635 214.336C266.987 216 267.132 217.584 267.068 219.088H248.492C248.46 220.176 248.588 221.216 248.876 222.208C249.164 223.168 249.628 224.032 250.268 224.8C250.908 225.536 251.724 226.128 252.716 226.576C253.708 227.024 254.876 227.248 256.22 227.248C257.948 227.248 259.356 226.848 260.444 226.048C261.564 225.248 262.3 224.032 262.652 222.4H266.684Z" fill="#0F0F0F"/>
<path d="M211.499 196H216.347L234.395 223.792H234.491V196H238.811V230.272H233.819L215.915 202.768H215.819V230.272H211.499V196Z" fill="#0F0F0F"/>
<path d="M193.718 230.176C193.014 230.592 192.038 230.8 190.79 230.8C189.734 230.8 188.886 230.512 188.246 229.936C187.638 229.328 187.334 228.352 187.334 227.008C186.214 228.352 184.902 229.328 183.398 229.936C181.926 230.512 180.326 230.8 178.598 230.8C177.478 230.8 176.406 230.672 175.382 230.416C174.39 230.16 173.526 229.76 172.79 229.216C172.054 228.672 171.462 227.968 171.014 227.104C170.598 226.208 170.39 225.136 170.39 223.888C170.39 222.48 170.63 221.328 171.11 220.432C171.59 219.536 172.214 218.816 172.982 218.272C173.782 217.696 174.678 217.264 175.67 216.976C176.694 216.688 177.734 216.448 178.79 216.256C179.91 216.032 180.966 215.872 181.958 215.776C182.982 215.648 183.878 215.488 184.646 215.296C185.414 215.072 186.022 214.768 186.47 214.384C186.918 213.968 187.142 213.376 187.142 212.608C187.142 211.712 186.966 210.992 186.614 210.448C186.294 209.904 185.862 209.488 185.318 209.2C184.806 208.912 184.214 208.72 183.542 208.624C182.902 208.528 182.262 208.48 181.622 208.48C179.894 208.48 178.454 208.816 177.302 209.488C176.15 210.128 175.526 211.36 175.43 213.184H171.35C171.414 211.648 171.734 210.352 172.31 209.296C172.886 208.24 173.654 207.392 174.614 206.752C175.574 206.08 176.662 205.6 177.878 205.312C179.126 205.024 180.454 204.88 181.862 204.88C182.982 204.88 184.086 204.96 185.174 205.12C186.294 205.28 187.302 205.616 188.198 206.128C189.094 206.608 189.814 207.296 190.358 208.192C190.902 209.088 191.174 210.256 191.174 211.696V224.464C191.174 225.424 191.222 226.128 191.318 226.576C191.446 227.024 191.83 227.248 192.47 227.248C192.822 227.248 193.238 227.168 193.718 227.008V230.176ZM187.094 217.456C186.582 217.84 185.91 218.128 185.078 218.32C184.246 218.48 183.366 218.624 182.438 218.752C181.542 218.848 180.63 218.976 179.702 219.136C178.774 219.264 177.942 219.488 177.206 219.808C176.47 220.128 175.862 220.592 175.382 221.2C174.934 221.776 174.71 222.576 174.71 223.6C174.71 224.272 174.838 224.848 175.094 225.328C175.382 225.776 175.734 226.144 176.15 226.432C176.598 226.72 177.11 226.928 177.686 227.056C178.262 227.184 178.87 227.248 179.51 227.248C180.854 227.248 182.006 227.072 182.966 226.72C183.926 226.336 184.71 225.872 185.318 225.328C185.926 224.752 186.374 224.144 186.662 223.504C186.95 222.832 187.094 222.208 187.094 221.632V217.456Z" fill="#0F0F0F"/>
<path d="M162.801 213.424C162.481 211.856 161.809 210.64 160.785 209.776C159.761 208.912 158.385 208.48 156.657 208.48C155.185 208.48 153.953 208.752 152.961 209.296C151.969 209.84 151.169 210.56 150.561 211.456C149.985 212.352 149.569 213.392 149.313 214.576C149.057 215.728 148.929 216.928 148.929 218.176C148.929 219.328 149.057 220.448 149.313 221.536C149.601 222.624 150.033 223.6 150.609 224.464C151.185 225.296 151.937 225.968 152.865 226.48C153.793 226.992 154.897 227.248 156.177 227.248C158.193 227.248 159.761 226.72 160.881 225.664C162.033 224.608 162.737 223.12 162.993 221.2H167.169C166.721 224.272 165.569 226.64 163.713 228.304C161.889 229.968 159.393 230.8 156.225 230.8C154.337 230.8 152.657 230.496 151.185 229.888C149.745 229.28 148.529 228.416 147.537 227.296C146.577 226.176 145.841 224.848 145.329 223.312C144.849 221.744 144.609 220.032 144.609 218.176C144.609 216.32 144.849 214.592 145.329 212.992C145.809 211.36 146.529 209.952 147.489 208.768C148.481 207.552 149.713 206.608 151.185 205.936C152.657 205.232 154.369 204.88 156.321 204.88C157.729 204.88 159.041 205.056 160.257 205.408C161.505 205.728 162.593 206.24 163.521 206.944C164.481 207.648 165.265 208.544 165.873 209.632C166.481 210.688 166.865 211.952 167.025 213.424H162.801Z" fill="#0F0F0F"/>
<path d="M139.632 200.992H135.552V196H139.632V200.992ZM135.552 205.456H139.632V230.272H135.552V205.456Z" fill="#0F0F0F"/>
<path d="M125.836 205.456H130.78V209.056H125.836V224.464C125.836 224.944 125.868 225.328 125.932 225.616C126.028 225.904 126.188 226.128 126.412 226.288C126.636 226.448 126.94 226.56 127.324 226.624C127.74 226.656 128.268 226.672 128.908 226.672H130.78V230.272H127.66C126.604 230.272 125.692 230.208 124.924 230.08C124.188 229.92 123.58 229.648 123.1 229.264C122.652 228.88 122.316 228.336 122.092 227.632C121.868 226.928 121.756 226 121.756 224.848V209.056H117.532V205.456H121.756V198.016H125.836V205.456Z" fill="#0F0F0F"/>
<path d="M111.623 215.488C111.559 214.528 111.335 213.616 110.951 212.752C110.599 211.888 110.103 211.152 109.463 210.544C108.855 209.904 108.119 209.408 107.255 209.056C106.423 208.672 105.495 208.48 104.471 208.48C103.415 208.48 102.455 208.672 101.591 209.056C100.759 209.408 100.039 209.904 99.4305 210.544C98.8225 211.184 98.3425 211.936 97.9905 212.8C97.6385 213.632 97.4305 214.528 97.3665 215.488H111.623ZM115.559 222.4C115.015 225.184 113.815 227.28 111.959 228.688C110.103 230.096 107.767 230.8 104.951 230.8C102.967 230.8 101.239 230.48 99.7665 229.84C98.3265 229.2 97.1105 228.304 96.1185 227.152C95.1265 226 94.3745 224.624 93.8625 223.024C93.3825 221.424 93.1105 219.68 93.0465 217.792C93.0465 215.904 93.3345 214.176 93.9105 212.608C94.4865 211.04 95.2865 209.68 96.3105 208.528C97.3665 207.376 98.5985 206.48 100.007 205.84C101.447 205.2 103.015 204.88 104.711 204.88C106.919 204.88 108.743 205.344 110.183 206.272C111.655 207.168 112.823 208.32 113.687 209.728C114.583 211.136 115.191 212.672 115.511 214.336C115.863 216 116.007 217.584 115.943 219.088H97.3665C97.3345 220.176 97.4625 221.216 97.7505 222.208C98.0385 223.168 98.5025 224.032 99.1425 224.8C99.7825 225.536 100.599 226.128 101.591 226.576C102.583 227.024 103.751 227.248 105.095 227.248C106.823 227.248 108.231 226.848 109.319 226.048C110.439 225.248 111.175 224.032 111.527 222.4H115.559Z" fill="#0F0F0F"/>
<path d="M81.5745 230.272H77.2065L67.9905 205.456H72.5505L79.5105 226.144H79.6065L86.3745 205.456H90.6465L81.5745 230.272Z" fill="#0F0F0F"/>
<path d="M59.9899 196H64.0699V230.272H59.9899V196Z" fill="#0F0F0F"/>
<path d="M51.2006 215.488C51.1366 214.528 50.9126 213.616 50.5286 212.752C50.1766 211.888 49.6806 211.152 49.0406 210.544C48.4326 209.904 47.6966 209.408 46.8326 209.056C46.0006 208.672 45.0726 208.48 44.0486 208.48C42.9926 208.48 42.0326 208.672 41.1686 209.056C40.3366 209.408 39.6166 209.904 39.0086 210.544C38.4006 211.184 37.9206 211.936 37.5686 212.8C37.2166 213.632 37.0086 214.528 36.9446 215.488H51.2006ZM55.1366 222.4C54.5926 225.184 53.3926 227.28 51.5366 228.688C49.6806 230.096 47.3446 230.8 44.5286 230.8C42.5446 230.8 40.8166 230.48 39.3446 229.84C37.9046 229.2 36.6886 228.304 35.6966 227.152C34.7046 226 33.9526 224.624 33.4406 223.024C32.9606 221.424 32.6886 219.68 32.6246 217.792C32.6246 215.904 32.9126 214.176 33.4886 212.608C34.0646 211.04 34.8646 209.68 35.8886 208.528C36.9446 207.376 38.1766 206.48 39.5846 205.84C41.0246 205.2 42.5926 204.88 44.2886 204.88C46.4966 204.88 48.3206 205.344 49.7606 206.272C51.2326 207.168 52.4006 208.32 53.2646 209.728C54.1606 211.136 54.7686 212.672 55.0886 214.336C55.4406 216 55.5846 217.584 55.5206 219.088H36.9446C36.9126 220.176 37.0406 221.216 37.3286 222.208C37.6166 223.168 38.0806 224.032 38.7206 224.8C39.3606 225.536 40.1766 226.128 41.1686 226.576C42.1606 227.024 43.3286 227.248 44.6726 227.248C46.4006 227.248 47.8086 226.848 48.8966 226.048C50.0166 225.248 50.7526 224.032 51.1046 222.4H55.1366Z" fill="#0F0F0F"/>
<path d="M0 196H4.56V210.736H22.608V196H27.168V230.272H22.608V214.576H4.56V230.272H0V196Z" fill="#0F0F0F"/>
<path d="M769.243 202.912V203.872C768.635 203.936 768.075 204.208 767.563 204.688C767.051 205.168 766.571 206.016 766.123 207.232L758.251 227.872H757.435L748.603 206.608C747.995 205.36 747.387 204.608 746.779 204.352C746.203 204.064 745.723 203.92 745.339 203.92V202.912C746.043 203.008 746.779 203.088 747.547 203.152C748.315 203.184 749.147 203.2 750.043 203.2C751.035 203.2 752.075 203.168 753.163 203.104C754.283 203.04 755.323 202.976 756.283 202.912V203.92C755.483 203.92 754.763 203.984 754.123 204.112C753.515 204.208 753.131 204.544 752.971 205.12C752.811 205.664 753.003 206.608 753.547 207.952L759.451 222.592L759.163 222.688L764.635 208.384C765.051 207.328 765.211 206.496 765.115 205.888C765.051 205.248 764.731 204.768 764.155 204.448C763.579 204.128 762.715 203.936 761.563 203.872V202.912C762.139 202.944 762.635 202.976 763.051 203.008C763.467 203.008 763.867 203.024 764.251 203.056C764.667 203.056 765.115 203.056 765.595 203.056C766.331 203.056 766.987 203.04 767.563 203.008C768.171 202.976 768.731 202.944 769.243 202.912ZM758.251 227.872L756.619 232.048C756.299 232.848 755.963 233.52 755.611 234.064C755.291 234.608 754.939 235.056 754.555 235.408C754.043 235.888 753.435 236.208 752.731 236.368C752.027 236.56 751.387 236.656 750.811 236.656C750.203 236.656 749.643 236.544 749.131 236.32C748.651 236.096 748.267 235.76 747.979 235.312C747.691 234.896 747.547 234.384 747.547 233.776C747.547 233.008 747.771 232.384 748.219 231.904C748.667 231.456 749.291 231.232 750.091 231.232C750.763 231.232 751.339 231.424 751.819 231.808C752.299 232.192 752.539 232.752 752.539 233.488C752.539 234.032 752.411 234.48 752.155 234.832C751.899 235.184 751.595 235.456 751.243 235.648C751.307 235.68 751.355 235.696 751.387 235.696C751.451 235.696 751.499 235.696 751.531 235.696C752.395 235.696 753.163 235.392 753.835 234.784C754.507 234.208 755.099 233.264 755.611 231.952L757.339 227.488L758.251 227.872Z" fill="#0F0F0F"/>
<path d="M730.114 227.968C728.802 227.968 727.666 227.728 726.706 227.248C725.746 226.736 725.01 226.032 724.498 225.136C724.018 224.24 723.778 223.2 723.778 222.016C723.778 220.608 724.098 219.456 724.738 218.56C725.41 217.664 726.258 216.944 727.282 216.4C728.306 215.856 729.378 215.408 730.498 215.056C731.65 214.672 732.738 214.32 733.762 214C734.786 213.648 735.618 213.248 736.258 212.8C736.93 212.352 737.266 211.76 737.266 211.024V208.048C737.266 206.704 737.058 205.68 736.642 204.976C736.258 204.272 735.73 203.808 735.058 203.584C734.386 203.328 733.634 203.2 732.802 203.2C732.002 203.2 731.138 203.312 730.21 203.536C729.314 203.76 728.594 204.224 728.05 204.928C728.658 205.056 729.186 205.376 729.634 205.888C730.082 206.4 730.306 207.056 730.306 207.856C730.306 208.656 730.05 209.296 729.538 209.776C729.026 210.224 728.37 210.448 727.57 210.448C726.642 210.448 725.954 210.16 725.506 209.584C725.09 208.976 724.882 208.304 724.882 207.568C724.882 206.736 725.09 206.064 725.506 205.552C725.922 205.04 726.45 204.56 727.09 204.112C727.826 203.6 728.77 203.168 729.922 202.816C731.106 202.432 732.434 202.24 733.906 202.24C735.218 202.24 736.338 202.4 737.266 202.72C738.194 203.008 738.962 203.44 739.57 204.016C740.402 204.784 740.946 205.728 741.202 206.848C741.458 207.936 741.586 209.248 741.586 210.784V224.128C741.586 224.928 741.698 225.504 741.922 225.856C742.178 226.208 742.562 226.384 743.074 226.384C743.426 226.384 743.762 226.304 744.082 226.144C744.402 225.984 744.786 225.728 745.234 225.376L745.762 226.192C745.09 226.704 744.45 227.136 743.842 227.488C743.234 227.808 742.418 227.968 741.394 227.968C740.466 227.968 739.698 227.808 739.09 227.488C738.482 227.168 738.018 226.704 737.698 226.096C737.41 225.456 737.266 224.656 737.266 223.696C736.402 225.136 735.362 226.208 734.146 226.912C732.962 227.616 731.618 227.968 730.114 227.968ZM731.842 226.048C732.898 226.048 733.874 225.744 734.77 225.136C735.698 224.528 736.53 223.616 737.266 222.4V212.992C736.882 213.536 736.322 214 735.586 214.384C734.85 214.736 734.05 215.104 733.186 215.488C732.322 215.84 731.49 216.272 730.69 216.784C729.922 217.264 729.282 217.904 728.77 218.704C728.258 219.504 728.002 220.544 728.002 221.824C728.002 223.104 728.338 224.128 729.01 224.896C729.714 225.664 730.658 226.048 731.842 226.048Z" fill="#0F0F0F"/>
<path d="M717.196 190V223.168C717.196 224.512 717.468 225.424 718.012 225.904C718.588 226.384 719.532 226.624 720.844 226.624V227.632C720.3 227.6 719.468 227.568 718.348 227.536C717.26 227.472 716.156 227.44 715.036 227.44C713.948 227.44 712.844 227.472 711.724 227.536C710.604 227.568 709.772 227.6 709.228 227.632V226.624C710.54 226.624 711.468 226.384 712.012 225.904C712.588 225.424 712.876 224.512 712.876 223.168V195.76C712.876 194.32 712.62 193.264 712.108 192.592C711.596 191.888 710.636 191.536 709.228 191.536V190.528C710.252 190.624 711.244 190.672 712.204 190.672C713.132 190.672 714.012 190.624 714.844 190.528C715.708 190.4 716.492 190.224 717.196 190Z" fill="#0F0F0F"/>
<path d="M689.305 202.384V231.856C689.305 233.232 689.705 234.144 690.505 234.592C691.337 235.072 692.473 235.312 693.913 235.312V236.32C693.209 236.288 692.233 236.24 690.985 236.176C689.737 236.144 688.409 236.128 687.001 236.128C686.009 236.128 685.017 236.144 684.025 236.176C683.065 236.24 682.329 236.288 681.817 236.32V235.312C682.969 235.312 683.785 235.104 684.265 234.688C684.745 234.272 684.985 233.488 684.985 232.336V208.144C684.985 206.704 684.729 205.648 684.217 204.976C683.705 204.272 682.745 203.92 681.337 203.92V202.912C682.361 203.008 683.353 203.056 684.313 203.056C685.241 203.056 686.121 203.008 686.953 202.912C687.817 202.784 688.601 202.608 689.305 202.384ZM696.985 202.24C698.681 202.24 700.201 202.704 701.545 203.632C702.889 204.528 703.945 205.856 704.713 207.616C705.513 209.376 705.913 211.552 705.913 214.144C705.913 215.872 705.705 217.584 705.289 219.28C704.873 220.944 704.217 222.464 703.321 223.84C702.457 225.184 701.321 226.272 699.913 227.104C698.537 227.904 696.873 228.304 694.921 228.304C693.417 228.304 692.105 227.952 690.985 227.248C689.897 226.544 689.161 225.696 688.777 224.704L689.257 224.032C689.705 224.928 690.345 225.68 691.177 226.288C692.041 226.896 693.113 227.2 694.393 227.2C696.185 227.2 697.577 226.64 698.569 225.52C699.561 224.4 700.249 222.912 700.633 221.056C701.049 219.168 701.257 217.088 701.257 214.816C701.257 212.256 701.049 210.16 700.633 208.528C700.217 206.896 699.593 205.68 698.761 204.88C697.929 204.08 696.905 203.68 695.689 203.68C694.121 203.68 692.697 204.336 691.417 205.648C690.137 206.928 689.321 208.88 688.969 211.504L688.393 210.832C688.745 208.112 689.705 206 691.273 204.496C692.873 202.992 694.777 202.24 696.985 202.24Z" fill="#0F0F0F"/>
<path d="M668.796 202.24C670.076 202.24 671.164 202.448 672.06 202.864C672.956 203.28 673.612 203.664 674.028 204.016C675.084 204.88 675.724 204.304 675.948 202.288H677.052C676.988 203.184 676.94 204.256 676.908 205.504C676.876 206.72 676.86 208.368 676.86 210.448H675.756C675.564 209.264 675.228 208.112 674.748 206.992C674.3 205.872 673.628 204.96 672.732 204.256C671.836 203.52 670.668 203.152 669.228 203.152C668.108 203.152 667.164 203.472 666.396 204.112C665.66 204.72 665.292 205.632 665.292 206.848C665.292 207.808 665.58 208.64 666.156 209.344C666.732 210.016 667.484 210.656 668.412 211.264C669.34 211.84 670.348 212.48 671.436 213.184C672.652 213.952 673.756 214.736 674.748 215.536C675.74 216.336 676.524 217.216 677.1 218.176C677.708 219.136 678.012 220.272 678.012 221.584C678.012 223.056 677.628 224.288 676.86 225.28C676.092 226.272 675.084 227.024 673.836 227.536C672.62 228.048 671.276 228.304 669.804 228.304C669.1 228.304 668.428 228.24 667.788 228.112C667.18 228.016 666.588 227.856 666.012 227.632C665.692 227.472 665.356 227.28 665.004 227.056C664.684 226.832 664.364 226.592 664.044 226.336C663.724 226.08 663.436 226.096 663.18 226.384C662.924 226.64 662.732 227.168 662.604 227.968H661.5C661.564 226.944 661.612 225.696 661.644 224.224C661.676 222.752 661.692 220.8 661.692 218.368H662.796C663.02 220.16 663.34 221.728 663.756 223.072C664.172 224.416 664.828 225.472 665.724 226.24C666.62 226.976 667.868 227.344 669.468 227.344C670.108 227.344 670.748 227.2 671.388 226.912C672.06 226.624 672.62 226.144 673.068 225.472C673.516 224.8 673.74 223.904 673.74 222.784C673.74 221.376 673.228 220.224 672.204 219.328C671.18 218.432 669.884 217.488 668.316 216.496C667.164 215.76 666.076 215.024 665.052 214.288C664.06 213.552 663.244 212.72 662.604 211.792C661.996 210.864 661.692 209.744 661.692 208.432C661.692 206.992 662.012 205.824 662.652 204.928C663.324 204 664.204 203.328 665.292 202.912C666.38 202.464 667.548 202.24 668.796 202.24Z" fill="#0F0F0F"/>
<path d="M651.614 190.912C652.446 190.912 653.166 191.216 653.774 191.824C654.382 192.432 654.686 193.152 654.686 193.984C654.686 194.816 654.382 195.536 653.774 196.144C653.166 196.752 652.446 197.056 651.614 197.056C650.782 197.056 650.062 196.752 649.454 196.144C648.846 195.536 648.542 194.816 648.542 193.984C648.542 193.152 648.846 192.432 649.454 191.824C650.062 191.216 650.782 190.912 651.614 190.912ZM654.11 202.384V223.168C654.11 224.512 654.382 225.424 654.926 225.904C655.502 226.384 656.446 226.624 657.758 226.624V227.632C657.214 227.6 656.382 227.568 655.262 227.536C654.174 227.472 653.07 227.44 651.95 227.44C650.862 227.44 649.758 227.472 648.638 227.536C647.518 227.568 646.686 227.6 646.142 227.632V226.624C647.454 226.624 648.382 226.384 648.926 225.904C649.502 225.424 649.79 224.512 649.79 223.168V208.144C649.79 206.704 649.534 205.648 649.022 204.976C648.51 204.272 647.55 203.92 646.142 203.92V202.912C647.166 203.008 648.158 203.056 649.118 203.056C650.046 203.056 650.926 203.008 651.758 202.912C652.622 202.784 653.406 202.608 654.11 202.384Z" fill="#0F0F0F"/>
<path d="M625.182 193.648C630.91 193.648 635.166 195.088 637.95 197.968C640.734 200.816 642.126 204.912 642.126 210.256C642.126 213.744 641.438 216.8 640.062 219.424C638.718 222.016 636.75 224.032 634.158 225.472C631.566 226.912 628.43 227.632 624.75 227.632C624.27 227.632 623.63 227.616 622.83 227.584C622.03 227.552 621.198 227.536 620.334 227.536C619.502 227.504 618.734 227.488 618.03 227.488C616.91 227.488 615.806 227.504 614.718 227.536C613.63 227.536 612.75 227.568 612.078 227.632V226.672C613.166 226.608 613.982 226.48 614.526 226.288C615.102 226.096 615.486 225.712 615.678 225.136C615.87 224.56 615.966 223.696 615.966 222.544V198.736C615.966 197.552 615.87 196.688 615.678 196.144C615.486 195.568 615.102 195.184 614.526 194.992C613.982 194.768 613.166 194.64 612.078 194.608V193.648C612.75 193.68 613.63 193.728 614.718 193.792C615.806 193.824 616.878 193.824 617.934 193.792C619.054 193.76 620.318 193.728 621.726 193.696C623.134 193.664 624.286 193.648 625.182 193.648ZM623.982 194.512C622.51 194.512 621.55 194.784 621.102 195.328C620.654 195.872 620.43 196.976 620.43 198.64V222.64C620.43 224.304 620.654 225.408 621.102 225.952C621.582 226.496 622.558 226.768 624.03 226.768C627.518 226.768 630.222 226.144 632.142 224.896C634.062 223.616 635.406 221.76 636.174 219.328C636.942 216.896 637.326 213.936 637.326 210.448C637.326 206.864 636.894 203.904 636.03 201.568C635.198 199.2 633.806 197.44 631.854 196.288C629.934 195.104 627.31 194.512 623.982 194.512Z" fill="#0F0F0F"/>
<path d="M594.085 202.24C594.949 202.24 595.701 202.416 596.341 202.768C597.013 203.12 597.525 203.584 597.877 204.16C598.261 204.704 598.453 205.328 598.453 206.032C598.453 206.832 598.197 207.536 597.685 208.144C597.205 208.752 596.549 209.056 595.717 209.056C595.045 209.056 594.453 208.848 593.941 208.432C593.429 207.984 593.173 207.36 593.173 206.56C593.173 205.952 593.333 205.44 593.653 205.024C594.005 204.576 594.389 204.224 594.805 203.968C594.581 203.648 594.245 203.488 593.797 203.488C592.805 203.488 591.893 203.792 591.061 204.4C590.229 204.976 589.525 205.728 588.949 206.656C588.373 207.584 587.925 208.576 587.605 209.632C587.285 210.656 587.125 211.616 587.125 212.512V222.688C587.125 224.256 587.573 225.312 588.469 225.856C589.397 226.368 590.645 226.624 592.213 226.624V227.632C591.477 227.6 590.437 227.568 589.093 227.536C587.749 227.472 586.325 227.44 584.821 227.44C583.733 227.44 582.645 227.472 581.557 227.536C580.501 227.568 579.701 227.6 579.157 227.632V226.624C580.469 226.624 581.397 226.384 581.941 225.904C582.517 225.424 582.805 224.512 582.805 223.168V208.144C582.805 206.704 582.549 205.648 582.037 204.976C581.525 204.272 580.565 203.92 579.157 203.92V202.912C580.181 203.008 581.173 203.056 582.133 203.056C583.061 203.056 583.941 203.008 584.773 202.912C585.637 202.784 586.421 202.608 587.125 202.384V208.384C587.477 207.456 587.973 206.528 588.613 205.6C589.285 204.64 590.085 203.84 591.013 203.2C591.941 202.56 592.965 202.24 594.085 202.24Z" fill="#0F0F0F"/>
<path d="M570.567 190.912C571.399 190.912 572.119 191.216 572.727 191.824C573.335 192.432 573.639 193.152 573.639 193.984C573.639 194.816 573.335 195.536 572.727 196.144C572.119 196.752 571.399 197.056 570.567 197.056C569.735 197.056 569.015 196.752 568.407 196.144C567.799 195.536 567.495 194.816 567.495 193.984C567.495 193.152 567.799 192.432 568.407 191.824C569.015 191.216 569.735 190.912 570.567 190.912ZM573.063 202.384V223.168C573.063 224.512 573.335 225.424 573.879 225.904C574.455 226.384 575.399 226.624 576.711 226.624V227.632C576.167 227.6 575.335 227.568 574.215 227.536C573.127 227.472 572.023 227.44 570.903 227.44C569.815 227.44 568.711 227.472 567.591 227.536C566.471 227.568 565.639 227.6 565.095 227.632V226.624C566.407 226.624 567.335 226.384 567.879 225.904C568.455 225.424 568.743 224.512 568.743 223.168V208.144C568.743 206.704 568.487 205.648 567.975 204.976C567.463 204.272 566.503 203.92 565.095 203.92V202.912C566.119 203.008 567.111 203.056 568.071 203.056C568.999 203.056 569.879 203.008 570.711 202.912C571.575 202.784 572.359 202.608 573.063 202.384Z" fill="#0F0F0F"/>
<path d="M548.004 227.968C546.692 227.968 545.556 227.728 544.596 227.248C543.636 226.736 542.9 226.032 542.388 225.136C541.908 224.24 541.668 223.2 541.668 222.016C541.668 220.608 541.988 219.456 542.628 218.56C543.3 217.664 544.148 216.944 545.172 216.4C546.196 215.856 547.268 215.408 548.388 215.056C549.54 214.672 550.628 214.32 551.652 214C552.676 213.648 553.508 213.248 554.148 212.8C554.82 212.352 555.156 211.76 555.156 211.024V208.048C555.156 206.704 554.948 205.68 554.532 204.976C554.148 204.272 553.62 203.808 552.948 203.584C552.276 203.328 551.524 203.2 550.692 203.2C549.892 203.2 549.028 203.312 548.1 203.536C547.204 203.76 546.484 204.224 545.94 204.928C546.548 205.056 547.076 205.376 547.524 205.888C547.972 206.4 548.196 207.056 548.196 207.856C548.196 208.656 547.94 209.296 547.428 209.776C546.916 210.224 546.26 210.448 545.46 210.448C544.532 210.448 543.844 210.16 543.396 209.584C542.98 208.976 542.772 208.304 542.772 207.568C542.772 206.736 542.98 206.064 543.396 205.552C543.812 205.04 544.34 204.56 544.98 204.112C545.716 203.6 546.66 203.168 547.812 202.816C548.996 202.432 550.324 202.24 551.796 202.24C553.108 202.24 554.228 202.4 555.156 202.72C556.084 203.008 556.852 203.44 557.46 204.016C558.292 204.784 558.836 205.728 559.092 206.848C559.348 207.936 559.476 209.248 559.476 210.784V224.128C559.476 224.928 559.588 225.504 559.812 225.856C560.068 226.208 560.452 226.384 560.964 226.384C561.316 226.384 561.652 226.304 561.972 226.144C562.292 225.984 562.676 225.728 563.124 225.376L563.652 226.192C562.98 226.704 562.34 227.136 561.732 227.488C561.124 227.808 560.308 227.968 559.284 227.968C558.356 227.968 557.588 227.808 556.98 227.488C556.372 227.168 555.908 226.704 555.588 226.096C555.3 225.456 555.156 224.656 555.156 223.696C554.292 225.136 553.252 226.208 552.036 226.912C550.852 227.616 549.508 227.968 548.004 227.968ZM549.732 226.048C550.788 226.048 551.764 225.744 552.66 225.136C553.588 224.528 554.42 223.616 555.156 222.4V212.992C554.772 213.536 554.212 214 553.476 214.384C552.74 214.736 551.94 215.104 551.076 215.488C550.212 215.84 549.38 216.272 548.58 216.784C547.812 217.264 547.172 217.904 546.66 218.704C546.148 219.504 545.892 220.544 545.892 221.824C545.892 223.104 546.228 224.128 546.9 224.896C547.604 225.664 548.548 226.048 549.732 226.048Z" fill="#0F0F0F"/>
<path d="M537.107 190.096C538.003 190.096 538.787 190.224 539.459 190.48C540.163 190.704 540.771 191.008 541.283 191.392C541.763 191.776 542.131 192.224 542.387 192.736C542.643 193.248 542.771 193.792 542.771 194.368C542.771 195.104 542.531 195.712 542.051 196.192C541.571 196.672 540.963 196.912 540.227 196.912C539.523 196.912 538.899 196.688 538.355 196.24C537.843 195.76 537.587 195.12 537.587 194.32C537.587 193.648 537.763 193.104 538.115 192.688C538.499 192.272 538.995 192 539.603 191.872C539.507 191.584 539.251 191.344 538.835 191.152C538.451 190.928 537.923 190.816 537.251 190.816C536.515 190.816 535.875 190.976 535.331 191.296C534.819 191.616 534.419 192.048 534.131 192.592C533.747 193.264 533.507 194.272 533.411 195.616C533.315 196.928 533.267 198.96 533.267 201.712V202.96H538.403V203.92H533.267V222.688C533.267 224.256 533.715 225.312 534.611 225.856C535.539 226.368 536.787 226.624 538.355 226.624V227.632C537.619 227.6 536.579 227.568 535.235 227.536C533.891 227.472 532.467 227.44 530.963 227.44C529.875 227.44 528.787 227.472 527.699 227.536C526.643 227.568 525.843 227.6 525.299 227.632V226.624C526.611 226.624 527.539 226.384 528.083 225.904C528.659 225.424 528.947 224.512 528.947 223.168V203.92H525.107V202.96H528.947C528.947 201.072 529.027 199.488 529.187 198.208C529.347 196.928 529.603 195.84 529.955 194.944C530.307 194.016 530.787 193.2 531.395 192.496C532.035 191.76 532.851 191.184 533.843 190.768C534.835 190.32 535.923 190.096 537.107 190.096Z" fill="#0F0F0F"/>
<path d="M523.712 202.912V203.872C523.104 203.936 522.544 204.208 522.032 204.688C521.52 205.168 521.04 206.016 520.592 207.232L512.72 227.872H511.904L503.072 206.608C502.464 205.36 501.856 204.608 501.248 204.352C500.672 204.064 500.192 203.92 499.808 203.92V202.912C500.512 203.008 501.248 203.088 502.016 203.152C502.784 203.184 503.616 203.2 504.512 203.2C505.504 203.2 506.544 203.168 507.632 203.104C508.752 203.04 509.792 202.976 510.752 202.912V203.92C509.952 203.92 509.232 203.984 508.592 204.112C507.984 204.208 507.6 204.544 507.44 205.12C507.28 205.664 507.472 206.608 508.016 207.952L513.92 222.592L513.632 222.688L519.104 208.384C519.52 207.328 519.68 206.496 519.584 205.888C519.52 205.248 519.2 204.768 518.624 204.448C518.048 204.128 517.184 203.936 516.032 203.872V202.912C516.608 202.944 517.104 202.976 517.52 203.008C517.936 203.008 518.336 203.024 518.72 203.056C519.136 203.056 519.584 203.056 520.064 203.056C520.8 203.056 521.456 203.04 522.032 203.008C522.64 202.976 523.2 202.944 523.712 202.912ZM512.72 227.872L511.088 232.048C510.768 232.848 510.432 233.52 510.08 234.064C509.76 234.608 509.408 235.056 509.024 235.408C508.512 235.888 507.904 236.208 507.2 236.368C506.496 236.56 505.856 236.656 505.28 236.656C504.672 236.656 504.112 236.544 503.6 236.32C503.12 236.096 502.736 235.76 502.448 235.312C502.16 234.896 502.016 234.384 502.016 233.776C502.016 233.008 502.24 232.384 502.688 231.904C503.136 231.456 503.76 231.232 504.56 231.232C505.232 231.232 505.808 231.424 506.288 231.808C506.768 232.192 507.008 232.752 507.008 233.488C507.008 234.032 506.88 234.48 506.624 234.832C506.368 235.184 506.064 235.456 505.712 235.648C505.776 235.68 505.824 235.696 505.856 235.696C505.92 235.696 505.968 235.696 506 235.696C506.864 235.696 507.632 235.392 508.304 234.784C508.976 234.208 509.568 233.264 510.08 231.952L511.808 227.488L512.72 227.872Z" fill="#0F0F0F"/>
<path d="M484.583 227.968C483.271 227.968 482.135 227.728 481.175 227.248C480.215 226.736 479.479 226.032 478.967 225.136C478.487 224.24 478.247 223.2 478.247 222.016C478.247 220.608 478.567 219.456 479.207 218.56C479.879 217.664 480.727 216.944 481.751 216.4C482.775 215.856 483.847 215.408 484.967 215.056C486.119 214.672 487.207 214.32 488.231 214C489.255 213.648 490.087 213.248 490.727 212.8C491.399 212.352 491.735 211.76 491.735 211.024V208.048C491.735 206.704 491.527 205.68 491.111 204.976C490.727 204.272 490.199 203.808 489.527 203.584C488.855 203.328 488.103 203.2 487.271 203.2C486.471 203.2 485.607 203.312 484.679 203.536C483.783 203.76 483.063 204.224 482.519 204.928C483.127 205.056 483.655 205.376 484.103 205.888C484.551 206.4 484.775 207.056 484.775 207.856C484.775 208.656 484.519 209.296 484.007 209.776C483.495 210.224 482.839 210.448 482.039 210.448C481.111 210.448 480.423 210.16 479.975 209.584C479.559 208.976 479.351 208.304 479.351 207.568C479.351 206.736 479.559 206.064 479.975 205.552C480.391 205.04 480.919 204.56 481.559 204.112C482.295 203.6 483.239 203.168 484.391 202.816C485.575 202.432 486.903 202.24 488.375 202.24C489.687 202.24 490.807 202.4 491.735 202.72C492.663 203.008 493.431 203.44 494.039 204.016C494.871 204.784 495.415 205.728 495.671 206.848C495.927 207.936 496.055 209.248 496.055 210.784V224.128C496.055 224.928 496.167 225.504 496.391 225.856C496.647 226.208 497.031 226.384 497.543 226.384C497.895 226.384 498.231 226.304 498.551 226.144C498.871 225.984 499.255 225.728 499.703 225.376L500.231 226.192C499.559 226.704 498.919 227.136 498.311 227.488C497.703 227.808 496.887 227.968 495.863 227.968C494.935 227.968 494.167 227.808 493.559 227.488C492.951 227.168 492.487 226.704 492.167 226.096C491.879 225.456 491.735 224.656 491.735 223.696C490.871 225.136 489.831 226.208 488.615 226.912C487.431 227.616 486.087 227.968 484.583 227.968ZM486.311 226.048C487.367 226.048 488.343 225.744 489.239 225.136C490.167 224.528 490.999 223.616 491.735 222.4V212.992C491.351 213.536 490.791 214 490.055 214.384C489.319 214.736 488.519 215.104 487.655 215.488C486.791 215.84 485.959 216.272 485.159 216.784C484.391 217.264 483.751 217.904 483.239 218.704C482.727 219.504 482.471 220.544 482.471 221.824C482.471 223.104 482.807 224.128 483.479 224.896C484.183 225.664 485.127 226.048 486.311 226.048Z" fill="#0F0F0F"/>
<path d="M471.664 190V223.168C471.664 224.512 471.936 225.424 472.48 225.904C473.056 226.384 474 226.624 475.312 226.624V227.632C474.768 227.6 473.936 227.568 472.816 227.536C471.728 227.472 470.624 227.44 469.504 227.44C468.416 227.44 467.312 227.472 466.192 227.536C465.072 227.568 464.24 227.6 463.696 227.632V226.624C465.008 226.624 465.936 226.384 466.48 225.904C467.056 225.424 467.344 224.512 467.344 223.168V195.76C467.344 194.32 467.088 193.264 466.576 192.592C466.064 191.888 465.104 191.536 463.696 191.536V190.528C464.72 190.624 465.712 190.672 466.672 190.672C467.6 190.672 468.48 190.624 469.312 190.528C470.176 190.4 470.96 190.224 471.664 190Z" fill="#0F0F0F"/>
<path d="M437 193.648C437.672 193.68 438.552 193.712 439.64 193.744C440.728 193.776 441.8 193.792 442.856 193.792C444.36 193.792 445.8 193.776 447.176 193.744C448.552 193.712 449.528 193.696 450.104 193.696C453.976 193.696 456.872 194.576 458.792 196.336C460.712 198.096 461.672 200.368 461.672 203.152C461.672 204.304 461.48 205.52 461.096 206.8C460.712 208.048 460.04 209.216 459.08 210.304C458.152 211.36 456.872 212.224 455.24 212.896C453.608 213.568 451.544 213.904 449.048 213.904H444.44V212.944H448.568C450.84 212.944 452.568 212.512 453.752 211.648C454.968 210.784 455.784 209.648 456.2 208.24C456.648 206.832 456.872 205.312 456.872 203.68C456.872 200.64 456.264 198.368 455.048 196.864C453.864 195.36 451.816 194.608 448.904 194.608C447.432 194.608 446.472 194.88 446.024 195.424C445.576 195.968 445.352 197.072 445.352 198.736V222.544C445.352 223.696 445.464 224.56 445.688 225.136C445.944 225.712 446.424 226.096 447.128 226.288C447.832 226.48 448.856 226.608 450.2 226.672V227.632C449.368 227.568 448.312 227.536 447.032 227.536C445.752 227.504 444.456 227.488 443.144 227.488C441.896 227.488 440.728 227.504 439.64 227.536C438.552 227.536 437.672 227.568 437 227.632V226.672C438.088 226.608 438.904 226.48 439.448 226.288C440.024 226.096 440.408 225.712 440.6 225.136C440.792 224.56 440.888 223.696 440.888 222.544V198.736C440.888 197.552 440.792 196.688 440.6 196.144C440.408 195.568 440.024 195.184 439.448 194.992C438.904 194.768 438.088 194.64 437 194.608V193.648Z" fill="#0F0F0F"/>
</svg>
