<svg width="1920" height="1080" viewBox="0 0 1920 1080" fill="none" xmlns="http://www.w3.org/2000/svg">
<g opacity="0.1">
<mask id="mask0_41_530" style="mask-type:luminance" maskUnits="userSpaceOnUse" x="1063" y="299" width="44" height="45">
<path d="M1087.52 300.09C1075.64 298.84 1065 307.46 1063.75 319.34C1062.5 331.22 1071.12 341.86 1083 343.11C1094.88 344.36 1105.52 335.74 1106.77 323.86C1108.02 311.98 1099.4 301.34 1087.52 300.09Z" fill="white"/>
</mask>
<g mask="url(#mask0_41_530)">
<mask id="mask1_41_530" style="mask-type:luminance" maskUnits="userSpaceOnUse" x="214" y="12" width="1500" height="1091">
<path d="M1713.49 12.7299L214.18 12.7302L214.18 1102.2L1713.49 1102.2L1713.49 12.7299Z" fill="white"/>
</mask>
<g mask="url(#mask1_41_530)">
<path opacity="0.85" d="M1094.15 341.299C1105.04 336.387 1109.88 323.583 1104.97 312.699C1100.05 301.816 1087.25 296.975 1076.37 301.887C1065.48 306.799 1060.64 319.603 1065.55 330.486C1070.47 341.37 1083.27 346.211 1094.15 341.299Z" stroke="#1DAAFC" stroke-width="8" stroke-miterlimit="10"/>
</g>
</g>
<mask id="mask2_41_530" style="mask-type:luminance" maskUnits="userSpaceOnUse" x="261" y="656" width="44" height="45">
<path d="M261.25 681.62C262.91 693.45 273.85 701.69 285.67 700.02C297.5 698.36 305.74 687.42 304.07 675.6C302.41 663.77 291.47 655.53 279.65 657.2C267.82 658.86 259.58 669.8 261.25 681.62Z" fill="white"/>
</mask>
<g mask="url(#mask2_41_530)">
<mask id="mask3_41_530" style="mask-type:luminance" maskUnits="userSpaceOnUse" x="152" y="-8" width="1501" height="1091">
<path d="M1652.01 -7.41002L152.7 -7.40976L152.7 1082.06L1652.01 1082.06L1652.01 -7.41002Z" fill="white"/>
</mask>
<g mask="url(#mask3_41_530)">
<path opacity="0.92" d="M288.261 699.49C299.795 696.4 306.639 684.545 303.549 673.011C300.459 661.478 288.604 654.633 277.07 657.723C265.536 660.814 258.692 672.669 261.782 684.202C264.873 695.736 276.728 702.58 288.261 699.49Z" stroke="#1DAAFC" stroke-width="8" stroke-miterlimit="10"/>
</g>
</g>
<mask id="mask4_41_530" style="mask-type:luminance" maskUnits="userSpaceOnUse" x="1770" y="925" width="44" height="44">
<path d="M1798.95 967.502C1810.32 963.842 1816.57 951.661 1812.91 940.296C1809.25 928.93 1797.07 922.684 1785.7 926.344C1774.33 930.004 1768.09 942.184 1771.75 953.55C1775.41 964.916 1787.59 971.162 1798.95 967.502Z" fill="white"/>
</mask>
<g mask="url(#mask4_41_530)">
<mask id="mask5_41_530" style="mask-type:luminance" maskUnits="userSpaceOnUse" x="322" y="23" width="1501" height="1091">
<path d="M1822.01 23.6199L322.7 23.6201L322.7 1113.09L1822.01 1113.09L1822.01 23.6199Z" fill="white"/>
</mask>
<g mask="url(#mask5_41_530)">
<path opacity="0.78" d="M1792.3 968.7C1804.24 968.7 1813.92 959.02 1813.92 947.08C1813.92 935.139 1804.24 925.46 1792.3 925.46C1780.36 925.46 1770.68 935.139 1770.68 947.08C1770.68 959.02 1780.36 968.7 1792.3 968.7Z" stroke="#1DAAFC" stroke-width="8" stroke-miterlimit="10"/>
</g>
</g>
<mask id="mask6_41_530" style="mask-type:luminance" maskUnits="userSpaceOnUse" x="1242" y="996" width="45" height="45">
<path d="M1274.96 1037.46C1285.43 1031.73 1289.27 1018.59 1283.54 1008.12C1277.8 997.643 1264.67 993.801 1254.19 999.535C1243.72 1005.27 1239.88 1018.41 1245.61 1028.88C1251.34 1039.35 1264.48 1043.2 1274.96 1037.46Z" fill="white"/>
</mask>
<g mask="url(#mask6_41_530)">
<mask id="mask7_41_530" style="mask-type:luminance" maskUnits="userSpaceOnUse" x="210" y="-46" width="1501" height="1091">
<path d="M1710.17 -45.2301L210.86 -45.2299L210.86 1044.24L1710.17 1044.24L1710.17 -45.2301Z" fill="white"/>
</mask>
<g mask="url(#mask7_41_530)">
<path opacity="0.73" d="M1276 1036.79C1286.14 1030.49 1289.25 1017.16 1282.95 1007.02C1276.65 996.876 1263.32 993.764 1253.18 1000.07C1243.03 1006.37 1239.92 1019.7 1246.23 1029.84C1252.53 1039.98 1265.86 1043.09 1276 1036.79Z" stroke="#1DAAFC" stroke-width="8" stroke-miterlimit="10"/>
</g>
</g>
<mask id="mask8_41_530" style="mask-type:luminance" maskUnits="userSpaceOnUse" x="687" y="1012" width="44" height="45">
<path d="M729.55 1027.15C725.47 1015.93 713.06 1010.14 701.83 1014.23C690.61 1018.31 684.82 1030.72 688.91 1041.95C692.99 1053.17 705.4 1058.96 716.63 1054.87C727.85 1050.79 733.64 1038.38 729.55 1027.15Z" fill="white"/>
</mask>
<g mask="url(#mask8_41_530)">
<mask id="mask9_41_530" style="mask-type:luminance" maskUnits="userSpaceOnUse" x="214" y="-17" width="1501" height="1091">
<path d="M1714.06 -16.3801L214.75 -16.3798L214.75 1073.09L1714.06 1073.09L1714.06 -16.3801Z" fill="white"/>
</mask>
<g mask="url(#mask9_41_530)">
<path opacity="0.94" d="M721.589 1052.31C731.384 1045.48 733.79 1032.01 726.961 1022.21C720.133 1012.42 706.657 1010.01 696.862 1016.84C687.066 1023.67 684.661 1037.14 691.489 1046.94C698.318 1056.73 711.794 1059.14 721.589 1052.31Z" stroke="#1DAAFC" stroke-width="8" stroke-miterlimit="10"/>
</g>
</g>
<mask id="mask10_41_530" style="mask-type:luminance" maskUnits="userSpaceOnUse" x="303" y="972" width="45" height="44">
<path d="M305.19 985.9C300.91 997.05 306.48 1009.56 317.63 1013.84C328.78 1018.12 341.29 1012.55 345.57 1001.4C349.85 990.25 344.28 977.74 333.13 973.46C321.98 969.18 309.47 974.75 305.19 985.9Z" fill="white"/>
</mask>
<g mask="url(#mask10_41_530)">
<mask id="mask11_41_530" style="mask-type:luminance" maskUnits="userSpaceOnUse" x="214" y="-17" width="1501" height="1091">
<path d="M1714.06 -16.3801L214.75 -16.3798L214.75 1073.09L1714.06 1073.09L1714.06 -16.3801Z" fill="white"/>
</mask>
<g mask="url(#mask11_41_530)">
<path opacity="0.7" d="M335.352 1012.86C345.936 1007.34 350.034 994.274 344.506 983.691C338.977 973.107 325.916 969.009 315.333 974.537C304.749 980.065 300.651 993.127 306.179 1003.71C311.707 1014.29 324.769 1018.39 335.352 1012.86Z" stroke="#1DAAFC" stroke-width="8" stroke-miterlimit="10"/>
</g>
</g>
<mask id="mask12_41_530" style="mask-type:luminance" maskUnits="userSpaceOnUse" x="1403" y="41" width="50" height="40">
<path d="M1451.72 73.2599C1452.11 73.6899 1452.41 74.2099 1452.58 74.79C1453.22 76.9 1452.05 79.0899 1449.96 79.6999C1448.78 80.0499 1438.17 82.92 1430.73 77.18C1426.4 73.83 1424.27 68.51 1424.41 61.36C1424.5 56.63 1423.36 53.3 1421.03 51.46C1417.32 48.53 1410.74 49.42 1408.73 49.96C1406.62 50.53 1404.43 49.27 1403.82 47.14C1403.22 45.02 1404.44 42.84 1406.55 42.27C1407.02 42.14 1418.24 39.22 1425.87 45.24C1430.31 48.74 1432.49 54.26 1432.35 61.65C1432.26 66.1 1433.32 69.21 1435.49 70.9C1439.06 73.67 1445.46 72.6799 1447.63 72.0599C1449.14 71.6299 1450.72 72.1399 1451.72 73.2499L1451.72 73.2599Z" fill="white"/>
</mask>
<g mask="url(#mask12_41_530)">
<mask id="mask13_41_530" style="mask-type:luminance" maskUnits="userSpaceOnUse" x="360" y="33" width="1500" height="1090">
<path d="M1859.67 33.1399L360.36 33.1401L360.36 1122.61L1859.67 1122.61L1859.67 33.1399Z" fill="white"/>
</mask>
<g mask="url(#mask13_41_530)">
<path opacity="0.91" d="M1416.57 18.836L1387.49 45.0191L1439.86 103.178L1468.94 76.9945L1416.57 18.836Z" fill="#FC3E6B"/>
</g>
</g>
<mask id="mask14_41_530" style="mask-type:luminance" maskUnits="userSpaceOnUse" x="896" y="153" width="50" height="40">
<path d="M897.61 161.09C897.22 160.66 896.92 160.14 896.74 159.56C896.1 157.45 897.27 155.26 899.36 154.65C900.54 154.3 911.15 151.43 918.59 157.17C922.92 160.52 925.05 165.84 924.91 172.99C924.82 177.72 925.96 181.05 928.29 182.89C932 185.82 938.58 184.93 940.59 184.39C942.7 183.82 944.89 185.08 945.5 187.21C946.1 189.33 944.88 191.51 942.77 192.08C942.3 192.21 931.08 195.13 923.45 189.11C919.01 185.61 916.83 180.09 916.97 172.7C917.06 168.25 916 165.14 913.83 163.45C910.26 160.68 903.86 161.67 901.69 162.29C900.18 162.72 898.6 162.21 897.6 161.09L897.61 161.09Z" fill="white"/>
</mask>
<g mask="url(#mask14_41_530)">
<mask id="mask15_41_530" style="mask-type:luminance" maskUnits="userSpaceOnUse" x="252" y="12" width="1501" height="1091">
<path d="M1752.01 12.5899L252.7 12.5902L252.7 1102.06L1752.01 1102.06L1752.01 12.5899Z" fill="white"/>
</mask>
<g mask="url(#mask15_41_530)">
<path opacity="0.98" d="M909.468 131.166L880.389 157.35L932.755 215.508L961.834 189.325L909.468 131.166Z" fill="#FC3E6B"/>
</g>
</g>
<mask id="mask16_41_530" style="mask-type:luminance" maskUnits="userSpaceOnUse" x="299" y="250" width="48" height="43">
<path d="M300.18 257.72C299.82 257.27 299.56 256.73 299.42 256.13C298.93 253.98 300.25 251.87 302.38 251.41C303.58 251.15 314.36 249.02 321.38 255.26C325.47 258.9 327.22 264.36 326.58 271.49C326.16 276.2 327.06 279.6 329.26 281.6C332.76 284.78 339.38 284.35 341.43 283.96C343.57 283.54 345.68 284.95 346.13 287.11C346.58 289.27 345.21 291.36 343.07 291.78C342.59 291.87 331.2 294.01 324 287.47C319.81 283.67 318.03 278.01 318.68 270.65C319.08 266.21 318.24 263.04 316.19 261.21C312.82 258.19 306.37 258.74 304.17 259.21C302.63 259.53 301.1 258.91 300.18 257.73L300.18 257.72Z" fill="white"/>
</mask>
<g mask="url(#mask16_41_530)">
<mask id="mask17_41_530" style="mask-type:luminance" maskUnits="userSpaceOnUse" x="132" y="32" width="1501" height="1091">
<path d="M1632.01 32.5899L132.7 32.5902L132.7 1122.06L1632.01 1122.06L1632.01 32.5899Z" fill="white"/>
</mask>
<g mask="url(#mask17_41_530)">
<path opacity="0.8" d="M314.098 228.698L283.263 252.789L331.445 314.458L362.28 290.367L314.098 228.698Z" fill="#FC3E6B"/>
</g>
</g>
<mask id="mask18_41_530" style="mask-type:luminance" maskUnits="userSpaceOnUse" x="83" y="529" width="43" height="47">
<path d="M84.2601 535.52C83.9801 535.02 83.8001 534.44 83.7601 533.83C83.6101 531.63 85.2401 529.76 87.4201 529.63C88.6501 529.56 99.6301 529.15 105.59 536.41C109.06 540.65 109.93 546.31 108.19 553.25C107.04 557.84 107.4 561.34 109.26 563.65C112.22 567.34 118.83 567.95 120.91 567.88C123.09 567.8 124.95 569.52 125.06 571.73C125.17 573.93 123.49 575.78 121.31 575.86C120.82 575.88 109.23 576.2 103.15 568.62C99.6101 564.21 98.7301 558.34 100.53 551.18C101.62 546.86 101.29 543.59 99.5501 541.46C96.6901 537.95 90.2301 537.48 87.9901 537.6C86.4201 537.68 85.0001 536.82 84.2801 535.52L84.2601 535.52Z" fill="white"/>
</mask>
<g mask="url(#mask18_41_530)">
<mask id="mask19_41_530" style="mask-type:luminance" maskUnits="userSpaceOnUse" x="-8" y="-8" width="1501" height="1091">
<path d="M1492.01 -7.41002L-7.30005 -7.40976L-7.29986 1082.06L1492.01 1082.06L1492.01 -7.41002Z" fill="white"/>
</mask>
<g mask="url(#mask19_41_530)">
<path opacity="0.73" d="M102.54 509.032L68.3158 528.002L106.257 596.45L140.481 577.48L102.54 509.032Z" fill="#FC3E6B"/>
</g>
</g>
<mask id="mask20_41_530" style="mask-type:luminance" maskUnits="userSpaceOnUse" x="1749" y="698" width="22" height="59">
<path d="M1754.16 701.72C1754.24 701.15 1754.44 700.58 1754.78 700.07C1755.98 698.23 1758.42 697.71 1760.23 698.92C1761.26 699.6 1770.27 705.88 1770.66 715.27C1770.88 720.74 1768.17 725.79 1762.6 730.28C1758.92 733.25 1757.1 736.26 1757.19 739.23C1757.34 743.96 1762.24 748.42 1763.95 749.62C1765.74 750.87 1766.19 753.36 1764.95 755.19C1763.71 757.02 1761.26 757.48 1759.47 756.23C1759.07 755.95 1749.62 749.24 1749.32 739.52C1749.14 733.87 1751.98 728.65 1757.73 724.01C1761.2 721.21 1762.9 718.41 1762.8 715.66C1762.63 711.14 1757.75 706.88 1755.89 705.62C1754.59 704.74 1753.97 703.2 1754.18 701.72L1754.16 701.72Z" fill="white"/>
</mask>
<g mask="url(#mask20_41_530)">
<mask id="mask21_41_530" style="mask-type:luminance" maskUnits="userSpaceOnUse" x="320" y="31" width="1501" height="1091">
<path d="M1820.05 31.7399L320.74 31.7401L320.74 1121.21L1820.05 1121.21L1820.05 31.7399Z" fill="white"/>
</mask>
<g mask="url(#mask21_41_530)">
<path opacity="0.94" d="M1745.94 686.126L1735.05 763.625L1773.8 769.071L1784.69 691.572L1745.94 686.126Z" fill="#FC3E6B"/>
</g>
</g>
<mask id="mask22_41_530" style="mask-type:luminance" maskUnits="userSpaceOnUse" x="1287" y="705" width="55" height="35">
<path d="M1288.98 714.83C1288.53 714.47 1288.14 714.02 1287.86 713.47C1286.87 711.51 1287.63 709.14 1289.59 708.18C1290.7 707.63 1300.64 702.96 1308.96 707.32C1313.81 709.87 1316.83 714.73 1317.93 721.81C1318.66 726.48 1320.36 729.56 1322.98 730.97C1327.15 733.21 1333.47 731.19 1335.35 730.31C1337.33 729.39 1339.71 730.24 1340.67 732.23C1341.63 734.22 1340.81 736.57 1338.83 737.5C1338.39 737.71 1327.85 742.54 1319.28 737.93C1314.3 735.26 1311.19 730.2 1310.05 722.9C1309.36 718.5 1307.78 715.62 1305.35 714.34C1301.35 712.23 1295.22 714.32 1293.2 715.3C1291.79 715.99 1290.15 715.75 1288.97 714.83L1288.98 714.83Z" fill="white"/>
</mask>
<g mask="url(#mask22_41_530)">
<mask id="mask23_41_530" style="mask-type:luminance" maskUnits="userSpaceOnUse" x="212" y="-8" width="1501" height="1091">
<path d="M1712.01 -7.41005L212.7 -7.40979L212.7 1082.06L1712.01 1082.06L1712.01 -7.41005Z" fill="white"/>
</mask>
<g mask="url(#mask23_41_530)">
<path opacity="0.99" d="M1295.46 683.301L1271.37 714.136L1333.04 762.318L1357.13 731.483L1295.46 683.301Z" fill="#FC3E6B"/>
</g>
</g>
<g opacity="0.98">
<path d="M1675.2 129.09C1675.2 130.35 1674.61 131.59 1673.55 132.48L1647.58 154.42C1646.27 155.53 1644.65 155.83 1643.24 155.23C1641.83 154.63 1640.92 153.25 1640.8 151.54L1638.54 117.62C1638.44 115.99 1639.07 114.55 1640.29 113.69C1641.51 112.82 1643.07 112.69 1644.58 113.33L1672.44 125.16C1673.92 125.79 1674.93 127.04 1675.15 128.5C1675.18 128.7 1675.2 128.9 1675.2 129.1L1675.2 129.09ZM1646.69 147.08L1667.28 129.68L1644.9 120.18L1646.69 147.08Z" fill="#FDA228"/>
</g>
<g opacity="0.9">
<path d="M848.88 47.6901C848.88 48.8301 848.4 49.9601 847.52 50.8601L823.56 74.9801C822.35 76.2001 820.76 76.6401 819.31 76.1701C817.85 75.7001 816.83 74.4001 816.56 72.7101L811.35 39.1101C811.1 37.5001 811.61 36.0101 812.75 35.0401C813.89 34.0701 815.44 33.8001 816.99 34.3101L845.78 43.6601C847.31 44.1601 848.43 45.3101 848.77 46.7401C848.85 47.0501 848.88 47.3701 848.88 47.6901ZM822.04 67.7401L841.04 48.6201L817.91 41.1001L822.04 67.7401Z" fill="#FDA228"/>
</g>
<g opacity="0.94">
<path d="M178.7 72.6902C178.7 73.3402 178.54 73.9702 178.22 74.5402C177.48 75.8802 176.01 76.6402 174.3 76.5802L140.33 75.2802C138.7 75.2202 137.34 74.4402 136.6 73.1302C135.86 71.8302 135.9 70.2602 136.69 68.8302L151.36 42.3502C152.14 40.9502 153.48 40.0702 154.96 40.0002C156.44 39.9302 157.86 40.6902 158.76 42.0202L177.87 70.1402C178.42 70.9502 178.7 71.8302 178.7 72.6902ZM143.54 69.2102L170.48 70.2402L155.33 47.9402L143.54 69.2102Z" fill="#FDA228"/>
</g>
<g opacity="0.88">
<path d="M1635.01 347.48C1635.01 348.21 1634.82 348.96 1634.43 349.68L1618.37 379.65C1617.59 381.09 1616.29 381.97 1614.8 382.06C1613.31 382.15 1611.91 381.43 1610.97 380.09L1593.61 355.3C1592.68 353.98 1592.49 352.39 1593.08 351.03C1593.67 349.67 1594.97 348.73 1596.56 348.5L1630.21 343.66C1631.91 343.41 1633.44 344.02 1634.32 345.27C1634.78 345.93 1635.01 346.69 1635.01 347.49L1635.01 347.48ZM1614.33 374.11L1627.07 350.35L1600.39 354.19L1614.34 374.11L1614.33 374.11Z" fill="#FDA228"/>
</g>
<g opacity="0.77">
<path d="M1805.51 526.25C1805.51 526.75 1805.43 527.26 1805.26 527.78L1794.65 560.08C1794.14 561.63 1793.01 562.72 1791.56 563.07C1790.1 563.42 1788.6 562.95 1787.45 561.79L1766.05 540.39C1764.91 539.25 1764.45 537.72 1764.78 536.28C1765.12 534.84 1766.24 533.68 1767.76 533.18L1800.06 522.57C1801.69 522.04 1803.31 522.36 1804.39 523.44C1805.13 524.18 1805.52 525.17 1805.52 526.24L1805.51 526.25ZM1789.7 555.32L1798.11 529.71L1772.5 538.12L1789.7 555.32Z" fill="#FDA228"/>
</g>
<g opacity="0.95">
<path d="M1149.54 567.21C1149.54 567.83 1149.39 568.44 1149.1 569C1148.38 570.35 1146.93 571.14 1145.21 571.1L1111.22 570.4C1109.59 570.37 1108.21 569.61 1107.46 568.32C1106.7 567.03 1106.71 565.46 1107.48 564.02L1121.69 537.29C1122.44 535.87 1123.77 534.97 1125.25 534.88C1126.73 534.79 1128.16 535.52 1129.08 536.83L1148.68 564.61C1149.26 565.43 1149.55 566.34 1149.55 567.22L1149.54 567.21ZM1114.32 564.28L1141.27 564.84L1125.73 542.81L1114.31 564.28L1114.32 564.28Z" fill="#FDA228"/>
</g>
<g opacity="0.8">
<path d="M820.67 621.84C820.67 622.58 820.48 623.34 820.09 624.06L805.88 650.79C805.13 652.21 803.8 653.11 802.32 653.2C800.84 653.29 799.41 652.56 798.48 651.25L778.89 623.47C777.9 622.07 777.74 620.42 778.46 619.07C779.18 617.72 780.63 616.93 782.35 616.97L816.34 617.68C817.97 617.71 819.35 618.47 820.1 619.76C820.48 620.4 820.67 621.11 820.67 621.84ZM801.82 645.26L813.24 623.79L786.29 623.23L801.83 645.26L801.82 645.26Z" fill="#FDA228"/>
</g>
<g opacity="0.82">
<path d="M651.25 843.62C651.25 845.06 650.48 846.42 649.17 847.27L620.72 865.88C619.28 866.82 617.64 866.92 616.31 866.16C614.98 865.4 614.24 863.92 614.34 862.2L616.23 828.25C616.32 826.62 617.13 825.27 618.44 824.56C619.76 823.85 621.32 823.91 622.74 824.73L648.95 839.87C650.34 840.67 651.2 842.03 651.24 843.51C651.24 843.55 651.24 843.58 651.24 843.62L651.25 843.62ZM620.73 858.49L643.29 843.73L622.23 831.57L620.73 858.49Z" fill="#FDA228"/>
</g>
</g>
</svg>
