<svg width="1736" height="1023" viewBox="0 0 1736 1023" fill="none" xmlns="http://www.w3.org/2000/svg">
<g opacity="0.1" clip-path="url(#clip0_41_530)">
<mask id="mask0_41_530" style="mask-type:luminance" maskUnits="userSpaceOnUse" x="979" y="265" width="45" height="45">
<path d="M1003.77 266.033C991.89 264.783 981.25 273.403 980 285.283C978.75 297.163 987.37 307.803 999.25 309.053C1011.13 310.303 1021.77 301.683 1023.02 289.803C1024.27 277.923 1015.65 267.283 1003.77 266.033Z" fill="white"/>
</mask>
<g mask="url(#mask0_41_530)">
<mask id="mask1_41_530" style="mask-type:luminance" maskUnits="userSpaceOnUse" x="130" y="-22" width="1500" height="1091">
<path d="M1629.74 -21.327L130.43 -21.3268L130.43 1068.14L1629.74 1068.14L1629.74 -21.327Z" fill="white"/>
</mask>
<g mask="url(#mask1_41_530)">
<path opacity="0.85" d="M1010.4 307.242C1021.29 302.33 1026.13 289.526 1021.22 278.643C1016.3 267.759 1003.5 262.918 992.616 267.83C981.732 272.742 976.891 285.546 981.803 296.43C986.715 307.313 999.519 312.154 1010.4 307.242Z" stroke="#1DAAFC" stroke-width="8" stroke-miterlimit="10"/>
</g>
</g>
<mask id="mask2_41_530" style="mask-type:luminance" maskUnits="userSpaceOnUse" x="177" y="622" width="44" height="45">
<path d="M177.5 647.563C179.16 659.393 190.1 667.633 201.92 665.963C213.75 664.303 221.99 653.363 220.32 641.543C218.66 629.713 207.72 621.473 195.9 623.143C184.07 624.803 175.83 635.743 177.5 647.563Z" fill="white"/>
</mask>
<g mask="url(#mask2_41_530)">
<mask id="mask3_41_530" style="mask-type:luminance" maskUnits="userSpaceOnUse" x="68" y="-42" width="1501" height="1091">
<path d="M1568.26 -41.4669L68.9496 -41.4667L68.9498 1048L1568.26 1048L1568.26 -41.4669Z" fill="white"/>
</mask>
<g mask="url(#mask3_41_530)">
<path opacity="0.92" d="M204.511 665.433C216.044 662.343 222.889 650.488 219.798 638.954C216.708 627.421 204.853 620.576 193.319 623.666C181.786 626.757 174.941 638.612 178.032 650.145C181.122 661.679 192.977 668.524 204.511 665.433Z" stroke="#1DAAFC" stroke-width="8" stroke-miterlimit="10"/>
</g>
</g>
<mask id="mask4_41_530" style="mask-type:luminance" maskUnits="userSpaceOnUse" x="1686" y="891" width="45" height="44">
<path d="M1715.2 933.445C1726.57 929.785 1732.82 917.605 1729.16 906.239C1725.5 894.873 1713.32 888.627 1701.95 892.287C1690.58 895.947 1684.34 908.128 1688 919.493C1691.66 930.859 1703.84 937.105 1715.2 933.445Z" fill="white"/>
</mask>
<g mask="url(#mask4_41_530)">
<mask id="mask5_41_530" style="mask-type:luminance" maskUnits="userSpaceOnUse" x="238" y="-11" width="1501" height="1091">
<path d="M1738.26 -10.437L238.949 -10.4368L238.95 1079.03L1738.26 1079.03L1738.26 -10.437Z" fill="white"/>
</mask>
<g mask="url(#mask5_41_530)">
<path opacity="0.78" d="M1708.55 934.643C1720.49 934.643 1730.17 924.963 1730.17 913.023C1730.17 901.083 1720.49 891.403 1708.55 891.403C1696.61 891.403 1686.93 901.083 1686.93 913.023C1686.93 924.963 1696.61 934.643 1708.55 934.643Z" stroke="#1DAAFC" stroke-width="8" stroke-miterlimit="10"/>
</g>
</g>
<mask id="mask6_41_530" style="mask-type:luminance" maskUnits="userSpaceOnUse" x="262" y="918" width="44" height="44">
<path d="M263.442 931.882C259.162 943.032 264.732 955.542 275.882 959.822C287.032 964.102 299.542 958.532 303.822 947.382C308.102 936.232 302.532 923.722 291.382 919.442C280.232 915.162 267.722 920.732 263.442 931.882Z" fill="white"/>
</mask>
<g mask="url(#mask6_41_530)">
<mask id="mask7_41_530" style="mask-type:luminance" maskUnits="userSpaceOnUse" x="173" y="-71" width="1500" height="1091">
<path d="M1672.31 -70.3982L173.002 -70.398L173.002 1019.07L1672.31 1019.07L1672.31 -70.3982Z" fill="white"/>
</mask>
<g mask="url(#mask7_41_530)">
<path opacity="0.7" d="M293.604 958.845C304.188 953.317 308.286 940.256 302.757 929.672C297.229 919.089 284.168 914.991 273.584 920.519C263.001 926.047 258.903 939.108 264.431 949.692C269.959 960.276 283.02 964.374 293.604 958.845Z" stroke="#1DAAFC" stroke-width="8" stroke-miterlimit="10"/>
</g>
</g>
<mask id="mask8_41_530" style="mask-type:luminance" maskUnits="userSpaceOnUse" x="1319" y="7" width="51" height="40">
<path d="M1367.97 39.203C1368.36 39.633 1368.66 40.153 1368.83 40.733C1369.47 42.843 1368.3 45.033 1366.21 45.643C1365.03 45.993 1354.42 48.863 1346.98 43.123C1342.65 39.773 1340.52 34.453 1340.66 27.303C1340.75 22.573 1339.61 19.243 1337.28 17.403C1333.57 14.473 1326.99 15.363 1324.98 15.903C1322.87 16.473 1320.68 15.213 1320.07 13.083C1319.47 10.963 1320.69 8.78304 1322.8 8.21304C1323.27 8.08304 1334.49 5.16304 1342.12 11.183C1346.56 14.683 1348.74 20.203 1348.6 27.593C1348.51 32.043 1349.57 35.153 1351.74 36.843C1355.31 39.613 1361.71 38.623 1363.88 38.003C1365.39 37.573 1366.97 38.083 1367.97 39.193L1367.97 39.203Z" fill="white"/>
</mask>
<g mask="url(#mask8_41_530)">
<mask id="mask9_41_530" style="mask-type:luminance" maskUnits="userSpaceOnUse" x="276" y="-1" width="1500" height="1090">
<path d="M1775.92 -0.917041L276.61 -0.916779L276.61 1088.55L1775.92 1088.55L1775.92 -0.917041Z" fill="white"/>
</mask>
<g mask="url(#mask9_41_530)">
<path opacity="0.91" d="M1332.82 -15.2209L1303.74 10.9622L1356.11 69.1207L1385.19 42.9376L1332.82 -15.2209Z" fill="#FC3E6B"/>
</g>
</g>
<mask id="mask10_41_530" style="mask-type:luminance" maskUnits="userSpaceOnUse" x="812" y="119" width="50" height="40">
<path d="M813.86 127.033C813.47 126.603 813.17 126.083 812.99 125.503C812.35 123.393 813.52 121.203 815.61 120.593C816.79 120.243 827.4 117.373 834.84 123.113C839.17 126.463 841.3 131.783 841.16 138.933C841.07 143.663 842.21 146.993 844.54 148.833C848.25 151.763 854.83 150.873 856.84 150.333C858.95 149.763 861.14 151.023 861.75 153.153C862.35 155.273 861.13 157.453 859.02 158.023C858.55 158.153 847.33 161.073 839.7 155.053C835.26 151.553 833.08 146.033 833.22 138.643C833.31 134.193 832.25 131.083 830.08 129.393C826.51 126.623 820.11 127.613 817.94 128.233C816.43 128.663 814.85 128.153 813.85 127.033L813.86 127.033Z" fill="white"/>
</mask>
<g mask="url(#mask10_41_530)">
<mask id="mask11_41_530" style="mask-type:luminance" maskUnits="userSpaceOnUse" x="168" y="-22" width="1501" height="1091">
<path d="M1668.26 -21.467L168.95 -21.4668L168.95 1068L1668.26 1068L1668.26 -21.467Z" fill="white"/>
</mask>
<g mask="url(#mask11_41_530)">
<path opacity="0.98" d="M825.718 97.1095L796.638 123.293L849.005 181.451L878.084 155.268L825.718 97.1095Z" fill="#FC3E6B"/>
</g>
</g>
<mask id="mask12_41_530" style="mask-type:luminance" maskUnits="userSpaceOnUse" x="215" y="216" width="48" height="43">
<path d="M216.43 223.663C216.07 223.213 215.81 222.673 215.67 222.073C215.18 219.923 216.5 217.813 218.63 217.353C219.83 217.093 230.61 214.963 237.63 221.203C241.72 224.843 243.47 230.303 242.83 237.433C242.41 242.143 243.31 245.543 245.51 247.543C249.01 250.723 255.63 250.293 257.68 249.903C259.82 249.483 261.93 250.893 262.38 253.053C262.83 255.213 261.46 257.303 259.32 257.723C258.84 257.813 247.45 259.953 240.25 253.413C236.06 249.613 234.28 243.953 234.93 236.593C235.33 232.153 234.49 228.983 232.44 227.153C229.07 224.133 222.62 224.683 220.42 225.153C218.88 225.473 217.35 224.853 216.43 223.673L216.43 223.663Z" fill="white"/>
</mask>
<g mask="url(#mask12_41_530)">
<mask id="mask13_41_530" style="mask-type:luminance" maskUnits="userSpaceOnUse" x="48" y="-2" width="1501" height="1091">
<path d="M1548.26 -1.467L48.9496 -1.46674L48.9498 1088L1548.26 1088L1548.26 -1.467Z" fill="white"/>
</mask>
<g mask="url(#mask13_41_530)">
<path opacity="0.8" d="M230.348 194.641L199.513 218.732L247.694 280.401L278.529 256.31L230.348 194.641Z" fill="#FC3E6B"/>
</g>
</g>
<mask id="mask14_41_530" style="mask-type:luminance" maskUnits="userSpaceOnUse" x="0" y="495" width="42" height="47">
<path d="M0.509698 501.463C0.229697 500.963 0.0496974 500.383 0.00969725 499.773C-0.140303 497.573 1.48969 495.703 3.66969 495.573C4.89969 495.503 15.8797 495.093 21.8397 502.353C25.3097 506.593 26.1797 512.253 24.4397 519.193C23.2897 523.783 23.6497 527.283 25.5097 529.593C28.4697 533.283 35.0797 533.893 37.1597 533.823C39.3397 533.743 41.1997 535.463 41.3097 537.673C41.4197 539.873 39.7397 541.723 37.5597 541.803C37.0697 541.823 25.4797 542.143 19.3997 534.563C15.8597 530.153 14.9797 524.283 16.7797 517.123C17.8697 512.803 17.5397 509.533 15.7997 507.403C12.9397 503.893 6.47969 503.423 4.23969 503.543C2.66969 503.623 1.24969 502.763 0.529694 501.463L0.509698 501.463Z" fill="white"/>
</mask>
<g mask="url(#mask14_41_530)">
<mask id="mask15_41_530" style="mask-type:luminance" maskUnits="userSpaceOnUse" x="-92" y="-42" width="1501" height="1091">
<path d="M1408.26 -41.4669L-91.0503 -41.4667L-91.0501 1048L1408.26 1048L1408.26 -41.4669Z" fill="white"/>
</mask>
<g mask="url(#mask15_41_530)">
<path opacity="0.73" d="M18.7894 474.975L-15.4344 493.945L22.5068 562.393L56.7306 543.423L18.7894 474.975Z" fill="#FC3E6B"/>
</g>
</g>
<mask id="mask16_41_530" style="mask-type:luminance" maskUnits="userSpaceOnUse" x="1665" y="664" width="22" height="59">
<path d="M1670.41 667.663C1670.49 667.093 1670.69 666.523 1671.03 666.013C1672.23 664.173 1674.67 663.653 1676.48 664.863C1677.51 665.543 1686.52 671.823 1686.91 681.213C1687.13 686.683 1684.42 691.733 1678.85 696.223C1675.17 699.193 1673.35 702.203 1673.44 705.173C1673.59 709.903 1678.49 714.363 1680.2 715.563C1681.99 716.813 1682.44 719.303 1681.2 721.133C1679.96 722.963 1677.51 723.423 1675.72 722.173C1675.32 721.893 1665.87 715.183 1665.57 705.463C1665.39 699.813 1668.23 694.593 1673.98 689.953C1677.45 687.153 1679.15 684.353 1679.05 681.603C1678.88 677.083 1674 672.823 1672.14 671.563C1670.84 670.683 1670.22 669.143 1670.43 667.663L1670.41 667.663Z" fill="white"/>
</mask>
<g mask="url(#mask16_41_530)">
<mask id="mask17_41_530" style="mask-type:luminance" maskUnits="userSpaceOnUse" x="236" y="-3" width="1501" height="1091">
<path d="M1736.3 -2.3171L236.99 -2.31683L236.99 1087.15L1736.3 1087.15L1736.3 -2.3171Z" fill="white"/>
</mask>
<g mask="url(#mask17_41_530)">
<path opacity="0.94" d="M1662.19 652.069L1651.3 729.568L1690.05 735.014L1700.94 657.515L1662.19 652.069Z" fill="#FC3E6B"/>
</g>
</g>
<mask id="mask18_41_530" style="mask-type:luminance" maskUnits="userSpaceOnUse" x="1203" y="671" width="55" height="35">
<path d="M1205.23 680.773C1204.78 680.413 1204.39 679.963 1204.11 679.413C1203.12 677.453 1203.88 675.083 1205.84 674.123C1206.95 673.573 1216.89 668.903 1225.21 673.263C1230.06 675.813 1233.08 680.673 1234.18 687.753C1234.91 692.423 1236.61 695.503 1239.23 696.913C1243.4 699.153 1249.72 697.133 1251.6 696.253C1253.58 695.333 1255.96 696.183 1256.92 698.173C1257.88 700.163 1257.06 702.513 1255.08 703.443C1254.64 703.653 1244.1 708.483 1235.53 703.873C1230.55 701.203 1227.44 696.143 1226.3 688.843C1225.61 684.443 1224.03 681.563 1221.6 680.283C1217.6 678.173 1211.47 680.263 1209.45 681.243C1208.04 681.933 1206.4 681.693 1205.22 680.773L1205.23 680.773Z" fill="white"/>
</mask>
<g mask="url(#mask18_41_530)">
<mask id="mask19_41_530" style="mask-type:luminance" maskUnits="userSpaceOnUse" x="128" y="-42" width="1501" height="1091">
<path d="M1628.26 -41.467L128.95 -41.4667L128.95 1048L1628.26 1048L1628.26 -41.467Z" fill="white"/>
</mask>
<g mask="url(#mask19_41_530)">
<path opacity="0.99" d="M1211.71 649.244L1187.62 680.079L1249.29 728.261L1273.38 697.426L1211.71 649.244Z" fill="#FC3E6B"/>
</g>
</g>
<g opacity="0.98">
<path d="M1591.45 95.033C1591.45 96.293 1590.86 97.533 1589.8 98.423L1563.83 120.363C1562.52 121.473 1560.9 121.773 1559.49 121.173C1558.08 120.573 1557.17 119.193 1557.05 117.483L1554.79 83.563C1554.69 81.933 1555.32 80.493 1556.54 79.633C1557.76 78.763 1559.32 78.633 1560.83 79.273L1588.69 91.103C1590.17 91.733 1591.18 92.983 1591.4 94.443C1591.43 94.643 1591.45 94.843 1591.45 95.043L1591.45 95.033ZM1562.94 113.023L1583.53 95.623L1561.15 86.123L1562.94 113.023Z" fill="#FDA228"/>
</g>
<g opacity="0.9">
<path d="M765.13 13.6331C765.13 14.7731 764.65 15.9031 763.77 16.8031L739.81 40.9231C738.6 42.1431 737.01 42.5831 735.56 42.1131C734.1 41.6431 733.08 40.3431 732.81 38.6531L727.6 5.05315C727.35 3.44315 727.86 1.95315 729 0.983147C730.14 0.0131465 731.69 -0.256853 733.24 0.253146L762.03 9.60314C763.56 10.1031 764.68 11.2531 765.02 12.6831C765.1 12.9931 765.13 13.3131 765.13 13.6331ZM738.29 33.6831L757.29 14.5631L734.16 7.04314L738.29 33.6831Z" fill="#FDA228"/>
</g>
<g opacity="0.94">
<path d="M94.9496 38.6333C94.9496 39.2833 94.7896 39.9133 94.4696 40.4833C93.7296 41.8233 92.2596 42.5833 90.5496 42.5233L56.5796 41.2233C54.9496 41.1633 53.5896 40.3833 52.8496 39.0733C52.1096 37.7733 52.1496 36.2033 52.9396 34.7733L67.6096 8.29326C68.3896 6.89326 69.7296 6.01326 71.2096 5.94326C72.6896 5.87326 74.1096 6.63326 75.0096 7.96326L94.1196 36.0833C94.6696 36.8933 94.9496 37.7733 94.9496 38.6333ZM59.7896 35.1533L86.7296 36.1833L71.5796 13.8833L59.7896 35.1533Z" fill="#FDA228"/>
</g>
<g opacity="0.88">
<path d="M1551.26 313.423C1551.26 314.153 1551.07 314.903 1550.68 315.623L1534.62 345.593C1533.84 347.033 1532.54 347.913 1531.05 348.003C1529.56 348.093 1528.16 347.373 1527.22 346.033L1509.86 321.243C1508.93 319.923 1508.74 318.333 1509.33 316.973C1509.92 315.613 1511.22 314.673 1512.81 314.443L1546.46 309.603C1548.16 309.353 1549.69 309.963 1550.57 311.213C1551.03 311.873 1551.26 312.633 1551.26 313.433L1551.26 313.423ZM1530.58 340.053L1543.32 316.293L1516.64 320.133L1530.59 340.053L1530.58 340.053Z" fill="#FDA228"/>
</g>
<g opacity="0.77">
<path d="M1721.76 492.193C1721.76 492.693 1721.68 493.203 1721.51 493.723L1710.9 526.023C1710.39 527.573 1709.26 528.663 1707.81 529.013C1706.35 529.363 1704.85 528.893 1703.7 527.733L1682.3 506.333C1681.16 505.193 1680.7 503.663 1681.03 502.223C1681.37 500.783 1682.49 499.623 1684.01 499.123L1716.31 488.513C1717.94 487.983 1719.56 488.303 1720.64 489.383C1721.38 490.123 1721.77 491.113 1721.77 492.183L1721.76 492.193ZM1705.95 521.263L1714.36 495.653L1688.75 504.063L1705.95 521.263Z" fill="#FDA228"/>
</g>
<g opacity="0.95">
<path d="M1065.79 533.153C1065.79 533.773 1065.64 534.383 1065.35 534.943C1064.63 536.293 1063.18 537.083 1061.46 537.043L1027.47 536.343C1025.84 536.313 1024.46 535.553 1023.71 534.263C1022.95 532.973 1022.96 531.403 1023.73 529.963L1037.94 503.233C1038.69 501.813 1040.02 500.913 1041.5 500.823C1042.98 500.733 1044.41 501.463 1045.33 502.773L1064.93 530.553C1065.51 531.373 1065.8 532.283 1065.8 533.163L1065.79 533.153ZM1030.57 530.223L1057.52 530.783L1041.98 508.753L1030.56 530.223L1030.57 530.223Z" fill="#FDA228"/>
</g>
<g opacity="0.8">
<path d="M736.92 587.783C736.92 588.523 736.73 589.283 736.34 590.003L722.13 616.733C721.38 618.153 720.05 619.053 718.57 619.143C717.09 619.233 715.66 618.503 714.73 617.193L695.14 589.413C694.15 588.013 693.99 586.363 694.71 585.013C695.43 583.663 696.88 582.873 698.6 582.913L732.59 583.623C734.22 583.653 735.6 584.413 736.35 585.703C736.73 586.343 736.92 587.053 736.92 587.783ZM718.07 611.203L729.49 589.733L702.54 589.173L718.08 611.203L718.07 611.203Z" fill="#FDA228"/>
</g>
<g opacity="0.82">
<path d="M567.5 809.563C567.5 811.003 566.73 812.363 565.42 813.213L536.97 831.823C535.53 832.763 533.89 832.863 532.56 832.103C531.23 831.343 530.49 829.863 530.59 828.143L532.48 794.193C532.57 792.563 533.38 791.213 534.69 790.503C536.01 789.793 537.57 789.853 538.99 790.673L565.2 805.813C566.59 806.613 567.45 807.973 567.49 809.453C567.49 809.493 567.49 809.523 567.49 809.563L567.5 809.563ZM536.98 824.433L559.54 809.673L538.48 797.513L536.98 824.433Z" fill="#FDA228"/>
</g>
</g>
<defs>
<clipPath id="clip0_41_530">
<rect width="1735.78" height="1022.13" fill="white" transform="translate(0 0.000305176)"/>
</clipPath>
</defs>
</svg>
