<?xml version="1.0" encoding="UTF-8"?>
<svg id="Layer_1" data-name="Layer 1" xmlns="http://www.w3.org/2000/svg" xmlns:xlink="http://www.w3.org/1999/xlink" viewBox="0 0 1920 1080">
  <defs>
    <style>
      .cls-1 {
        opacity: .78;
      }

      .cls-1, .cls-2, .cls-3, .cls-4, .cls-5, .cls-6, .cls-7, .cls-8, .cls-9 {
        isolation: isolate;
      }

      .cls-1, .cls-2, .cls-9 {
        fill: none;
        stroke: #1daafc;
        stroke-miterlimit: 10;
        stroke-width: 8px;
      }

      .cls-10 {
        mask: url(#mask-15);
      }

      .cls-11 {
        mask: url(#mask-17);
      }

      .cls-12 {
        mask: url(#mask-14);
      }

      .cls-13 {
        mask: url(#mask-13);
      }

      .cls-14 {
        mask: url(#mask-12);
      }

      .cls-15 {
        mask: url(#mask-11);
      }

      .cls-16 {
        mask: url(#mask-16);
      }

      .cls-17 {
        mask: url(#mask-10);
      }

      .cls-18 {
        opacity: .1;
      }

      .cls-19 {
        mask: url(#mask);
      }

      .cls-20 {
        fill: #fda228;
      }

      .cls-2 {
        opacity: .85;
      }

      .cls-3 {
        opacity: .73;
      }

      .cls-3, .cls-4, .cls-5, .cls-6, .cls-7, .cls-8 {
        fill: #fc3e6b;
      }

      .cls-4, .cls-21 {
        opacity: .8;
      }

      .cls-5 {
        opacity: .91;
      }

      .cls-6 {
        opacity: .99;
      }

      .cls-7, .cls-22 {
        opacity: .98;
      }

      .cls-8, .cls-23 {
        opacity: .94;
      }

      .cls-24 {
        opacity: .88;
      }

      .cls-25 {
        opacity: .9;
      }

      .cls-26 {
        opacity: .82;
      }

      .cls-27 {
        opacity: .77;
      }

      .cls-28 {
        opacity: .95;
      }

      .cls-9 {
        opacity: .92;
      }

      .cls-29 {
        mask: url(#mask-3);
      }

      .cls-30 {
        mask: url(#mask-2);
      }

      .cls-31 {
        mask: url(#mask-5);
      }

      .cls-32 {
        mask: url(#mask-4);
      }

      .cls-33 {
        mask: url(#mask-1);
      }

      .cls-34 {
        mask: url(#mask-7);
      }

      .cls-35 {
        mask: url(#mask-6);
      }

      .cls-36 {
        mask: url(#mask-8);
      }

      .cls-37 {
        mask: url(#mask-9);
      }
    </style>
    <mask id="mask" x="1063.63" y="299.97" width="43.26" height="43.26" maskUnits="userSpaceOnUse"/>
    <mask id="mask-1" x="214.18" y="12.73" width="1499.31" height="1089.47" maskUnits="userSpaceOnUse"/>
    <mask id="mask-2" x="261.03" y="656.99" width="43.25" height="43.25" maskUnits="userSpaceOnUse"/>
    <mask id="mask-3" x="152.7" y="-7.41" width="1499.31" height="1089.47" maskUnits="userSpaceOnUse"/>
    <mask id="mask-4" x="1770.7" y="925.3" width="43.25" height="43.25" maskUnits="userSpaceOnUse"/>
    <mask id="mask-5" x="322.7" y="23.62" width="1499.31" height="1089.47" maskUnits="userSpaceOnUse"/>
    <mask id="mask-6" x="1403.67" y="41.45" width="49.09" height="39.28" maskUnits="userSpaceOnUse"/>
    <mask id="mask-7" x="360.36" y="33.14" width="1499.31" height="1089.47" maskUnits="userSpaceOnUse"/>
    <mask id="mask-8" x="896.56" y="153.62" width="49.09" height="39.28" maskUnits="userSpaceOnUse"/>
    <mask id="mask-9" x="252.7" y="12.59" width="1499.31" height="1089.47" maskUnits="userSpaceOnUse"/>
    <mask id="mask-10" x="299.32" y="250.85" width="46.9" height="41.33" maskUnits="userSpaceOnUse"/>
    <mask id="mask-11" x="132.7" y="32.59" width="1499.31" height="1089.47" maskUnits="userSpaceOnUse"/>
    <mask id="mask-12" x="83.75" y="529.6" width="41.31" height="46.26" maskUnits="userSpaceOnUse"/>
    <mask id="mask-13" x="-7.3" y="-7.41" width="1499.31" height="1089.47" maskUnits="userSpaceOnUse"/>
    <mask id="mask-14" x="1749.31" y="698.27" width="21.36" height="58.67" maskUnits="userSpaceOnUse"/>
    <mask id="mask-15" x="320.74" y="31.74" width="1499.31" height="1089.47" maskUnits="userSpaceOnUse"/>
    <mask id="mask-16" x="1287.43" y="705.48" width="53.64" height="34.44" maskUnits="userSpaceOnUse"/>
    <mask id="mask-17" x="212.7" y="-7.41" width="1499.31" height="1089.47" maskUnits="userSpaceOnUse"/>
  </defs>
  <g class="cls-18">
    <g class="cls-19">
      <g class="cls-33">
        <path class="cls-2" d="M1094.15,341.3c10.89-4.91,15.73-17.72,10.82-28.6-4.92-10.88-17.72-15.72-28.6-10.81-10.89,4.91-15.73,17.72-10.82,28.6,4.92,10.88,17.72,15.73,28.6,10.81Z"/>
      </g>
    </g>
    <g class="cls-30">
      <g class="cls-29">
        <path class="cls-9" d="M288.26,699.49c11.53-3.09,18.38-14.95,15.29-26.48-3.09-11.53-14.95-18.38-26.48-15.29-11.53,3.09-18.38,14.95-15.29,26.48,3.09,11.53,14.95,18.38,26.48,15.29Z"/>
      </g>
    </g>
    <g class="cls-32">
      <g class="cls-31">
        <path class="cls-1" d="M1792.3,968.7c11.94,0,21.62-9.68,21.62-21.62s-9.68-21.62-21.62-21.62-21.62,9.68-21.62,21.62,9.68,21.62,21.62,21.62Z"/>
      </g>
    </g>
    <g class="cls-35">
      <g class="cls-34">
        <path class="cls-5" d="M1416.57,18.84l-29.08,26.18,52.37,58.16,29.08-26.18-52.37-58.16Z"/>
      </g>
    </g>
    <g class="cls-36">
      <g class="cls-37">
        <path class="cls-7" d="M909.47,131.17l-29.08,26.18,52.37,58.16,29.08-26.18-52.37-58.16Z"/>
      </g>
    </g>
    <g class="cls-17">
      <g class="cls-15">
        <path class="cls-4" d="M314.1,228.7l-30.83,24.09,48.18,61.67,30.83-24.09-48.18-61.67Z"/>
      </g>
    </g>
    <g class="cls-14">
      <g class="cls-13">
        <path class="cls-3" d="M102.54,509.03l-34.22,18.97,37.94,68.45,34.22-18.97-37.94-68.45Z"/>
      </g>
    </g>
    <g class="cls-12">
      <g class="cls-10">
        <path class="cls-8" d="M1745.94,686.13l-10.89,77.5,38.75,5.45,10.89-77.5-38.75-5.45Z"/>
      </g>
    </g>
    <g class="cls-16">
      <g class="cls-11">
        <path class="cls-6" d="M1295.46,683.3l-24.09,30.83,61.67,48.18,24.09-30.84-61.67-48.18Z"/>
      </g>
    </g>
    <g class="cls-22">
      <path class="cls-20" d="M1675.2,129.09c0,1.26-.59,2.5-1.65,3.39l-25.97,21.94c-1.31,1.11-2.93,1.41-4.34,.81-1.41-.6-2.32-1.98-2.44-3.69l-2.26-33.92c-.1-1.63,.53-3.07,1.75-3.93,1.22-.87,2.78-1,4.29-.36l27.86,11.83c1.48,.63,2.49,1.88,2.71,3.34,.03,.2,.05,.4,.05,.6h0Zm-28.51,17.98l20.59-17.4-22.38-9.5,1.79,26.9Z"/>
    </g>
    <g class="cls-25">
      <path class="cls-20" d="M848.88,47.69c0,1.14-.48,2.27-1.36,3.17l-23.96,24.12c-1.21,1.22-2.8,1.66-4.25,1.19-1.46-.47-2.48-1.77-2.75-3.46l-5.21-33.6c-.25-1.61,.26-3.1,1.4-4.07s2.69-1.24,4.24-.73l28.79,9.35c1.53,.5,2.65,1.65,2.99,3.08,.08,.31,.11,.63,.11,.95Zm-26.84,20.05l19-19.12-23.13-7.52,4.13,26.64Z"/>
    </g>
    <g class="cls-23">
      <path class="cls-20" d="M178.7,72.69c0,.65-.16,1.28-.48,1.85-.74,1.34-2.21,2.1-3.92,2.04l-33.97-1.3c-1.63-.06-2.99-.84-3.73-2.15-.74-1.3-.7-2.87,.09-4.3l14.67-26.48c.78-1.4,2.12-2.28,3.6-2.35,1.48-.07,2.9,.69,3.8,2.02l19.11,28.12c.55,.81,.83,1.69,.83,2.55Zm-35.16-3.48l26.94,1.03-15.15-22.3-11.79,21.27Z"/>
    </g>
    <g class="cls-24">
      <path class="cls-20" d="M1635.01,347.48c0,.73-.19,1.48-.58,2.2l-16.06,29.97c-.78,1.44-2.08,2.32-3.57,2.41s-2.89-.63-3.83-1.97l-17.36-24.79c-.93-1.32-1.12-2.91-.53-4.27,.59-1.36,1.89-2.3,3.48-2.53l33.65-4.84c1.7-.25,3.23,.36,4.11,1.61,.46,.66,.69,1.42,.69,2.22h0Zm-20.68,26.62l12.74-23.76-26.68,3.84,13.95,19.92h-.01Z"/>
    </g>
    <g class="cls-27">
      <path class="cls-20" d="M1805.51,526.25c0,.5-.08,1.01-.25,1.53l-10.61,32.3c-.51,1.55-1.64,2.64-3.09,2.99-1.46,.35-2.96-.12-4.11-1.28l-21.4-21.4c-1.14-1.14-1.6-2.67-1.27-4.11,.34-1.44,1.46-2.6,2.98-3.1l32.3-10.61c1.63-.53,3.25-.21,4.33,.87,.74,.74,1.13,1.73,1.13,2.8h-.01Zm-15.81,29.08l8.41-25.61-25.61,8.41,17.2,17.2Z"/>
    </g>
    <g class="cls-28">
      <path class="cls-20" d="M1149.54,567.21c0,.62-.15,1.23-.44,1.79-.72,1.35-2.17,2.14-3.89,2.1l-33.99-.7c-1.63-.03-3.01-.79-3.76-2.08-.76-1.29-.75-2.86,.02-4.3l14.21-26.73c.75-1.42,2.08-2.32,3.56-2.41,1.48-.09,2.91,.64,3.83,1.95l19.6,27.78c.58,.82,.87,1.73,.87,2.61h-.01Zm-35.22-2.94l26.95,.56-15.54-22.03-11.42,21.47h0Z"/>
    </g>
    <g class="cls-21">
      <path class="cls-20" d="M820.67,621.84c0,.74-.19,1.5-.58,2.22l-14.21,26.73c-.75,1.42-2.08,2.32-3.56,2.41-1.48,.09-2.91-.64-3.84-1.95l-19.59-27.78c-.99-1.4-1.15-3.05-.43-4.4,.72-1.35,2.17-2.14,3.89-2.1l33.99,.71c1.63,.03,3.01,.79,3.76,2.08,.38,.64,.57,1.35,.57,2.08Zm-18.85,23.42l11.42-21.47-26.95-.56,15.54,22.03h-.01Z"/>
    </g>
    <g class="cls-26">
      <path class="cls-20" d="M651.25,843.62c0,1.44-.77,2.8-2.08,3.65l-28.45,18.61c-1.44,.94-3.08,1.04-4.41,.28-1.33-.76-2.07-2.24-1.97-3.96l1.89-33.95c.09-1.63,.9-2.98,2.21-3.69,1.32-.71,2.88-.65,4.3,.17l26.21,15.14c1.39,.8,2.25,2.16,2.29,3.64v.11h.01Zm-30.52,14.87l22.56-14.76-21.06-12.16-1.5,26.92Z"/>
    </g>
  </g>
</svg>