<svg width="56" height="56" viewBox="0 0 56 56" fill="none" xmlns="http://www.w3.org/2000/svg">
<g clip-path="url(#clip0_46_878)">
<path d="M54.25 56H1.75C0.784 56 0 55.216 0 54.25V1.75C0 0.784 0.784 0 1.75 0H54.25C55.216 0 56 0.784 56 1.75V54.25C56 55.216 55.216 56 54.25 56ZM3.5 52.5H52.5V3.5H3.5V52.5Z" fill="white"/>
<path d="M22.1667 51.3334C18.578 51.3334 15.456 48.7854 14.7373 45.2761C14.6347 44.7744 14.5833 44.2634 14.5833 43.7501C14.5833 42.7841 15.3673 42.0001 16.3333 42.0001C17.2993 42.0001 18.0833 42.7841 18.0833 43.7501C18.0833 44.0277 18.1113 44.3054 18.1673 44.5761C18.5523 46.4637 20.2347 47.8334 22.1667 47.8334C24.4183 47.8334 26.25 46.0017 26.25 43.7501V27.4167C26.25 26.4507 27.034 25.6667 28 25.6667C28.966 25.6667 29.75 26.4507 29.75 27.4167V43.7501C29.75 47.9314 26.348 51.3334 22.1667 51.3334ZM42.5833 51.3334C38.08 51.3334 34.4167 48.1927 34.4167 44.3334C34.4167 43.3674 35.2007 42.5834 36.1667 42.5834C37.1327 42.5834 37.9167 43.3674 37.9167 44.3334C37.9167 46.2304 40.054 47.8334 42.5833 47.8334C45.1127 47.8334 47.25 46.2304 47.25 44.3334C47.25 42.6161 45.5093 41.2161 42.0747 40.1754C37.1373 38.6751 34.4167 36.0104 34.4167 32.6667C34.4167 28.8074 38.08 25.6667 42.5833 25.6667C47.0867 25.6667 50.75 28.8074 50.75 32.6667C50.75 33.6327 49.966 34.4167 49 34.4167C48.034 34.4167 47.25 33.6327 47.25 32.6667C47.25 30.7697 45.1127 29.1667 42.5833 29.1667C40.054 29.1667 37.9167 30.7697 37.9167 32.6667C37.9167 34.9184 41.16 36.2391 43.092 36.8247C49.4223 38.7451 50.75 41.9674 50.75 44.3334C50.75 48.1927 47.0867 51.3334 42.5833 51.3334Z" fill="white"/>
</g>
<defs>
<clipPath id="clip0_46_878">
<rect width="56" height="56" fill="white"/>
</clipPath>
</defs>
</svg>
