<svg width="48" height="48" viewBox="0 0 48 48" fill="none" xmlns="http://www.w3.org/2000/svg">
<path opacity="0.15" d="M1 4.875C1 3.28718 2.28718 2 3.875 2H44.125C45.7128 2 47 3.28718 47 4.875V30.75C47 32.3378 45.7128 33.625 44.125 33.625H3.875C2.28718 33.625 1 32.3378 1 30.75V4.875Z" fill="#40BB7F"/>
<path d="M35.5 17.8125H12.5M35.5 17.8125L26.875 26.4375M35.5 17.8125L26.875 9.1875M24 45.125H35.5M24 45.125H12.5M24 45.125V33.625M24 33.625H3.875C2.28718 33.625 1 32.3378 1 30.75V4.875C1 3.28718 2.28718 2 3.875 2H44.125C45.7128 2 47 3.28718 47 4.875V30.75C47 32.3378 45.7128 33.625 44.125 33.625H24Z" stroke="#40BB7F" stroke-width="1.5" stroke-linecap="round" stroke-linejoin="round"/>
</svg>
