<?xml version="1.0" encoding="utf-8"?>
<!-- Generator: Adobe Illustrator 27.0.0, SVG Export Plug-In . SVG Version: 6.00 Build 0)  -->
<svg version="1.1" id="Layer_1" xmlns="http://www.w3.org/2000/svg" xmlns:xlink="http://www.w3.org/1999/xlink" x="0px" y="0px"
	 viewBox="0 0 48 48" style="enable-background:new 0 0 48 48;" xml:space="preserve">
<style type="text/css">
	.st0{opacity:0.15;fill:#EEDBB1;enable-background:new    ;}
	.st1{fill:none;stroke:#EEDBB1;stroke-width:1.5;stroke-linecap:round;stroke-linejoin:round;}
</style>
<path class="st0" d="M1,5.3c0-1.6,1.3-2.9,2.9-2.9h40.2c1.6,0,2.9,1.3,2.9,2.9v25.9c0,1.6-1.3,2.9-2.9,2.9H3.9
	c-1.6,0-2.9-1.3-2.9-2.9V5.3z"/>
<path class="st1" d="M35.5,18.2h-23 M35.5,18.2l-8.6,8.6 M35.5,18.2l-8.6-8.6 M24,45.6h11.5 M24,45.6H12.5 M24,45.6V34.1 M24,34.1
	H3.9c-1.6,0-2.9-1.3-2.9-2.9V5.3c0-1.6,1.3-2.9,2.9-2.9h40.2c1.6,0,2.9,1.3,2.9,2.9v25.9c0,1.6-1.3,2.9-2.9,2.9H24z"/>
</svg>
