<svg width="48" height="48" viewBox="0 0 48 48" fill="none" xmlns="http://www.w3.org/2000/svg">
<g clip-path="url(#clip0_713_453)">
<mask id="mask0_713_453" style="mask-type:luminance" maskUnits="userSpaceOnUse" x="0" y="0" width="48" height="48">
<path d="M48 0H0V48H48V0Z" fill="white"/>
</mask>
<g mask="url(#mask0_713_453)">
<path opacity="0.15" d="M47 24C47 36.7025 36.7025 47 24 47C11.2975 47 1 36.7025 1 24C1 11.2975 11.2975 1 24 1C36.7025 1 47 11.2975 47 24Z" fill="#40BB7F"/>
<path d="M13.3518 28.0889C14.4371 30.1413 16.2807 31.8395 18.6048 32.9275C20.929 34.0155 23.6077 34.4344 26.2373 34.1211C28.867 33.8078 31.3053 32.7792 33.1846 31.1904L36.7777 28.4597M36.7778 34.2222V28.0889H30.3889M34.6481 19.9111C33.5628 17.8587 31.7192 16.1605 29.3951 15.0725C27.071 13.9845 24.3923 13.5656 21.7626 13.879C19.1329 14.1923 16.6947 15.2208 14.8153 16.8096L11.2222 19.5403M11.2222 13.7778V19.9111H17.6111M47 24C47 36.7026 36.7026 47 24 47C11.2975 47 1 36.7026 1 24C1 11.2975 11.2975 1 24 1C36.7026 1 47 11.2975 47 24Z" stroke="#40BB7F" stroke-width="1.5" stroke-linecap="round" stroke-linejoin="round"/>
</g>
</g>
<defs>
<clipPath id="clip0_713_453">
<rect width="48" height="48" fill="white"/>
</clipPath>
</defs>
</svg>
