<svg width="48" height="48" viewBox="0 0 48 48" fill="none" xmlns="http://www.w3.org/2000/svg">
<path opacity="0.15" d="M2 17.2355C2 14.2467 4.42293 11.8237 7.41176 11.8237H39.8824C42.8712 11.8237 45.2941 14.2467 45.2941 17.2355V41.5884C45.2941 44.5773 42.8712 47.0002 39.8824 47.0002H7.41176C4.42293 47.0002 2 44.5773 2 41.5884V17.2355Z" fill="#4285F4"/>
<path d="M14.1765 29.4118H33.1176M23.6471 19.9412V38.8824M31.7647 11.8235V6.41176C31.7647 3.42293 29.3418 1 26.3529 1H20.9412C17.9523 1 15.5294 3.42293 15.5294 6.41176V11.8235M7.41176 11.8235H39.8824C42.8712 11.8235 45.2941 14.2465 45.2941 17.2353V41.5882C45.2941 44.5771 42.8712 47 39.8824 47H7.41176C4.42293 47 2 44.5771 2 41.5882V17.2353C2 14.2465 4.42293 11.8235 7.41176 11.8235Z" stroke="#4285F4" stroke-width="1.5" stroke-linecap="round" stroke-linejoin="round"/>
</svg>
