<svg width="48" height="48" viewBox="0 0 48 48" fill="none" xmlns="http://www.w3.org/2000/svg">
<path opacity="0.15" d="M20.3688 21.3684C25.7172 21.3684 30.053 17.0327 30.053 11.6842C30.053 6.33577 25.7172 2 20.3688 2C15.0203 2 10.6846 6.33577 10.6846 11.6842C10.6846 17.0327 15.0203 21.3684 20.3688 21.3684Z" fill="#00AEEF"/>
<path d="M42.0444 26.2105V26.1984M37.3158 12.6526C37.9473 10.6881 39.8256 9.26316 42.0445 9.26316C44.7813 9.26316 47 11.431 47 14.1053C47 17.9953 42.8418 16.0827 42.1579 20.1579M10.6842 31.0526H30.0526C35.4011 31.0526 39.7368 35.3884 39.7368 40.7368V45.5789H1V40.7368C1 35.3884 5.33577 31.0526 10.6842 31.0526ZM30.0526 11.6842C30.0526 17.0327 25.7169 21.3684 20.3684 21.3684C15.02 21.3684 10.6842 17.0327 10.6842 11.6842C10.6842 6.33577 15.02 2 20.3684 2C25.7169 2 30.0526 6.33577 30.0526 11.6842Z" stroke="#00AEEF" stroke-width="1.5" stroke-linecap="round" stroke-linejoin="round"/>
</svg>
