<svg width="56" height="56" viewBox="0 0 56 56" fill="none" xmlns="http://www.w3.org/2000/svg">
<g clip-path="url(#clip0_46_849)">
<path d="M15.75 41.8333C14.784 41.8333 14 41.0493 14 40.0833V16.75C14 15.784 14.784 15 15.75 15H21C25.5033 15 29.1667 18.6633 29.1667 23.1667C29.1667 27.67 25.5033 31.3333 21 31.3333H17.5V40.0833C17.5 41.0493 16.716 41.8333 15.75 41.8333ZM17.5 27.8333H21C23.5737 27.8333 25.6667 25.7403 25.6667 23.1667C25.6667 20.593 23.5737 18.5 21 18.5H17.5V27.8333ZM36.75 41.8333H33.25C32.284 41.8333 31.5 41.0493 31.5 40.0833C31.5 39.1173 32.284 38.3333 33.25 38.3333H36.75C37.7137 38.3333 38.5 37.5493 38.5 36.5833C38.5 35.6173 37.7137 34.8333 36.75 34.8333C33.8567 34.8333 31.5 32.479 31.5 29.5833C31.5 26.6877 33.8567 24.3333 36.75 24.3333H40.25C41.216 24.3333 42 25.1173 42 26.0833C42 27.0493 41.216 27.8333 40.25 27.8333H36.75C35.7863 27.8333 35 28.6173 35 29.5833C35 30.5493 35.7863 31.3333 36.75 31.3333C39.6433 31.3333 42 33.6877 42 36.5833C42 39.479 39.6433 41.8333 36.75 41.8333Z" fill="white"/>
<path d="M49.581 56H6.419C2.87933 56 0 53.1207 0 49.581V6.419C0 2.87933 2.87933 0 6.419 0H49.581C53.1207 0 56 2.87933 56 6.419V49.5787C56 53.1207 53.1207 56 49.581 56ZM6.419 3.5C4.81133 3.5 3.5 4.81133 3.5 6.419V49.5787C3.5 51.1887 4.81133 52.4977 6.419 52.4977H49.581C51.1887 52.4977 52.5 51.1863 52.5 49.5787V6.419C52.5 4.809 51.1887 3.5 49.581 3.5H6.419Z" fill="white"/>
</g>
<defs>
<clipPath id="clip0_46_849">
<rect width="56" height="56" fill="white"/>
</clipPath>
</defs>
</svg>
