<svg width="24" height="24" viewBox="0 0 24 24" fill="none" xmlns="http://www.w3.org/2000/svg">
<mask id="mask0_26_121" style="mask-type:luminance" maskUnits="userSpaceOnUse" x="2" y="2" width="20" height="20">
<path d="M22 2H2V22H22V2Z" fill="white"/>
</mask>
<g mask="url(#mask0_26_121)">
<path d="M8.75867 3.23652C8.7001 3.19815 8.65305 3.14292 8.62301 3.07729C8.59296 3.01165 8.58115 2.93832 8.58895 2.86584C8.59675 2.79337 8.62384 2.72474 8.66708 2.66796C8.7103 2.61118 8.76788 2.56859 8.83308 2.54517C10.1572 2.0618 11.5663 1.89686 12.9581 2.06235C14.3499 2.22784 15.6895 2.71959 16.8795 3.5019C16.9227 3.53071 16.9595 3.56883 16.9879 3.61375C17.0162 3.65867 17.0352 3.70941 17.0438 3.76266C17.0524 3.81591 17.0502 3.87046 17.0375 3.92279C17.0249 3.97511 17.002 4.02401 16.9704 4.06632C15.9195 5.489 14.6308 6.69492 13.1685 7.62402C11.9873 5.86658 10.4883 4.37523 8.75867 3.23652ZM11.8725 8.34614C10.547 6.42989 8.80318 4.88225 6.79015 3.83556C6.73251 3.8059 6.66841 3.7932 6.60454 3.79878C6.54068 3.80436 6.47941 3.82802 6.42712 3.86729C4.79749 5.10229 3.57929 6.85279 2.94753 8.8673C2.93165 8.9188 2.92623 8.97329 2.93162 9.02717C2.93701 9.08105 2.95308 9.13312 2.97879 9.17998C3.0045 9.22681 3.03925 9.26737 3.08079 9.29899C3.12232 9.33061 3.16969 9.35257 3.21979 9.36345C4.16708 9.57977 5.13319 9.69 6.10222 9.6923C8.09516 9.69344 10.0643 9.23405 11.8725 8.34614ZM21.2931 10.9125C21.0622 8.68223 20.1289 6.59938 18.6439 4.99999C18.6077 4.96101 18.564 4.93066 18.5159 4.91097C18.4677 4.89129 18.4161 4.8827 18.3646 4.8858C18.3131 4.88889 18.2627 4.90359 18.2169 4.92892C18.1713 4.95425 18.1312 4.98961 18.0993 5.03268C16.9507 6.58304 15.5457 7.89931 13.9526 8.9173C14.4504 9.83073 14.8622 10.7937 15.1824 11.7923C16.4826 11.4188 17.824 11.23 19.1712 11.2308C19.7473 11.2308 20.3229 11.2651 20.8955 11.3336C20.9488 11.3393 21.0026 11.3323 21.0531 11.3134C21.1035 11.2944 21.1494 11.2638 21.1874 11.2238C21.2254 11.1838 21.2546 11.1355 21.2728 11.0821C21.2911 11.0288 21.298 10.9719 21.2931 10.9154V10.9125ZM15.5835 13.2683C15.8526 14.4806 15.9881 15.7219 15.9874 16.9672C15.9868 18.1594 15.8618 19.3476 15.6144 20.5106C15.5986 20.5818 15.6022 20.6564 15.6251 20.7254C15.6478 20.7945 15.6887 20.8552 15.7429 20.9006C15.7971 20.9459 15.8624 20.9739 15.9311 20.9813C15.9998 20.9888 16.0691 20.9751 16.1308 20.9422C17.5073 20.2108 18.6945 19.1343 19.5892 17.8063C20.4839 16.4783 21.0591 14.939 21.2649 13.3221C21.2711 13.2717 21.2679 13.2205 21.2553 13.1714C21.2427 13.1223 21.2211 13.0764 21.1915 13.0362C21.1621 12.9961 21.1254 12.9625 21.0837 12.9375C21.0419 12.9124 20.9958 12.8964 20.9481 12.8904C19.1534 12.6456 17.3308 12.7763 15.5835 13.275V13.2683ZM13.8011 12.2635C13.5085 11.3542 13.1318 10.4779 12.6766 9.6471C10.6252 10.6913 8.37811 11.2325 6.10222 11.2308C5.03837 11.2308 3.97743 11.1132 2.93664 10.8798C2.88642 10.8686 2.83453 10.8688 2.78438 10.8803C2.73424 10.8919 2.68698 10.9146 2.64573 10.947C2.60448 10.9793 2.57017 11.0206 2.54507 11.068C2.51996 11.1154 2.50464 11.1679 2.5001 11.2221C2.48134 11.4785 2.47166 11.7378 2.47105 12C2.47058 13.3693 2.73625 14.724 3.25151 15.9797C3.76678 17.2355 4.52061 18.3654 5.46602 19.299C5.5059 19.3377 5.55344 19.3665 5.60517 19.3832C5.6569 19.4 5.71151 19.4044 5.76501 19.3959C5.81851 19.3874 5.86955 19.3664 5.91438 19.3342C5.95922 19.3022 5.99674 19.26 6.02417 19.2106C7.79556 16.0261 10.5388 13.5766 13.8011 12.2663V12.2635ZM7.16316 20.1971C7.1393 20.2413 7.12395 20.29 7.11797 20.3404C7.11199 20.3909 7.11552 20.4421 7.12836 20.4911C7.14118 20.5401 7.16306 20.5859 7.19271 20.6259C7.22237 20.6659 7.25921 20.6993 7.30111 20.724C9.19912 21.8515 11.4068 22.2486 13.5497 21.8481C13.6134 21.8363 13.673 21.8064 13.7219 21.7615C13.7708 21.7166 13.8073 21.6585 13.8274 21.5933C14.2955 20.1024 14.5345 18.5414 14.5353 16.9701C14.5355 15.8877 14.4217 14.8086 14.1959 13.7529C11.2221 14.9805 8.7384 17.2563 7.16316 20.1971Z" fill="white"/>
</g>
</svg>
