<svg width="48" height="48" viewBox="0 0 48 48" fill="none" xmlns="http://www.w3.org/2000/svg">
<circle opacity="0.15" cx="33" cy="36" r="11" fill="#EEDBB1"/>
<path d="M32.8378 31.3351V35.5311L35.0757 38.0486M15.4324 20.8919H3M42.7838 15.9189V10.9459C42.7838 8.19945 40.5573 5.97297 37.8108 5.97297H7.97297C5.22648 5.97297 3 8.19945 3 10.9459V40.7838C3 43.5303 5.22648 45.7568 7.97297 45.7568H15.4324M30.3514 1V10.9459M15.4324 1V10.9459M44.027 35.8108C44.027 41.9904 39.0175 47 32.8378 47C26.6582 47 21.6486 41.9904 21.6486 35.8108C21.6486 29.6312 26.6582 24.6216 32.8378 24.6216C39.0175 24.6216 44.027 29.6312 44.027 35.8108Z" stroke="#EEDBB1" stroke-width="1.5" stroke-linecap="round" stroke-linejoin="round"/>
</svg>
