<svg width="56" height="56" viewBox="0 0 56 56" fill="none" xmlns="http://www.w3.org/2000/svg">
<g clip-path="url(#clip0_46_874)">
<path d="M15.4933 56C15.155 56 14.8167 55.902 14.518 55.7014C13.7153 55.1624 13.503 54.0727 14.0443 53.2724C14.4363 52.6914 14.784 51.898 15.0803 50.911C15.358 49.987 16.3333 49.4597 17.2597 49.7374C18.186 50.015 18.711 50.9904 18.4333 51.9167C18.032 53.2584 17.5467 54.3434 16.9493 55.2277C16.6063 55.7294 16.0533 56 15.4933 56ZM3.829 56C3.339 56 2.85133 55.7947 2.506 55.3957C0.842333 53.4777 0 50.6777 0 47.0774C0 43.449 0.847 40.53 2.52233 38.402C4.32133 36.1644 6.741 35.0374 9.73 35.0374C12.6677 35.0374 14.8703 35.8307 16.4663 37.464C17.3717 38.374 18.0927 39.6924 18.5943 41.3724C18.872 42.2987 18.3447 43.274 17.4183 43.5517C16.492 43.8224 15.519 43.302 15.239 42.3757C14.8213 40.9804 14.3197 40.271 13.972 39.921C13.0457 38.9737 11.7017 38.5374 9.73 38.5374C7.77467 38.5374 6.39567 39.1674 5.25933 40.579C4.095 42.0607 3.5 44.2517 3.5 47.0774C3.5 49.812 4.05533 51.8397 5.14967 53.1044C5.782 53.8347 5.70267 54.9407 4.97233 55.573C4.641 55.86 4.23267 56 3.829 56ZM23.569 56C22.9857 56 22.4163 55.7084 22.085 55.1787C21.364 54.0307 21 52.6214 21 50.9927C21 50.0267 21.784 49.2427 22.75 49.2427C23.716 49.2427 24.5 50.0267 24.5 50.9927C24.5 51.9564 24.6843 52.738 25.0507 53.3214C25.564 54.1404 25.3143 55.2184 24.4953 55.734C24.2083 55.9137 23.8863 56 23.569 56ZM35.0467 56C34.7527 56 34.454 55.9254 34.181 55.769C33.341 55.2907 33.0493 54.222 33.5277 53.382C33.782 52.934 34.006 52.22 33.6233 51.366C32.928 49.8214 30.611 48.531 27.2673 47.8287C22.5493 46.851 21.0957 43.645 21.287 41.1974C21.511 38.3134 24.0123 35.28 28.3593 35.0654C34.1273 34.7644 36.6287 38.2317 37.135 40.1054C37.387 41.0387 36.8363 42 35.903 42.252C34.9883 42.504 34.0293 41.9627 33.7633 41.0457C33.6677 40.7494 32.781 38.3484 28.5343 38.5607C26.2033 38.675 24.8803 40.1124 24.7753 41.4704C24.668 42.868 25.8673 43.9647 27.9837 44.4057C33.775 45.6237 35.9823 48.083 36.8153 49.9334C37.5737 51.6227 37.485 53.5104 36.568 55.118C36.2437 55.6827 35.6533 56 35.0467 56ZM42.2357 56C41.6523 56 41.083 55.7084 40.7517 55.1787C40.0307 54.0307 39.6667 52.6214 39.6667 50.9927C39.6667 50.0267 40.4507 49.2427 41.4167 49.2427C42.3827 49.2427 43.1667 50.0267 43.1667 50.9927C43.1667 51.9564 43.351 52.738 43.7173 53.3214C44.2307 54.1404 43.981 55.2184 43.162 55.734C42.875 55.9137 42.553 56 42.2357 56ZM53.7133 56C53.417 56 53.1183 55.9254 52.843 55.7667C52.0053 55.286 51.716 54.215 52.1967 53.3797C52.402 53.0227 52.5 52.6634 52.5 52.2807C52.5 50.792 50.7757 48.8414 45.9363 47.831C41.216 46.851 39.7623 43.645 39.9537 41.1974C40.1777 38.3134 42.679 35.28 47.026 35.0654C52.8173 34.7644 55.2953 38.2317 55.8017 40.1054C56.0537 41.0387 55.503 42 54.5697 42.252C53.6363 42.4947 52.675 41.9534 52.423 41.02C52.346 40.7727 51.4617 38.346 47.2033 38.5607C44.8723 38.675 43.5493 40.1124 43.4443 41.4704C43.337 42.868 44.5363 43.9647 46.6527 44.4057C55.3257 46.2164 56 50.8924 56 52.2807C56 53.277 55.741 54.2314 55.23 55.1204C54.908 55.685 54.3177 56 53.7133 56Z" fill="white"/>
<path d="M1.75 36.337C0.784 36.337 0 35.553 0 34.587V1.75C0 0.784 0.784 0 1.75 0H54.25C55.216 0 56 0.784 56 1.75V33.5533C56 34.5193 55.216 35.3033 54.25 35.3033C53.284 35.3033 52.5 34.5193 52.5 33.5533V3.5H3.5V34.587C3.5 35.553 2.716 36.337 1.75 36.337Z" fill="white"/>
</g>
<defs>
<clipPath id="clip0_46_874">
<rect width="56" height="56" fill="white"/>
</clipPath>
</defs>
</svg>
