<svg width="48" height="48" viewBox="0 0 48 48" fill="none" xmlns="http://www.w3.org/2000/svg">
<path opacity="0.15" d="M9 6.11111C9 3.28832 11.2883 1 14.1111 1H34.5556C37.3783 1 39.6667 3.28832 39.6667 6.11111V41.8889C39.6667 44.7117 37.3783 47 34.5556 47H14.1111C11.2883 47 9 44.7117 9 41.8889V6.11111Z" fill="#EEDBB1"/>
<path d="M24.3333 39.3589V39.3333M14.1111 1H34.5556C37.3783 1 39.6667 3.28832 39.6667 6.11111V41.8889C39.6667 44.7117 37.3783 47 34.5556 47H14.1111C11.2883 47 9 44.7117 9 41.8889V6.11111C9 3.28832 11.2883 1 14.1111 1Z" stroke="#EEDBB1" stroke-width="1.5" stroke-linecap="round" stroke-linejoin="round"/>
</svg>
