<svg width="90" height="90" viewBox="0 0 90 90" fill="none" xmlns="http://www.w3.org/2000/svg">
<rect x="39" y="4" width="51" height="51" rx="25.5" fill="#1ED760"/>
<path fill-rule="evenodd" clip-rule="evenodd" d="M67 19H5V69H67V19ZM0 14V74H72V14H0Z" fill="#0F0F0F"/>
<rect x="11" y="23" width="5" height="5" fill="#0F0F0F"/>
<rect x="19" y="23" width="5" height="5" fill="#0F0F0F"/>
<rect x="27" y="23" width="5" height="5" fill="#0F0F0F"/>
<rect x="11" y="36" width="51" height="5" fill="#0F0F0F"/>
<path fill-rule="evenodd" clip-rule="evenodd" d="M11 74V81V86H16H79H84V81V31V26H79H72V31H79V81H16V74H11Z" fill="#0F0F0F"/>
<path fill-rule="evenodd" clip-rule="evenodd" d="M11 45H62V50V74H57V50H16V74H11V50V45Z" fill="#0F0F0F"/>
</svg>
