<svg width="56" height="56" viewBox="0 0 56 56" fill="none" xmlns="http://www.w3.org/2000/svg">
<g clip-path="url(#clip0_46_838)">
<path d="M40.0841 41.8341C39.1181 41.8341 38.3341 41.0501 38.3341 40.0841V23.7507C38.3341 22.7847 39.1181 22.0007 40.0841 22.0007C41.0501 22.0007 41.8341 22.7847 41.8341 23.7507V40.0841C41.8341 41.0501 41.0501 41.8341 40.0841 41.8341ZM40.0841 20.8341C39.1181 20.8341 38.3341 20.0501 38.3341 19.0841V16.7507C38.3341 15.7847 39.1181 15.0007 40.0841 15.0007C41.0501 15.0007 41.8341 15.7847 41.8341 16.7507V19.0841C41.8341 20.0501 41.0501 20.8341 40.0841 20.8341ZM33.0841 41.8341C32.3305 41.8341 31.6351 41.3464 31.4065 40.5857L24.7821 18.5007H21.4175C20.4515 18.5007 19.6675 17.7167 19.6675 16.7507C19.6675 15.7847 20.4515 15.0007 21.4175 15.0007H26.0841C26.8565 15.0007 27.5378 15.5071 27.7618 16.2491L34.7618 39.5824C35.0371 40.5064 34.5145 41.4817 33.5881 41.7617C33.4201 41.8107 33.2498 41.8341 33.0841 41.8341Z" fill="white"/>
<path d="M16.7509 41.834C16.5852 41.834 16.4149 41.8107 16.2469 41.7593C15.3229 41.4817 14.7979 40.5063 15.0732 39.58L22.0732 16.2467C22.3509 15.3203 23.3169 14.7953 24.2549 15.0753C25.1789 15.353 25.7039 16.3283 25.4286 17.2547L18.4286 40.588C18.1999 41.3463 17.5046 41.834 16.7509 41.834Z" fill="white"/>
<path d="M30.2842 32.5007H20.1342C19.1682 32.5007 18.3842 31.7167 18.3842 30.7507C18.3842 29.7847 19.1682 29.0007 20.1342 29.0007H30.2842C31.2502 29.0007 32.0342 29.7847 32.0342 30.7507C32.0342 31.7167 31.2502 32.5007 30.2842 32.5007Z" fill="white"/>
<path d="M49.581 56H6.419C2.87933 56 0 53.1207 0 49.581V6.419C0 2.87933 2.87933 0 6.419 0H49.581C53.1207 0 56 2.87933 56 6.419V49.5787C56 53.1207 53.1207 56 49.581 56ZM6.419 3.5C4.81133 3.5 3.5 4.81133 3.5 6.419V49.5787C3.5 51.1887 4.81133 52.4977 6.419 52.4977H49.581C51.1887 52.4977 52.5 51.1863 52.5 49.5787V6.419C52.5 4.809 51.1887 3.5 49.581 3.5H6.419Z" fill="white"/>
</g>
<defs>
<clipPath id="clip0_46_838">
<rect width="56" height="56" fill="white"/>
</clipPath>
</defs>
</svg>
