<svg width="56" height="56" viewBox="0 0 56 56" fill="none" xmlns="http://www.w3.org/2000/svg">
<path d="M27.9417 56C27.7527 56 27.5637 55.9697 27.3817 55.909L8.82701 49.6557C8.16901 49.434 7.70468 48.8437 7.64401 48.153L3.50701 1.90633C3.46268 1.41633 3.62834 0.933333 3.95968 0.569333C4.29101 0.205333 4.76001 0 5.25001 0H50.75C51.24 0 51.709 0.205333 52.0403 0.569333C52.3717 0.933333 52.535 1.41633 52.493 1.90633L48.3583 48.153C48.2977 48.846 47.8287 49.4363 47.1707 49.6557L28.497 55.909C28.3173 55.9697 28.1283 56 27.9417 56ZM11.0273 46.704L27.944 52.4043L44.975 46.7017L48.8367 3.5H7.16568L11.0273 46.704Z" fill="white"/>
<path d="M27.4167 44.3334C27.1903 44.3334 26.9617 44.2891 26.747 44.2004L16.8467 40.1077C16.2773 39.8721 15.8737 39.3564 15.7827 38.7474L15.183 34.6734C15.043 33.7167 15.7033 32.8278 16.66 32.6854C17.6097 32.5384 18.5057 33.2057 18.648 34.1624L19.103 37.2541L27.4167 40.6911L35.714 37.2611L37.0883 26.8334H16.24C15.2997 26.8334 14.525 26.0891 14.49 25.1464L14 11.7297C13.9837 11.2561 14.161 10.7941 14.49 10.4511C14.8213 10.1104 15.274 9.91675 15.75 9.91675H40.25C41.216 9.91675 42 10.7007 42 11.6667C42 12.6327 41.216 13.4167 40.25 13.4167H17.5653L17.927 23.3334H39.0833C39.5873 23.3334 40.0657 23.5504 40.3993 23.9284C40.733 24.3087 40.8847 24.8104 40.8193 25.3121L39.053 38.7194C38.9713 39.3401 38.5653 39.8697 37.9867 40.1077L28.0863 44.2004C27.8717 44.2891 27.643 44.3334 27.4167 44.3334Z" fill="white"/>
</svg>
