<svg width="48" height="48" viewBox="0 0 48 48" fill="none" xmlns="http://www.w3.org/2000/svg">
<path opacity="0.15" d="M20.2242 21.2239C25.5328 21.2239 29.8362 16.9205 29.8362 11.6119C29.8362 6.30341 25.5328 2 20.2242 2C14.9157 2 10.6123 6.30341 10.6123 11.6119C10.6123 16.9205 14.9157 21.2239 20.2242 21.2239Z" fill="#4285F4"/>
<path d="M29.8358 30.8358H10.6119C5.30341 30.8358 1 35.1392 1 40.4478V45.2537H39.4478V40.4478C39.4478 35.1392 35.1443 30.8358 29.8358 30.8358Z" stroke="#4285F4" stroke-width="1.5" stroke-linecap="round" stroke-linejoin="round"/>
<path d="M20.2239 21.2239C25.5324 21.2239 29.8358 16.9205 29.8358 11.6119C29.8358 6.30341 25.5324 2 20.2239 2C14.9154 2 10.6119 6.30341 10.6119 11.6119C10.6119 16.9205 14.9154 21.2239 20.2239 21.2239Z" stroke="#4285F4" stroke-width="1.5" stroke-linecap="round" stroke-linejoin="round"/>
<path d="M40.3267 16.6239L39.9695 16.2767C39.3842 15.7077 38.5904 15.388 37.7627 15.388C36.0149 15.388 34.6418 16.6753 34.6418 19.0659C34.6418 23.1119 40.8209 25.6865 40.8209 25.6865C40.8209 25.6865 47 23.1119 47 19.0659C47 16.6753 45.6027 15.388 43.8791 15.388C43.0514 15.388 42.2575 15.7077 41.6723 16.2767L41.3151 16.6239C41.0451 16.8864 40.5967 16.8864 40.3267 16.6239Z" stroke="#4285F4" stroke-width="1.5" stroke-linecap="round" stroke-linejoin="round"/>
</svg>
