<svg width="48" height="48" viewBox="0 0 48 48" fill="none" xmlns="http://www.w3.org/2000/svg">
<path opacity="0.15" d="M47 24C47 36.7026 36.7026 47 24 47C11.2975 47 1 36.7026 1 24C1 11.2975 11.2975 1 24 1C36.7026 1 47 11.2975 47 24Z" fill="#42C7F4"/>
<path d="M24 11.2478V11.2223M24 36.7778L24 18.8889M47 24C47 36.7026 36.7026 47 24 47C11.2975 47 1 36.7026 1 24C1 11.2975 11.2975 1 24 1C36.7026 1 47 11.2975 47 24Z" stroke="#42C7F4" stroke-width="1.5" stroke-linecap="round" stroke-linejoin="round"/>
</svg>
