<svg width="48" height="48" viewBox="0 0 48 48" fill="none" xmlns="http://www.w3.org/2000/svg">
<path opacity="0.15" d="M8.44444 41L4 15.1538L16.2222 24.8462L24 13L31.7778 24.8462L44 15.1538L39.5556 41H8.44444Z" fill="#BD9456"/>
<path d="M43.7143 14.75L39.3333 41H8.66667L4.28571 14.75M43.7143 14.75L31.6667 24.5938L24 12.5625M43.7143 14.75C45.5289 14.75 47 13.2809 47 11.4688C47 9.65657 45.5289 8.1875 43.7143 8.1875C41.8996 8.1875 40.4286 9.65657 40.4286 11.4688C40.4286 13.2809 41.8996 14.75 43.7143 14.75ZM24 12.5625L16.3333 24.5938L4.28571 14.75M24 12.5625C25.8146 12.5625 27.2857 11.0934 27.2857 9.28125C27.2857 7.46907 25.8146 6 24 6C22.1853 6 20.7143 7.46907 20.7143 9.28125C20.7143 11.0934 22.1853 12.5625 24 12.5625ZM4.28571 14.75C6.10036 14.75 7.57143 13.2809 7.57143 11.4688C7.57143 9.65657 6.10036 8.1875 4.28571 8.1875C2.47106 8.1875 1 9.65657 1 11.4688C1 13.2809 2.47106 14.75 4.28571 14.75Z" stroke="#BD9456" stroke-width="1.5" stroke-linecap="round" stroke-linejoin="round"/>
</svg>
