<?xml version="1.0" encoding="utf-8"?>
<!-- Generator: Adobe Illustrator 27.0.0, SVG Export Plug-In . SVG Version: 6.00 Build 0)  -->
<svg version="1.1" id="Layer_1" xmlns="http://www.w3.org/2000/svg" xmlns:xlink="http://www.w3.org/1999/xlink" x="0px" y="0px"
	 viewBox="0 0 48 48" style="enable-background:new 0 0 48 48;" xml:space="preserve">
<style type="text/css">
	.st0{opacity:0.15;fill:#EEDBB1;enable-background:new    ;}
	.st1{fill:none;stroke:#EEDBB1;stroke-width:1.5;stroke-linecap:round;stroke-linejoin:round;}
</style>
<path class="st0" d="M47,24c0,12.7-10.3,23-23,23S1,36.7,1,24S11.3,1,24,1S47,11.3,47,24z"/>
<path class="st1" d="M13.4,28.1c1.1,2.1,2.9,3.8,5.3,4.8c2.3,1.1,5,1.5,7.6,1.2c2.6-0.3,5.1-1.3,6.9-2.9l3.6-2.7 M36.8,34.2v-6.1
	h-6.4 M34.6,19.9c-1.1-2.1-2.9-3.8-5.3-4.8c-2.3-1.1-5-1.5-7.6-1.2c-2.6,0.3-5.1,1.3-6.9,2.9l-3.6,2.7 M11.2,13.8v6.1h6.4 M47,24
	c0,12.7-10.3,23-23,23S1,36.7,1,24S11.3,1,24,1S47,11.3,47,24z"/>
</svg>
