<svg width="48" height="48" viewBox="0 0 48 48" fill="none" xmlns="http://www.w3.org/2000/svg">
<path opacity="0.15" d="M2 6.81818C2 5.26174 3.23122 4 4.75 4H43.25C44.7688 4 46 5.26174 46 6.81818V32.1818C46 33.7383 44.7688 35 43.25 35H4.75C3.23122 35 2 33.7383 2 32.1818V6.81818Z" fill="#4285F4"/>
<path d="M35 19.4H13M35 19.4L26.75 27.8M35 19.4L26.75 11M24 46H35M24 46H13M24 46V34.8M24 34.8H4.75C3.23122 34.8 2 33.5464 2 32V6.8C2 5.2536 3.23122 4 4.75 4H43.25C44.7688 4 46 5.2536 46 6.8V32C46 33.5464 44.7688 34.8 43.25 34.8H24Z" stroke="#4285F4" stroke-width="1.5" stroke-linecap="round" stroke-linejoin="round"/>
</svg>
