<svg fill="none" height="56" viewBox="0 0 56 56" width="56" xmlns="http://www.w3.org/2000/svg"><g fill="#fff"><path d="m36.4583 38.4931c-5.6257 0-10.2037-4.7087-10.2037-10.4953 0-5.7867 4.578-10.4954 10.2037-10.4954s10.2037 4.7087 10.2037 10.4954c0 5.7866-4.578 10.4953-10.2037 10.4953zm0-17.4907c-3.696 0-6.7037 3.1384-6.7037 6.9954s3.0077 6.9953 6.7037 6.9953 6.7037-3.1383 6.7037-6.9953-3.0077-6.9954-6.7037-6.9954z"/><path d="m19.5393 56c-5.628 0-10.20605-4.7087-10.20605-10.4977 0-3.6493 1.81765-6.8716 4.56865-8.7546-2.751-1.883-4.56865-5.1007-4.56865-8.7477 0-3.6447 1.82005-6.867 4.57565-8.7523-2.7556-1.8807-4.57565-5.103-4.57565-8.75 0-5.78903 4.57805-10.4977 10.20605-10.4977h16.9236c5.6257 0 10.2037 4.71333 10.2037 10.507 0 5.7867-4.578 10.4977-10.206 10.4977l-6.7177-.0047v24.5023c0 5.789-4.578 10.4977-10.2036 10.4977zm0-17.5023c-3.696 0-6.706 3.143-6.706 7.007 0 3.857 3.0076 6.9976 6.706 6.9976 3.6983 0 6.706-3.1383 6.706-6.9976v-26.2547c0-.966.784-1.75 1.75-1.75h8.4653c1.7803 0 3.4557-.721 4.7203-2.0277 1.281-1.323 1.9857-3.0846 1.9857-4.9653 0-3.864-3.0077-7.007-6.706-7.007h-16.9213c-3.6984 0-6.706 3.13833-6.706 6.9977 0 3.8593 3.0076 6.9976 6.706 6.9976.966 0 1.75.7817 1.75 1.7477s-.7794 1.75-1.7477 1.7523c-3.6983.0047-6.7083 3.15-6.7083 7.0047 0 3.857 3.0076 6.9977 6.706 6.9977.966 0 1.75.784 1.75 1.75s-.784 1.75-1.75 1.75z"/><path d="m0 0h13.125v3.5h-13.125z" transform="matrix(1 0 0 -1 19.25 21)"/><path d="m0 0h11.375v3.5h-11.375z" transform="matrix(1 0 0 -1 17.5 38.5)"/><path d="m0 0h14.875v3.5h-14.875z" transform="matrix(-.00000004 1 1 .00000004 26.25 2.625)"/></g></svg>