<svg width="56" height="56" viewBox="0 0 56 56" fill="none" xmlns="http://www.w3.org/2000/svg">
<g clip-path="url(#clip0_46_853)">
<path d="M17.75 41.8333C16.784 41.8333 16 41.0493 16 40.0833V16.75C16 15.784 16.784 15 17.75 15C18.716 15 19.5 15.784 19.5 16.75V40.0833C19.5 41.0493 18.716 41.8333 17.75 41.8333ZM37.5833 41.8333C36.6173 41.8333 35.8333 41.0493 35.8333 40.0833V16.75C35.8333 15.784 36.6173 15 37.5833 15C38.5493 15 39.3333 15.784 39.3333 16.75V40.0833C39.3333 41.0493 38.5493 41.8333 37.5833 41.8333Z" fill="white"/>
<path d="M37.5834 41.8427H34.0881C28.6164 41.8427 24.1667 37.393 24.1667 31.9213C24.1667 26.4497 28.6164 22 34.0881 22H37.5834C38.5494 22 39.3334 22.784 39.3334 23.75V40.0927C39.3334 41.0587 38.5494 41.8427 37.5834 41.8427ZM34.0881 25.5C30.5461 25.5 27.6667 28.3793 27.6667 31.9213C27.6667 35.4633 30.5461 38.3427 34.0881 38.3427H35.8334V25.5H34.0881Z" fill="white"/>
<path d="M49.581 56H6.419C2.87933 56 0 53.1207 0 49.581V6.419C0 2.87933 2.87933 0 6.419 0H49.581C53.1207 0 56 2.87933 56 6.419V49.5787C56 53.1207 53.1207 56 49.581 56ZM6.419 3.5C4.81133 3.5 3.5 4.81133 3.5 6.419V49.5787C3.5 51.1887 4.81133 52.4977 6.419 52.4977H49.581C51.1887 52.4977 52.5 51.1863 52.5 49.5787V6.419C52.5 4.809 51.1887 3.5 49.581 3.5H6.419Z" fill="white"/>
</g>
<defs>
<clipPath id="clip0_46_853">
<rect width="56" height="56" fill="white"/>
</clipPath>
</defs>
</svg>
