<svg width="48" height="48" viewBox="0 0 48 48" fill="none" xmlns="http://www.w3.org/2000/svg">
<path opacity="0.15" d="M20.2252 21.2239C25.5338 21.2239 29.8372 16.9205 29.8372 11.6119C29.8372 6.30341 25.5338 2 20.2252 2C14.9167 2 10.6133 6.30341 10.6133 11.6119C10.6133 16.9205 14.9167 21.2239 20.2252 21.2239Z" fill="#40BB7F"/>
<path d="M29.8358 30.8359H10.6119C5.30341 30.8359 1 35.1393 1 40.4479V45.2538H39.4478V40.4479C39.4478 35.1393 35.1443 30.8359 29.8358 30.8359Z" stroke="#40BB7F" stroke-width="1.5" stroke-linecap="round" stroke-linejoin="round"/>
<path d="M20.2253 21.2239C25.5338 21.2239 29.8372 16.9205 29.8372 11.6119C29.8372 6.30341 25.5338 2 20.2253 2C14.9168 2 10.6133 6.30341 10.6133 11.6119C10.6133 16.9205 14.9168 21.2239 20.2253 21.2239Z" stroke="#40BB7F" stroke-width="1.5" stroke-linecap="round" stroke-linejoin="round"/>
<path d="M40.3255 16.6236L39.9683 16.2764C39.383 15.7074 38.5892 15.3877 37.7615 15.3877C36.0137 15.3877 34.6406 16.675 34.6406 19.0656C34.6406 23.1116 40.8197 25.6862 40.8197 25.6862C40.8197 25.6862 46.9988 23.1116 46.9988 19.0656C46.9988 16.675 45.6015 15.3877 43.8779 15.3877C43.0502 15.3877 42.2563 15.7074 41.6711 16.2764L41.3139 16.6236C41.0439 16.8861 40.5955 16.8861 40.3255 16.6236Z" stroke="#40BB7F" stroke-width="1.5" stroke-linecap="round" stroke-linejoin="round"/>
</svg>
