<svg width="56" height="56" viewBox="0 0 56 56" fill="none" xmlns="http://www.w3.org/2000/svg">
<g clip-path="url(#clip0_46_860)">
<path d="M49.581 56H6.419C2.87933 56 0 53.1207 0 49.581V6.419C0 2.87933 2.87933 0 6.419 0H49.581C53.1207 0 56 2.87933 56 6.419V49.5787C56 53.1207 53.1207 56 49.581 56ZM6.419 3.5C4.81133 3.5 3.5 4.81133 3.5 6.419V49.5787C3.5 51.1887 4.81133 52.4977 6.419 52.4977H49.581C51.1887 52.4977 52.5 51.1863 52.5 49.5787V6.419C52.5 4.809 51.1887 3.5 49.581 3.5H6.419Z" fill="white"/>
<path d="M41.9167 40.8333C40.9507 40.8333 40.1667 40.0493 40.1667 39.0833V15.75C40.1667 14.784 40.9507 14 41.9167 14C42.8827 14 43.6667 14.784 43.6667 15.75V39.0833C43.6667 40.0493 42.8827 40.8333 41.9167 40.8333Z" fill="white"/>
<path d="M41.9167 40.8427H38.4213C32.9497 40.8427 28.5 36.393 28.5 30.9213C28.5 25.4497 32.9497 21 38.4213 21H41.9167C42.8827 21 43.6667 21.784 43.6667 22.75V39.0927C43.6667 40.0587 42.8827 40.8427 41.9167 40.8427ZM38.4213 24.5C34.8793 24.5 32 27.3793 32 30.9213C32 34.4633 34.8793 37.3427 38.4213 37.3427H40.1667V24.5H38.4213Z" fill="white"/>
<path d="M20.332 27.7175L14.3606 16.6062C13.8082 15.5785 14.5527 14.3333 15.7194 14.3333C16.2911 14.3333 16.8158 14.6493 17.0831 15.1546L22.0347 24.5161L26.9186 15.162C27.1846 14.6526 27.7116 14.3333 28.2863 14.3333C29.4518 14.3333 30.1964 15.5759 29.6467 16.6037L23.7027 27.7175L29.7835 39.0634C30.3339 40.0904 29.5899 41.3333 28.4247 41.3333C27.8504 41.3333 27.3237 41.014 27.058 40.5049L22.0347 30.8804L16.9437 40.5121C16.6767 41.0172 16.1522 41.3333 15.5809 41.3333C14.4144 41.3333 13.6706 40.0879 14.2237 39.0609L20.332 27.7175Z" fill="white"/>
</g>
<defs>
<clipPath id="clip0_46_860">
<rect width="56" height="56" fill="white"/>
</clipPath>
</defs>
</svg>
