<?xml version="1.0" encoding="UTF-8"?>
<svg id="Layer_1" data-name="Layer 1" xmlns="http://www.w3.org/2000/svg" viewBox="0 0 280 120">
  <defs>
    <style>
      .cls-1 {
        fill: #5b5b5b;
      }
    </style>
  </defs>
  <g>
    <path class="cls-1" d="M59.68,60c0-5.09,.03-10.19-.01-15.28-.03-3.71,1.6-6.41,4.78-8.24,8.76-5.06,17.53-10.12,26.29-15.18,3.19-1.84,6.35-1.83,9.53,.01,8.76,5.07,17.52,10.12,26.29,15.19,3.14,1.82,4.76,4.5,4.75,8.17-.02,10.28,0,20.55,0,30.83,0,3.41-1.48,6.03-4.39,7.73-9.02,5.27-18.07,10.5-27.14,15.68-2.87,1.63-5.88,1.55-8.74-.09-8.96-5.14-17.9-10.31-26.83-15.51-2.98-1.73-4.51-4.36-4.51-7.84,0-5.15,0-10.31,0-15.46Zm3.45-18c-.05,.08-.1,.15-.15,.23,.21,.15,.41,.31,.63,.44,1.54,.92,3.11,1.81,4.61,2.79,.39,.26,.8,.78,.85,1.22,.47,3.76,1.07,7.52,1.21,11.29,.17,4.57-.06,9.16-.13,13.73-.01,.79-.29,1.37-1.06,1.79-1.81,.99-3.57,2.08-5.34,3.14-.27,.16-.52,.37-.78,.56,.04,.06,.09,.12,.13,.18,.26-.12,.53-.23,.79-.37,1.85-.99,3.67-2.02,5.54-2.96,.43-.22,1.06-.34,1.5-.2,1.59,.5,3.21,1,4.7,1.73,7.39,3.58,13.59,8.82,19.61,14.27,.25,.22,.4,.66,.42,1.01,.1,1.55,.14,3.11,.2,4.66,0,.21,.07,.41,.1,.61,.08,0,.15-.01,.23-.02,0-1.28,.05-2.56-.01-3.83-.08-1.47,.35-2.75,1.37-3.76,1.36-1.35,2.71-2.72,4.23-3.88,5.46-4.18,11.5-7.44,17.59-10.6,.3-.15,.82-.11,1.14,.05,1.81,.92,3.59,1.91,5.39,2.87,.3,.16,.61,.29,.92,.43,.03-.07,.07-.13,.1-.2-.23-.16-.45-.33-.7-.48-1.82-1.09-3.64-2.19-5.48-3.26-.55-.32-.88-.71-1.02-1.36-.95-4.52-1.45-9.09-1.07-13.7,.29-3.63,.73-7.24,1.05-10.87,.06-.68,.4-1,.94-1.28,2.22-1.18,4.43-2.38,6.64-3.58,.26-.14,.5-.33,.75-.5-.03-.08-.07-.15-.1-.23-.33,.09-.68,.14-.98,.28-2.36,1.08-4.73,2.16-7.07,3.3-.62,.3-1.16,.39-1.79,.12-3.1-1.34-6.27-2.54-9.29-4.05-4.48-2.23-8.53-5.1-11.86-8.89-.31-.35-.55-.88-.57-1.33-.11-2.09-.13-4.18-.18-6.28,0-.27-.04-.54-.07-.82-.29,1.82-.55,3.65-.39,5.44,.21,2.41-.63,4.32-2.12,6.06-.6,.71-1.2,1.42-1.84,2.09-4.48,4.64-9.94,7.84-15.69,10.61-.3,.14-.82,.06-1.14-.11-2.68-1.41-5.33-2.86-7.99-4.3-1.28-.69-2.56-1.37-3.85-2.05Z"/>
    <path class="cls-1" d="M96.51,33.93c5.86,6.11,13.21,9.75,21.14,12.72-.69,.39-1.25,.71-1.82,1.02-.99,.55-2.06,1.01-2.97,1.68-1.83,1.34-3.78,1.26-5.8,.72-3.9-1.05-7.15-3.28-10.32-5.65-.2-.15-.35-.5-.35-.76-.02-3.17-.01-6.35,0-9.52,0-.05,.05-.1,.12-.21Z"/>
    <path class="cls-1" d="M96.4,87.9c0-1.9-.03-3.77,.02-5.64,.01-.39,.28-.78,.48-1.14,1.67-3,4.16-5.25,6.9-7.2,2.21-1.57,4.56-2.97,6.86-4.42,.27-.17,.74-.3,.98-.18,2.33,1.2,4.64,2.45,7.08,3.76-7.87,4.44-15.89,8.37-22.32,14.82Z"/>
    <path class="cls-1" d="M118.64,72.19c-2.22-1.28-4.35-2.49-6.45-3.74-.25-.15-.47-.49-.53-.79-.38-1.8-.99-3.62-1.01-5.43-.03-3.43,.27-6.86,.47-10.29,.02-.29,.28-.68,.54-.82,2.27-1.26,4.56-2.48,6.97-3.78-1.25,8.31-1.74,16.52,0,24.85Z"/>
    <path class="cls-1" d="M95.46,35.23c0,2.09,0,4.11,0,6.13,0,.36-.12,.72-.08,1.07,.2,2.01-.65,3.59-1.93,5.03-2.28,2.57-5.14,4.36-8.06,6.08-.19,.11-.55,.13-.74,.03-2.51-1.33-5-2.69-7.5-4.05-.04-.02-.06-.1-.13-.24,6.94-3.6,13.65-7.54,18.44-14.05Z"/>
    <path class="cls-1" d="M71.21,72.21c0-4.42,.15-8.69-.04-12.94-.2-4.25-.75-8.47-1.15-12.71,.03,.01,.22,.06,.39,.15,1.53,.88,3.07,1.75,4.56,2.69,.36,.23,.71,.66,.83,1.06,.82,2.72,1.36,5.51,1.37,8.36,.02,2.98-.11,5.96-.18,8.94-.02,.79-.3,1.36-1.09,1.77-1.56,.8-3.04,1.73-4.68,2.68Z"/>
    <path class="cls-1" d="M95.51,88.53c-7.18-6.15-14.37-12.44-23.77-15.72,.87-.48,1.7-.81,2.38-1.34,1.97-1.55,4.01-1.27,6.15-.48,3.72,1.36,6.88,3.61,9.81,6.19,1.73,1.52,3.33,3.19,4.96,4.81,.22,.22,.44,.55,.45,.83,.04,1.91,.02,3.82,.02,5.72Z"/>
    <path class="cls-1" d="M78.3,69.25c1.84-1,3.59-1.95,5.34-2.9,.32-.17,.68-.28,.95-.51,1.2-1.02,2.38-.69,3.64-.07,2.76,1.35,4.9,3.39,6.78,5.76,.16,.2,.31,.48,.31,.72,.02,2.8,.01,5.6,.01,8.36-4.86-4.78-9.89-9.53-17.02-11.36Z"/>
    <path class="cls-1" d="M77.98,68.28c.68-6.03,.5-11.84-1.01-17.75,1.59,.89,3.04,1.69,4.49,2.5,1.02,.57,2.05,1.11,3.06,1.71,.26,.15,.56,.41,.64,.68,.76,2.61,1.06,5.27,.68,7.97-.04,.27-.18,.63-.38,.75-2.42,1.37-4.85,2.69-7.48,4.14Z"/>
    <path class="cls-1" d="M110.19,68.48c-5.13,3.09-10.11,6.16-13.81,11.15,0-2.66-.11-5.11,.06-7.54,.06-.82,.78-1.66,1.34-2.38,1.55-1.97,3.62-3.28,5.88-4.3,.21-.1,.55-.11,.75-.01,1.9,.99,3.79,2.01,5.78,3.08Z"/>
    <path class="cls-1" d="M96.42,45.71c1.99,1.23,3.88,2.57,5.92,3.59,2.01,1,4.18,1.68,6.2,2.47-1.6,.94-3.42,2-5.23,3.07-1.83,1.08-3.68,2.12-5.47,3.25-.72,.46-1.33,.55-1.99,.07,.19-4.15,.38-8.29,.57-12.45Z"/>
    <path class="cls-1" d="M110.38,67.44c-1.87-1.03-3.6-1.96-5.29-2.96-.28-.17-.43-.63-.56-.99-.94-2.58-1.12-5.19-.16-7.8,.17-.46,.58-.92,1-1.17,1.43-.84,2.92-1.59,4.58-2.48-.4,5.23-.88,10.26,.43,15.4Z"/>
    <path class="cls-1" d="M86.19,54.36c3.33-2.09,6.59-4.15,9.17-7.45-.07,1.06-.15,1.87-.17,2.69-.07,2.6-.12,5.2-.19,7.8-.03,1.1-.6,1.45-1.57,.93-2.27-1.21-4.53-2.44-6.8-3.66-.12-.07-.23-.16-.43-.31Z"/>
    <path class="cls-1" d="M95,69.82c-2.07-2.35-4.41-4.3-7.51-5.53,2.06-1.12,3.94-2.14,5.82-3.15,.1-.05,.24-.07,.34-.04,.45,.14,1.34,1.4,1.34,1.91,0,2.23,0,4.47,0,6.82Z"/>
    <path class="cls-1" d="M102.9,64.55c-2.62,1.37-4.89,2.89-6.61,5.26-.09-1.19-.18-2.26-.25-3.34-.08-1.25-.15-2.5-.21-3.75-.03-.62,1.04-1.39,1.6-1.1,1.77,.92,3.52,1.89,5.47,2.94Z"/>
    <path class="cls-1" d="M86.62,55.92c2.32,1.1,4.62,2.19,6.96,3.3,.1,.75-.22,1.17-.99,1.48-1.52,.62-2.98,1.38-4.46,2.09-.31,.15-.63,.3-.96,.45-.19-2.47-.37-4.86-.56-7.32Z"/>
    <path class="cls-1" d="M103.65,55.53c-.88,2.72-1.07,5.32-.28,8.02-1.92-.92-3.76-1.77-5.56-2.69-.72-.37-.62-1.94,.09-2.33,1.65-.9,3.31-1.79,4.97-2.68,.2-.11,.42-.17,.78-.32Z"/>
  </g>
  <g>
    <g>
      <path class="cls-1" d="M156.25,45.67c-.61,0-1.08,.37-1.28,1.01l-2.39,6.78-2.33-6.49c-.16-.48-.42-.82-.77-1.03-.31-.18-.66-.28-1.06-.28h0c-.84,.05-1.44,.52-1.7,1.28l-2.49,6.63-2.43-6.88c-.16-.66-.66-1.04-1.38-1.04l-.14,.02c-.21,.05-.44,.17-.7,.35-.21,.11-.37,.3-.45,.54-.06,.17-.09,.34-.09,.51s.03,.34,.09,.53l3.29,8.78c.25,.84,.85,1.31,1.7,1.31s1.47-.47,1.75-1.32l2.5-6.81,2.47,6.78c.24,.86,.85,1.34,1.72,1.34,.46,0,1.27-.17,1.62-1.28l3.38-8.8,.03-.11c.02-.15,.04-.32,.04-.52,0-.22-.07-.56-.41-.9-.27-.27-.61-.41-.99-.41Z"/>
      <path class="cls-1" d="M168.38,47.18c-.99-1.14-2.43-1.71-4.27-1.71s-3.32,.65-4.33,1.92c-.97,1.13-1.45,2.58-1.45,4.3,0,1.87,.6,3.41,1.76,4.55,1.06,1.13,2.47,1.7,4.19,1.7,.03,0,.06,0,.1,0,1.82,0,3.32-.57,4.46-1.7,.24-.21,.36-.52,.38-.91,.06-.29-.04-.58-.28-.82-.41-.41-.97-.47-1.54-.15l-.05,.03c-1.01,.71-1.99,1.07-2.94,1.07-.45,0-.86-.06-1.17-.16-1.09-.43-1.71-1.31-1.89-2.69h7.29c.76-.06,1.21-.52,1.21-1.23h0c-.04-1.77-.54-3.18-1.46-4.19Zm-4.27,.77c.92,0,1.59,.24,2.05,.73,.4,.44,.66,.97,.78,1.6h-5.51c.12-.56,.37-1.05,.74-1.48,.54-.58,1.18-.85,1.94-.85Z"/>
      <path class="cls-1" d="M179.89,46.01c-.66-.36-1.46-.54-2.36-.54s-1.72,.18-2.44,.54c-.31,.15-.6,.32-.85,.51v-4.19c0-.6-.27-.91-.49-1.08-.54-.39-1.31-.4-1.89,0-.24,.17-.53,.49-.53,1.07v13.99c0,.42,.16,.77,.46,1.02,.28,.23,.6,.35,.95,.35s.67-.11,.93-.33c.15-.13,.34-.34,.43-.67,.93,.82,2.09,1.23,3.47,1.23,1.68,0,3.01-.68,3.96-2.02,.79-1.13,1.19-2.55,1.19-4.23s-.42-3.16-1.24-4.24c-.39-.59-.93-1.07-1.59-1.43Zm-.78,2.97c.2,.35,.35,.75,.46,1.18,.1,.44,.15,.97,.14,1.58,0,.61-.08,1.19-.22,1.7-.51,1.79-1.54,2-2.27,2-1.07,0-1.82-.36-2.33-1.12-.23-.31-.4-.71-.5-1.19-.11-.52-.16-1.06-.16-1.59,0-1.11,.22-1.99,.67-2.6,.47-.67,1.17-.99,2.14-.99s1.61,.35,2.06,1.03Z"/>
      <path class="cls-1" d="M192.68,46.01c-.66-.36-1.46-.54-2.36-.54s-1.72,.18-2.44,.54c-.31,.15-.6,.32-.85,.51v-4.19c0-.6-.27-.91-.49-1.08-.54-.39-1.31-.4-1.89,0-.24,.17-.53,.49-.53,1.07v13.99c0,.42,.16,.77,.46,1.02,.28,.23,.6,.35,.95,.35s.67-.11,.93-.33c.15-.13,.34-.34,.43-.67,.93,.82,2.09,1.23,3.47,1.23,1.68,0,3.01-.68,3.96-2.02,.79-1.13,1.19-2.55,1.19-4.23s-.42-3.16-1.24-4.24c-.39-.59-.93-1.07-1.59-1.43Zm-.78,2.97c.2,.35,.35,.75,.46,1.18,.1,.44,.15,.97,.14,1.58,0,.61-.08,1.19-.22,1.7-.51,1.79-1.54,2-2.27,2-1.07,0-1.82-.36-2.33-1.12-.23-.31-.4-.71-.5-1.19-.11-.52-.16-1.06-.16-1.59,0-1.11,.22-1.99,.67-2.6,.47-.67,1.17-.99,2.14-.99s1.61,.35,2.06,1.03Z"/>
      <path class="cls-1" d="M206.51,47.18c-.99-1.14-2.43-1.71-4.27-1.71s-3.32,.65-4.33,1.92c-.97,1.13-1.45,2.58-1.45,4.3,0,1.87,.6,3.41,1.76,4.55,1.06,1.13,2.47,1.7,4.19,1.7,.03,0,.06,0,.1,0,1.82,0,3.32-.57,4.46-1.7,.24-.21,.36-.52,.38-.91,.06-.29-.04-.58-.28-.82-.41-.41-.97-.47-1.54-.15l-.05,.03c-1.01,.71-1.99,1.07-2.94,1.07-.45,0-.86-.06-1.17-.16-1.09-.43-1.71-1.31-1.89-2.69h7.29c.76-.06,1.21-.52,1.21-1.23h0c-.04-1.77-.54-3.18-1.46-4.19Zm-4.27,.77c.92,0,1.59,.24,2.05,.73,.4,.44,.66,.97,.78,1.6h-5.51c.12-.56,.37-1.05,.74-1.48,.54-.58,1.18-.85,1.94-.85Z"/>
      <path class="cls-1" d="M219.84,41.26c-.53-.38-1.3-.39-1.87-.02-.25,.16-.54,.48-.54,1.09v4.21c-.25-.2-.52-.37-.82-.52-.4-.22-.82-.37-1.27-.45-.41-.07-.93-.11-1.55-.11-.68,0-1.36,.19-2,.55-1.9,.98-2.86,2.89-2.86,5.67,0,1.64,.4,3.06,1.19,4.23,.95,1.34,2.28,2.02,3.96,2.02,1.33,0,2.46-.4,3.39-1.2,.08,.24,.22,.45,.43,.61,.16,.15,.33,.25,.52,.3,.16,.04,.33,.06,.54,.06,.27,0,.55-.1,.84-.3,.24-.17,.53-.49,.53-1.07v-13.99c0-.59-.27-.91-.49-1.08Zm-5.41,14.19c-.63,0-1.1-.18-1.46-.55-.69-.69-1.04-1.82-1.04-3.36,0-1.03,.21-1.88,.62-2.52,.22-.33,.49-.59,.82-.79,.31-.18,.72-.28,1.23-.28s.96,.09,1.32,.28c.97,.49,1.44,1.57,1.44,3.28,0,3.53-1.67,3.93-2.93,3.93Z"/>
    </g>
    <g>
      <path class="cls-1" d="M148.1,71.85c-.47-.18-.94-.32-1.4-.43-.45-.11-.86-.2-1.24-.28-.36-.07-.69-.16-1.02-.25-1.01-.26-1.01-.67-1.01-.85-.01-.33,.1-.48,.18-.57,.18-.19,.63-.42,1.69-.42,.62,0,1.12,.05,1.49,.15h.06c.16,.04,.31,.09,.42,.15,.16,.09,.3,.18,.43,.26,.24,.16,.55,.24,.96,.24,.28,0,.54-.09,.76-.26,.26-.2,.41-.49,.41-.82,0-.63-.42-1.16-1.27-1.6-.82-.4-1.91-.6-3.23-.6s-2.42,.26-3.22,.75c-1.08,.57-1.65,1.55-1.65,2.82,0,1.02,.4,1.83,1.19,2.4,.32,.27,.7,.48,1.14,.63,.4,.14,.83,.26,1.27,.36l1.26,.29c.41,.09,.82,.21,1.23,.33,.35,.11,.64,.26,.86,.45,.09,.08,.22,.23,.22,.59,0,.41-.19,.73-.59,1.01-.21,.12-.45,.2-.71,.26-.28,.06-.68,.09-1.18,.09-.47,0-1.11-.15-1.94-.46-.33-.11-.6-.21-.8-.3-.66-.29-1.23-.25-1.64,.13-.24,.22-.37,.53-.37,.88s.18,.7,.53,1.02c.28,.26,.65,.48,1.11,.66,1.01,.36,2.06,.55,3.11,.55,.04,0,.09,0,.13,0,1.39,0,2.57-.31,3.51-.92,1.14-.74,1.72-1.8,1.72-3.14,0-.76-.22-1.42-.65-1.97-.42-.54-1.02-.92-1.77-1.15Z"/>
      <path class="cls-1" d="M157.91,76.47l-1.14,.09c-.2,0-.36-.04-.48-.1-.08-.04-.14-.14-.19-.29-.03-.08-.12-.5-.12-2.39v-4.51h1.41c.48,0,.77-.19,.93-.35,.23-.23,.35-.53,.35-.87,0-.29-.11-.56-.31-.82-.16-.2-.46-.44-.97-.44h-1.41v-2.53c0-.52-.22-.82-.4-.98-.46-.4-1.18-.41-1.73-.01-.29,.21-.48,.52-.54,.9l-.1,2.62h-.83c-.57,0-.87,.25-1.03,.46-.19,.25-.29,.52-.29,.8,0,.21,.06,.52,.35,.83,.24,.26,.57,.4,.96,.4h.69v5.47c.04,1.49,.33,2.56,.86,3.25,.53,.7,1.41,1.06,2.6,1.06,1.73,0,2.6-.48,2.6-1.43,0-.25-.1-.5-.31-.74-.16-.18-.44-.4-.92-.4Z"/>
      <path class="cls-1" d="M170.07,67.15c-.27-.24-.61-.37-.98-.37s-.69,.12-.99,.35c-.33,.26-.5,.63-.5,1.07v5.8c-.02,.43-.11,.81-.29,1.16-.44,.95-1.21,1.39-2.41,1.39-.69,0-1.19-.15-1.5-.45-.3-.28-.46-.89-.46-1.74v-6.17c0-.54-.24-.87-.45-1.05-.55-.49-1.41-.49-1.96,0-.2,.18-.45,.51-.45,1.05v6.02c0,1.61,.45,2.85,1.31,3.67,.41,.41,.9,.71,1.46,.88,.53,.17,1.05,.26,1.55,.26s.94-.05,1.35-.15c.78-.16,1.44-.46,1.96-.9,.08,.17,.2,.33,.35,.45,.15,.16,.33,.27,.54,.32,.16,.04,.34,.06,.53,.06,.26,0,.53-.1,.83-.3,.36-.24,.55-.62,.55-1.07v-9.23c0-.54-.24-.87-.45-1.05Z"/>
      <path class="cls-1" d="M183.05,62.37c-.53-.38-1.3-.39-1.87-.02-.25,.16-.54,.48-.54,1.09v4.21c-.25-.2-.52-.37-.82-.52-.4-.22-.82-.37-1.27-.45-.41-.07-.93-.11-1.55-.11-.68,0-1.36,.19-2,.55-1.9,.98-2.86,2.89-2.86,5.67,0,1.64,.4,3.06,1.19,4.23,.95,1.34,2.28,2.02,3.96,2.02,1.33,0,2.46-.4,3.39-1.2,.08,.24,.22,.45,.43,.61,.16,.15,.33,.25,.52,.3,.16,.04,.33,.06,.54,.06,.27,0,.55-.1,.84-.3,.24-.17,.53-.49,.53-1.07v-13.99c0-.59-.27-.91-.49-1.08Zm-5.41,14.19c-.63,0-1.1-.18-1.46-.55-.69-.69-1.04-1.82-1.04-3.36,0-1.03,.21-1.88,.62-2.52,.22-.33,.49-.59,.82-.79,.31-.18,.72-.28,1.23-.28s.96,.09,1.32,.28c.97,.49,1.44,1.57,1.44,3.28,0,3.53-1.67,3.93-2.93,3.93Z"/>
      <path class="cls-1" d="M187.16,62.02c-.54,0-.97,.15-1.28,.43-.33,.3-.5,.68-.5,1.11,0,.47,.17,.87,.5,1.16,.32,.29,.74,.43,1.27,.43s.95-.15,1.27-.43c.33-.3,.5-.7,.5-1.17,0-.42-.16-.8-.48-1.1-.31-.29-.74-.44-1.28-.44Z"/>
      <path class="cls-1" d="M188.1,67.19c-.13-.12-.26-.21-.39-.28-.17-.09-.39-.13-.62-.13-.29,0-.59,.13-.88,.38-.32,.27-.49,.65-.49,1.11v9.12c0,.58,.25,.91,.46,1.08,.28,.23,.6,.35,.97,.35s.68-.11,.97-.33c.23-.18,.51-.51,.51-1.1v-9.12c0-.45-.19-.83-.52-1.07Z"/>
      <path class="cls-1" d="M200.75,68.53c-1.06-1.3-2.58-1.96-4.51-1.96s-3.45,.66-4.51,1.95c-.5,.61-.88,1.3-1.12,2.05-.24,.74-.36,1.49-.36,2.24,0,1.64,.5,3.07,1.47,4.23,1.06,1.32,2.58,1.99,4.51,1.99s3.45-.67,4.51-1.98c.98-1.19,1.48-2.62,1.48-4.26s-.5-3.05-1.48-4.26Zm-4.51,8.02c-.96,0-1.69-.38-2.24-1.18-.28-.38-.47-.79-.58-1.23-.11-.47-.17-.92-.17-1.33,0-1.03,.25-1.87,.76-2.58,.54-.8,1.27-1.19,2.23-1.19s1.71,.38,2.23,1.19c.49,.7,.73,1.56,.73,2.55s-.25,1.84-.74,2.62c-.49,.77-1.21,1.14-2.22,1.14Z"/>
    </g>
  </g>
</svg>