<?xml version="1.0" encoding="UTF-8"?>
<svg id="Layer_1" data-name="Layer 1" xmlns="http://www.w3.org/2000/svg" viewBox="0 0 280 120">
  <defs>
    <style>
      .cls-1 {
        fill: #5b5b5b;
      }
    </style>
  </defs>
  <rect class="cls-1" x="171.32" y="59.34" width="3.18" height="10.39"/>
  <g>
    <polygon class="cls-1" points="127.43 54.07 118.99 54.07 120.36 50.89 127.43 50.89 127.43 54.07"/>
    <polygon class="cls-1" points="174.5 54.07 159.85 54.07 162.24 50.89 174.5 50.89 174.5 54.07"/>
    <polygon class="cls-1" points="174.5 59.34 163.66 59.34 165.43 62.52 174.5 62.52 174.5 59.34"/>
    <polygon class="cls-1" points="172.1 66.55 161.26 66.55 163.03 69.73 172.1 69.73 172.1 66.55"/>
    <polygon class="cls-1" points="125.39 65.71 116.96 65.71 120.08 62.52 125.39 62.52 125.39 65.71"/>
    <rect class="cls-1" x="124.24" y="53.37" width="3.18" height="16.36"/>
    <rect class="cls-1" x="132.36" y="50.96" width="3.18" height="18.84"/>
    <polygon class="cls-1" points="101.4 69.86 120.36 50.89 122.61 53.15 106 69.76 101.4 69.86"/>
    <polygon class="cls-1" points="154.28 51.02 135.51 69.79 133.26 67.54 149.7 51.1 154.28 51.02"/>
    <polygon class="cls-1" points="154.92 69.79 143.16 58.04 140.91 60.29 150.42 69.79 154.92 69.79"/>
    <polygon class="cls-1" points="165.49 50.85 154.17 62.17 151.92 59.92 160.95 50.89 165.49 50.85"/>
    <polygon class="cls-1" points="166.23 69.73 154.38 57.87 152.13 60.12 161.73 69.73 166.23 69.73"/>
  </g>
  <path class="cls-1" d="M186.09,46.67c1.78,5.07,1.16,10.6-1.37,16.02h6.16c2.97-7.07,3.55-14.38,1.18-21.16-6.8-19.4-35.27-27.09-63.69-17.25v12.9c1.74-.77,3.54-1.48,5.39-2.13,23.73-8.32,47.16-3.12,52.33,11.62Z"/>
  <path class="cls-1" d="M182.3,66.55c-5.76,9.66-16.62,18.35-30.49,23.21-24.52,8.6-49.16,1.99-55.03-14.76-4.13-11.79,2.13-25.45,14.76-35.51v-6.86c-18.89,11.85-29.06,30.26-23.6,45.84,6.82,19.46,35.46,27.14,63.96,17.15,17.12-6,30.3-17.01,36.61-29.07h-6.21Z"/>
</svg>