<?xml version="1.0" encoding="UTF-8"?>
<svg id="Layer_1" data-name="Layer 1" xmlns="http://www.w3.org/2000/svg" viewBox="0 0 280 120">
  <defs>
    <style>
      .cls-1 {
        fill: #5b5b5b;
      }
    </style>
  </defs>
  <path class="cls-1" d="M121.39,62.75c-.66-.64-1.45-1.15-2.31-1.49-1.32-.49-1.65-.49-5.12-.49h-5.78v14.02h5.12c4.79,0,5.45-.16,7.1-1.15,1.65-.99,2.81-3.3,2.81-5.77,0-2.14-.66-3.96-1.82-5.11m-1.16-17.82c-.66-.66-1.49-1.16-2.31-1.32-1.16-.33-1.82-.33-5.12-.33h-4.63v12.87h5.62c2.31,0,4.13-.33,5.29-.82,1.82-.82,2.98-2.97,2.98-5.61,0-1.98-.66-3.63-1.82-4.78m10.25,29.53c-.66,1.32-1.82,2.47-3.14,3.3-1.49,.82-2.98,1.32-4.63,1.48h-29.08v-4.29h3.3c.99,0,1.65,0,2.15-.17,.33-.16,.66-.5,.83-.82,.16-.5,.33-.83,.33-1.32v-26.89c0-.5-.17-.83-.33-1.32-.5-.83-1.16-1.16-2.98-1.16h-3.3v-4.29h23.46c4.3,.16,7.44,.99,10.08,2.8,2.48,1.81,3.8,4.29,3.8,7.42,0,2.64-.83,4.78-2.81,6.43-1.49,1.32-2.48,1.81-5.12,2.64,2.81,.66,3.47,.99,5.12,1.98,2.48,1.49,3.97,4.62,3.97,8.25-.16,2.14-.66,4.12-1.65,5.94m3.57,4.78v-4.4h3.79c1.03,0,1.55,0,2.07-.17,.34-.17,.52-.51,.69-.85,.17-.34,.34-.85,.34-1.35v-18.77h-7.06v-4.05c5.68,0,7.57-1.18,8.95-5.41h5.34v28.24c0,.34,.17,.84,.34,1.35,.34,.85,1.03,1.01,2.93,1.01h3.44v4.39h-20.83Zm51.66-6.14c-.66,5.2-3.82,7.89-8.81,7.89-2.83,0-5.15-.84-10.47-3.36-1.49-.84-2.49-1.01-3.16-1.01-1.66,0-2.66,1.01-2.66,2.85v.84h-3.99v-1.34c0-2.18,.33-4.03,1.16-6.04,1.33-3.36,3.49-5.54,8.48-7.89,2.16-1.17,3.82-1.84,4.65-2.35,1.33-.67,2.33-1.51,3.32-2.35,1.16-1.17,1.99-3.19,1.99-4.86,0-4.03-2.83-6.54-7.65-6.54-3.99,0-6.32,1.51-7.15,4.7,.83-.84,1.33-1.01,1.99-1.01,2.16,0,3.82,1.68,3.82,4.19,0,2.85-1.83,4.7-4.49,4.7-3.33,0-5.65-2.52-5.65-6.38,0-2.85,1.33-5.71,3.66-7.55,2.5-2.35,5.48-3.36,9.97-3.36,8.31,0,13.79,4.7,13.79,11.58,0,5.71-3.16,8.9-10.8,11.08-7.15,2.01-7.81,2.18-10.3,4.19-1.16,1.01-1.66,1.68-2.16,3.52,1.83-1.51,2.99-2.01,5.48-2.01,.67,0,1.5,0,2.16,.17l4.99,.84c1.16,.17,2.16,.34,3.16,.34,3.82,0,5.48-1.68,5.65-6.21h3.66c-.33,2.68-.33,3.52-.67,5.37"/>
</svg>