<svg width="116" height="40" viewBox="0 0 116 40" fill="none" xmlns="http://www.w3.org/2000/svg">
<path d="M85.6946 39.3161V12.0133H90.6091V19.0028C92.0834 14.8527 95.0322 11.4672 99.4006 11.4672C103.332 11.4672 105.571 14.3613 105.571 18.4021V39.3161H100.657V18.4567C100.657 15.5626 99.5098 13.9245 97.271 13.9245C93.121 13.9245 90.6091 20.4225 90.6091 25.4463V39.3161H85.6946Z" fill="white"/>
<path d="M76.4279 39.3161V33.6371C75.0628 36.8588 71.9503 39.8622 67.5818 39.8622C62.4489 39.8622 59.4456 37.7325 59.4456 33.8009C59.4456 29.2687 63.3226 27.3029 67.3634 25.6647C64.2509 25.1732 61.8482 23.0982 61.8482 19.8219C61.8482 15.0166 65.2884 11.4672 72.0049 11.4672C78.1753 11.4672 81.3424 15.1804 81.3424 20.2041V39.3161H76.4279ZM69.766 24.7364C73.3154 23.3166 76.4279 21.8423 76.4279 18.6751V18.5659C76.4279 14.3067 74.1891 12.3955 71.5134 12.3955C68.7831 12.3955 66.1075 14.9074 66.1075 19.0028C66.1075 22.0061 67.5818 23.9719 69.766 24.7364ZM76.4279 22.0607C73.5338 26.2653 64.9061 27.7943 64.9061 34.2378C64.9061 36.5858 66.2713 38.0056 68.7831 38.0056C72.0595 38.0056 76.4279 34.8384 76.4279 27.9035V22.0607Z" fill="white"/>
<path d="M50.7129 39.3161V0H55.6274V39.3161H50.7129Z" fill="white"/>
<path d="M41.6458 39.3161V13.1509H46.5603V39.3161H41.6458Z" fill="white"/>
<path d="M0 39.3161V1.0921H3.98622L19.2758 27.7397L31.9443 1.0921H37.0773V39.3161H31.9443V4.31384L17.583 34.6746L3.00331 9V39.3161H0Z" fill="white"/>
<path fill-rule="evenodd" clip-rule="evenodd" d="M44.2251 10.6273C45.882 10.6273 47.2251 9.28414 47.2251 7.62729C47.2251 5.97043 45.882 4.62729 44.2251 4.62729C42.5682 4.62729 41.2251 5.97043 41.2251 7.62729C41.2251 9.28414 42.5682 10.6273 44.2251 10.6273ZM46.368 7.6273C46.368 8.81077 45.4086 9.77016 44.2252 9.77016V5.48444C45.4086 5.48444 46.368 6.44383 46.368 7.6273Z" fill="#1DAAFC"/>
<circle cx="113" cy="37" r="3" fill="#FC3E6B"/>
<path d="M69 10.08L72.976 0H76.952L69.56 10.08H69Z" fill="#FDA228"/>
</svg>
