<?xml version="1.0" encoding="UTF-8"?>
<svg id="Layer_1" data-name="Layer 1" xmlns="http://www.w3.org/2000/svg" viewBox="0 0 280 120">
  <defs>
    <style>
      .cls-1 {
        fill: #5b5b5b;
      }
    </style>
  </defs>
  <g id="Stupa">
    <path class="cls-1" d="M141.76,33.31l.51,.37,.29,2.34,1.73-1.15c.09,.04,.17,.07,.26,.11l.58,2.03,2.02-1.44c.21,.02,.42,.02,.64,.02v-.5c-1.75,0-3.44-.54-4.87-1.56l-1.16-.83v-.12h-.82l-.5-1.51h-.86l-.5,1.51h-.82v.12l-1.16,.83c-1.43,1.02-3.11,1.56-4.87,1.56v.5c.21,0,.43,0,.64-.02l2.02,1.44,.58-2.03c.09-.03,.17-.07,.26-.11l1.73,1.15,.29-2.34,.51-.37v.77h.43l-.88,3.52h-1.06v1.51h.5v1.26h.09c-1.47,.5-2.64,1.72-3.05,3.27h-.56v1.51h-.45l-.25,1h-.81v.5h15.57v-.5h-.81l-.25-1h-.45v-1.51h-.56c-.4-1.55-1.58-2.76-3.05-3.27h.09v-1.26h.5v-1.51h-1.06l-.88-3.52h.43v-.77Zm4.64,2.17l-.98,.7-.29-1c.41,.13,.84,.23,1.27,.3Zm-2.64-.86l-.8,.53-.14-1.09c.3,.2,.61,.39,.93,.56Zm-9.18,1.56l-.98-.7c.43-.07,.85-.17,1.27-.3l-.29,1Zm2.46-1.03l-.8-.53c.32-.16,.63-.35,.93-.56l-.14,1.09Zm2.89-3.58h.14l.34,1h-.81l.33-1Zm-1.19,1.51h2.51v.5h-2.51v-.5Zm2.32,2.01l.13,.5h-2.37l.13-.5h2.12Zm-1.99-.5l.13-.5h1.62l.13,.5h-1.87Zm-4.84,9.54h1v1h-1v-1Zm12.11,1.51l.13,.5h-12.92l.13-.5h12.67Zm-10.6-.5v-1h1v1h-1Zm1.51,0v-1h1v1h-1Zm1.51,0v-1h1v1h-1Zm1.51,0v-1h1v1h-1Zm1.51,0v-1h1v1h-1Zm1.51,0v-1h1v1h-1Zm2.51-1v1h-1v-1h1Zm-.58-.5h-10.4c.52-1.76,2.16-3.01,4.02-3.01h2.35c1.86,0,3.5,1.25,4.02,3.01Zm-7.46-3.38v-1.14h4.52v1.14c-.35-.08-.71-.13-1.08-.13h-2.35c-.37,0-.73,.05-1.08,.13Zm5.02-2.14v.5h-5.53v-.5h5.53Zm-1.07-.5h-3.38l.13-.5h3.12l.13,.5Zm-.25-1h-2.87l.13-.5h2.62l.13,.5Z"/>
  </g>
  <g id="Jimbu">
    <path class="cls-1" d="M122.18,55.07c.2,0,.35-.1,.42-.37,.1-.45,.18-.9,.28-1.37,.1-.45-.49-1-.92-1-.18,0-.35,.12-.4,.37-.1,.47-.2,.92-.3,1.39-.1,.45,.49,.99,.92,.99Z"/>
    <path class="cls-1" d="M128.35,54.87c.12,.1,.33,.18,.54,.18,.13,0,.27-.05,.33-.22,.1-.3,.22-.6,.32-.9,.13-.35-.08-.75-.38-.97-.12-.08-.33-.17-.52-.17-.13,0-.27,.05-.33,.22-.12,.3-.22,.6-.33,.89-.12,.37,.1,.77,.38,.97Z"/>
    <path class="cls-1" d="M153.89,55.28c-.22-.05-.45-.08-.65-.08-.8,0-1.52,.35-2.14,.87,.57-1.84,1.14-3.7,1.72-5.54,.22-.65,.42-1.3,.62-1.96,.15-.49-.5-1.17-.94-1.17-.13,0-.25,.07-.3,.25-1.11,3.52-2.21,7.06-3.31,10.59,0,0,0,0-.01,.01-.97,1.2-3.08,3.46-4.78,3.46-.4,0-.77-.13-.99-.54-.33-.62-.33-1.42-.43-2.09-.15-1.04-.7-1.81-1.49-1.81s-1.51,.69-1.96,1.24c.12-1.02,.23-2.32-.47-3.06-.25-.27-.52-.38-.79-.38-1.17,0-2.78,2.41-3.36,3.29,.17-.59,.32-1.17,.49-1.76,.13-.49-.52-1.17-.94-1.17-.13,0-.25,.07-.3,.25-.32,1.15-.64,2.29-.96,3.45-1.07,1.26-2.55,2.6-3.94,3.18-.27,.1-.94,.35-1.35,.35-.13,0-.23-.02-.3-.07-.27-.22-.1-1.15-.07-1.42,.18-1.47,.74-2.99,1.35-4.33,.22-.49-.42-1.17-.89-1.17-.15,0-.27,.07-.35,.23-.35,.77-.65,1.56-.91,2.36-.05,0-.11,0-.16,.03-1.57,.54-3.14,1.15-4.67,1.84,.25-1.15,.47-2.32,.64-3.5,.07-.42-.45-1.02-.89-1.02-.15,0-.28,.08-.38,.25-.38,.65-.77,1.32-1.15,1.99-.22,.37,.18,.9,.6,1.09-.13,.65-.27,1.32-.42,1.97-3.41,1.72-8.31,4.87-9.87,8.53-.72,1.67-.89,4,.65,5.3,.6,.5,1.22,.7,1.84,.7,1.94,0,3.85-2.06,4.8-3.56,1.72-2.71,2.69-5.9,3.51-8.98,.12-.43,.22-.87,.33-1.3,1.73-.92,3.43-1.65,4.82-2.18-.32,1.27-.56,2.87,.41,3.89,.47,.5,1,.72,1.57,.72,1.4,0,3-1.3,4.18-2.65-.14,.51-.28,1.01-.42,1.52-.13,.45,.42,1.17,.87,1.17,.13,0,.27-.07,.37-.25,1.27-2.29,2.63-4.8,4.47-6.71,.12-.12,.25-.22,.38-.33v.08c0,.38-.03,.75-.05,1.12-.12,1.19-.28,2.39-.5,3.56-.07,.42,.5,1.04,.92,1.04,.15,0,.28-.08,.37-.25,.59-1.22,1.42-2.89,2.64-3.58,.03,.18,.08,.37,.1,.49,.18,1.54,.79,3.76,2.71,3.76,1.43,0,3.02-1.33,4.09-2.61-.04,.12-.07,.24-.11,.35-.33,.85-.6,1.74-.82,2.63-.1,.42,.54,1.04,.97,1.04,.15,0,.27-.08,.32-.25,.03-.08,.05-.17,.08-.25,.49,.64,1.15,.94,1.96,.94,2.81,0,4.88-2.88,5.34-5.4,.3-1.66-.18-3.75-2.06-4.16Zm-36.41,13.26c-.92,2.02-2.31,4.8-4.67,5.4-.22,.07-.43,.1-.67,.1-.45,0-.87-.17-1.07-.67-.3-.82-.12-1.86,.17-2.64,1.17-3.18,4.7-6.02,8.35-8.18-.55,2.06-1.25,4.08-2.11,5.99Zm20.92-12.08s.02-.02,.02-.02l-.02,.02Zm14.62,5.54c-.49,.54-1.86,1.49-2.81,1.49-.49,0-.85-.25-.92-.97,0-.1-.05-.22-.12-.32,.13-.37,.25-.75,.37-1.14,.64-1.59,1.56-3.11,2.83-4,.35-.23,.92-.52,1.42-.52,.75,0,.89,.57,.92,1.22,.07,1.51-.69,3.14-1.69,4.23Z"/>
    <path class="cls-1" d="M170.18,58.19c-.08,0-.18,.07-.3,.23-.95,1.37-2.54,3.09-4,3.93-.35,.18-.99,.52-1.51,.52-.13,0-.27-.03-.38-.08,0-.02-.02-.03-.03-.07-.05-.07-.05-.17-.07-.25-.05-.28-.03-.57-.02-.84,.05-.65,.2-1.27,.37-1.89,.17-.65,.8-1.72,.6-2.41-.1-.3-.52-.67-.87-.67-.15,0-.28,.07-.37,.23-.42,.75-.6,1.67-.97,2.46-.59,1.22-1.4,2.79-2.73,3.33-.2,.08-.47,.17-.7,.17s-.43-.07-.57-.27c-.32-.45-.18-1.35-.13-1.87,.15-1.32,.54-2.73,1.19-3.9,.25-.45-.37-1.15-.85-1.15-.15,0-.28,.07-.38,.23-1.14,2.01-2.79,8.11,1.1,8.31,1.37,0,2.29-.77,3.08-1.82,.23,1.09,1.04,1.86,2.17,1.86,2.26,0,4.57-3.29,5.45-5.05,.22-.45,.15-1-.08-1Z"/>
  </g>
  <g id="Wavy_Circle" data-name="Wavy Circle">
    <path class="cls-1" d="M176.99,52.66c-.98-1.51-1.91-2.93-2.36-4.38-.48-1.54-.55-3.4-.61-5.2-.09-2.7-.19-5.49-1.65-7.58-1.48-2.13-4.02-3.09-6.47-4.02-1.68-.64-3.26-1.24-4.49-2.17-1.21-.92-2.24-2.3-3.32-3.75-1.61-2.16-3.27-4.39-5.71-5.22-2.34-.79-4.89-.03-7.37,.71-1.68,.5-3.41,1.01-5,1.01s-3.32-.52-5-1.01c-2.48-.74-5.03-1.5-7.37-.71-2.44,.83-4.1,3.06-5.71,5.22-1.09,1.46-2.11,2.83-3.32,3.75-1.23,.94-2.82,1.54-4.49,2.17-2.45,.93-4.98,1.89-6.47,4.02-1.46,2.09-1.56,4.88-1.65,7.58-.06,1.8-.13,3.65-.61,5.2-.45,1.46-1.38,2.88-2.36,4.38-1.48,2.27-3.01,4.63-3.01,7.34s1.53,5.06,3.01,7.34c.98,1.51,1.91,2.93,2.36,4.38,.48,1.54,.55,3.4,.61,5.2,.09,2.7,.19,5.49,1.65,7.58,1.48,2.13,4.02,3.09,6.47,4.02,1.68,.64,3.26,1.24,4.49,2.17,1.21,.92,2.24,2.3,3.32,3.75,1.61,2.16,3.27,4.39,5.71,5.22,2.33,.79,4.89,.03,7.37-.71,1.68-.5,3.41-1.01,5-1.01s3.32,.52,5,1.01c1.73,.51,3.5,1.04,5.21,1.04,.73,0,1.46-.1,2.16-.34,2.44-.83,4.1-3.06,5.71-5.22,1.09-1.46,2.11-2.83,3.32-3.75,1.23-.94,2.82-1.54,4.49-2.17,2.45-.93,4.98-1.89,6.47-4.02,1.46-2.09,1.56-4.88,1.65-7.58,.06-1.8,.13-3.65,.61-5.2,.45-1.46,1.38-2.88,2.36-4.38,1.48-2.27,3.01-4.63,3.01-7.34s-1.53-5.06-3.01-7.34Zm-1.19,13.9c-.99,1.52-2.01,3.09-2.52,4.73-.54,1.73-.61,3.68-.67,5.57-.09,2.61-.18,5.07-1.4,6.82-1.23,1.77-3.46,2.61-5.81,3.5-1.7,.64-3.45,1.31-4.85,2.37-1.37,1.04-2.5,2.56-3.6,4.03-1.55,2.08-3.01,4.04-5.03,4.73-1.91,.65-4.15-.02-6.51-.72-1.77-.53-3.61-1.07-5.41-1.07s-3.63,.55-5.41,1.07c-2.37,.7-4.6,1.37-6.51,.72-2.02-.69-3.48-2.65-5.03-4.73-1.1-1.47-2.23-2.99-3.6-4.03-1.39-1.06-3.15-1.73-4.85-2.37-2.35-.89-4.58-1.74-5.81-3.5-1.22-1.75-1.31-4.21-1.4-6.82-.07-1.89-.13-3.84-.67-5.57-.51-1.64-1.53-3.21-2.52-4.73-1.37-2.1-2.78-4.27-2.78-6.57s1.41-4.46,2.78-6.57c.99-1.52,2.01-3.09,2.52-4.73,.54-1.73,.61-3.68,.67-5.57,.09-2.61,.18-5.07,1.4-6.82,1.23-1.77,3.46-2.61,5.81-3.5,1.7-.64,3.45-1.31,4.85-2.37,1.37-1.04,2.5-2.56,3.6-4.03,1.55-2.08,3.01-4.04,5.03-4.73,1.91-.65,4.15,.02,6.51,.72,1.77,.53,3.61,1.07,5.41,1.07s3.63-.55,5.41-1.07c2.37-.7,4.6-1.37,6.51-.72,2.02,.69,3.48,2.65,5.03,4.73,1.1,1.47,2.23,2.99,3.6,4.03,1.39,1.06,3.15,1.72,4.85,2.37,2.35,.89,4.58,1.74,5.81,3.5,1.22,1.75,1.31,4.21,1.4,6.82,.07,1.89,.13,3.84,.67,5.57,.51,1.64,1.53,3.21,2.52,4.73,1.37,2.1,2.78,4.27,2.78,6.57s-1.41,4.46-2.78,6.57Z"/>
    <path class="cls-1" d="M176.99,52.66c-.98-1.51-1.91-2.93-2.36-4.38-.48-1.54-.55-3.4-.61-5.2-.09-2.7-.19-5.49-1.65-7.58-1.48-2.13-4.02-3.09-6.47-4.02-1.68-.64-3.26-1.24-4.49-2.17-1.21-.92-2.24-2.3-3.32-3.75-1.61-2.16-3.27-4.39-5.71-5.22-2.34-.79-4.89-.03-7.37,.71-1.68,.5-3.41,1.01-5,1.01s-3.32-.52-5-1.01c-2.48-.74-5.03-1.5-7.37-.71-2.44,.83-4.1,3.06-5.71,5.22-1.09,1.46-2.11,2.83-3.32,3.75-1.23,.94-2.82,1.54-4.49,2.17-2.45,.93-4.98,1.89-6.47,4.02-1.46,2.09-1.56,4.88-1.65,7.58-.06,1.8-.13,3.65-.61,5.2-.45,1.46-1.38,2.88-2.36,4.38-1.48,2.27-3.01,4.63-3.01,7.34s1.53,5.06,3.01,7.34c.98,1.51,1.91,2.93,2.36,4.38,.48,1.54,.55,3.4,.61,5.2,.09,2.7,.19,5.49,1.65,7.58,1.48,2.13,4.02,3.09,6.47,4.02,1.68,.64,3.26,1.24,4.49,2.17,1.21,.92,2.24,2.3,3.32,3.75,1.61,2.16,3.27,4.39,5.71,5.22,2.33,.79,4.89,.03,7.37-.71,1.68-.5,3.41-1.01,5-1.01s3.32,.52,5,1.01c1.73,.51,3.5,1.04,5.21,1.04,.73,0,1.46-.1,2.16-.34,2.44-.83,4.1-3.06,5.71-5.22,1.09-1.46,2.11-2.83,3.32-3.75,1.23-.94,2.82-1.54,4.49-2.17,2.45-.93,4.98-1.89,6.47-4.02,1.46-2.09,1.56-4.88,1.65-7.58,.06-1.8,.13-3.65,.61-5.2,.45-1.46,1.38-2.88,2.36-4.38,1.48-2.27,3.01-4.63,3.01-7.34s-1.53-5.06-3.01-7.34Zm-1.19,13.9c-.99,1.52-2.01,3.09-2.52,4.73-.54,1.73-.61,3.68-.67,5.57-.09,2.61-.18,5.07-1.4,6.82-1.23,1.77-3.46,2.61-5.81,3.5-1.7,.64-3.45,1.31-4.85,2.37-1.37,1.04-2.5,2.56-3.6,4.03-1.55,2.08-3.01,4.04-5.03,4.73-1.91,.65-4.15-.02-6.51-.72-1.77-.53-3.61-1.07-5.41-1.07s-3.63,.55-5.41,1.07c-2.37,.7-4.6,1.37-6.51,.72-2.02-.69-3.48-2.65-5.03-4.73-1.1-1.47-2.23-2.99-3.6-4.03-1.39-1.06-3.15-1.73-4.85-2.37-2.35-.89-4.58-1.74-5.81-3.5-1.22-1.75-1.31-4.21-1.4-6.82-.07-1.89-.13-3.84-.67-5.57-.51-1.64-1.53-3.21-2.52-4.73-1.37-2.1-2.78-4.27-2.78-6.57s1.41-4.46,2.78-6.57c.99-1.52,2.01-3.09,2.52-4.73,.54-1.73,.61-3.68,.67-5.57,.09-2.61,.18-5.07,1.4-6.82,1.23-1.77,3.46-2.61,5.81-3.5,1.7-.64,3.45-1.31,4.85-2.37,1.37-1.04,2.5-2.56,3.6-4.03,1.55-2.08,3.01-4.04,5.03-4.73,1.91-.65,4.15,.02,6.51,.72,1.77,.53,3.61,1.07,5.41,1.07s3.63-.55,5.41-1.07c2.37-.7,4.6-1.37,6.51-.72,2.02,.69,3.48,2.65,5.03,4.73,1.1,1.47,2.23,2.99,3.6,4.03,1.39,1.06,3.15,1.72,4.85,2.37,2.35,.89,4.58,1.74,5.81,3.5,1.22,1.75,1.31,4.21,1.4,6.82,.07,1.89,.13,3.84,.67,5.57,.51,1.64,1.53,3.21,2.52,4.73,1.37,2.1,2.78,4.27,2.78,6.57s-1.41,4.46-2.78,6.57Z"/>
  </g>
  <g>
    <path class="cls-1" d="M119.9,80.43c-.23,.32-.61,.52-1.04,.52-.71,0-1.29-.58-1.29-1.29s.58-1.29,1.29-1.29c.43,0,.81,.21,1.04,.53l-.44,.29c-.17-.15-.35-.25-.59-.25-.4,0-.72,.33-.72,.73s.32,.72,.72,.72c.24,0,.4-.08,.59-.24l.44,.29Z"/>
    <path class="cls-1" d="M122.95,79.67c0,.71-.58,1.29-1.29,1.29s-1.29-.58-1.29-1.29,.58-1.29,1.29-1.29,1.29,.58,1.29,1.29Zm-.56,0c0-.4-.32-.73-.72-.73s-.73,.33-.73,.73,.32,.72,.73,.72,.72-.32,.72-.72Z"/>
    <path class="cls-1" d="M125.81,80.89h-2.06v-.6l1.23-1.28h-1.23v-.57h2.06v.57l-1.28,1.28h1.28v.6Z"/>
    <path class="cls-1" d="M127.14,78.45v2.45h-.59v-2.45h.59Z"/>
    <path class="cls-1" d="M130.42,78.45v2.45h-.59l-1.22-1.46v1.46h-.59v-2.45h.59l1.22,1.52v-1.52h.59Z"/>
    <path class="cls-1" d="M133.48,78.45v2.45h-.59v-.9h-1.07v.9h-.59v-2.45h.59v1.02h1.07v-1.02h.59Z"/>
    <path class="cls-1" d="M136.15,80.56h-1.19l-.17,.34h-.66l1.22-2.45h.44l1.17,2.45h-.65l-.17-.34Zm-.23-.48l-.37-.79-.35,.79h.71Z"/>
    <path class="cls-1" d="M142.2,78.45v2.45h-.59l-1.22-1.46v1.46h-.59v-2.45h.59l1.22,1.52v-1.52h.59Z"/>
    <path class="cls-1" d="M143.55,78.97v.44h.99v.52h-.99v.44h1.25v.52h-1.84v-2.45h1.84v.53h-1.25Z"/>
    <path class="cls-1" d="M147.59,79.41v.06c-.03,.5-.45,.91-.96,.91h-.5v.52h-.6v-2.45h1.19c.5,0,.85,.43,.88,.91v.06Zm-.61,0c0-.2-.16-.36-.36-.37h-.5v.73h.5c.2,0,.37-.16,.37-.37Z"/>
    <path class="cls-1" d="M149.67,80.56h-1.19l-.17,.34h-.66l1.22-2.45h.44l1.17,2.45h-.65l-.17-.34Zm-.23-.48l-.37-.79-.35,.79h.71Z"/>
    <path class="cls-1" d="M153.21,80.31v.59h-2.12v-2.45h.59v1.86h1.53Z"/>
    <path class="cls-1" d="M154.57,78.97v.44h.99v.52h-.99v.44h1.25v.52h-1.84v-2.45h1.84v.53h-1.25Z"/>
    <path class="cls-1" d="M156.45,80.14h.64s.03,.34,.46,.34c.23,0,.44-.14,.44-.29,0-.31-.57-.34-.73-.37-.29-.06-.77-.18-.77-.65,0-.43,.46-.79,1.03-.79,.69,0,1.03,.35,1.03,.68h-.61c0-.06-.1-.19-.42-.19-.21,0-.39,.13-.39,.3,0,.2,.38,.2,.52,.22,.34,.06,.99,.15,.99,.79,0,.42-.5,.78-1.08,.78-.75,0-1.1-.49-1.1-.82Z"/>
    <path class="cls-1" d="M161.35,80.56h-1.19l-.17,.34h-.66l1.22-2.45h.44l1.17,2.45h-.65l-.17-.34Zm-.23-.48l-.37-.79-.35,.79h.71Z"/>
    <path class="cls-1" d="M129.19,83.49v.44h.99v.52h-.99v.44h1.25v.52h-1.84v-2.45h1.84v.53h-1.25Z"/>
    <path class="cls-1" d="M133.53,82.96v2.45h-.59v-2.45h.59Z"/>
    <path class="cls-1" d="M136.81,82.96v2.45h-.59l-1.22-1.46v1.46h-.59v-2.45h.59l1.22,1.52v-1.52h.59Z"/>
    <path class="cls-1" d="M140.04,84.18c0,.68-.55,1.23-1.22,1.23h-1.16v-2.45h1.16c.75,0,1.22,.55,1.22,1.22Zm-.59,0c0-.37-.27-.63-.58-.63h-.63v1.27h.63c.3-.01,.58-.27,.58-.64Z"/>
    <path class="cls-1" d="M141.24,82.96v2.45h-.59v-2.45h.59Z"/>
    <path class="cls-1" d="M143.96,85.08h-1.19l-.17,.34h-.66l1.22-2.45h.44l1.17,2.45h-.65l-.17-.34Zm-.23-.48l-.37-.79-.35,.79h.71Z"/>
    <path class="cls-1" d="M147.79,82.96v2.45h-.59l-1.22-1.46v1.46h-.59v-2.45h.59l1.22,1.52v-1.52h.59Z"/>
    <path class="cls-1" d="M150.36,85.08h-1.19l-.17,.34h-.66l1.22-2.45h.44l1.17,2.45h-.65l-.17-.34Zm-.23-.48l-.37-.79-.35,.79h.71Z"/>
  </g>
</svg>