<?xml version="1.0" encoding="UTF-8"?>
<svg id="Layer_1" data-name="Layer 1" xmlns="http://www.w3.org/2000/svg" viewBox="0 0 280 120">
  <defs>
    <style>
      .cls-1 {
        fill: #5b5b5b;
      }

      .cls-2 {
        opacity: .7;
      }
    </style>
  </defs>
  <g>
    <g>
      <path class="cls-1" d="M83.17,71.97v-16.94h-2.69v-3.98h7.63v20.93h-4.94Zm2.5-28.99c.77,0,1.49,.24,1.97,.82,.58,.58,.82,1.2,.82,1.97s-.24,1.49-.82,1.97c-.58,.58-1.2,.82-1.97,.82s-1.49-.24-1.97-.82c-.58-.58-.82-1.2-.82-1.97s.24-1.49,.82-1.97c.53-.53,1.2-.82,1.97-.82Z"/>
      <path class="cls-1" d="M105.2,71.97v-12.14c0-1.78-.34-3.07-1.01-3.89-.72-.82-1.78-1.2-3.31-1.2-.72,0-1.49,.19-2.3,.58s-1.49,.91-1.92,1.49v15.07h-4.85v-20.78h3.5l.91,1.92c1.34-1.54,3.26-2.35,5.9-2.35,2.5,0,4.42,.77,5.9,2.26,1.39,1.49,2.16,3.6,2.16,6.19v12.82l-4.99,.05h0Z"/>
      <path class="cls-1" d="M112.07,70.63l1.73-3.89c1.49,1.15,3.07,1.73,4.94,1.73s2.83-.72,2.83-2.06c0-.77-.24-1.49-.82-1.92-.58-.53-1.68-1.1-3.31-1.78-3.6-1.49-5.38-3.6-5.38-6.29,0-1.78,.72-3.22,2.06-4.22s3.12-1.54,5.23-1.54,4.22,.53,6.14,1.49l-1.39,3.79c-1.1-.91-2.54-1.34-4.42-1.34-1.73,0-2.54,.72-2.54,2.06,0,.53,.24,1.01,.82,1.49,.58,.43,1.73,1.01,3.6,1.73s3.12,1.58,3.98,2.64c.82,1.01,1.2,2.26,1.2,3.7,0,1.92-.72,3.46-2.16,4.56-1.39,1.1-3.41,1.68-5.81,1.68-1.39,0-2.5-.14-3.31-.34-1.06-.34-2.11-.82-3.41-1.49Z"/>
      <path class="cls-1" d="M147.15,63h-14.93c.05,1.68,.62,2.93,1.73,3.89,1.01,.91,2.5,1.39,4.22,1.39,2.26,0,3.89-.58,5.04-1.73l1.92,3.7c-1.73,1.39-4.27,2.11-7.68,2.11-3.22,0-5.71-.96-7.54-2.83-1.87-1.87-2.74-4.46-2.74-7.82s1.01-5.95,3.07-8.02c2.06-2.06,4.46-3.07,7.3-3.07,3.02,0,5.42,.91,7.3,2.69,1.87,1.78,2.74,4.08,2.74,6.91-.05,.67-.14,1.54-.43,2.78Zm-14.74-3.65h10.27c-.34-3.07-2.06-4.61-5.04-4.61s-4.56,1.54-5.23,4.61Z"/>
      <path class="cls-1" d="M150.32,43.27l4.85-1.15v23.42c0,2.54,.77,4.08,2.3,4.61-.77,1.39-2.06,2.11-3.84,2.11-2.16,0-3.31-1.54-3.31-4.61v-24.38h0Z"/>
      <path class="cls-1" d="M160.11,43.27l4.85-1.15v23.42c0,2.54,.77,4.08,2.3,4.61-.77,1.39-2.06,2.11-3.84,2.11-2.16,0-3.31-1.54-3.31-4.61v-24.38h0Z"/>
      <path class="cls-1" d="M187.67,63h-14.93c.05,1.68,.62,2.93,1.73,3.89,1.01,.91,2.5,1.39,4.22,1.39,2.26,0,3.89-.58,5.04-1.73l1.92,3.7c-1.73,1.39-4.27,2.11-7.68,2.11-3.22,0-5.71-.96-7.54-2.83-1.87-1.87-2.74-4.46-2.74-7.82s1.01-5.95,3.07-8.02,4.46-3.07,7.3-3.07c3.02,0,5.42,.91,7.3,2.69,1.87,1.78,2.74,4.08,2.74,6.91-.05,.67-.19,1.54-.43,2.78Zm-14.74-3.65h10.27c-.34-3.07-2.06-4.61-5.04-4.61s-4.56,1.54-5.23,4.61Z"/>
      <path class="cls-1" d="M202.02,55.6c-.91-.58-1.87-.82-2.88-.82-1.15,0-2.11,.53-3.02,1.54-.91,1.01-1.34,2.3-1.34,3.79v11.9h-4.85v-20.93h4.85v1.92c1.34-1.54,3.22-2.3,5.42-2.3,1.68,0,2.93,.24,3.84,.77l-2.02,4.13Z"/>
      <path class="cls-1" d="M215.36,69.86c-.43,.72-1.2,1.34-2.3,1.78-1.1,.43-2.26,.72-3.46,.72-2.26,0-4.03-.58-5.33-1.68-1.3-1.15-1.92-2.69-1.92-4.8,0-2.45,.91-4.27,2.69-5.71,1.78-1.34,4.42-2.06,7.73-2.06,.58,0,1.2,.14,2.06,.34,0-2.45-1.54-3.7-4.66-3.7-1.87,0-3.41,.34-4.61,.91l-1.01-3.79c1.68-.82,3.65-1.2,5.95-1.2,3.22,0,5.52,.72,6.96,2.16,1.49,1.49,2.26,4.18,2.26,8.26v4.46c0,2.74,.58,4.56,1.68,5.23-.38,.72-.82,1.15-1.34,1.3-.53,.19-1.1,.24-1.68,.24-.72,0-1.34-.24-1.92-.77-.53-.53-.91-1.06-1.1-1.68Zm-.43-7.78c-.82-.19-1.49-.24-1.87-.24-3.84,0-5.76,1.3-5.76,3.79,0,1.87,1.1,2.83,3.26,2.83,2.93,0,4.37-1.49,4.37-4.37v-2.02Z"/>
      <path class="cls-1" d="M223.76,54.98h-2.45v-3.89h2.45v-4.22l4.85-1.78v6h5.71v3.89h-5.71v9.17c0,1.49,.24,2.54,.72,3.12,.43,.62,1.3,.91,2.45,.91s2.26-.34,3.26-.96v4.46c-1.15,.38-2.74,.58-4.8,.58s-3.65-.58-4.8-1.78c-1.1-1.15-1.68-2.83-1.68-4.99v-10.51Z"/>
      <path class="cls-1" d="M255.49,63h-14.93c.05,1.68,.62,2.93,1.73,3.89,1.01,.91,2.5,1.39,4.22,1.39,2.26,0,3.89-.58,5.04-1.73l1.92,3.7c-1.73,1.39-4.27,2.11-7.68,2.11-3.22,0-5.71-.96-7.54-2.83-1.87-1.87-2.74-4.46-2.74-7.82s1.01-5.95,3.07-8.02,4.46-3.07,7.3-3.07c3.02,0,5.42,.91,7.3,2.69,1.87,1.78,2.74,4.08,2.74,6.91,0,.67-.14,1.54-.43,2.78Zm-14.74-3.65h10.27c-.34-3.07-2.06-4.61-5.04-4.61-2.78,0-4.56,1.54-5.23,4.61Z"/>
    </g>
    <g>
      <circle class="cls-1" cx="61.72" cy="36.22" r="7.3"/>
      <path class="cls-1" d="M47.32,31.27c3.07,0,3.5,.24,5.95,.62v.14c-.34,1.01-.53,1.92-.82,2.88-13.15,1.01-23.9,13.44-27.6,22.99-.82,2.16-1.49,4.75-1.92,7.25-.14,1.49-.38,3.6-.53,5.09,0-.05-.96-2.26-.96-2.3-1.15-3.46-2.06-9.22-.91-14.93,1.2-5.9,3.84-10.13,7.3-13.54,2.35-2.35,5.76-4.8,8.5-6,1.54-.62,3.12-1.1,4.66-1.49,1.87-.43,4.22-.72,6.34-.72Z"/>
      <path class="cls-1" d="M50.05,41.35c6.1,0,6.19,5.33,1.92,9.94-3.84,4.08-6.72,6.96-9.36,9.65s-5.04,5.18-7.06,9.17c-1.92,3.79-2.16,8.78,1.49,10.94,4.61,2.83,9.6,.91,13.34-.62,7.06-2.98,15.31-11.81,18.58-19.3,2.3-5.23,1.73-11.71-1.73-17.38l1.97-1.87c1.3,2.06,2.5,3.84,3.5,6,1.3,2.93,1.78,4.42,2.16,9.6,.24,4.27-1.15,9.41-2.26,12.19-4.27,10.51-18.82,20.64-34.7,15.31-10.13-3.36-13.2-13.97-8.35-25.58,3.07-7.15,7.44-12.19,13.34-15.7,1.87-1.15,4.75-2.35,7.15-2.35Z"/>
    </g>
  </g>
  <g>
    <path class="cls-1" d="M134.34,85.17h-5.04c.05,.58,.24,1.01,.58,1.3,.34,.34,.82,.48,1.44,.48,.77,0,1.34-.19,1.73-.58l.62,1.25c-.58,.48-1.44,.72-2.59,.72-1.06,0-1.92-.34-2.54-.96s-.96-1.54-.96-2.64,.34-2.02,1.06-2.69c.67-.67,1.54-1.06,2.5-1.06,1.01,0,1.87,.29,2.45,.91,.62,.62,.91,1.39,.91,2.35,0,.19-.05,.48-.14,.91Zm-4.99-1.25h3.46c-.1-1.06-.67-1.54-1.73-1.54-.91,0-1.49,.48-1.73,1.54Z"/>
    <path class="cls-1" d="M140.34,88.2v-4.08c0-.62-.1-1.06-.34-1.34-.24-.29-.62-.43-1.15-.43-.24,0-.48,.05-.77,.19s-.48,.29-.62,.53v5.09h-1.63v-7.06h1.2l.29,.67c.43-.53,1.1-.82,1.97-.82s1.49,.24,1.97,.77c.48,.48,.72,1.2,.72,2.11v4.32h-1.63v.05Z"/>
    <path class="cls-1" d="M143.27,90.02l1.06-1.3c.58,.53,1.2,.82,1.92,.82,.48,0,.86-.05,1.15-.19s.48-.34,.48-.58c0-.43-.34-.62-1.01-.62-.19,0-.48,0-.82,.05-.38,.05-.62,.05-.82,.05-1.15,0-1.68-.38-1.68-1.2,0-.24,.1-.48,.29-.67,.19-.24,.43-.38,.67-.48-.82-.53-1.2-1.25-1.2-2.21,0-.77,.29-1.39,.82-1.87,.58-.48,1.25-.72,2.06-.72,.62,0,1.15,.1,1.58,.34l.62-.77,1.15,1.06-.77,.58c.29,.43,.43,.91,.43,1.49,0,.82-.24,1.44-.72,1.92s-1.1,.72-1.87,.72c-.1,0-.29,0-.48-.05l-.29-.05s-.14,.05-.34,.14c-.19,.1-.29,.19-.29,.29,0,.19,.14,.29,.43,.29,.14,0,.38-.05,.67-.1,.34-.05,.58-.1,.82-.1,1.58,0,2.4,.62,2.4,1.92,0,.72-.34,1.3-.96,1.68-.62,.38-1.44,.62-2.3,.62-1.2-.1-2.16-.43-3.02-1.06Zm1.63-6.43c0,.43,.1,.77,.34,1.01s.53,.38,.91,.38,.67-.14,.91-.38c.19-.24,.34-.58,.34-1.01,0-.34-.1-.67-.34-.91s-.53-.38-.86-.38c-.38,0-.67,.1-.91,.34-.24,.29-.38,.58-.38,.96Z"/>
    <path class="cls-1" d="M154.5,87.48c-.14,.24-.43,.43-.77,.62-.38,.14-.77,.24-1.15,.24-.77,0-1.34-.19-1.78-.58-.43-.38-.67-.91-.67-1.63,0-.82,.29-1.44,.91-1.92s1.49-.67,2.64-.67c.19,0,.43,.05,.67,.1,0-.82-.53-1.25-1.58-1.25-.62,0-1.15,.1-1.54,.29l-.34-1.3c.58-.29,1.25-.43,2.02-.43,1.06,0,1.87,.24,2.35,.72s.77,1.44,.77,2.78v1.49c0,.96,.19,1.54,.58,1.78-.14,.24-.29,.38-.43,.43s-.34,.1-.58,.1-.43-.1-.62-.29c-.29-.1-.43-.29-.48-.48Zm-.14-2.64c-.29-.05-.48-.1-.62-.1-1.3,0-1.97,.43-1.97,1.3,0,.62,.38,.96,1.1,.96,1.01,0,1.49-.48,1.49-1.49v-.67Z"/>
    <path class="cls-1" d="M157.23,90.02l1.06-1.3c.58,.53,1.2,.82,1.92,.82,.48,0,.86-.05,1.15-.19s.48-.34,.48-.58c0-.43-.34-.62-1.01-.62-.19,0-.48,0-.82,.05-.38,.05-.62,.05-.82,.05-1.15,0-1.68-.38-1.68-1.2,0-.24,.1-.48,.29-.67,.19-.24,.43-.38,.67-.48-.82-.53-1.2-1.25-1.2-2.21,0-.77,.29-1.39,.82-1.87,.58-.48,1.25-.72,2.06-.72,.62,0,1.15,.1,1.58,.34l.62-.77,1.15,1.06-.77,.58c.29,.43,.43,.91,.43,1.49,0,.82-.24,1.44-.72,1.92s-1.1,.72-1.87,.72c-.1,0-.29,0-.48-.05l-.29-.05s-.14,.05-.34,.14c-.19,.1-.29,.19-.29,.29,0,.19,.14,.29,.43,.29,.14,0,.38-.05,.67-.1,.34-.05,.58-.1,.82-.1,1.58,0,2.4,.62,2.4,1.92,0,.72-.34,1.3-.96,1.68-.62,.38-1.44,.62-2.3,.62-1.15-.1-2.16-.43-3.02-1.06Zm1.68-6.43c0,.43,.1,.77,.34,1.01s.53,.38,.91,.38,.67-.14,.91-.38c.19-.24,.34-.58,.34-1.01,0-.34-.1-.67-.34-.91s-.53-.38-.86-.38c-.38,0-.67,.1-.91,.34-.29,.29-.38,.58-.38,.96Z"/>
    <path class="cls-1" d="M170.87,85.17h-5.04c.05,.58,.24,1.01,.58,1.3,.34,.34,.82,.48,1.44,.48,.77,0,1.34-.19,1.73-.58l.62,1.25c-.58,.48-1.44,.72-2.59,.72-1.06,0-1.92-.34-2.54-.96s-.96-1.54-.96-2.64,.34-2.02,1.06-2.69c.67-.67,1.54-1.06,2.5-1.06,1.01,0,1.87,.29,2.45,.91,.62,.62,.91,1.39,.91,2.35,0,.19-.05,.48-.14,.91Zm-4.99-1.25h3.46c-.1-1.06-.67-1.54-1.73-1.54-.91,0-1.49,.48-1.73,1.54Z"/>
    <path class="cls-1" d="M172.59,87.33c0-.34,.1-.62,.34-.86s.53-.34,.86-.34,.62,.1,.86,.34,.34,.53,.34,.86-.1,.62-.34,.86-.53,.34-.86,.34-.62-.1-.86-.34-.34-.53-.34-.86Z"/>
    <path class="cls-1" d="M177.73,88.2v-5.71h-.91v-1.34h2.59v7.06s-1.68,0-1.68,0Zm.86-9.84c.29,0,.48,.1,.67,.29s.29,.43,.29,.67c0,.29-.1,.48-.29,.67s-.43,.29-.67,.29-.48-.1-.67-.29-.29-.43-.29-.67c0-.29,.1-.48,.29-.67s.38-.29,.67-.29Z"/>
    <path class="cls-1" d="M185.89,88.2v-4.08c0-.62-.1-1.06-.34-1.34-.24-.29-.62-.43-1.15-.43-.24,0-.48,.05-.77,.19s-.48,.29-.62,.53v5.09h-1.63v-7.06h1.2l.29,.67c.43-.53,1.1-.82,1.97-.82s1.49,.24,1.97,.77c.48,.48,.72,1.2,.72,2.11v4.32h-1.63v.05Z"/>
    <path class="cls-1" d="M189.54,82.44h-.82v-1.34h.82v-1.44l1.63-.62v2.06h1.92v1.34h-1.92v3.07c0,.53,.1,.86,.24,1.06,.14,.19,.43,.34,.82,.34s.77-.1,1.1-.34v1.54c-.38,.14-.91,.19-1.63,.19s-1.25-.19-1.63-.58c-.38-.38-.58-.96-.58-1.68v-3.6h.05Z"/>
    <path class="cls-1" d="M200.96,85.17h-5.04c.05,.58,.24,1.01,.58,1.3s.82,.48,1.44,.48c.77,0,1.34-.19,1.73-.58l.62,1.25c-.58,.48-1.44,.72-2.59,.72-1.06,0-1.92-.34-2.54-.96s-.96-1.54-.96-2.64,.34-2.02,1.06-2.69c.67-.67,1.54-1.06,2.5-1.06,1.01,0,1.87,.29,2.45,.91,.62,.62,.91,1.39,.91,2.35,0,.19-.05,.48-.14,.91Zm-4.99-1.25h3.46c-.1-1.06-.67-1.54-1.73-1.54-.91,0-1.49,.48-1.73,1.54Z"/>
    <path class="cls-1" d="M202.69,78.5l1.63-.38v7.97c0,.86,.24,1.39,.77,1.54-.24,.48-.67,.72-1.3,.72-.77,0-1.1-.53-1.1-1.54v-8.3Z"/>
    <path class="cls-1" d="M206.67,78.5l1.63-.38v7.97c0,.86,.24,1.39,.77,1.54-.24,.48-.67,.72-1.3,.72-.77,0-1.1-.53-1.1-1.54v-8.3Z"/>
    <path class="cls-1" d="M210.85,88.2v-5.71h-.91v-1.34h2.59v7.06s-1.68,0-1.68,0Zm.86-9.84c.24,0,.48,.1,.67,.29s.29,.43,.29,.67c0,.29-.1,.48-.29,.67s-.43,.29-.67,.29c-.29,0-.48-.1-.67-.29s-.29-.43-.29-.67c0-.29,.1-.48,.29-.67,.14-.19,.38-.29,.67-.29Z"/>
    <path class="cls-1" d="M213.92,90.02l1.06-1.3c.58,.53,1.2,.82,1.92,.82,.48,0,.86-.05,1.15-.19s.48-.34,.48-.58c0-.43-.34-.62-1.01-.62-.19,0-.48,0-.82,.05-.38,.05-.62,.05-.82,.05-1.15,0-1.68-.38-1.68-1.2,0-.24,.1-.48,.29-.67,.19-.24,.43-.38,.67-.48-.82-.53-1.2-1.25-1.2-2.21,0-.77,.29-1.39,.82-1.87,.58-.48,1.25-.72,2.06-.72,.62,0,1.15,.1,1.58,.34l.62-.77,1.15,1.06-.77,.58c.29,.43,.43,.91,.43,1.49,0,.82-.24,1.44-.72,1.92s-1.1,.72-1.87,.72c-.1,0-.29,0-.48-.05l-.29-.05s-.14,.05-.34,.14c-.19,.1-.29,.19-.29,.29,0,.19,.14,.29,.43,.29,.14,0,.38-.05,.67-.1,.34-.05,.58-.1,.82-.1,1.58,0,2.4,.62,2.4,1.92,0,.72-.34,1.3-.96,1.68-.62,.38-1.44,.62-2.3,.62-1.2-.1-2.16-.43-3.02-1.06Zm1.63-6.43c0,.43,.1,.77,.34,1.01s.53,.38,.91,.38,.67-.14,.91-.38c.19-.24,.34-.58,.34-1.01,0-.34-.1-.67-.34-.91s-.53-.38-.86-.38c-.38,0-.67,.1-.91,.34-.29,.29-.38,.58-.38,.96Z"/>
    <path class="cls-1" d="M227.5,85.17h-5.04c.05,.58,.24,1.01,.58,1.3s.82,.48,1.44,.48c.77,0,1.34-.19,1.73-.58l.62,1.25c-.58,.48-1.44,.72-2.59,.72-1.06,0-1.92-.34-2.54-.96s-.96-1.54-.96-2.64,.34-2.02,1.06-2.69c.67-.67,1.54-1.06,2.5-1.06,1.01,0,1.87,.29,2.45,.91,.62,.62,.91,1.39,.91,2.35,0,.19-.05,.48-.14,.91Zm-4.99-1.25h3.46c-.1-1.06-.67-1.54-1.73-1.54-.91,0-1.49,.48-1.73,1.54Z"/>
    <path class="cls-1" d="M233.55,88.2v-4.08c0-.62-.1-1.06-.34-1.34-.24-.29-.62-.43-1.15-.43-.24,0-.48,.05-.77,.19s-.48,.29-.62,.53v5.09h-1.63v-7.06h1.2l.29,.67c.43-.53,1.1-.82,1.97-.82s1.49,.24,1.97,.77c.48,.48,.72,1.2,.72,2.11v4.32h-1.63v.05Z"/>
    <path class="cls-1" d="M237.2,82.44h-.82v-1.34h.82v-1.44l1.63-.62v2.06h1.92v1.34h-1.92v3.07c0,.53,.1,.86,.24,1.06,.14,.19,.43,.34,.82,.34s.77-.1,1.1-.34v1.54c-.38,.14-.91,.19-1.63,.19s-1.25-.19-1.63-.58c-.38-.38-.58-.96-.58-1.68v-3.6h.05Z"/>
    <path class="cls-1" d="M242.62,78.5l1.63-.38v7.97c0,.86,.24,1.39,.77,1.54-.24,.48-.67,.72-1.3,.72-.77,0-1.1-.53-1.1-1.54v-8.3Z"/>
    <path class="cls-1" d="M249.44,89.3c-.19,.48-.58,.86-1.15,1.15-.58,.29-1.25,.48-2.02,.48v-1.44c1.25,0,1.92-.34,1.92-.96,0-.43-.19-1.06-.53-1.92l-2.21-5.47h1.73l1.92,4.9,1.73-4.9h1.73l-3.12,8.16Z"/>
  </g>
  <g class="cls-2">
    <g>
      <path class="cls-1" d="M256.02,80.28v-1.44h-.53v-.29h1.39v.29h-.53v1.44h-.34Z"/>
      <path class="cls-1" d="M257.31,80.28v-1.78h.53l.34,1.2,.34-1.2h.53v1.78h-.34v-1.39l-.34,1.39h-.34l-.34-1.39v1.39h-.38Z"/>
    </g>
    <path class="cls-1" d="M257.31,82.1c-1.49,0-2.69-1.2-2.69-2.69s1.2-2.69,2.69-2.69,2.69,1.2,2.69,2.69-1.2,2.69-2.69,2.69Zm0-5.09c-1.3,0-2.35,1.06-2.35,2.35s1.06,2.35,2.35,2.35,2.35-1.06,2.35-2.35-1.06-2.35-2.35-2.35Z"/>
  </g>
</svg>