<?xml version="1.0" encoding="UTF-8"?>
<svg id="Layer_1" data-name="Layer 1" xmlns="http://www.w3.org/2000/svg" viewBox="0 0 280 120">
  <defs>
    <style>
      .cls-1 {
        fill: #5b5b5b;
      }
    </style>
  </defs>
  <rect class="cls-1" x="104.31" y="54.41" width="7.12" height="25.42" rx="3.14" ry="3.14"/>
  <rect class="cls-1" x="92.11" y="44.24" width="7.12" height="45.76" rx="3.14" ry="3.14"/>
  <circle class="cls-1" cx="107.87" cy="48.81" r="3.56"/>
  <circle class="cls-1" cx="95.67" cy="38.64" r="3.56"/>
  <circle class="cls-1" cx="83.46" cy="33.56" r="3.56"/>
  <circle class="cls-1" cx="71.26" cy="38.64" r="3.56"/>
  <circle class="cls-1" cx="59.06" cy="48.81" r="3.56"/>
  <rect class="cls-1" x="79.9" y="39.15" width="7.12" height="22.37" rx="3.14" ry="3.14"/>
  <rect class="cls-1" x="55.5" y="54.41" width="7.12" height="25.42" rx="3.14" ry="3.14"/>
  <rect class="cls-1" x="86" y="48.31" width="7.12" height="19.32" rx="3.14" ry="3.14" transform="translate(31.6 147.53) rotate(-90)"/>
  <rect class="cls-1" x="67.7" y="44.24" width="7.12" height="45.76" rx="3.14" ry="3.14" transform="translate(142.52 134.24) rotate(-180)"/>
  <rect class="cls-1" x="79.9" y="67.63" width="7.12" height="22.37" rx="3.14" ry="3.14" transform="translate(166.92 157.63) rotate(-180)"/>
  <rect class="cls-1" x="73.8" y="61.53" width="7.12" height="19.32" rx="3.14" ry="3.14" transform="translate(148.55 -6.17) rotate(90)"/>
  <g>
    <g>
      <path class="cls-1" d="M129.16,59.74h-4.32v-22.16h4.32v9.21h5.8v-9.21h4.32v22.16h-4.32v-9.18h-5.8v9.18Z"/>
      <path class="cls-1" d="M155.83,55.37h-6.4l-1.2,4.37h-4.38l6.46-22.16h4.7l6.37,22.16h-4.38l-1.17-4.37Zm-5.48-3.74h4.57l-2.24-8.68-2.33,8.68Z"/>
      <path class="cls-1" d="M170.04,47.32v12.42h-4.32v-22.16h4.29l4.92,12.29,4.92-12.29h4.29v22.16h-4.32v-12.48l-3.44,8.33h-2.93l-3.4-8.27Z"/>
      <path class="cls-1" d="M190.46,59.74v-22.16h7c4.41,0,7.37,2.86,7.37,8.01v.63c0,3.43-1.48,5.72-3.84,6.79l3.72,6.73h-4.73l-2.96-5.72h-2.24v5.72h-4.32Zm4.32-18.01v8.17h2.14c1.89,0,3.62-.82,3.62-3.74v-.63c0-3.05-1.67-3.8-3.62-3.8h-2.14Z"/>
      <path class="cls-1" d="M209.72,52.41v-7.54c0-4.53,3.03-7.7,7.37-7.7s7.41,3.17,7.41,7.7v7.54c0,4.49-3.06,7.64-7.41,7.64s-7.37-3.14-7.37-7.64Zm10.46,.16v-7.86c0-2.48-1.45-3.39-3.09-3.39-1.51,0-3.06,.82-3.06,3.36v7.86c0,2.48,1.45,3.36,3.06,3.36,1.48,0,3.09-.79,3.09-3.33Z"/>
    </g>
    <g>
      <path class="cls-1" d="M125.09,69.51c0-3.18,2.06-4.99,5.56-4.99s5.79,2.18,5.79,5.99h-2.43c0-2.43-1.28-3.71-3.36-3.71s-3.13,.95-3.13,2.71c0,4.36,9.12,1.63,9.12,8.15,0,3.31-2.26,5.17-5.87,5.17s-5.94-2.21-5.94-6.17h2.43c0,2.66,1.4,3.84,3.51,3.84,1.96,0,3.41-.93,3.41-2.78,0-4.26-9.1-1.63-9.1-8.2Z"/>
      <path class="cls-1" d="M151.06,82.53l-1.2-3.99h-6.57l-1.23,3.99h-2.56l5.74-17.68h2.76l5.64,17.68h-2.58Zm-7.14-6.12h5.34l-2.63-8.85-2.71,8.85Z"/>
      <path class="cls-1" d="M164.12,79.47l-3.99-9.18v12.24h-2.46v-17.68h2.41l4.91,11.41,4.94-11.41h2.41v17.68h-2.46v-12.29l-4.01,9.23h-1.75Z"/>
      <path class="cls-1" d="M180.19,64.85v11.86c0,2.58,1.68,3.69,3.43,3.69,1.91,0,3.46-1.25,3.46-3.69v-11.86h2.46v11.79c0,3.61-2.46,6.12-5.92,6.12s-5.89-2.51-5.89-6.12v-11.79h2.46Z"/>
      <path class="cls-1" d="M197.38,64.85v7.72h6.49v-7.72h2.46v17.68h-2.46v-7.8h-6.49v7.8h-2.46v-17.68h2.46Z"/>
      <path class="cls-1" d="M221.92,82.53l-1.2-3.99h-6.57l-1.23,3.99h-2.56l5.74-17.68h2.76l5.64,17.68h-2.58Zm-7.14-6.12h5.34l-2.63-8.85-2.71,8.85Z"/>
    </g>
  </g>
</svg>