<?xml version="1.0" encoding="UTF-8"?>
<svg id="Layer_1" data-name="Layer 1" xmlns="http://www.w3.org/2000/svg" viewBox="0 0 280 120">
  <defs>
    <style>
      .cls-1 {
        fill: #5b5b5b;
      }
    </style>
  </defs>
  <g>
    <path class="cls-1" d="M82.84,69.84c.84,0,1.59-.14,2.26-.42,.67-.28,1.24-.67,1.71-1.17s.84-1.1,1.1-1.8c.26-.7,.39-1.47,.39-2.31h3.19c0,1.24-.22,2.41-.66,3.49s-1.05,2.03-1.83,2.83c-.78,.8-1.7,1.44-2.75,1.9-1.05,.46-2.19,.7-3.41,.7-1.29,0-2.49-.24-3.61-.71s-2.09-1.11-2.92-1.92c-.83-.8-1.47-1.75-1.93-2.83-.46-1.09-.7-2.24-.7-3.46v-8.28c0-1.22,.23-2.38,.7-3.46,.46-1.09,1.11-2.04,1.93-2.85,.83-.81,1.8-1.45,2.92-1.92,1.12-.46,2.32-.7,3.61-.7,1.22,0,2.36,.23,3.43,.7,1.06,.46,1.98,1.1,2.75,1.92,.77,.81,1.37,1.76,1.82,2.85s.66,2.24,.66,3.46h-3.19c0-.84-.13-1.61-.39-2.31-.26-.7-.63-1.3-1.1-1.8-.48-.5-1.05-.89-1.71-1.17-.67-.28-1.42-.42-2.26-.42s-1.61,.14-2.31,.42c-.7,.28-1.3,.67-1.8,1.17-.5,.5-.89,1.1-1.17,1.8-.28,.7-.42,1.47-.42,2.31v8.28c0,.84,.14,1.61,.42,2.31,.28,.7,.67,1.3,1.17,1.8,.5,.5,1.1,.89,1.8,1.17,.7,.28,1.47,.42,2.31,.42Z"/>
    <path class="cls-1" d="M112.83,69.6v3.12h-14.18v-25.45h3.66v22.33h10.52Z"/>
    <path class="cls-1" d="M122.83,47.27v25.45h-3.66v-25.45h3.66Z"/>
    <path class="cls-1" d="M139.32,69.84c.84,0,1.59-.14,2.26-.42,.67-.28,1.24-.67,1.71-1.17,.48-.5,.84-1.1,1.1-1.8,.26-.7,.39-1.47,.39-2.31h3.19c0,1.24-.22,2.41-.66,3.49-.44,1.09-1.05,2.03-1.83,2.83s-1.7,1.44-2.75,1.9c-1.05,.46-2.19,.7-3.41,.7-1.29,0-2.49-.24-3.61-.71-1.12-.48-2.09-1.11-2.92-1.92-.83-.8-1.47-1.75-1.93-2.83-.46-1.09-.7-2.24-.7-3.46v-8.28c0-1.22,.23-2.38,.7-3.46,.46-1.09,1.11-2.04,1.93-2.85,.83-.81,1.8-1.45,2.92-1.92,1.12-.46,2.32-.7,3.61-.7,1.22,0,2.36,.23,3.43,.7,1.06,.46,1.98,1.1,2.75,1.92s1.37,1.76,1.82,2.85c.44,1.09,.66,2.24,.66,3.46h-3.19c0-.84-.13-1.61-.39-2.31-.26-.7-.63-1.3-1.1-1.8-.47-.5-1.05-.89-1.71-1.17-.67-.28-1.42-.42-2.26-.42s-1.61,.14-2.31,.42c-.7,.28-1.3,.67-1.8,1.17-.5,.5-.89,1.1-1.17,1.8-.28,.7-.42,1.47-.42,2.31v8.28c0,.84,.14,1.61,.42,2.31,.28,.7,.67,1.3,1.17,1.8,.5,.5,1.1,.89,1.8,1.17,.7,.28,1.47,.42,2.31,.42Z"/>
    <path class="cls-1" d="M158.79,47.27v11.1c.9-1.06,1.76-2.06,2.56-3,.8-.94,1.59-1.85,2.36-2.73s1.53-1.76,2.27-2.65,1.52-1.79,2.31-2.71h4.14s-.22,.25-.59,.7c-.37,.44-.84,.99-1.39,1.65-.55,.66-1.15,1.36-1.8,2.12-.65,.76-1.24,1.46-1.8,2.1s-1.02,1.19-1.39,1.65c-.37,.45-.57,.69-.59,.71,.23,.48,.57,1.21,1.03,2.21,.46,1,.98,2.1,1.54,3.31s1.15,2.46,1.75,3.75c.6,1.29,1.15,2.47,1.65,3.53,.5,1.06,.91,1.94,1.24,2.63s.5,1.06,.53,1.1h-4.04c-.18-.36-.44-.89-.76-1.6-.33-.7-.7-1.49-1.1-2.36s-.84-1.79-1.29-2.77-.88-1.89-1.29-2.77c-.41-.87-.78-1.66-1.12-2.36-.34-.7-.59-1.23-.75-1.6-.02,0-.12,.1-.29,.31-.17,.2-.38,.45-.63,.75-.25,.29-.52,.62-.81,.97s-.57,.68-.81,.98c-.25,.31-.46,.56-.63,.76-.17,.2-.27,.32-.29,.34v9.33h-3.66v-25.45h3.66Z"/>
    <path class="cls-1" d="M176.32,72.72c.2-.75,.5-1.78,.88-3.09,.38-1.31,.81-2.78,1.29-4.39s.97-3.31,1.49-5.07c.52-1.76,1.02-3.47,1.49-5.11,.48-1.64,.91-3.14,1.31-4.51,.4-1.37,.72-2.46,.97-3.27h3.9s.14,.44,.36,1.19c.21,.75,.49,1.71,.83,2.9s.73,2.53,1.17,4.04c.44,1.5,.88,3.04,1.32,4.6,.44,1.56,.88,3.09,1.32,4.6,.44,1.51,.83,2.85,1.17,4.04,.34,1.19,.62,2.15,.83,2.9,.21,.75,.33,1.14,.36,1.19h-3.87l-1.56-5.87h-7.84l-1.56,5.87h-3.87Zm6.18-9.03h6.35l-3.16-12.11-3.19,12.11Z"/>
    <path class="cls-1" d="M218.19,58.81v5.33c0,1.22-.24,2.37-.73,3.46s-1.14,2.04-1.97,2.85-1.8,1.45-2.92,1.92c-1.12,.46-2.31,.7-3.58,.7s-2.49-.23-3.61-.7c-1.12-.46-2.09-1.1-2.92-1.9-.83-.8-1.48-1.75-1.95-2.83s-.71-2.25-.71-3.49v-8.28c0-1.22,.24-2.38,.71-3.46s1.12-2.04,1.95-2.85c.83-.81,1.8-1.45,2.92-1.92,1.12-.46,2.32-.7,3.61-.7,1.11,0,2.15,.17,3.14,.51,.98,.34,1.86,.81,2.63,1.41,.77,.6,1.42,1.31,1.97,2.14,.54,.83,.94,1.71,1.19,2.66h-3.46c-.41-1.13-1.06-2-1.97-2.6-.9-.6-2.07-.9-3.49-.9-.79,0-1.52,.14-2.19,.42-.67,.28-1.25,.67-1.75,1.17-.5,.5-.88,1.1-1.15,1.8-.27,.7-.41,1.47-.41,2.31v8.28c0,.84,.14,1.61,.41,2.31,.27,.7,.66,1.3,1.15,1.8,.5,.5,1.08,.89,1.75,1.17,.67,.28,1.4,.42,2.19,.42,.88,0,1.69-.14,2.43-.42,.74-.28,1.36-.67,1.88-1.17s.93-1.1,1.22-1.8c.29-.7,.44-1.47,.44-2.31v-2.31h-4.68v-3.02h7.91Z"/>
    <path class="cls-1" d="M239.97,47.27v3.12h-10.66v8.11h9.64v2.99h-9.64v8.11h10.66v3.12h-14.32v-25.45h14.32Z"/>
    <path class="cls-1" d="M261.48,47.27v3.12h-10.66v8.11h9.64v2.99h-9.64v8.11h10.66v3.12h-14.32v-25.45h14.32Z"/>
  </g>
  <g>
    <path class="cls-1" d="M48.79,76.45h0l.21-.1c-.1,0-.21,0-.21,.1Z"/>
    <g>
      <path class="cls-1" d="M60.71,67.61l-5.03,2.57h0l5.03-2.57h0Z"/>
      <path class="cls-1" d="M48.89,76.35c.1,0,.21-.1,.31-.1l9.04-4.62-9.35,4.73Z"/>
    </g>
    <path class="cls-1" d="M62.25,56.41l-5.86,2.98-6.27,3.19-6.68,3.39h0c-1.64,.82-3.49,.92-5.14,.41-1.75-.51-3.08-1.75-3.9-3.39h0c-.82-1.64-.92-3.39-.41-5.14s1.75-3.08,3.39-3.9c3.29-1.64,7.4-.41,9.14,2.98h0c.51,1.13,.82,2.26,.72,3.49l3.08-1.75c-.1-1.13-.51-2.26-1.03-3.29-2.57-4.93-8.63-6.99-13.67-4.42-2.36,1.23-4.21,3.29-5.03,5.86-.82,2.57-.62,5.34,.62,7.71h0c1.23,2.47,3.29,4.21,5.86,5.03,2.57,.82,5.34,.62,7.71-.62h.1l17.26-8.84v-3.7h.1Z"/>
    <path class="cls-1" d="M62.25,63.09l-4.21,2.16-12.12,6.17h0c-4.11,1.95-9.14,1.64-13.05-1.23-5.65-4.11-6.78-12.12-2.67-17.78,4.11-5.65,12.12-6.78,17.78-2.67,1.64,1.23,2.88,2.77,3.8,4.42,.51,1.03,.92,2.16,1.13,3.29l3.08-1.54c-.92-3.39-2.88-6.58-5.96-8.84-7.3-5.24-17.36-3.7-22.61,3.39-2.57,3.49-3.6,7.71-2.98,11.92,.31,1.75,.82,3.39,1.54,4.93,1.13,2.16,2.77,4.11,4.73,5.65,5.03,3.7,11.61,4.11,16.85,1.34h0l8.01-4.11,5.03-2.57,1.54-.72v-3.8h.1Z"/>
    <path class="cls-1" d="M62.25,69.56l-3.19,1.64-.72,.41-9.35,4.73c-.1,0-.1,.1-.21,.1-1.75,.92-3.7,1.54-5.65,1.85-4.83,.72-9.76-.51-13.67-3.39-8.22-6.06-9.86-17.57-3.9-25.79,5.96-8.22,17.57-9.97,25.69-3.9,2.36,1.75,4.21,3.9,5.45,6.47,.51,1.03,.92,2.06,1.23,3.19l3.08-1.54c-1.34-4.21-4.01-8.01-7.81-10.79-9.66-7.19-23.32-5.14-30.52,4.52-4.93,6.88-5.45,15.72-1.75,22.81,1.44,2.88,3.7,5.55,6.47,7.6,4.73,3.49,10.38,4.93,16.13,4.01,2.57-.41,5.03-1.23,7.19-2.47h0l11.51-5.86s0-3.6,0-3.6Z"/>
  </g>
</svg>