<?xml version="1.0" encoding="UTF-8"?>
<svg id="Layer_1" data-name="Layer 1" xmlns="http://www.w3.org/2000/svg" viewBox="0 0 280 120">
  <defs>
    <style>
      .cls-1 {
        fill: #939598;
      }

      .cls-2 {
        fill: #5b5b5b;
      }
    </style>
  </defs>
  <g>
    <g>
      <path class="cls-1" d="M84.1,39.01c-.62-.58-1.01-1.14-.56-.95,.44,.18,1.59,1.07,2.17,1.62,.59,.57,1,1.12,.44,.85-.46-.23-1.5-.99-2.06-1.52Z"/>
      <path class="cls-1" d="M94.05,49.28l-1.25-.39c-3.98-1.24-8.73-.81-13.76-.35-2.93,.26-5.96,.54-8.85,.45-7.41-.22-13.27-1.61-16.89-2.73-5.11-1.59-9.23-4.98-11.61-9.55-2.24-4.3-2.73-9.32-1.34-13.78,1.6-5.13,11.03-2.2,15.05-.94,4.74,1.48,12.67,3.94,20.41,8.96,2.43,1.57,4.8,3.53,7.09,5.43,3.91,3.23,7.6,6.29,11.47,7.49l1.25,.39-1.57,5.03ZM45.6,22.63c-2.06,0-2.61,.64-2.74,1.07-2.26,7.25,1.39,16.98,11.22,20.04,4.89,1.52,10.64,2.45,16.18,2.61,2.73,.08,5.68-.19,8.54-.45,4.59-.41,9.33-.85,13.51,.12l.04-.11c-3.9-1.56-7.56-4.59-11.12-7.54-2.23-1.85-4.54-3.76-6.84-5.25-7.44-4.82-15.15-7.22-19.76-8.65-4.51-1.4-7.3-1.85-9.02-1.85Z"/>
      <path class="cls-1" d="M93.32,46.21l-37.26-12.58c-.39-.13-.23-.78,.2-.65,0,0,37.84,10.73,37.84,10.73,1.68,.53,.93,3.03-.78,2.51h0Z"/>
      <path class="cls-1" d="M92.51,48.68l-37.11-13.14c-.39-.14-.22-.78,.21-.65,0,0,37.71,11.29,37.71,11.29,1.68,.55,.88,3.04-.82,2.5h0Z"/>
      <path class="cls-1" d="M225.32,100c-2.02,0-4.14-.32-6.3-1.02-3.6-1.17-9.19-3.43-15.36-7.53-2.41-1.6-4.72-3.57-6.96-5.48-3.84-3.28-7.47-6.37-11.44-7.66l-1.25-.41,1.63-5.01,1.25,.41c3.85,1.25,8.63,.89,13.69,.51,2.96-.22,6.03-.46,8.92-.34,9.2,.38,17.1,2.95,21.82,4.48,4.02,1.3,13.41,4.35,11.75,9.47-2.21,6.82-9.17,12.59-17.75,12.59Zm-38.02-23.74c3.97,1.63,7.59,4.71,11.1,7.71,2.18,1.86,4.43,3.78,6.71,5.29,4.62,3.07,9.85,5.64,14.72,7.22,7.63,2.48,17.72-.6,20.74-9.88,.26-.79-.21-2.96-10.05-6.16-4.6-1.49-12.28-3.99-21.13-4.35-2.74-.11-5.73,.11-8.61,.33-4.61,.35-9.35,.71-13.43-.27l-.04,.11Z"/>
      <path class="cls-1" d="M187.2,73.32l37.08,13.11c.39,.14,.22,.78-.21,.65,0,0-37.68-11.26-37.68-11.26-1.68-.55-.89-3.04,.81-2.5h0Z"/>
      <path class="cls-1" d="M186.39,75.79l37.3,12.57c.4,.13,.23,.78-.2,.65,0,0-37.88-10.71-37.88-10.71-1.68-.52-.93-3.03,.78-2.51h0Z"/>
      <rect class="cls-1" x="163.77" y="45.45" width="2.63" height="44.57" transform="translate(50.49 204.52) rotate(-72.35)"/>
      <rect class="cls-1" x="115.6" y="28.34" width="2.63" height="48.15" transform="translate(31.53 147.93) rotate(-72.35)"/>
      <rect class="cls-1" x="161.48" y="45.64" width="2.63" height="47.84" transform="translate(47.16 203.6) rotate(-72.35)"/>
      <rect class="cls-1" x="113.21" y="31.86" width="2.63" height="44.67" transform="translate(28.15 146.9) rotate(-72.35)"/>
      <rect class="cls-1" x="90.89" y="45.7" width="5.73" height="1.44" rx=".72" ry=".72" transform="translate(21.58 122.15) rotate(-72.72)"/>
      <rect class="cls-1" x="183.06" y="75.02" width="5.73" height="1.44" rx=".72" ry=".72" transform="translate(58.37 230.77) rotate(-72.72)"/>
    </g>
    <g>
      <path class="cls-1" d="M195.9,39.01c.62-.58,1.01-1.14,.56-.95-.44,.18-1.59,1.07-2.17,1.62-.59,.57-1,1.12-.44,.85,.46-.23,1.5-.99,2.06-1.52Z"/>
      <path class="cls-1" d="M185.95,49.28l-1.57-5.03,1.25-.39c3.87-1.2,7.56-4.26,11.47-7.5,2.29-1.89,4.66-3.85,7.09-5.43,7.74-5.01,15.67-7.48,20.41-8.96,4.03-1.25,13.45-4.19,15.05,.94,2.64,8.46-1.57,19.79-12.95,23.33-3.62,1.13-9.48,2.51-16.89,2.73-2.89,.09-5.92-.19-8.85-.45-5.03-.46-9.78-.89-13.76,.35l-1.25,.39Zm7.62-3.82c2.51,0,5.09,.23,7.63,.46,2.85,.26,5.8,.52,8.54,.45,5.55-.16,11.29-1.09,16.18-2.61,7.66-2.39,14.12-10.73,11.22-20.04-.25-.79-1.89-2.29-11.76,.78-4.61,1.44-12.32,3.84-19.76,8.65-2.3,1.49-4.61,3.4-6.84,5.25-3.56,2.94-7.23,5.98-11.12,7.54l.04,.11c1.87-.43,3.85-.58,5.88-.58Z"/>
      <path class="cls-1" d="M185.9,43.7l37.84-10.73c.4-.11,.63,.51,.2,.65,0,0-37.26,12.58-37.26,12.58-1.69,.52-2.48-1.97-.78-2.51h0Z"/>
      <path class="cls-1" d="M186.67,46.18l37.71-11.29c.4-.12,.64,.5,.21,.65,0,0-37.11,13.14-37.11,13.14-1.68,.54-2.51-1.93-.82-2.5h0Z"/>
      <path class="cls-1" d="M54.7,99.99c-3.03,0-6-.7-8.72-2.1-4.31-2.22-7.61-6.03-9.06-10.47-1.66-5.12,7.73-8.17,11.74-9.47,4.73-1.53,12.63-4.1,21.83-4.48,2.89-.12,5.96,.11,8.92,.34,5.06,.38,9.84,.74,13.69-.51l1.25-.41,1.63,5.01-1.25,.41c-3.97,1.29-7.6,4.38-11.44,7.66-2.24,1.91-4.55,3.88-6.96,5.48-6.17,4.1-11.76,6.36-15.36,7.53-2.08,.67-4.19,1.01-6.28,1.01Zm17.45-23.92c-.52,0-1.04,0-1.54,.03-8.84,.37-16.53,2.86-21.12,4.35-9.85,3.2-10.32,5.37-10.06,6.16,2.35,7.23,10.94,13.06,20.74,9.88,4.87-1.58,10.1-4.15,14.72-7.22,2.28-1.51,4.53-3.44,6.71-5.29,3.51-2.99,7.12-6.08,11.1-7.71l-.04-.11c-4.08,.98-8.83,.62-13.43,.27-2.35-.18-4.77-.36-7.07-.36Z"/>
      <path class="cls-1" d="M93.62,75.81l-37.68,11.26c-.4,.12-.64-.5-.21-.65,0,0,37.08-13.11,37.08-13.11,1.68-.54,2.51,1.94,.81,2.5h0Z"/>
      <path class="cls-1" d="M94.39,78.3l-37.88,10.71c-.4,.11-.63-.51-.2-.65,0,0,37.3-12.57,37.3-12.57,1.69-.52,2.48,1.97,.78,2.51h0Z"/>
      <rect class="cls-1" x="91.39" y="58.49" width="96.91" height="2.63" transform="translate(-11.55 45.21) rotate(-17.65)"/>
      <rect class="cls-1" x="92.13" y="60.8" width="96.91" height="2.63" transform="translate(-12.22 45.54) rotate(-17.65)"/>
      <rect class="cls-1" x="185.52" y="43.56" width="1.44" height="5.73" rx=".72" ry=".72" transform="translate(-5.38 57.43) rotate(-17.28)"/>
      <rect class="cls-1" x="93.35" y="72.88" width="1.44" height="5.73" rx=".72" ry=".72" transform="translate(-18.25 31.37) rotate(-17.28)"/>
    </g>
  </g>
  <g>
    <g>
      <path class="cls-2" d="M127,35.16v.6h2.46v6.51h1.74v-6.51h2.46v-.6h-6.67Z"/>
      <path class="cls-2" d="M140.75,35.16v3.11h-2.86v-3.11h-1.74v7.11h1.74v-3.38h2.86v3.38h1.73v-7.11h-1.73Z"/>
      <path class="cls-2" d="M150.76,35.76v-.6h-5.31v7.11h5.31v-.73h-3.56v-2.82h2.96v-.61h-2.96v-2.35h3.56Z"/>
    </g>
    <g>
      <path class="cls-2" d="M89.86,65.65c-.1-.4-.24-.78-.43-1.15-.19-.37-.43-.69-.72-.96-.29-.26-.62-.45-.99-.57-.37-.12-.78-.12-1.24,0-.08,.02-.19,.06-.33,.11-.15,.05-.29,.12-.42,.19s-.24,.17-.33,.27c-.09,.11-.12,.22-.09,.35,.17-.04,.34-.11,.5-.19,.16-.08,.33-.15,.5-.19,.33-.08,.64-.07,.95,.03s.59,.27,.84,.48c.25,.21,.47,.47,.66,.75,.19,.29,.32,.58,.39,.89v.05c.03,.67,0,1.25-.1,1.76-.09,.5-.26,.94-.51,1.32s-.58,.69-1.01,.95c-.42,.26-.97,.47-1.65,.65-.12,.03-.34,.05-.66,.04-.32,0-.65-.02-1-.06-.15-.02-.29-.04-.43-.07-.18-.03-.36-.08-.52-.14-.06-.02-.18-.09-.32-.19-.5-.35-1.35-1.06-1.58-1.33-.3-.36-.55-.75-.78-1.17-.22-.42-.4-.86-.55-1.32-.15-.46-.27-.88-.36-1.26l-1.18-4.77s-.02-.08-.03-.13c-.24-.88-.81-2.41-.2-3.7,.13-.32,.31-.63,.54-.92,.24-.3,.51-.57,.81-.81,.19-.15,.7-.45,.88-.57,0,0,.01,0,.02,0,.17-.27,1.67-.72,1.91-.92,.03-.03,.07-.05,.1-.08-.03,0-.05,.02-.08,.03-1.17,.12-2.97,.86-3.7,1.47-.76,.64-1.46,1.33-2.01,2.16-.55,.83-.97,1.74-1.27,2.71-.3,.98-.43,1.97-.4,2.97l.19,.76s.01,.1,.01,.2,0,.17-.01,.2l.71,2.85c.22,.89,.69,1.69,1.41,2.42,.72,.73,1.55,1.32,2.5,1.79,.95,.47,1.95,.79,3.02,.95,1.06,.17,2.05,.14,2.95-.1,.66-.17,1.26-.43,1.82-.79,.56-.36,1.03-.8,1.41-1.31,.38-.51,.64-1.08,.8-1.71s.15-1.28-.02-1.97Z"/>
      <path class="cls-2" d="M107.57,64.75s-.02-.04-.05-.09c-.03-.04-.06-.07-.07-.09-.71,.02-1.29-.19-1.73-.62-.44-.43-.82-.98-1.12-1.65-.3-.68-.57-1.43-.78-2.26-.22-.83-.47-1.66-.74-2.49-.33-.51-.57-1.06-.72-1.66-.15-.6-.26-1.19-.34-1.78l-.06-.41c-.07-.48-.02-.85,.15-1.12,.17-.27,.36-.47,.59-.62,.23-.15,.44-.24,.63-.29,.2-.05,.29-.1,.29-.15l-.07-.48s-.11-.02-.33-.02c-.22,0-.49,.02-.8,.05-.31,.02-.65,.06-1,.09-.35,.03-.67,.07-.96,.11-.54-.04-1.06-.16-1.56-.37-.5-.21-1.01-.42-1.53-.64-.52-.22-1.06-.41-1.62-.55-.56-.14-1.18-.17-1.85-.08-.46,.07-.88,.21-1.25,.44-.37,.23-.68,.51-.93,.85-.25,.33-.44,.71-.55,1.13-.11,.42-.14,.85-.08,1.28l.08,.58c.21,.35,.46,.62,.76,.82,.3,.2,.65,.28,1.07,.22,.15-.02,.32-.11,.52-.25,.2-.15,.29-.31,.26-.49-.06,.02-.1,.04-.11,.04-.03,.02-.12,.08-.27,.18-.15,.1-.24,.16-.27,.18-.22,.03-.42,0-.59-.09-.17-.09-.31-.21-.44-.36-.12-.15-.22-.31-.3-.5s-.12-.36-.15-.52c-.03-.24,0-.48,.08-.73,.09-.25,.22-.47,.38-.68,.16-.21,.36-.39,.59-.53,.22-.15,.45-.23,.67-.26,.77-.11,1.38,.07,1.85,.54,.47,.46,.76,1.08,.86,1.85,.12,.86,.13,1.76,.05,2.7-.08,.94-.29,1.82-.61,2.64-.05,.14-.15,.29-.33,.47-.17,.18-.35,.35-.53,.51-.18,.16-.34,.31-.49,.43-.15,.12-.21,.21-.21,.26,0,.03,.1,.09,.29,.18,.19,.09,.4,.2,.62,.34,.22,.14,.44,.32,.64,.52,.21,.21,.33,.44,.36,.69,.03,.24,.05,.5,.05,.77,0,.28-.02,.55-.05,.84-.03,.28-.06,.55-.08,.8-.03,.26-.06,.48-.08,.68-.02,.12-.14,.22-.37,.32-.23,.1-.5,.19-.79,.29-.3,.1-.59,.19-.88,.29s-.5,.21-.62,.34c-.13,.13-.25,.3-.37,.5-.12,.2-.21,.42-.29,.65-.08,.23-.13,.46-.16,.7-.03,.24-.04,.46,0,.65,.03,.22,.1,.47,.2,.73,.1,.26,.24,.5,.4,.71,.17,.21,.37,.38,.6,.51,.23,.12,.48,.16,.77,.13-.02-.11-.07-.2-.18-.26-.11-.06-.22-.12-.33-.2-.12-.07-.23-.18-.35-.31-.12-.13-.19-.32-.22-.55l-.06-.43c.31-.56,.77-.89,1.38-.97,.42-.06,.8,.02,1.15,.23,.35,.21,.62,.5,.8,.87l.19-.02c.19-.66,.49-1.29,.91-1.89,.42-.6,.95-1.06,1.57-1.37v-.05s-.12-.08-.34-.14c-.22-.06-.47-.15-.75-.29s-.54-.33-.79-.59c-.25-.26-.4-.61-.46-1.06-.14-1.05,0-1.92,.42-2.62,.42-.69,1.17-1.11,2.22-1.25l.72-.1c.08,.02,.18,.18,.3,.48,.11,.3,.23,.65,.34,1.05,.11,.4,.21,.8,.3,1.19,.09,.4,.14,.69,.17,.88l.1,.91c-.02,.13-.08,.27-.2,.42-.12,.15-.24,.29-.37,.43s-.24,.26-.35,.35c-.11,.1-.16,.15-.16,.17,0,.02,.07,.04,.2,.07,.12,.03,.27,.07,.43,.11,.16,.04,.32,.09,.48,.13,.16,.04,.27,.09,.32,.13,.18,.12,.38,.3,.62,.52,.23,.23,.48,.45,.75,.67,.26,.21,.53,.4,.81,.56,.28,.16,.53,.22,.77,.19h.05s.08-.11,.19-.31c.11-.2,.25-.44,.41-.71,.15-.27,.32-.55,.5-.81,.17-.27,.32-.47,.43-.62,.05-.07,.16-.16,.33-.25,.16-.1,.33-.19,.48-.29,.16-.09,.3-.19,.43-.28,.12-.09,.19-.16,.18-.21v-.05Zm-8.14-5.43c-.32,.04-.63,.05-.93,.02-.3-.03-.57-.11-.81-.24-.25-.13-.45-.31-.62-.54-.17-.23-.28-.53-.33-.89-.05-.37-.07-.73-.07-1.1,0-.37,.02-.73,.04-1.1,.02-.37,.04-.74,.06-1.11,.01-.37,0-.73-.05-1.1-.05-.37-.15-.73-.29-1.07-.14-.34-.33-.66-.56-.93-.24-.28-.51-.49-.85-.64-.33-.15-.7-.21-1.12-.19l-.02-.15c.42-.06,.82-.03,1.2,.07,.39,.1,.75,.26,1.08,.49,.33,.22,.63,.5,.88,.83s.45,.69,.59,1.08l1.76,5.03c.13,.15,.22,.31,.26,.5,.04,.19,.08,.37,.1,.55,0,.05,.01,.12,.02,.21,0,.09,0,.14,0,.15l-.34,.15Z"/>
      <path class="cls-2" d="M122.51,63.78c-.43-.13-.77-.27-1.01-.42-.25-.15-.43-.34-.56-.56-.13-.23-.23-.49-.29-.79-.06-.3-.13-.66-.19-1.08l-.02-.31c0-.1-.05-.21-.12-.35l-.3-4.04-.15-1.96c-.15,0-.29,.08-.42,.21-.13,.13-.27,.29-.41,.46-.14,.17-.28,.34-.41,.51-.08,.1-.15,.19-.23,.27-.05,.06-.1,.11-.15,.15-.41,.32-.83,.57-1.26,.75-.43,.18-.9,.29-1.42,.32-.18,.01-.38,.02-.62,.02s-.46-.03-.68-.08-.42-.15-.58-.29c-.16-.13-.25-.32-.27-.56-.06-.6-.15-1.26-.25-1.98,0,0,0-.02,0-.03-.11-.73-.19-1.42-.24-2.08v-.15c-.02-.1-.02-.22-.02-.37h0c0-.16,0-.31,0-.45,0-.15,.02-.27,.04-.38,.02-.11,.06-.16,.11-.17h.12c.48-.04,.95,.05,1.41,.26,.46,.22,.87,.51,1.24,.88,.3,.31,.57,.65,.78,1.03,.05,.07,.09,.15,.13,.23,.24,.46,.38,.92,.42,1.37,.02,.07,.09,.09,.2,.08,.08,0,.16-.14,.24-.39,.08-.26,.13-.49,.17-.7,.02-.07,.04-.14,.06-.2,.18-.58,.5-1.05,.94-1.42,.49-.41,1.06-.71,1.73-.9,.08-.06,.15-.09,.24-.09,.1,0,.18-.02,.26-.05,.08-.02,.14-.05,.19-.08,.04-.04,.06-.11,.06-.22,0-.13-.05-.22-.12-.28h-.12c-.56,.05-1.07,0-1.52-.14-.45-.14-.89-.37-1.34-.71-.14-.09-.26-.21-.37-.37-.11-.16-.23-.31-.35-.46-.12-.15-.25-.27-.39-.37-.14-.1-.29-.15-.45-.14-.64,.05-1.2,.23-1.67,.55-.47,.32-.92,.66-1.35,1.03-.43,.37-.88,.72-1.34,1.03-.34,.23-.72,.39-1.14,.48-.15,.03-.3,.05-.46,.07l-3.28,.24c-.07,0-.09,.06-.08,.18v.12c.02,.13,.13,.24,.36,.34s.48,.23,.76,.39c.25,.15,.48,.34,.7,.58,.03,.03,.06,.06,.09,.09,.24,.28,.39,.66,.42,1.14l.53,7.14,.25,.08h.05c.16-.43,.39-.84,.7-1.23,.3-.38,.65-.73,1.04-1.03,.39-.3,.81-.55,1.25-.75,.45-.2,.9-.31,1.37-.34,.43-.03,.78,.02,1.04,.14,.26,.13,.46,.32,.61,.57,.15,.26,.25,.58,.31,.96,.06,.38,.11,.82,.15,1.3l.12,1.64c0,.13,.02,.33,.05,.63,.02,.27,.03,.55,.04,.83,0,.28,0,.53-.02,.74-.02,.21-.06,.32-.12,.32h-.1c-.34,.03-.71-.04-1.11-.23-.4-.18-.79-.42-1.16-.7-.37-.29-.7-.62-.99-.98-.29-.37-.5-.73-.6-1.09h-.1s-.1,.1-.17,.19c-.07,.08-.14,.18-.21,.28-.07,.1-.14,.2-.2,.29-.06,.09-.1,.15-.13,.17-.21,.21-.47,.38-.77,.51-.3,.13-.57,.25-.81,.38-.67,.36-1.21,.84-1.64,1.45-.42,.61-.61,1.31-.55,2.1,.02,.34,.1,.67,.22,.99,.12,.32,.29,.6,.5,.83,.18,.2,.38,.36,.62,.49,.04,.03,.09,.05,.14,.07,.29,.14,.63,.2,.99,.17-.01-.16-.1-.28-.25-.34-.08-.03-.15-.07-.24-.1-.09-.04-.19-.08-.29-.12-.19-.07-.37-.18-.53-.31-.16-.13-.26-.34-.28-.64-.04-.56,.12-1,.49-1.31s.8-.48,1.32-.52c.64-.05,1.21,.09,1.7,.41,.49,.32,.96,.69,1.41,1.11l.19-.02c.48-.68,1.03-1.24,1.65-1.67,.61-.43,1.26-.79,1.96-1.05,.69-.27,1.41-.48,2.16-.63,.75-.15,1.52-.3,2.3-.44,.06-.02,.09-.08,.08-.18l-.02-.31Z"/>
      <path class="cls-2" d="M138,63.36c-.07-.02-.14-.05-.2-.07-.33-.13-.6-.26-.79-.4-.24-.16-.42-.36-.54-.59-.12-.23-.2-.5-.25-.81-.01-.08-.02-.16-.04-.24-.04-.25-.07-.53-.1-.84v-.32c0-.1-.05-.22-.11-.36l-.03-.99-.13-5.02c-.15,0-.29,.07-.43,.2-.14,.12-.29,.27-.43,.43-.15,.16-.29,.33-.43,.5-.14,.16-.28,.3-.4,.4-.43,.3-.86,.53-1.3,.69s-.91,.24-1.43,.26c-.18,0-.38,0-.62,0-.23,0-.46-.05-.68-.11-.22-.07-.41-.17-.56-.31-.16-.14-.24-.33-.25-.58-.03-.61-.09-1.28-.16-2.01-.08-.73-.12-1.43-.14-2.09v-.15c0-.1,0-.22,0-.38,0-.15,.01-.3,.02-.45,.01-.15,.03-.27,.06-.37,.03-.11,.07-.16,.12-.16h.12c.48-.02,.95,.1,1.4,.33,.45,.24,.85,.55,1.2,.94,.35,.38,.63,.82,.86,1.3,.22,.48,.34,.94,.35,1.39,.02,.07,.08,.1,.2,.09,.08,0,.16-.13,.25-.38,.09-.25,.16-.49,.2-.7,.21-.67,.56-1.19,1.07-1.57,.51-.38,1.09-.66,1.77-.82,.08-.05,.16-.08,.24-.08,.1,0,.18-.01,.26-.03s.15-.04,.19-.08c.05-.03,.07-.11,.07-.22,0-.13-.04-.22-.1-.29h-.12c-.56,.02-1.07-.05-1.51-.21-.44-.16-.87-.42-1.3-.77-.13-.1-.25-.22-.35-.39-.1-.17-.21-.33-.33-.47-.12-.15-.24-.28-.37-.39-.13-.11-.28-.16-.44-.16-.64,.02-1.21,.17-1.7,.47-.48,.3-.95,.62-1.4,.97-.45,.35-.91,.67-1.39,.97-.47,.3-1.02,.45-1.63,.47l-3.29,.09c-.06,0-.09,.06-.09,.17v.12c0,.13,.12,.24,.34,.35,.22,.11,.47,.25,.74,.43s.52,.41,.76,.7c.23,.29,.36,.68,.37,1.17l.07,2.49,.07,2.57,.06,2.09,.24,.09h.05c.18-.42,.43-.82,.76-1.2,.15-.17,.3-.33,.46-.48,.19-.18,.4-.35,.62-.5,.4-.29,.83-.51,1.29-.69,.45-.17,.91-.27,1.38-.28h.1c.39,0,.7,.07,.93,.19,.1,.05,.19,.11,.27,.19,.13,.11,.24,.25,.32,.41,.13,.26,.22,.59,.27,.97,.04,.39,.07,.82,.08,1.3v.07s.04,1.57,.04,1.57c0,.13,0,.34,.02,.63h0c0,.28,0,.55,0,.83,0,.28-.03,.53-.05,.74-.03,.21-.07,.32-.14,.32h-.1c-.34,.01-.7-.08-1.1-.28-.39-.2-.77-.45-1.12-.76-.01-.01-.02-.02-.04-.03-.34-.3-.64-.63-.91-.99-.28-.38-.46-.76-.55-1.12h-.1s-.11,.09-.18,.18c-.07,.08-.14,.17-.22,.27-.08,.1-.15,.2-.21,.29s-.11,.14-.14,.16c-.22,.2-.48,.36-.8,.47-.31,.11-.59,.23-.82,.35-.68,.33-1.25,.78-1.7,1.38-.23,.3-.4,.63-.5,.98-.11,.34-.15,.7-.14,1.09,0,.34,.07,.67,.17,1,.05,.14,.1,.28,.16,.4,.08,.17,.18,.32,.29,.46,.2,.24,.44,.44,.73,.6,.29,.15,.62,.23,.99,.22,0-.16-.08-.28-.24-.36-.15-.08-.33-.16-.51-.24-.19-.08-.36-.2-.52-.34-.13-.11-.21-.28-.23-.5,0-.05-.01-.09-.01-.15-.02-.56,.16-.99,.55-1.28,.38-.29,.82-.45,1.34-.46,.64-.02,1.2,.15,1.68,.49,.09,.06,.17,.12,.25,.19,.39,.29,.76,.62,1.11,.98h.19c.51-.66,1.09-1.2,1.72-1.6,.63-.4,1.3-.73,2.01-.96,.7-.24,1.43-.41,2.18-.53,.76-.12,1.53-.23,2.32-.33,.06-.02,.09-.07,.09-.17v-.31Z"/>
      <path class="cls-2" d="M154.94,63.42s-.04-.08-.06-.1c-.71-.09-1.25-.38-1.62-.87-.37-.49-.65-1.09-.85-1.8-.16-.58-.29-1.21-.38-1.89-.02-.15-.04-.3-.06-.46-.07-.66-.15-1.33-.26-1.99-.03-.2-.06-.39-.1-.58-.25-.55-.4-1.13-.45-1.75-.06-.61-.08-1.22-.07-1.81v-.41c.02-.48,.12-.84,.33-1.08,.21-.24,.43-.41,.68-.52,.24-.11,.46-.17,.67-.2,.2-.02,.3-.05,.31-.1v-.48s-.1-.04-.32-.07c-.22-.03-.48-.05-.8-.07-.31-.02-.65-.04-1-.07-.35-.02-.68-.04-.97-.04-.53-.12-1.03-.32-1.49-.6-.46-.28-.93-.57-1.41-.87-.48-.3-.99-.56-1.52-.79-.54-.23-1.14-.35-1.82-.36-.46,0-.9,.07-1.3,.24-.4,.17-.75,.4-1.05,.69-.3,.29-.54,.64-.72,1.04-.18,.4-.27,.82-.28,1.25v.58c.15,.37,.35,.68,.62,.93,.26,.24,.6,.37,1.02,.38,.15,0,.33-.06,.55-.17s.33-.26,.33-.44c-.07,.01-.11,.02-.12,.02-.03,.02-.13,.06-.29,.14-.16,.08-.26,.12-.29,.14-.23,0-.42-.06-.57-.18-.15-.11-.28-.25-.38-.42-.1-.16-.18-.34-.22-.54-.05-.2-.07-.37-.07-.53,0-.24,.07-.48,.2-.71,.12-.23,.29-.44,.48-.62,.2-.18,.42-.33,.66-.44,.24-.11,.48-.16,.7-.16,.77,.02,1.36,.29,1.75,.82,.39,.53,.59,1.18,.57,1.96-.01,.87-.13,1.76-.36,2.68-.23,.91-.56,1.75-1.01,2.52-.07,.13-.2,.27-.39,.42-.2,.15-.4,.29-.6,.42-.2,.14-.39,.25-.55,.35-.16,.1-.24,.18-.24,.23,0,.03,.09,.11,.26,.22,.18,.11,.36,.26,.56,.43,.2,.17,.38,.37,.56,.61,.11,.15,.18,.29,.22,.45,.02,.1,.03,.2,.03,.29,0,.24-.03,.5-.07,.77-.05,.27-.1,.55-.17,.82-.07,.27-.14,.53-.21,.78,0,0,0,0,0,.02-.07,.24-.13,.46-.18,.64-.03,.11-.17,.2-.42,.26-.24,.06-.52,.11-.83,.17-.31,.05-.61,.1-.91,.15-.12,.02-.24,.05-.33,.08-.14,.04-.25,.1-.34,.16-.15,.11-.29,.26-.44,.44-.15,.18-.28,.38-.38,.6-.11,.22-.2,.44-.27,.67s-.1,.45-.11,.64c0,.23,.02,.48,.08,.75,.06,.27,.15,.53,.29,.77s.3,.43,.51,.59c.21,.16,.46,.24,.75,.24,0-.11-.04-.2-.14-.28s-.2-.16-.3-.25c-.11-.09-.2-.21-.3-.36-.09-.15-.14-.34-.14-.58v-.44c.4-.51,.91-.76,1.52-.75,.42,0,.79,.14,1.1,.41,.32,.26,.54,.59,.66,.98h.2c.28-.62,.68-1.2,1.19-1.73,.16-.17,.34-.33,.52-.46,.37-.29,.79-.51,1.24-.65v-.05s-.1-.09-.31-.19c-.21-.09-.44-.23-.7-.4-.25-.17-.48-.41-.69-.7-.15-.22-.25-.49-.28-.8,0-.08-.02-.16-.02-.24v-.08c.02-1.06,.29-1.91,.82-2.53,.1-.11,.2-.21,.31-.31,.47-.38,1.09-.58,1.86-.59,.07,0,.14,0,.21,0h.73c.08,.05,.15,.22,.22,.54,.07,.32,.13,.68,.18,1.09,.02,.16,.04,.33,.05,.49,.02,.25,.04,.49,.06,.74,.02,.4,.03,.7,.03,.9l-.04,.92c-.03,.13-.12,.25-.26,.38,0,0-.01,.01-.02,.02-.13,.12-.27,.24-.41,.35-.15,.12-.28,.22-.4,.29-.12,.08-.19,.13-.19,.14s.06,.05,.18,.1c.12,.05,.26,.11,.41,.18,.15,.07,.3,.13,.46,.2,.15,.07,.25,.12,.3,.17,.16,.15,.33,.35,.53,.61,.2,.26,.41,.52,.64,.77,.1,.11,.19,.21,.29,.3,.14,.14,.28,.26,.42,.38,.25,.2,.49,.3,.73,.3h.05s.08-.08,.2-.23c0-.01,.02-.02,.03-.04,.14-.18,.31-.4,.51-.64,.2-.25,.4-.49,.62-.73,.21-.24,.39-.42,.52-.55,.02-.02,.03-.03,.05-.05,.07-.05,.18-.1,.31-.15,.18-.07,.35-.14,.52-.21,.17-.07,.33-.14,.46-.21,.14-.07,.21-.13,.21-.18v-.05s-.01-.05-.03-.1Zm-8.1-6.63c-.29-.08-.55-.2-.77-.36-.22-.16-.4-.38-.53-.63-.13-.25-.2-.56-.19-.93,0-.37,.04-.74,.1-1.1,.06-.36,.13-.72,.21-1.08,.08-.36,.15-.72,.23-1.08,.07-.36,.11-.73,.11-1.1,0-.37-.03-.74-.13-1.1-.09-.37-.23-.7-.42-1.01-.19-.31-.43-.56-.73-.76-.3-.2-.66-.32-1.08-.36v-.14c.42,0,.82,.09,1.18,.25,.37,.16,.7,.38,.99,.65,.29,.27,.54,.59,.74,.95,.2,.37,.34,.75,.42,1.16l.97,5.24c.11,.16,.17,.34,.19,.54,.01,.2,.02,.38,.01,.56,0,.05,0,.11-.02,.2,0,.09-.01,.14-.02,.15l-.36,.09c-.32,0-.63-.05-.92-.13Z"/>
      <path class="cls-2" d="M172.5,50.56c-.12-.02-.28-.08-.48-.18-.16-.07-.31-.2-.45-.39-.03-.04-.06-.08-.09-.13-.18-.27-.34-.55-.49-.83-.15-.29-.28-.54-.38-.77-.11-.23-.18-.34-.21-.34-.08,0-.18,.07-.29,.21-.11,.15-.23,.32-.35,.51-.12,.2-.23,.38-.33,.57-.1,.19-.19,.32-.25,.39-.07,.08-.2,.16-.37,.27-.18,.1-.36,.2-.55,.3-.19,.1-.36,.19-.5,.27-.14,.08-.22,.14-.22,.19,0,.13,.05,.24,.16,.35,.06,.06,.13,.11,.21,.17,.07,.05,.13,.1,.21,.15,.16,.11,.33,.23,.5,.37,.17,.14,.3,.32,.4,.54,.15,.33,.26,.68,.32,1.04,.02,.12,.03,.24,.05,.36,.05,.51,.06,.98,.02,1.43l-.52,7.79c-.13,0-.22-.11-.27-.29l-2.11-7.61c-.12-.2-.22-.42-.31-.67,0,0,0-.02,0-.02-.09-.24-.15-.49-.21-.76-.06-.27-.1-.54-.13-.81-.03-.27-.04-.51-.02-.72,0-.06,0-.11,.02-.16,.02-.15,.07-.28,.14-.38,.09-.14,.19-.25,.3-.33,.11-.08,.21-.15,.29-.22,.09-.07,.13-.14,.14-.22,0-.11,0-.17-.05-.19-.04-.01-.12-.04-.25-.08-.41-.09-.75-.18-1.01-.25-.26-.07-.5-.17-.72-.28-.22-.11-.44-.26-.65-.43-.21-.18-.48-.41-.8-.71l-.27-.31c-.35-.33-.79-.58-1.33-.76-.54-.17-1.03-.28-1.46-.3-.38-.02-.76,.01-1.13,.12-.37,.11-.71,.26-1.01,.48-.3,.21-.56,.48-.76,.8-.2,.32-.31,.67-.33,1.06-.01,.18,0,.36,.07,.55,.06,.19,.15,.37,.25,.54,.11,.17,.25,.31,.42,.42,.17,.11,.36,.17,.57,.18l.25-.18v-.1c-.31-.15-.55-.33-.74-.56-.19-.22-.27-.51-.24-.86,.03-.4,.21-.72,.54-.95,.33-.23,.68-.33,1.05-.31,.61,.04,1.04,.31,1.28,.8,.24,.49,.38,1.09,.42,1.79s.02,1.43-.06,2.21c0,.03,0,.07,0,.1-.08,.74-.14,1.41-.18,2.01l-.13,.64-.02,.11s-.06,0-.13,0c-.07,0-.12,0-.16,0,0,0-.01,0-.02,0-.2-.01-.35-.07-.45-.16-.11-.1-.19-.22-.23-.37s-.07-.31-.06-.49,0-.35,0-.51l-.31-.02c-.11,0-.2,.15-.28,.49-.07,.33-.13,.72-.17,1.16-.01,.13-.03,.26-.04,.39-.03,.31-.06,.62-.07,.93-.03,.43-.05,.76-.07,.96v.05c-.01,.15,0,.27,.03,.38,.03,.11,.12,.16,.27,.18,.18,0,.29-.07,.36-.24,.06-.17,.11-.36,.16-.56,.05-.2,.12-.38,.22-.55,.1-.17,.29-.25,.56-.23,.11,0,.21,.02,.29,.04,.08,.02,.12,.06,.11,.11l-.3,4.53c.04,.16,.06,.3,.06,.4s0,.24-.02,.4c0,.13-.11,.23-.3,.29-.19,.07-.42,.15-.71,.23-.28,.09-.58,.18-.9,.29-.32,.11-.63,.25-.91,.43-.29,.18-.53,.42-.74,.71-.05,.07-.09,.14-.13,.21-.13,.25-.2,.56-.23,.9-.02,.26,0,.52,.04,.8,.04,.28,.13,.54,.26,.78,.02,.04,.04,.07,.07,.11,.12,.2,.26,.36,.44,.51,.21,.17,.46,.26,.77,.28,0-.11-.03-.21-.11-.3-.07-.07-.13-.13-.2-.2-.02-.02-.05-.05-.07-.07-.1-.1-.19-.21-.27-.34-.08-.14-.11-.31-.1-.51,.02-.37,.15-.64,.36-.8,.21-.16,.51-.23,.87-.21,.29,.02,.51,.09,.68,.22,.16,.12,.3,.26,.41,.4,.11,.14,.2,.28,.28,.39,.07,.12,.16,.18,.25,.19h.05s.05-.03,.09-.11c.05-.08,.1-.18,.15-.29,.06-.12,.11-.23,.17-.34,.02-.05,.05-.09,.07-.13,.03-.06,.05-.11,.07-.15,.12-.2,.33-.41,.61-.63,.28-.21,.56-.41,.85-.59,.29-.17,.54-.32,.76-.45,.22-.12,.33-.19,.33-.21v-.1c-.32-.21-.57-.38-.74-.5-.17-.11-.32-.23-.45-.36-.13-.12-.25-.27-.36-.45-.11-.18-.26-.43-.44-.77l-.08-1.75,.32-4.78,.08-1.2-.08-.2s0-.11,0-.29,0-.31,.02-.41c.01-.16,.02-.32,.04-.47,.02-.22,.04-.43,.06-.63,.04-.33,.09-.69,.17-1.09h.05s.09,.14,.18,.42c.09,.27,.18,.58,.28,.93,.01,.04,.02,.09,.04,.13,.08,.3,.16,.59,.24,.87,.08,.32,.15,.53,.19,.63,.1,.27,.2,.54,.29,.82,.12,.38,.24,.76,.35,1.16,.2,.69,.38,1.39,.56,2.11,.18,.71,.35,1.43,.52,2.17,.17,.73,.34,1.44,.52,2.13v.1c-.06,.79-.48,1.28-1.27,1.47v.14c-.02,.11,.04,.2,.15,.27,.12,.07,.25,.12,.41,.17,.16,.05,.32,.1,.48,.14,.16,.04,.28,.09,.35,.15,.23,.18,.45,.4,.64,.67,.2,.27,.4,.54,.61,.81,.21,.26,.43,.5,.68,.7,.24,.2,.53,.32,.85,.33l.24,.02c.42-.78,.91-1.4,1.47-1.87,.56-.46,1.29-.7,2.19-.7,.05-.01,.08-.05,.11-.11,.02-.06,.03-.12,.03-.17v-.07c.01-.1,0-.17-.05-.22-.04-.05-.1-.09-.16-.11-.07-.02-.14-.04-.23-.05-.09-.02-.16-.04-.23-.08-.51-.31-.85-.75-1.01-1.31-.16-.57-.24-1.13-.24-1.68l.35-5.31,.08-1.23c.03-.51,.1-1.01,.21-1.49,.05-.21,.12-.42,.21-.63,.11-.26,.27-.51,.45-.76,.09-.12,.22-.23,.38-.33s.33-.18,.5-.27c.17-.09,.31-.17,.44-.25,.13-.08,.2-.19,.2-.31,.01-.21-.04-.33-.16-.35Z"/>
      <path class="cls-2" d="M187.11,52.1c-.08,0-.18-.15-.29-.42-.11-.28-.26-.57-.46-.9-.19-.33-.45-.64-.76-.94-.31-.3-.69-.48-1.14-.54-.43-.06-.81-.03-1.14,.07-.33,.1-.64,.26-.93,.46-.29,.21-.56,.45-.82,.72-.26,.28-.53,.55-.81,.82-.06,.04-.15,.09-.3,.13-.15,.05-.29,.1-.45,.15s-.29,.12-.42,.2c-.12,.08-.2,.18-.21,.29,0,.08,.03,.17,.11,.28,.08,.11,.18,.23,.29,.37,.11,.14,.21,.29,.31,.44s.15,.33,.15,.51c0,.52,0,.98-.02,1.37-.01,.4-.03,.77-.06,1.13-.03,.36-.07,.71-.11,1.06-.04,.33-.09,.7-.14,1.1-.1,.77-.2,1.52-.32,2.26-.11,.74-.22,1.49-.31,2.26-.03,.22-.08,.6-.15,1.13-.07,.51-.12,1.04-.17,1.59-.04,.55-.07,1.03-.09,1.44-.01,.41,.03,.62,.12,.64h.07c.08,.02,.15,.02,.21,.01,.06,0,.11-.06,.15-.15l.63-4.89c.02-.14,.05-.36,.08-.64,.04-.3,.09-.6,.14-.89s.11-.53,.18-.74c.07-.21,.14-.31,.22-.3,.33,.04,.6,.14,.81,.28,.2,.14,.34,.31,.43,.52,.09,.21,.13,.44,.14,.71s0,.55-.05,.86c-.04,.32-.09,.64-.16,.94-.06,.31-.11,.58-.14,.8l-.25,1.96c-.12,.44-.29,.86-.49,1.26-.2,.39-.55,.66-1.04,.79l-.67-.09c-.58-.07-1.01-.29-1.31-.63s-.5-.75-.61-1.22c-.11-.47-.15-.97-.12-1.5,.03-.53,.07-1.02,.13-1.47l1.25-9.69c.11-.88,.44-1.64,.98-2.29,.54-.65,1.13-1.23,1.79-1.74l.02-.2v-.02c-.22-.03-.46,.04-.73,.21-.04,.03-.08,.06-.12,.08-.2,.13-.37,.25-.49,.34-.79,.58-1.54,1.21-2.25,1.88-.71,.67-1.35,1.39-1.92,2.15-.57,.76-1.05,1.58-1.43,2.46-.38,.88-.64,1.82-.77,2.82-.06,.48-.05,1.04,.04,1.68,.09,.64,.24,1.3,.46,1.98,.22,.69,.5,1.37,.83,2.05,.33,.68,.71,1.29,1.13,1.84,.42,.55,.87,1,1.36,1.37,.49,.36,1.01,.58,1.55,.65,.66,.08,1.2,.07,1.63-.05,.43-.11,.82-.28,1.18-.49,.36-.21,.73-.44,1.11-.68,.38-.24,.85-.45,1.41-.62,.12-.03,.31-.05,.59-.03,.28,0,.56,.02,.85,.02,.29,0,.55,0,.78-.02s.35-.08,.36-.17c.02-.14-.05-.27-.2-.37-.15-.1-.32-.2-.5-.31-.18-.11-.35-.22-.51-.35-.16-.13-.25-.29-.28-.49-.02-.21-.02-.42,0-.61s.04-.38,.06-.58l.28-2.18c.12-.34,.29-.59,.49-.74,.2-.15,.39-.26,.59-.33,.2-.06,.37-.11,.52-.15,.15-.04,.23-.12,.25-.25v-.07s-.1-.1-.32-.26c-.22-.16-.48-.34-.77-.55-.29-.21-.58-.43-.86-.67-.29-.24-.48-.46-.59-.67-.02-.05-.05-.14-.07-.27-.02-.12-.05-.25-.09-.38-.03-.13-.08-.24-.15-.34s-.16-.15-.27-.17h-.1c-.07-.02-.11,0-.15,.07-.24,.29-.45,.59-.65,.88-.2,.29-.42,.54-.67,.76-.25,.21-.53,.37-.84,.49-.32,.11-.69,.14-1.12,.09h-.09c-.13-.03-.21-.12-.26-.3-.04-.18-.06-.38-.04-.61,.02-.24,.04-.47,.08-.71,.04-.24,.07-.43,.09-.57l.24-1.82c.07-.53,.16-1.13,.29-1.79,.12-.67,.3-1.29,.52-1.87,.22-.58,.5-1.06,.83-1.43s.74-.53,1.22-.46c.24,.03,.46,.13,.68,.29,.22,.17,.3,.39,.27,.68-.05,.37-.18,.63-.41,.79s-.46,.28-.72,.36-.49,.14-.69,.18c-.21,.04-.32,.11-.33,.23v.05c.29,.19,.58,.42,.85,.7,.27,.28,.51,.57,.69,.87,.04,.07,.08,.19,.14,.35,.05,.16,.11,.33,.15,.51,.05,.18,.1,.33,.16,.47s.1,.21,.13,.21c.1,.01,.2-.06,.32-.21,.12-.15,.24-.34,.39-.55,.14-.21,.29-.42,.43-.63,.15-.21,.3-.36,.46-.45,.07-.04,.19-.09,.36-.16,.17-.07,.35-.14,.53-.21,.18-.07,.34-.15,.47-.24,.13-.09,.2-.17,.21-.25l-.88-.7Z"/>
      <path class="cls-2" d="M204.21,55.79c-.2-.07-.46-.15-.76-.24-.3-.09-.63-.18-.97-.27-.34-.1-.65-.18-.94-.24-.49-.23-.94-.53-1.33-.9s-.79-.76-1.2-1.15c-.41-.39-.85-.75-1.32-1.09-.48-.33-1.05-.58-1.7-.73-.46-.11-.9-.12-1.32-.03s-.82,.24-1.17,.46c-.36,.22-.66,.51-.92,.87-.25,.35-.43,.74-.53,1.17l-.13,.57c.07,.4,.21,.74,.42,1.04,.2,.29,.51,.49,.92,.59,.14,.03,.33,.02,.57-.06,.24-.07,.38-.19,.42-.36-.07,0-.11,0-.12,0-.04,0-.14,.03-.32,.08-.17,.04-.28,.07-.32,.07-.22-.05-.39-.15-.51-.29-.12-.15-.22-.31-.29-.49-.07-.18-.1-.37-.1-.57,0-.2,.01-.38,.05-.54,.05-.24,.16-.45,.33-.65,.17-.2,.37-.37,.6-.51,.23-.14,.48-.23,.74-.29,.26-.06,.5-.06,.72,0,.75,.18,1.27,.56,1.54,1.17,.28,.6,.33,1.28,.15,2.03-.2,.85-.5,1.7-.91,2.54-.41,.85-.91,1.6-1.51,2.26-.09,.11-.25,.22-.47,.33-.22,.11-.45,.2-.67,.29-.23,.09-.43,.17-.61,.23s-.28,.12-.29,.17c0,.03,.06,.12,.21,.27,.15,.15,.3,.33,.46,.54,.16,.21,.3,.45,.42,.72,.12,.27,.15,.53,.09,.78-.06,.24-.13,.48-.23,.74-.1,.26-.21,.51-.34,.77-.13,.25-.25,.49-.37,.72-.12,.23-.23,.43-.32,.61-.06,.1-.21,.16-.46,.17-.25,0-.53,0-.84,0-.31-.01-.62-.02-.92-.04-.3-.01-.54,.02-.71,.1-.16,.08-.34,.19-.52,.34-.18,.15-.35,.32-.5,.51-.15,.19-.28,.39-.4,.6-.11,.21-.19,.42-.24,.6-.05,.22-.07,.47-.07,.75,0,.28,.04,.55,.12,.81,.08,.26,.21,.49,.37,.68,.17,.2,.4,.33,.68,.39,.02-.11,0-.21-.08-.3-.08-.09-.16-.19-.24-.3-.08-.11-.15-.24-.21-.41-.06-.16-.07-.36-.01-.6l.1-.42c.49-.42,1.04-.55,1.63-.42,.41,.1,.74,.3,1,.63,.25,.32,.4,.69,.44,1.09l.19,.04c.41-.55,.92-1.03,1.52-1.45,.61-.41,1.26-.65,1.96-.73v-.05s-.07-.11-.25-.25c-.19-.13-.38-.31-.6-.54-.21-.22-.39-.5-.53-.83-.14-.33-.16-.72-.06-1.16,.24-1.04,.68-1.8,1.33-2.3,.64-.5,1.48-.63,2.52-.39l.71,.16c.07,.05,.11,.24,.11,.56s-.02,.69-.06,1.1c-.04,.41-.09,.82-.15,1.22s-.11,.69-.15,.88l-.23,.89c-.06,.12-.17,.23-.33,.32-.16,.1-.33,.19-.5,.27-.17,.09-.32,.15-.46,.2-.14,.05-.21,.09-.21,.1,0,.02,.05,.06,.15,.13,.11,.07,.23,.16,.36,.26,.14,.1,.27,.19,.4,.29,.14,.1,.22,.17,.26,.23,.12,.18,.26,.42,.39,.71,.14,.3,.29,.6,.46,.89,.17,.3,.36,.57,.56,.81,.2,.24,.42,.39,.65,.45h.05s.11-.06,.29-.21c.18-.15,.38-.32,.63-.52,.24-.2,.5-.39,.76-.58,.26-.19,.46-.33,.62-.42,.08-.05,.21-.09,.4-.12,.19-.03,.37-.06,.55-.09,.18-.03,.35-.07,.5-.11,.15-.04,.23-.08,.24-.13v-.05s0-.05,0-.1c-.01-.05-.02-.09-.04-.11-.67-.24-1.14-.64-1.4-1.19-.26-.56-.41-1.2-.46-1.94-.04-.74-.02-1.53,.07-2.39,.09-.86,.15-1.72,.19-2.58-.13-.59-.15-1.2-.08-1.81,.07-.61,.18-1.21,.31-1.79l.09-.4c.11-.47,.29-.8,.54-.99,.25-.19,.51-.31,.77-.37,.26-.06,.49-.07,.69-.05,.2,.02,.31,0,.32-.04l.11-.47s-.1-.06-.31-.13Zm-5.9,5.5c-.03,.19-.06,.37-.1,.55-.01,.05-.03,.11-.06,.2-.03,.08-.04,.13-.05,.15h-.38c-.32-.06-.6-.16-.87-.3-.27-.13-.49-.31-.68-.51s-.31-.45-.39-.72c-.08-.28-.07-.59,0-.95,.08-.36,.19-.71,.33-1.05,.14-.34,.28-.68,.43-1.02,.15-.34,.3-.68,.45-1.01,.14-.34,.26-.69,.34-1.05,.08-.36,.12-.73,.11-1.11-.01-.38-.08-.73-.2-1.07-.12-.34-.31-.64-.56-.9-.25-.26-.58-.45-.98-.57l.03-.14c.41,.1,.77,.26,1.1,.49,.33,.23,.61,.51,.84,.84s.41,.69,.53,1.09c.12,.4,.18,.81,.16,1.21l-.14,5.33c.07,.18,.1,.37,.07,.56Z"/>
      <path class="cls-2" d="M83.81,70.34c-.18-.03-.36-.08-.52-.13-.06-.02-.18-.09-.32-.19,.04,.13,.08,.25,.12,.38,.17,.52,.04-.03,.19,.36,.15,.38,.27,.56,.36,.54l.07-.02c.08-.02,.14-.05,.19-.08,.05-.03,.08-.1,.08-.2l-.18-.66Z"/>
      <path class="cls-2" d="M87.84,55.48c-.09,.14-.2,.27-.34,.41-.14,.14-.27,.27-.41,.4-.13,.13-.22,.23-.27,.29-.11,.15-.2,.35-.25,.6-.06,.25-.11,.5-.16,.74-.05,.25-.1,.47-.15,.65-.05,.19-.12,.3-.21,.32-.03,0-.1-.04-.2-.15-.1-.11-.21-.23-.32-.37-.12-.14-.23-.28-.34-.41-.11-.13-.2-.22-.26-.27-.29-.2-.61-.38-.97-.54-.36-.15-.71-.25-1.06-.31v-.05c-.04-.11,.03-.22,.21-.33,.18-.11,.37-.26,.57-.43,.2-.17,.37-.37,.52-.6,.15-.23,.17-.53,.07-.89-.01-.05-.03-.09-.05-.13,0-.02-.02-.04-.03-.06-.15-.33-.45-.55-.75-.65-.08-.03-.16-.05-.25-.07-.07-.02-.15-.03-.23-.04-.4-.06-.82-.02-1.19,.12-.16,.06-.32,.13-.46,.23-.07,.05-.14,.11-.21,.17-.24,.16-.42,.4-.53,.71-.06,.16-.1,.34-.14,.52-.06,.34-.09,.71-.07,1.12,.02,.62,.1,1.26,.24,1.92,.15,.66,.29,1.25,.42,1.76l.49,1.77c.04,.14,.08,.33,.14,.56,.03,.15,.07,.29,.12,.42l1.04,3.72c.08,.28,.14,.49,.17,.63l.84,3.09c-.18-.03-.36-.08-.52-.13-.06-.02-.18-.09-.32-.19-.12-.39-.23-.77-.33-1.14-.14-.51-.24-.88-.3-1.1-.2-.74-.4-1.48-.59-2.21-.18-.73-.38-1.46-.58-2.21-.11-.39-.21-.75-.3-1.08-.09-.34-.2-.68-.3-1.02-.11-.34-.24-.69-.38-1.06-.49-1.55-.81-4.01-.18-5.5,0,0,0-.02,.01-.02,.03-.06,.07-.12,.11-.19,.02-.03,.04-.06,.06-.09,.17-.26,.38-.5,.61-.69,.03-.03,.07-.05,.1-.08-.03,0,1.08-.6,1.72-.62,.61-.02,1.21,.1,1.79,.29,.06,.02,.11,.04,.17,.06,.4,.16,.75,.35,1.06,.58,.3,.23,.56,.44,.77,.66,.21,.21,.35,.3,.43,.29l1.09,.31c.02,.08-.02,.18-.1,.31Z"/>
    </g>
    <g>
      <path class="cls-2" d="M107.85,80.89c-.12,.23-.26,.45-.4,.65-.14,.21-.3,.39-.47,.56-.17,.17-.36,.3-.56,.41-.2,.11-.43,.18-.68,.2-.32,.04-.64,0-.95-.08s-.6-.24-.86-.45c-.25-.21-.47-.49-.65-.82-.18-.33-.29-.73-.34-1.19-.05-.46-.03-.87,.06-1.24,.09-.36,.24-.68,.43-.94,.2-.26,.44-.47,.72-.63,.28-.15,.58-.25,.91-.29,.24-.02,.47,0,.7,.05,.23,.06,.45,.15,.66,.27,.21,.12,.42,.26,.61,.43,.19,.17,.37,.35,.55,.54l.68-.59c-.2-.26-.42-.49-.66-.71-.24-.21-.51-.38-.81-.53-.29-.14-.62-.24-.97-.29s-.73-.06-1.13-.02c-.4,.04-.78,.13-1.13,.25-.35,.12-.67,.28-.96,.47-.29,.19-.54,.41-.75,.65-.22,.25-.4,.52-.53,.81-.14,.29-.23,.61-.29,.94-.06,.33-.06,.68-.02,1.04,.06,.55,.22,1.05,.48,1.48,.26,.43,.59,.79,1,1.07,.41,.28,.88,.49,1.41,.61,.53,.12,1.1,.15,1.71,.08,.36-.04,.7-.13,1.01-.27,.31-.14,.6-.32,.85-.53,.26-.21,.48-.44,.68-.7,.2-.25,.36-.52,.48-.79l-.78-.45Z"/>
      <path class="cls-2" d="M117.23,75.32l-1.72,.13,.23,3.11-2.85,.21-.23-3.11-1.74,.13,.53,7.09,1.74-.13-.25-3.38,2.85-.21,.25,3.38,1.72-.13-.53-7.09Z"/>
      <path class="cls-2" d="M123.69,74.83l-.75,.03-3.13,7.42,1.19-.05,.84-1.98,2.76-.13,.98,1.9,1.78-.08-3.66-7.1Zm-1.56,4.74l.98-2.35,1.16,2.25-2.14,.1Z"/>
      <path class="cls-2" d="M134.77,81.03l-3.63,.08-.14-6.38-1.74,.04,.16,7.11,5.37-.12-.02-.73Z"/>
      <path class="cls-2" d="M142.47,81h-3.63s-.02-6.37-.02-6.37h-1.74s.02,7.12,.02,7.12l5.37-.02v-.73Z"/>
      <path class="cls-2" d="M150.22,75.36v-.6s-5.29-.11-5.29-.11l-.15,7.11,5.31,.11,.02-.73-3.57-.07,.06-2.82,2.96,.06v-.61s-2.95-.06-2.95-.06l.05-2.35,3.56,.07Z"/>
      <path class="cls-2" d="M158.19,75.07l-.2,4.52-3.85-4.7-1.11-.05-.32,7.1,1.1,.05,.22-4.88,4.18,5.19,.75,.03,.32-7.21-1.09-.05Z"/>
      <path class="cls-2" d="M166.35,79.86l1.21,.09-.14,1.89c-.17,.11-.36,.18-.56,.22-.2,.04-.41,.06-.63,.04-.37-.03-.71-.12-1.03-.27-.31-.15-.58-.35-.8-.61-.22-.26-.39-.57-.5-.94-.11-.36-.15-.77-.12-1.23,.03-.46,.13-.87,.29-1.22,.16-.35,.36-.64,.61-.88,.25-.23,.54-.4,.86-.51,.32-.11,.67-.15,1.04-.12,.24,.02,.47,.07,.67,.17,.2,.09,.39,.21,.57,.36,.17,.15,.34,.32,.49,.51,.15,.2,.29,.41,.43,.63l.77-.6c-.13-.23-.3-.46-.51-.68-.21-.22-.45-.43-.72-.61-.27-.18-.57-.33-.9-.46-.32-.12-.67-.2-1.03-.22-.41-.03-.8-.02-1.17,.04-.37,.06-.72,.15-1.04,.28-.32,.13-.62,.3-.88,.51-.27,.2-.5,.44-.7,.71-.2,.27-.35,.57-.47,.9-.12,.33-.2,.68-.22,1.06-.04,.54,.03,1.03,.2,1.48,.17,.46,.44,.85,.79,1.19,.35,.34,.78,.61,1.28,.82,.5,.21,1.06,.34,1.67,.38,.38,.03,.73,.03,1.03,.02s.59-.06,.86-.11c.26-.06,.51-.12,.75-.21,.23-.09,.47-.18,.71-.28l.21-2.73-2.95-.22-.04,.61Z"/>
      <path class="cls-2" d="M177.96,77.32l.07-.6-5.28-.58-.77,7.07,5.28,.58,.08-.73-3.55-.39,.31-2.8,2.94,.32,.07-.61-2.94-.32,.25-2.33,3.55,.39Z"/>
    </g>
  </g>
</svg>