<?xml version="1.0" encoding="UTF-8"?>
<svg id="Layer_1" data-name="Layer 1" xmlns="http://www.w3.org/2000/svg" viewBox="0 0 280 120">
  <defs>
    <style>
      .cls-1 {
        fill: #5b5b5b;
      }
    </style>
  </defs>
  <path class="cls-1" d="M157.14,44.58c.17,1.84-2.59,2.09-2.78,.25-.03-.44-.06-.83-.06-.83-.03,0-.03-.03-.03-.03-.41-.3-.96-.52-1.6-.52-.8,0-1.51,.11-1.84,.33l-.03,.03c-.06,.03-.11,.39-.11,1.13,0,1.46,6.74,1.46,6.74,5.75,0,.96-.3,2.75-1.38,3.44-.8,.52-2.34,.83-3.38,.83-1.1,0-2.86-.5-3.63-1.02-.99-.66-1.38-2.28-1.4-2.67-.11-1.84,2.64-2.04,2.78-.19,0,.17,.11,.5,.19,.58h.03c.39,.28,1.32,.52,2.04,.52,.83,0,1.51-.11,1.84-.33l.03-.03c.06-.03,.11-.39,.11-1.13,0-1.51-6.74-1.51-6.74-5.75,0-.96,.3-2.75,1.38-3.44,.8-.52,2.37-.83,3.38-.83,1.16,0,2.53,.52,3.22,1.02,1.05,.74,1.21,2.45,1.24,2.89Z"/>
  <path class="cls-1" d="M160.8,49.39c-.03-1.32,.36-3.82,1.32-4.57,0-.03,.03-.03,.03-.03,.74-.55,2.06-.96,3.22-.96s2.45,.41,3.22,.96c0,0,.03,0,.03,.03,.96,.74,1.32,3.25,1.32,4.57s-.36,3.41-1.18,4.29c-.8,.83-2.23,1.27-3.36,1.27s-2.59-.44-3.36-1.27c-.88-.91-1.24-2.97-1.24-4.29Zm2.78-.03h0c0,1.1,.17,2.12,.39,2.37,.33,.33,.66,.44,1.38,.44s1.07-.11,1.38-.44c.25-.25,.39-1.24,.39-2.34s-.17-2.31-.25-2.37c-.36-.28-.83-.41-1.54-.41s-1.18,.14-1.54,.41c-.03,.06-.22,1.24-.19,2.34Z"/>
  <path class="cls-1" d="M173.29,45.43c0-1.84,2.78-1.84,2.78,0v4.7c0,.88,.11,1.6,.28,1.79s.39,.25,.94,.25h.17c.61,.08,.91,.03,1.21-.22,.17-.17,.41-.99,.52-1.9v-4.62c0-1.84,2.78-1.84,2.78,0v7.95c0,1.29-1.38,1.68-2.2,1.16-.8,.39-1.79,.52-2.53,.44-.88,0-2.17-.41-2.86-1.13-.74-.77-1.02-2.59-1.02-3.69v-4.73h-.06Z"/>
  <path class="cls-1" d="M188.56,44.53c.5-.3,1.07-.47,1.65-.47,1.84,0,1.84,2.78,0,2.78-.8,0-1.32,.66-1.35,2.2v4.35c0,1.84-2.78,1.84-2.78,0v-7.92c0-1.51,1.73-1.82,2.48-.94Z"/>
  <path class="cls-1" d="M203.55,45.98c.74,1.71-1.82,2.81-2.53,1.1-.11-.28-.08-.22-.22-.3-.25-.11-.83-.22-1.07-.19h-.17c-.69-.03-1.18,.14-1.54,.39-.11,.08-.3,1.29-.3,2.37,.03,1.1,.22,2.15,.47,2.39,.33,.3,.69,.41,1.38,.39h.11c.33,.03,.91-.08,1.16-.17,.19-.08,.17-.06,.33-.33,.91-1.62,3.33-.25,2.42,1.35-.36,.66-1.02,1.27-1.68,1.54h-.03c-.55,.22-1.71,.39-2.26,.39-1.07,.03-2.56-.41-3.36-1.24-.88-.85-1.24-2.94-1.29-4.29v-.03c0-1.35,.44-3.85,1.43-4.62l.03-.03c.74-.52,2.12-.94,3.16-.91,.58-.06,1.87,.19,2.48,.5t.06,.03c.69,.44,1.18,1.13,1.43,1.68Z"/>
  <path class="cls-1" d="M209.52,50.77c.06,.47,.17,.83,.28,.96,.33,.33,.66,.44,1.38,.44h.11c.25,.03,.94-.11,1.24-.19,.25-.08,.33-.17,.41-.25,1.43-1.18,3.22,.96,1.79,2.15-.17,.11-.66,.47-1.27,.72t-.06,.03c-.52,.17-1.71,.39-2.31,.33-1.05,0-2.5-.44-3.3-1.27-.85-.88-1.16-2.97-1.16-4.26-.03-1.32,.33-3.8,1.32-4.57,.74-.61,2.12-1.02,3.22-1.02h.06c1.1,.03,2.42,.47,3.11,1.07,.96,.74,1.24,3.22,1.21,4.51-.03,.74-.63,1.35-1.38,1.35h-4.65Zm3.3-2.78c-.03-.17-.11-.88-.19-.94-.03,0-.03-.03-.03-.03-.33-.25-.74-.39-1.46-.41-.66,0-1.13,.14-1.49,.41-.06,.06-.14,.44-.19,.96h3.36Z"/>
  <path class="cls-1" d="M150.45,67.41h-2.15c-1.84,0-1.84-2.78,0-2.78h7.13c1.84,0,1.84,2.78,0,2.78h-2.2v9.71c0,1.84-2.78,1.84-2.78,0v-9.71Z"/>
  <path class="cls-1" d="M157.39,73.16c-.03-1.32,.36-3.82,1.32-4.57,0-.03,.03-.03,.03-.03,.74-.55,2.06-.96,3.22-.96,.77,0,1.6,.19,2.31,.47,.8-.58,2.26-.22,2.26,1.1v7.92c0,1.35-1.49,1.71-2.28,1.07-.72,.33-1.54,.5-2.26,.5-1.16,0-2.59-.44-3.36-1.27-.88-.85-1.24-2.92-1.24-4.24Zm2.78-.03h0c0,1.1,.17,2.12,.39,2.37,.33,.33,.66,.44,1.38,.44s1.07-.11,1.38-.44c.25-.25,.39-1.24,.39-2.34s-.17-2.31-.25-2.37c-.36-.28-.83-.41-1.54-.41s-1.18,.14-1.54,.41c-.03,.06-.22,1.24-.19,2.34Z"/>
  <path class="cls-1" d="M167.9,73.16c-.03-1.32,.36-3.82,1.32-4.57,0-.03,.03-.03,.03-.03,.74-.55,2.06-.96,3.22-.96,.77,0,1.6,.19,2.31,.47,.8-.58,2.26-.22,2.26,1.1v7.92c0,.96-.25,2.78-.99,3.88-.83,1.24-2.37,1.73-3.58,1.73-1.84,0-1.84-2.78,0-2.78,.74,0,.96-.06,1.24-.5l.03-.03c.17-.25,.3-.63,.39-1.02-.55,.17-1.13,.28-1.65,.28-1.16,0-2.59-.44-3.36-1.27-.85-.85-1.21-2.92-1.21-4.24Zm2.78-.03h0c0,1.1,.17,2.12,.39,2.37,.33,.33,.66,.44,1.38,.44s1.07-.11,1.38-.44c.25-.25,.39-1.24,.39-2.34s-.17-2.31-.25-2.37c-.36-.28-.83-.41-1.54-.41s-1.18,.14-1.54,.41c-.06,.06-.22,1.24-.19,2.34Z"/>
  <path class="cls-1" d="M178.38,73.16c-.03-1.32,.36-3.82,1.32-4.57,0-.03,.03-.03,.03-.03,.74-.55,2.06-.96,3.22-.96,.77,0,1.6,.19,2.31,.47,.8-.58,2.26-.22,2.26,1.1v7.92c0,.96-.25,2.78-.99,3.88-.83,1.24-2.37,1.73-3.58,1.73-1.84,0-1.84-2.78,0-2.78,.74,0,.96-.06,1.24-.5l.03-.03c.17-.25,.3-.63,.39-1.02-.55,.17-1.13,.28-1.65,.28-1.16,0-2.59-.44-3.36-1.27-.85-.85-1.21-2.92-1.21-4.24Zm2.78-.03h0c0,1.1,.17,2.12,.39,2.37,.33,.33,.66,.44,1.38,.44s1.07-.11,1.38-.44c.25-.25,.39-1.24,.39-2.34s-.17-2.31-.25-2.37c-.36-.28-.83-.41-1.54-.41s-1.18,.14-1.54,.41c-.03,.06-.19,1.24-.19,2.34Z"/>
  <path class="cls-1" d="M192.16,74.54c.06,.47,.17,.83,.28,.96,.33,.33,.66,.44,1.38,.44h.11c.25,.03,.94-.11,1.24-.19,.25-.08,.33-.17,.41-.25,1.43-1.18,3.22,.96,1.79,2.15-.17,.11-.66,.47-1.27,.72t-.06,.03c-.52,.17-1.71,.39-2.31,.33-1.05,0-2.5-.44-3.3-1.27-.85-.88-1.16-2.97-1.16-4.26-.03-1.32,.33-3.8,1.32-4.57,.74-.61,2.12-1.02,3.22-1.02h.06c1.1,.03,2.42,.47,3.11,1.07,.96,.74,1.24,3.22,1.21,4.51-.03,.74-.63,1.35-1.38,1.35h-4.65Zm3.3-2.78c-.03-.17-.11-.88-.19-.94-.03,0-.03-.03-.03-.03-.33-.25-.74-.39-1.46-.41-.66,0-1.13,.14-1.49,.41-.06,.06-.14,.44-.19,.96h3.36Z"/>
  <path class="cls-1" d="M203.25,68.29c.5-.3,1.07-.47,1.65-.47,1.84,0,1.84,2.78,0,2.78-.8,0-1.32,.66-1.35,2.2v4.35c0,1.84-2.78,1.84-2.78,0v-7.92c.03-1.51,1.76-1.82,2.48-.94Z"/>
  <path class="cls-1" d="M215.71,70.33c.3,1.84-2.45,2.31-2.72,.47-.03-.08-.03-.17,.03-.17h-.03c-.33-.19-.52-.3-.91-.28h-.03c-.58,0-1.07,.08-1.24,.17,.08-.03,.06,.03,.06,.52,0,.77,5.14,.41,5.14,4.15,0,.74-.28,2.2-1.21,2.81t-.03,.03c-.61,.39-1.87,.66-2.72,.66-.8,.03-2.12-.33-2.7-.69-.66-.39-1.27-1.32-1.38-1.62-.61-1.73,2.04-2.64,2.61-.88-.03-.06,.08,.06,.19,.14,.03,0,.03,.03,.03,.03,.19,.14,.74,.28,1.16,.25h.03c.55,0,1.05-.11,1.27-.25q-.08,.03-.08-.47c0-.77-5.14-.41-5.14-4.15,0-.74,.3-2.26,1.24-2.86t.03-.03c.66-.39,1.9-.61,2.7-.61,.94-.03,1.93,.36,2.39,.66,.99,.58,1.29,1.98,1.32,2.12Z"/>
  <path class="cls-1" d="M97.33,76.85l-29.22-16.84c-2.56-1.49-4.13-4.21-4.13-7.15v-8.72c0-2.94,1.57-5.67,4.13-7.15l27.48-15.87c2.56-1.49,5.69-1.49,8.25,0l27.48,15.87c2.56,1.49,4.13,4.21,4.13,7.15v15.87c0-1.49-.8-2.83-2.06-3.58l-29.19-16.86c-2.78-1.6-6.16-1.6-8.94,0l-8.12,4.68c-1.98,1.16-3.27,3.27-3.22,5.56,.03,2.2,1.18,4.15,3.08,5.25l23.36,13.48c.94,.55,1.05,1.43,1.05,1.79s-.11,1.24-1.05,1.79l-8.25,4.76c-1.49,.85-3.3,.85-4.79-.03Z"/>
  <path class="cls-1" d="M102.15,43.15c-1.49-.85-3.33-.85-4.81,0l-8.25,4.76c-.94,.55-1.05,1.43-1.05,1.79s.11,1.24,1.05,1.79l23.36,13.48c1.9,1.1,3.05,3.05,3.08,5.25,.06,2.28-1.24,4.4-3.22,5.56l-8.12,4.68c-1.38,.8-2.92,1.18-4.46,1.18s-3.08-.39-4.46-1.18l-29.22-16.89c-1.27-.74-2.06-2.09-2.06-3.58v15.87c0,2.94,1.57,5.67,4.13,7.15l27.48,15.87c2.56,1.49,5.69,1.49,8.25,0l27.48-15.87c2.56-1.49,4.13-4.21,4.13-7.15v-8.72c0-2.94-1.57-5.67-4.13-7.15l-29.19-16.84Z"/>
</svg>