<?xml version="1.0" encoding="UTF-8"?>
<svg id="Layer_1" data-name="Layer 1" xmlns="http://www.w3.org/2000/svg" viewBox="0 0 280 120">
  <defs>
    <style>
      .cls-1 {
        fill: #5b5b5b;
      }
    </style>
  </defs>
  <path class="cls-1" d="M139.94,68c-13.22,0-24-10.72-24-24s10.72-24,24-24,24,10.72,24,24-10.72,24-24,24Zm0-46.06c-12.17,0-22.06,9.89-22.06,22.06s9.89,22.06,22.06,22.06,22.06-9.89,22.06-22.06-9.89-22.06-22.06-22.06Z"/>
  <path class="cls-1" d="M139.94,61.22c-.56,0-1-.44-1-1,0-13.06-6.06-25.17-15.83-31.72-.44-.33-.56-.94-.22-1.39s.89-.56,1.33-.28c10.28,6.89,16.67,19.67,16.67,33.33,.06,.61-.39,1.06-.94,1.06Z"/>
  <path class="cls-1" d="M139.94,61.22c-.56,0-1-.44-1-1,0-13.67,6.39-26.44,16.72-33.33,.44-.33,1.06-.28,1.39,.17s.28,1.06-.17,1.39l-.11,.06c-9.78,6.56-15.83,18.72-15.83,31.72,0,.56-.44,1-1,1q.06,0,0,0Z"/>
  <path class="cls-1" d="M123.72,61.22c-.56,0-1-.44-1-1,0-13.67,6.39-26.44,16.72-33.33,.44-.33,1.06-.22,1.39,.22s.22,1.06-.22,1.39h-.06c-9.78,6.5-15.83,18.67-15.83,31.72,0,.56-.44,1-1,1Z"/>
  <path class="cls-1" d="M156.22,61.22c-.56,0-1-.44-1-1,0-13.06-6.06-25.17-15.83-31.72-.44-.33-.5-.94-.17-1.39,.28-.39,.83-.5,1.28-.28,10.28,6.89,16.72,19.67,16.72,33.33-.06,.61-.44,1.06-1,1.06Z"/>
  <path class="cls-1" d="M156.22,61.22c-.56,0-1-.44-1-1V27.72c0-.56,.44-1,1-1s1,.44,1,1V60.28c0,.5-.44,.94-1,.94Z"/>
  <path class="cls-1" d="M123.72,61.22c-.56,0-1-.44-1-1V27.72c0-.56,.44-1,1-1s1,.44,1,1V60.28c0,.5-.44,.94-1,.94Z"/>
  <path class="cls-1" d="M59.17,99.33c-.56,0-1-.44-1-1,0-6.33,2.94-12.22,7.78-15.44,.44-.33,1.06-.22,1.39,.28,.33,.44,.22,1.06-.28,1.33h-.06c-4.22,2.83-6.89,8.17-6.89,13.83,0,.56-.39,1-.94,1Z"/>
  <path class="cls-1" d="M73.78,99.33c-.56,0-1-.44-1-1,0-5.67-2.67-11-6.89-13.83-.44-.33-.56-.94-.28-1.39,.33-.44,.94-.56,1.39-.28,4.78,3.17,7.78,9.11,7.78,15.44,0,.56-.39,1-.94,1h-.06v.06Z"/>
  <path class="cls-1" d="M95.83,99.33c-.56,0-1-.44-1-1,0-5.67-2.67-11-6.89-13.83-.44-.33-.56-.89-.28-1.33s.89-.56,1.33-.28c4.78,3.22,7.78,9.11,7.78,15.44,.11,.56-.33,1-.94,1q.06,0,0,0Z"/>
  <path class="cls-1" d="M95.83,99.33c-.56,0-1-.44-1-1,0-6.33,2.94-12.28,7.78-15.44,.44-.28,1.06-.17,1.39,.28,.28,.44,.17,1.06-.28,1.39-4.28,2.83-6.89,8.11-6.89,13.83,0,.5-.44,.94-1,.94h0Z"/>
  <path class="cls-1" d="M103.17,99.33c-.56,0-1-.44-1-1v-14.67c-.06-.56,.39-1,.89-1.06s1,.39,1.06,.89v14.83c.06,.56-.39,1-.94,1Z"/>
  <path class="cls-1" d="M88.56,99.33c-.56,0-1-.44-1-1v-14.67c0-.56,.44-1,1-1s1,.44,1,1v14.67c-.06,.56-.5,1-1,1Z"/>
  <path class="cls-1" d="M125.28,100c-4.94,0-8.94-4-8.94-8.94s4-8.94,8.94-8.94,8.94,4,8.94,8.94-4,8.94-8.94,8.94Zm0-16c-3.89,0-7,3.17-7,7s3.17,7,7,7,7-3.11,7-7-3.11-7-7-7Z"/>
  <path class="cls-1" d="M154.67,100c-4.94,0-8.94-4-8.94-8.94s4-8.94,8.94-8.94,8.94,4,8.94,8.94-4,8.94-8.94,8.94Zm0-16c-3.89,0-7,3.17-7,7s3.17,7,7,7,7-3.11,7-7-3.11-7-7-7Z"/>
  <path class="cls-1" d="M184.06,99.33c-.56,0-1-.44-1-1,0-5.67-2.67-11-6.89-13.83-.44-.28-.61-.89-.33-1.33s.89-.61,1.33-.33c4.78,3.22,7.78,9.11,7.78,15.44,.11,.56-.33,1-.89,1.06h0Z"/>
  <path class="cls-1" d="M184.06,99.33c-.56,0-1-.44-1-1,0-6.33,3-12.28,7.78-15.44,.44-.33,1.06-.22,1.33,.28,.33,.44,.22,1.06-.22,1.33-4.22,2.83-6.89,8.11-6.89,13.83,.06,.56-.39,1-1,1Z"/>
  <path class="cls-1" d="M191.39,99.33c-.56,0-1-.44-1-1v-14.67c0-.56,.44-1,1-1s1,.44,1,1v14.67c0,.56-.44,1-1,1Z"/>
  <path class="cls-1" d="M176.72,99.33c-.56,0-1-.44-1-1v-14.67c0-.56,.44-1,1-1s1,.44,1,1v14.67c0,.56-.44,1-1,1Z"/>
  <path class="cls-1" d="M206.17,99.33c-.56,0-1-.44-1-1,0-6.33,3-12.28,7.78-15.44,.44-.33,1.06-.17,1.39,.28s.17,1.06-.28,1.39c-4.22,2.83-6.89,8.11-6.89,13.83,0,.5-.39,.94-1,.94h0Z"/>
  <path class="cls-1" d="M220.78,99.33c-.56,0-.94-.44-.94-1,0-5.67-2.67-11-6.89-13.83-.44-.33-.56-.94-.28-1.39,.33-.44,.94-.56,1.39-.28,4.78,3.22,7.78,9.11,7.78,15.44,0,.56-.39,1-.94,1h-.11v.06Z"/>
</svg>