<?xml version="1.0" encoding="UTF-8"?>
<svg id="Layer_1" data-name="Layer 1" xmlns="http://www.w3.org/2000/svg" viewBox="0 0 280 120">
  <defs>
    <style>
      .cls-1 {
        fill: #5b5b5b;
      }
    </style>
  </defs>
  <path class="cls-1" d="M87.18,36.09l3.22,5.36s6.43-5.36,8.58-4.29v21.13h6.82v-2.73l-2.53-.17v-19.3s7.51-4.29,10.72-2.14l-3.22-8.58s-1.07,4.29-10.19,5.9-13.41,4.83-13.41,4.83Z"/>
  <polygon class="cls-1" points="115.07 28.58 115.07 56.04 113.35 56.04 113.35 58.29 121.22 58.29 121.22 45.74 134.94 43.44 134.37 55.39 132.22 55.39 132.14 58.29 140.8 58.61 140.8 56.2 139.73 55.39 139.73 30.51 140.8 28.58 133.91 28.58 134.07 31.26 134.94 31.26 134.94 36.93 120.9 40.11 120.9 31.26 122.02 31.26 122.02 28.58 115.07 28.58"/>
  <polygon class="cls-1" points="146.17 27.51 146.17 31.26 147.4 31.26 147.4 58.29 154.15 58.29 154.15 54.6 152.6 54.32 152.6 27.51 146.17 27.51"/>
  <polygon class="cls-1" points="160.11 23.22 160.11 54.44 159.04 55.39 159.04 57.33 167.32 57.33 167.32 54.92 165.57 54.44 165.57 36.61 181.56 54.32 181.56 56.2 186.92 56.2 186.92 30.51 187.49 27.51 179.69 27.51 179.41 29.65 180.48 29.65 180.48 42.9 162.18 23.22 160.11 23.22"/>
  <rect class="cls-1" x="141.88" y="81.13" width="5.36" height="18.23"/>
  <rect class="cls-1" x="164.4" y="81.13" width="5.36" height="18.23"/>
  <rect class="cls-1" x="169.22" y="89.17" width="5.36" height="15.01" transform="translate(75.23 268.58) rotate(-90)"/>
  <rect class="cls-1" x="196.57" y="81.13" width="5.36" height="18.23"/>
  <rect class="cls-1" x="201.4" y="89.17" width="5.36" height="15.01" transform="translate(107.4 300.76) rotate(-90)"/>
  <path class="cls-1" d="M79.68,91.85v-2.66h8.58v9.52s-3.15,1.45-10.06,1.28c-2.1-.05-4.19-.55-6.04-1.57-2.45-1.35-5.06-3.82-4.79-8.17,.51-8.04,7.23-9.12,7.23-9.12h12.58v5.77h-3.22v-1.48h-7.51s-6.43,5.36,0,9.65h6.43v-2.14h-3.22v-1.07Z"/>
  <path class="cls-1" d="M58.76,68.97v4.26h10.74l1.06-1.22h4.29l1.34,.09v1.12h13.39l4.58-.14,1.07-1.07,5.36-.15,3.22,.15,1.61,1.22s.54,.93,1.61,.93h12.43l.44-1.07h16.09l.98,1.07h7.07l2.14-.93,1.07-1.2h11.26s2.88,2.13,2.88,2.13l2.49,1.07h13.25l1.76-1.07h10.72l4.29-1.07,5.36,.14h4.32l5.33-.14,2.14,1.07h7.51l1.1-.85v-3.53l-1.1-.98-16.62-.3v1.04l-39.14,.33-1.07-1.07-2.68-.3-1.61-.77-10.19-.28-1.61,1.35h-5.36s1.07,1.07,0,1.07h-6.43l-2.14-1.07h-11.8l-2.14,1.07-2.14,1.07h-5.36l-1.07-1.07-2.14-1.07-2.11-1.35-7.55,.28-2.65-.28-1.64,1.35h-11.8l-1.07,1.07-2.41-.57-.81-1.57h-6.43l-1.07,1.07-10.72,.18Z"/>
  <path class="cls-1" d="M205.58,20l-17.05,37.54,21.45-10.19,4.29,11.8h6.97l-15.66-39.14Zm-6.33,26.81l6.43-13.94,3.22,10.19-9.65,3.75Z"/>
  <path class="cls-1" d="M76.89,20l-17.05,37.54,21.45-10.19,4.29,11.8h6.97l-15.66-39.14Zm-6.33,26.81l6.43-13.94,3.22,10.19-9.65,3.75Z"/>
  <path class="cls-1" d="M119.89,92.39s5.21-4.47,1.98-8.75c-1.24-1.64-3.26-2.51-5.32-2.51h-11.14v18.77h5.53v-6.97h4.13l3.58,6.97h6.6l-5.36-7.51Zm-4.83-3.22h-4.83v-3.22h4.83c.88,0,1.61,.72,1.61,1.61s-.72,1.61-1.61,1.61Z"/>
</svg>