<?xml version="1.0" encoding="UTF-8"?>
<svg id="Layer_1" data-name="Layer 1" xmlns="http://www.w3.org/2000/svg" viewBox="0 0 280 120">
  <defs>
    <style>
      .cls-1, .cls-2 {
        fill: #5b5b5b;
      }

      .cls-2 {
        fill-rule: evenodd;
      }
    </style>
  </defs>
  <path class="cls-1" d="M120.93,69.76v-18.85h3.75v18.85h-3.75m7.29-18.85h3.96v10.21c0,1.62,.05,2.67,.15,3.15,.17,.77,.57,1.39,1.2,1.86,.64,.46,1.52,.69,2.62,.69,1.12,0,1.97-.22,2.54-.66,.57-.45,.91-.99,1.03-1.63,.12-.64,.17-1.71,.17-3.2v-10.43h3.96v9.9c0,2.26-.11,3.86-.32,4.8-.21,.93-.61,1.72-1.19,2.37-.57,.64-1.34,1.16-2.3,1.54-.96,.38-2.22,.57-3.77,.57-1.87,0-3.3-.21-4.27-.62-.96-.42-1.73-.96-2.29-1.62-.56-.67-.93-1.37-1.11-2.1-.26-1.08-.39-2.67-.39-4.78v-10.05m18.02,9.54c0-1.92,.28-3.53,.85-4.83,.42-.96,1-1.82,1.72-2.58,.73-.76,1.54-1.33,2.41-1.7,1.16-.5,2.49-.75,4-.75,2.74,0,4.92,.86,6.56,2.58,1.07,1.12,1.79,2.51,2.16,4.19l-3.93,.04c-.23-.79-.58-1.45-1.04-1.97-.93-1.06-2.17-1.59-3.71-1.59-1.55,0-2.79,.54-3.74,1.62-.95,1.07-1.42,2.69-1.42,4.86m0,0c0,2.13,.49,3.75,1.46,4.86,.97,1.1,2.2,1.65,3.7,1.65,1.5,0,2.72-.54,3.67-1.63,.53-.61,.92-1.38,1.15-2.31l3.94,.09c-.35,1.83-1.09,3.35-2.22,4.54-1.63,1.71-3.81,2.57-6.54,2.57s-4.96-.85-6.59-2.56c-1.63-1.71-2.45-4.07-2.45-7.07m20.09,9.31v-18.85h3.36l8.6,13.05v-13.05h3.5v18.85h-3.28l-8.84-13.22,.37,13.22h-3.7"/>
  <path class="cls-2" d="M160.6,80.13l12.2-.03c-6.93,11.9-19.83,19.9-34.59,19.9-22.08,0-40-17.92-40-40s17.92-40,40-40c15,0,28.09,8.27,34.93,20.51l-12.01-.03c-5.52-6.48-13.74-10.59-22.92-10.59-16.62,0-30.11,13.49-30.11,30.11s13.49,30.11,30.11,30.11c8.88,0,16.87-3.85,22.38-9.97Z"/>
</svg>