<svg width="280" height="120" viewBox="0 0 280 120" fill="none" xmlns="http://www.w3.org/2000/svg">
<g clip-path="url(#clip0_7121_97731)">
<path d="M70.4072 72.3387C69.1046 71.9016 67.3376 71.7898 65.2327 72.8416C64.4532 73.2294 63.7483 73.7586 63.1084 74.3534C61.9228 75.4545 58.5641 77.9655 53.237 77.1307C50.07 76.6344 47.1726 75.0371 44.9378 72.7134L34.524 61.8935C33.6665 61.0028 34.0173 59.4876 35.1931 59.1162C36.0052 58.8599 37.0803 58.735 38.4641 58.9782C40.6404 59.3595 42.6056 60.523 44.077 62.1893L50.8431 69.8539C50.8431 69.8539 53.4287 72.2237 57.2941 71.0897C58.824 70.6395 59.2852 68.6707 58.1321 67.5565L46.9355 56.7268C41.748 51.7113 33.569 51.4549 28.2387 56.3127C28.099 56.4409 27.9593 56.569 27.8197 56.7038L26.2443 58.2979C24.9904 59.5665 24.9807 61.6174 26.2215 62.8992L42.4237 79.622C42.4237 79.622 44.4733 81.5579 48.2705 82.8496C54.8774 85.0911 62.1729 83.4708 67.3863 78.7872L71.0341 75.5104C72.093 74.5572 71.7519 72.789 70.4072 72.3387Z" fill="#5B5B5B"/>
<path d="M40.1138 48.7991C41.4163 49.2363 43.1834 49.348 45.2882 48.2963C46.0678 47.9084 46.7726 47.3793 47.4125 46.7844C48.5981 45.6833 51.9568 43.1723 57.2839 44.0071C60.4509 44.5034 63.3483 46.1008 65.5831 48.4245L75.9969 59.2443C76.8545 60.135 76.5037 61.6502 75.3278 62.0216C74.5158 62.278 73.4406 62.4029 72.0568 62.1596C69.8805 61.7784 67.9154 60.6149 66.4439 58.9485L59.6779 51.2839C59.6779 51.2839 57.0923 48.9142 53.2269 50.0481C51.697 50.4984 51.2357 52.4671 52.3888 53.5813L63.5855 64.411C68.7729 69.4266 76.9519 69.6829 82.2823 64.8252C82.4219 64.697 82.5616 64.5688 82.7013 64.434L84.2767 62.84C85.5305 61.5713 85.5402 59.5204 84.2994 58.2386L68.0973 41.5158C68.0973 41.5158 66.0476 39.5799 62.2504 38.2882C55.6436 36.0467 48.348 37.667 43.1346 42.3506L39.4869 45.6275C38.4279 46.5806 38.769 48.3489 40.1138 48.7991Z" fill="#5B5B5B"/>
<path d="M249.115 44.1421H254V73.4727H249.115V44.1421Z" fill="#5B5B5B"/>
<path d="M235.001 73.4727C231.578 73.4727 229.093 72.7168 227.547 71.2115C226.026 69.6766 225.27 67.4252 225.27 64.4638V44.1421H230.155V64.4638C230.155 66.2222 230.541 67.5238 231.314 68.3619C232.117 69.1704 233.345 69.578 235.001 69.578H244.278V73.476H235.001V73.4727Z" fill="#5B5B5B"/>
<path d="M215.323 65.7622H203.438L201.161 73.4728H196.276L203.523 49.7164C203.994 48.1519 204.474 46.9359 204.971 46.0715C205.494 45.2071 206.102 44.5924 206.794 44.2276C207.482 43.8365 208.353 43.6426 209.402 43.6426C210.451 43.6426 211.279 43.8365 211.971 44.2276C212.66 44.5892 213.267 45.2038 213.794 46.0715C214.317 46.9359 214.814 48.1519 215.285 49.7164L222.489 73.4728H217.604L215.327 65.7622H215.323ZM214.245 62.0745L210.643 49.7986C210.477 49.2399 210.298 48.8356 210.104 48.5825C209.938 48.3327 209.704 48.2045 209.399 48.2045C209.093 48.2045 208.847 48.3294 208.655 48.5825C208.463 48.8356 208.281 49.2399 208.116 49.7986L204.513 62.0745H214.245Z" fill="#5B5B5B"/>
<path d="M186.755 44.1421H191.641V73.4727H186.755V44.1421Z" fill="#5B5B5B"/>
<path d="M169.699 73.9753C167.795 73.9753 166.178 73.7781 164.853 73.387C163.556 72.9696 162.436 72.3681 161.497 71.5859C160.558 70.8036 159.607 69.7716 158.639 68.4865L161.952 65.6796C163.082 67.2704 164.216 68.4043 165.346 69.0748C166.506 69.7453 167.942 70.0805 169.653 70.0805C171.973 70.0805 173.697 69.7026 174.831 68.9499C175.961 68.1973 176.53 67.037 176.53 65.4726C176.53 64.6082 176.28 63.9081 175.783 63.3789C175.312 62.8202 174.471 62.3469 173.256 61.9558C172.07 61.5384 170.287 61.0749 167.912 60.5721C165.207 60.0133 163.193 59.0372 161.867 57.6403C160.542 56.2435 159.879 54.3865 159.879 52.0661C159.879 50.3635 160.308 48.8812 161.163 47.6257C162.017 46.3406 163.232 45.3645 164.807 44.694C166.379 43.9972 168.231 43.6455 170.355 43.6455C172.95 43.6455 175.062 44.0498 176.692 44.8616C178.349 45.6701 179.661 46.8731 180.626 48.4638L177.397 51.1458C176.322 49.8903 175.257 48.9798 174.207 48.4211C173.187 47.8361 171.888 47.5403 170.316 47.5403C168.549 47.5403 167.182 47.9445 166.217 48.7563C165.249 49.5386 164.768 50.6561 164.768 52.1088C164.768 53.4202 165.307 54.4259 166.382 55.126C167.461 55.7965 168.949 56.3421 170.855 56.7595C173.311 57.2624 175.273 57.8211 176.735 58.4357C178.199 59.0208 179.343 59.8753 180.171 60.9928C180.999 62.1103 181.412 63.6057 181.412 65.4759C181.412 71.1454 177.504 73.9819 169.692 73.9819L169.699 73.9753Z" fill="#5B5B5B"/>
<path d="M148.498 44.1421H153.383V73.4727H148.498V44.1421Z" fill="#5B5B5B"/>
<path d="M120.352 44.1421H133.065C135.907 44.1421 138.103 44.8126 139.649 46.1536C141.221 47.4945 142.011 49.3647 142.011 51.7673C142.011 53.2463 141.582 54.561 140.728 55.7047C139.899 56.8222 138.714 57.5913 137.168 58.0087C138.905 58.3703 140.286 59.1952 141.309 60.4803C142.358 61.7654 142.885 63.4121 142.885 65.4236C142.885 67.9083 142.027 69.8803 140.318 71.3331C138.636 72.7562 136.33 73.4694 133.403 73.4694H120.358V44.1421H120.352ZM132.899 56.2503C134.144 56.2503 135.15 55.8724 135.924 55.1197C136.723 54.3671 137.125 53.3745 137.125 52.1452C137.125 50.916 136.739 49.8971 135.966 49.1708C135.193 48.4181 134.173 48.0401 132.903 48.0401H125.243V56.2536H132.903L132.899 56.2503ZM132.36 69.5747C136.115 69.5747 137.993 68.0102 137.993 64.8813C137.993 63.3168 137.509 62.1434 136.544 61.3612C135.605 60.5527 134.212 60.1451 132.36 60.1451H125.237V69.5714H132.36V69.5747Z" fill="#5B5B5B"/>
<path d="M103.295 73.9753C101.392 73.9753 99.774 73.7781 98.4487 73.387C97.1527 72.9696 96.032 72.3681 95.0933 71.5859C94.1546 70.8036 93.2028 69.7716 92.2349 68.4865L95.5481 65.6796C96.6817 67.2704 97.8121 68.4043 98.9424 69.0748C100.102 69.7453 101.538 70.0805 103.25 70.0805C105.569 70.0805 107.294 69.7026 108.424 68.9499C109.558 68.1973 110.123 67.037 110.123 65.4726C110.123 64.6082 109.873 63.9081 109.379 63.3789C108.908 62.8202 108.067 62.3469 106.852 61.9558C105.666 61.5384 103.883 61.0749 101.509 60.5721C98.8028 60.0133 96.7889 59.0372 95.4636 57.6403C94.1383 56.2435 93.4757 54.3865 93.4757 52.0661C93.4757 50.3635 93.9044 48.8812 94.7587 47.6257C95.613 46.3406 96.8279 45.3645 98.4032 44.694C99.9754 43.9972 101.827 43.6455 103.951 43.6455C106.547 43.6455 108.658 44.0498 110.289 44.8616C111.945 45.6701 113.257 46.8731 114.222 48.4638L110.993 51.1458C109.915 49.8903 108.853 48.9798 107.804 48.4211C106.78 47.8361 105.484 47.5403 103.912 47.5403C102.145 47.5403 100.778 47.9445 99.813 48.7563C98.845 49.5386 98.3643 50.6561 98.3643 52.1088C98.3643 53.4202 98.9035 54.4259 99.9786 55.126C101.057 55.7965 102.545 56.3421 104.451 56.7595C106.907 57.2624 108.869 57.8211 110.331 58.4357C111.792 59.0208 112.939 59.8753 113.767 60.9928C114.596 62.1103 115.011 63.6057 115.011 65.4759C115.011 71.1454 111.104 73.9819 103.292 73.9819L103.295 73.9753Z" fill="#5B5B5B"/>
</g>
<defs>
<clipPath id="clip0_7121_97731">
<rect width="229" height="47" fill="white" transform="translate(25 37)"/>
</clipPath>
</defs>
</svg>
