<?xml version="1.0" encoding="UTF-8"?>
<svg id="Layer_1" data-name="Layer 1" xmlns="http://www.w3.org/2000/svg" viewBox="0 0 280 120">
  <defs>
    <style>
      .cls-1 {
        fill: #5b5b5b;
      }
    </style>
  </defs>
  <path class="cls-1" d="M152.71,43.12v3.99h-2.14v-10.76h3.9c1.26,0,2.21,.3,2.86,.91,.33,.32,.58,.71,.75,1.14,.17,.43,.24,.89,.22,1.35,.02,.46-.06,.91-.23,1.34-.17,.42-.43,.8-.76,1.12-.67,.61-1.61,.91-2.83,.91h-1.76Zm3.41-3.37c.02-.23-.02-.45-.09-.66-.08-.21-.19-.41-.35-.57-.29-.29-.77-.43-1.44-.43h-1.53v3.31h1.53c1.25,0,1.88-.55,1.88-1.64Z"/>
  <path class="cls-1" d="M165.41,47.12l-2.5-4.19h-.94v4.19h-2.14v-10.76h4.08c1.24,0,2.19,.3,2.84,.91,.32,.31,.58,.68,.75,1.1,.17,.42,.25,.86,.23,1.31,.03,.74-.21,1.47-.68,2.06-.5,.58-1.19,.97-1.95,1.1l2.67,4.3h-2.36Zm-3.44-5.68h1.76c1.22,0,1.83-.54,1.83-1.63,.01-.22-.02-.44-.1-.65-.08-.21-.2-.4-.35-.56-.39-.32-.88-.48-1.38-.43h-1.76v3.28Z"/>
  <path class="cls-1" d="M177.06,36.91c.81,.46,1.47,1.14,1.92,1.96,.48,.87,.72,1.85,.71,2.84,.02,1-.23,1.98-.71,2.85-.45,.82-1.11,1.5-1.92,1.97-.83,.46-1.77,.7-2.72,.7s-1.89-.24-2.72-.7c-.81-.46-1.48-1.14-1.93-1.97-.48-.87-.72-1.85-.71-2.85-.02-.99,.23-1.97,.71-2.84,.45-.82,1.11-1.49,1.91-1.96,.83-.46,1.77-.7,2.72-.7s1.89,.24,2.72,.7h.01Zm-4.37,1.71c-.48,.29-.87,.72-1.11,1.22-.28,.58-.42,1.22-.4,1.87-.01,.64,.12,1.28,.4,1.87,.25,.51,.63,.93,1.11,1.23,.51,.28,1.07,.43,1.65,.43s1.15-.15,1.65-.43c.48-.29,.87-.72,1.11-1.23,.28-.58,.42-1.22,.4-1.87,.01-.65-.12-1.29-.4-1.87-.24-.51-.63-.93-1.11-1.22-.51-.28-1.07-.43-1.65-.43s-1.15,.15-1.65,.43h0Z"/>
  <path class="cls-1" d="M188.09,36.36v1.71h-4.5v2.88h3.61v1.64h-3.61v4.53h-2.14v-10.76h6.64Z"/>
  <path class="cls-1" d="M191.8,38.07v2.79h3.81v1.64h-3.81v2.9h4.24v1.72h-6.38v-10.76h6.38v1.71h-4.24Z"/>
  <path class="cls-1" d="M204.73,45.69c-.29,.48-.71,.87-1.21,1.11-.61,.3-1.28,.44-1.96,.42-.7,.01-1.39-.12-2.03-.39-.57-.24-1.06-.62-1.43-1.12-.36-.5-.58-1.09-.61-1.71h2.27c.04,.42,.23,.8,.54,1.09,.32,.29,.74,.45,1.17,.43,.19,.01,.37-.01,.55-.08,.18-.06,.34-.16,.48-.28,.12-.12,.21-.27,.27-.42,.06-.16,.09-.33,.08-.5,0-.3-.1-.6-.29-.83-.2-.23-.45-.4-.73-.53-.29-.13-.7-.29-1.21-.46-.56-.18-1.1-.4-1.62-.65-.43-.22-.81-.55-1.08-.95-.32-.48-.47-1.05-.45-1.63-.02-.42,.06-.83,.23-1.21,.17-.38,.43-.71,.76-.97,.76-.56,1.69-.85,2.63-.8,1.13,0,2.03,.27,2.7,.82,.33,.27,.6,.6,.8,.98,.2,.38,.31,.79,.35,1.22h-2.29c-.05-.37-.22-.72-.5-.97-.3-.26-.68-.4-1.08-.37-.35-.02-.68,.09-.95,.31-.12,.11-.22,.26-.28,.41-.06,.16-.09,.33-.08,.5,0,.29,.1,.57,.29,.78,.2,.22,.44,.39,.71,.51,.38,.17,.77,.32,1.17,.44,.57,.2,1.13,.42,1.67,.69,.44,.23,.81,.56,1.09,.97,.32,.5,.48,1.08,.45,1.68,0,.53-.14,1.06-.41,1.52h0Z"/>
  <path class="cls-1" d="M213.81,45.69c-.29,.48-.72,.87-1.22,1.11-.61,.29-1.28,.44-1.96,.42-.7,.01-1.39-.12-2.03-.39-.57-.24-1.06-.62-1.43-1.12-.36-.5-.58-1.09-.61-1.71h2.27c.04,.42,.23,.8,.54,1.09,.32,.29,.74,.45,1.17,.43,.19,.01,.37-.01,.55-.07,.18-.06,.34-.16,.47-.28,.12-.12,.21-.27,.27-.42,.06-.16,.09-.33,.08-.5,0-.3-.1-.6-.29-.83-.2-.23-.45-.4-.73-.53-.29-.13-.7-.29-1.21-.46-.55-.18-1.1-.4-1.62-.65-.43-.22-.81-.55-1.09-.95-.32-.48-.47-1.05-.44-1.63-.02-.42,.06-.83,.23-1.21s.43-.71,.76-.97c.76-.56,1.69-.85,2.63-.8,1.13,0,2.03,.27,2.7,.82,.33,.27,.6,.6,.8,.98,.2,.38,.31,.79,.34,1.22h-2.3c-.05-.37-.22-.72-.49-.97-.3-.26-.68-.39-1.08-.37-.35-.02-.68,.09-.95,.31-.12,.11-.22,.25-.29,.41-.06,.16-.09,.33-.08,.5,0,.29,.1,.57,.29,.78,.2,.22,.44,.39,.71,.51,.38,.17,.77,.32,1.17,.44,.57,.2,1.13,.43,1.67,.69,.44,.23,.81,.56,1.09,.97,.32,.5,.48,1.08,.45,1.68,0,.53-.13,1.06-.4,1.52h0Z"/>
  <path class="cls-1" d="M218.08,36.36v10.76h-2.14v-10.76h2.14Z"/>
  <path class="cls-1" d="M227.91,36.91c.81,.46,1.47,1.14,1.93,1.96,.48,.87,.72,1.85,.71,2.84,.01,1-.23,1.98-.71,2.85-.45,.82-1.12,1.5-1.93,1.97-.83,.46-1.77,.7-2.72,.7s-1.89-.24-2.72-.7c-.81-.46-1.48-1.14-1.92-1.97-.48-.87-.72-1.85-.7-2.85-.02-.99,.23-1.97,.7-2.84,.45-.82,1.11-1.49,1.92-1.96,.83-.46,1.77-.7,2.72-.7s1.89,.24,2.72,.7h0Zm-4.37,1.71c-.48,.29-.87,.72-1.11,1.22-.28,.58-.42,1.22-.4,1.87-.02,.64,.12,1.28,.4,1.87,.24,.51,.63,.94,1.11,1.23,.51,.28,1.07,.43,1.65,.43s1.15-.15,1.65-.43c.48-.29,.87-.72,1.12-1.23,.28-.58,.41-1.22,.4-1.87,.01-.65-.12-1.29-.4-1.87-.25-.51-.63-.93-1.12-1.22-.51-.28-1.07-.43-1.65-.43s-1.15,.15-1.65,.43h0Z"/>
  <path class="cls-1" d="M241.36,47.12h-2.14l-4.79-7.31v7.31h-2.14v-10.76h2.14l4.79,7.38v-7.38h2.14v10.76Z"/>
  <path class="cls-1" d="M249.97,44.95h-4.29l-.76,2.16h-2.26l3.94-10.64h2.44l3.93,10.64h-2.26l-.75-2.16Zm-.59-1.63l-1.57-4.54-1.56,4.54h3.14Z"/>
  <path class="cls-1" d="M256.41,45.47h3.59v1.65h-5.73v-10.76h2.14v9.11Z"/>
  <path class="cls-1" d="M158.73,55.57c.89,.71,1.51,1.71,1.74,2.82h-2.24c-.22-.56-.59-1.03-1.08-1.37-.52-.34-1.13-.52-1.76-.5-.54-.01-1.08,.14-1.54,.43-.46,.29-.83,.71-1.05,1.21-.26,.58-.39,1.22-.38,1.86-.01,.63,.12,1.26,.38,1.84,.22,.5,.58,.92,1.04,1.22,.46,.29,.99,.45,1.54,.44,.62,.02,1.24-.16,1.76-.51,.49-.34,.87-.81,1.08-1.37h2.27c-.24,1.11-.85,2.11-1.74,2.82-.87,.61-1.9,.97-2.96,1.03-1.06,.06-2.12-.18-3.06-.68-.78-.46-1.41-1.13-1.82-1.94-.42-.89-.64-1.86-.64-2.84s.22-1.96,.64-2.84c.41-.81,1.03-1.48,1.81-1.94,.94-.51,1.99-.74,3.06-.69,1.06,.06,2.09,.41,2.96,1.02h0Z"/>
  <path class="cls-1" d="M169.97,55.19c.81,.46,1.48,1.14,1.93,1.96,.46,.88,.71,1.85,.71,2.84s-.24,1.97-.71,2.84c-.45,.82-1.11,1.5-1.93,1.97-.83,.46-1.77,.7-2.72,.7s-1.89-.24-2.72-.7c-.81-.46-1.48-1.15-1.92-1.97-.46-.88-.71-1.85-.71-2.84s.24-1.97,.71-2.84c.45-.82,1.11-1.5,1.92-1.96,.83-.46,1.77-.7,2.72-.7s1.89,.24,2.72,.7h0Zm-4.37,1.71c-.48,.29-.87,.72-1.11,1.23-.26,.59-.4,1.22-.4,1.87s.14,1.28,.4,1.87c.24,.51,.63,.93,1.11,1.22,.51,.28,1.07,.43,1.65,.43s1.15-.15,1.65-.43c.48-.29,.87-.72,1.11-1.22,.26-.59,.4-1.22,.4-1.87s-.14-1.28-.4-1.87c-.25-.51-.63-.94-1.11-1.23-.51-.28-1.07-.43-1.65-.43s-1.15,.15-1.65,.43h0Z"/>
  <path class="cls-1" d="M183.42,65.4h-2.14l-4.79-7.31v7.31h-2.14v-10.76h2.14l4.79,7.37v-7.37h2.14v10.76Z"/>
  <path class="cls-1" d="M192.45,63.98c-.29,.48-.71,.86-1.21,1.11-.61,.29-1.28,.44-1.96,.42-.7,.01-1.39-.12-2.03-.39-.57-.24-1.06-.62-1.43-1.12-.36-.5-.58-1.09-.61-1.71h2.27c.04,.41,.22,.8,.52,1.09,.16,.15,.35,.26,.55,.34,.21,.07,.42,.11,.64,.1,.19,.01,.37-.01,.55-.07,.18-.06,.34-.16,.47-.28,.12-.12,.21-.27,.27-.42s.09-.33,.08-.5c0-.3-.1-.6-.29-.83-.2-.23-.45-.41-.72-.53-.29-.13-.7-.28-1.21-.46-.56-.18-1.11-.4-1.64-.66-.43-.22-.8-.54-1.09-.94-.31-.48-.47-1.05-.44-1.63-.02-.42,.06-.83,.23-1.21,.17-.38,.43-.71,.76-.97,.76-.56,1.69-.85,2.63-.8,1.13,0,2.03,.27,2.7,.82,.33,.27,.6,.6,.8,.98,.2,.38,.31,.79,.34,1.22h-2.31c-.05-.36-.22-.7-.48-.95-.29-.26-.68-.4-1.07-.38-.35-.02-.68,.09-.95,.31-.22,.22-.35,.52-.36,.83-.02,.31,.08,.62,.28,.86,.2,.22,.44,.39,.71,.51,.38,.17,.77,.32,1.17,.44,.57,.2,1.13,.42,1.67,.68,.44,.22,.82,.55,1.1,.96,.32,.5,.48,1.08,.45,1.68,0,.53-.14,1.06-.41,1.52h0Z"/>
  <path class="cls-1" d="M196.65,54.65v6.31c0,.84,.18,1.47,.55,1.9,.43,.4,1,.63,1.59,.63s1.16-.22,1.59-.63c.37-.42,.55-1.05,.55-1.9v-6.31h2.12v6.31c.03,.87-.16,1.74-.55,2.52-.34,.66-.88,1.19-1.53,1.53-.69,.34-1.45,.52-2.22,.5-1.28,0-2.31-.39-3.08-1.16-.77-.77-1.15-1.9-1.15-3.4v-6.31h2.12Z"/>
  <path class="cls-1" d="M207.23,63.76h3.6v1.65h-5.74v-10.76h2.14v9.11Z"/>
  <path class="cls-1" d="M219.52,54.65v1.71h-2.96v9.05h-2.14v-9.05h-2.93v-1.71h8.02Z"/>
  <path class="cls-1" d="M222.99,54.65v10.76h-2.14v-10.76h2.14Z"/>
  <path class="cls-1" d="M234.14,65.4h-2.14l-4.79-7.31v7.31h-2.14v-10.76h2.14l4.79,7.37v-7.37h2.14v10.76Z"/>
  <path class="cls-1" d="M244.44,55.51c.85,.64,1.44,1.57,1.65,2.61h-2.24c-.21-.49-.56-.9-1.01-1.17-.49-.3-1.06-.45-1.63-.43-.57-.01-1.14,.14-1.64,.43-.48,.29-.86,.71-1.11,1.22-.27,.58-.41,1.22-.39,1.86,0,1.13,.3,2.01,.9,2.64,.32,.32,.71,.57,1.13,.74s.88,.23,1.33,.21c.72,.02,1.42-.23,1.98-.69,.57-.49,.95-1.16,1.07-1.9h-3.63v-1.54h5.41v2.07c-.15,.71-.45,1.38-.88,1.97-.45,.61-1.05,1.1-1.73,1.44-.76,.37-1.6,.56-2.45,.54-.97,.02-1.93-.22-2.78-.69-.79-.45-1.44-1.12-1.86-1.94-.43-.88-.66-1.86-.66-2.84s.22-1.96,.66-2.84c.42-.81,1.07-1.48,1.86-1.94,.85-.48,1.8-.72,2.77-.7,1.16-.04,2.29,.3,3.23,.97h0Z"/>
  <path class="cls-1" d="M157.52,82.26c-.29,.48-.71,.86-1.21,1.11-.61,.3-1.29,.44-1.96,.42-.7,.01-1.39-.12-2.03-.39-.57-.24-1.06-.63-1.43-1.12-.36-.5-.58-1.09-.61-1.71h2.27c.04,.41,.22,.8,.52,1.09,.16,.15,.35,.26,.55,.34,.2,.07,.42,.11,.64,.1,.19,.01,.37-.01,.55-.07,.18-.06,.34-.16,.47-.28,.12-.12,.21-.27,.27-.42,.06-.16,.09-.33,.08-.5,.01-.3-.09-.6-.29-.83-.2-.23-.45-.41-.73-.53-.29-.13-.7-.29-1.21-.46-.56-.18-1.11-.4-1.64-.66-.43-.23-.8-.55-1.08-.95-.32-.48-.47-1.05-.45-1.63-.02-.42,.06-.83,.23-1.21,.17-.38,.43-.71,.76-.97,.66-.53,1.54-.8,2.63-.8s2.03,.27,2.7,.82c.33,.27,.6,.6,.8,.98,.2,.38,.31,.79,.34,1.22h-2.3c-.05-.36-.22-.7-.49-.95-.3-.26-.68-.39-1.08-.37-.35-.02-.69,.1-.95,.31-.22,.22-.35,.52-.36,.83s.08,.62,.28,.86c.2,.22,.44,.39,.71,.51,.38,.17,.77,.32,1.17,.44,.57,.2,1.13,.42,1.68,.68,.44,.22,.82,.55,1.1,.96,.32,.5,.48,1.08,.45,1.67,0,.53-.13,1.06-.39,1.52h0Z"/>
  <path class="cls-1" d="M161.79,74.64v2.79h3.79v1.64h-3.79v2.9h4.26v1.72h-6.38v-10.76h6.38v1.71h-4.26Z"/>
  <path class="cls-1" d="M173.34,83.69l-2.5-4.19h-.94v4.19h-2.14v-10.76h4.08c1.24,0,2.19,.31,2.84,.92,.33,.31,.58,.68,.75,1.1,.17,.41,.25,.86,.23,1.31,.03,.74-.21,1.47-.68,2.06-.5,.58-1.19,.97-1.95,1.1l2.67,4.29h-2.37Zm-3.44-5.67h1.76c1.22,0,1.83-.54,1.83-1.63,.01-.22-.02-.44-.1-.65-.08-.21-.2-.4-.35-.56-.39-.32-.88-.48-1.38-.43h-1.76v3.28Z"/>
  <path class="cls-1" d="M178.75,72.93l2.87,8.52,2.87-8.52h2.29l-3.78,10.76h-2.74l-3.79-10.76h2.29Z"/>
  <path class="cls-1" d="M190.22,72.93v10.76h-2.14v-10.76h2.14Z"/>
  <path class="cls-1" d="M200.47,73.86c.9,.71,1.52,1.7,1.76,2.82h-2.24c-.21-.56-.59-1.04-1.08-1.37-.52-.34-1.13-.52-1.76-.51-.55-.01-1.09,.14-1.55,.43-.46,.29-.83,.72-1.06,1.22-.25,.58-.38,1.21-.38,1.85s.13,1.27,.38,1.85c.23,.5,.6,.92,1.06,1.22,.46,.29,.99,.43,1.53,.43,.62,.02,1.24-.16,1.76-.5,.49-.34,.87-.81,1.08-1.37h2.25c-.24,1.12-.86,2.11-1.76,2.82-.87,.61-1.9,.96-2.96,1.02-1.06,.06-2.12-.17-3.05-.68-.78-.46-1.41-1.13-1.82-1.94-.43-.89-.65-1.86-.65-2.84s.22-1.95,.65-2.84c.41-.81,1.04-1.49,1.82-1.95,.94-.51,2-.74,3.06-.68,1.07,.06,2.09,.42,2.97,1.03h0Z"/>
  <path class="cls-1" d="M206.11,74.64v2.79h3.79v1.64h-3.79v2.9h4.24v1.72h-6.38v-10.76h6.38v1.71h-4.24Z"/>
  <path class="cls-1" d="M143,34.74h-2.34v50.52h2.34V34.74Z"/>
  <path class="cls-1" d="M32.1,67.56v17.7h-12.1V34.8h19.61c5.95,0,10.48,1.49,13.59,4.46,3.11,2.97,4.67,6.98,4.68,12.03,.05,2.93-.67,5.82-2.09,8.39-1.45,2.5-3.6,4.52-6.19,5.78-2.73,1.4-6.06,2.11-9.98,2.11h-7.52Zm13.45-16.27c0-4.42-2.43-6.64-7.29-6.64h-6.15v13.13h6.15c4.86,0,7.29-2.16,7.29-6.49Z"/>
  <path class="cls-1" d="M121.76,75.43c.8-.33,1.48-.89,1.96-1.61,.49-.72,.75-1.56,.77-2.42v-.04c.02-.57-.08-1.14-.29-1.68-.21-.53-.52-1.02-.92-1.43-.86-.87-1.87-1.56-2.99-2.04-1.19-.53-2.84-1.17-4.95-1.9-2.58-.86-5.1-1.88-7.54-3.08-2-1.04-3.72-2.56-5-4.42-1.4-1.96-2.1-4.5-2.1-7.64,0-2.9,.73-5.41,2.2-7.53,1.52-2.17,3.63-3.86,6.07-4.87,2.6-1.13,5.49-2,8.84-2,5.41,0,8.78,2.45,11.96,5.03,3.18,2.58,4.68,8.1,5.11,12.63h-10.64c-.23-1.61-1.59-5.72-2.53-6.67-.94-.95-2.21-1.42-3.8-1.42-1.38,0-2.49,.37-3.33,1.11-.85,.74-1.27,1.82-1.27,3.25-.01,.54,.08,1.08,.28,1.58,.19,.5,.49,.96,.86,1.36,.81,.84,1.78,1.51,2.85,1.97,1.15,.51,2.8,1.15,4.95,1.94,2.62,.85,5.17,1.9,7.63,3.14,2.02,1.08,3.76,2.63,5.08,4.51,1.42,1.98,2.13,4.56,2.13,7.74,.02,2.51-.66,4.98-1.96,7.12-1.31,2.17-3.23,3.89-5.78,5.18-2.54,1.29-5.58,1.99-9.2,1.99-5.46,0-10-1.39-13.53-4.06-3.53-2.67-5.77-9.58-6.09-14.37h9.59c2.23,10.91,8.82,9.84,11.65,8.63Z"/>
  <path class="cls-1" d="M80.79,75.51l-6.88,7.66-.6-8.41c-2.42-.86-4.6-2.31-6.33-4.21-1.73-1.9-2.97-4.21-3.61-6.71-.63-2.5-.65-5.12-.03-7.62,.61-2.5,1.83-4.82,3.55-6.74,1.72-1.92,3.88-3.39,6.29-4.27,2.41-.88,5.01-1.16,7.55-.79,2.54,.36,4.96,1.35,7.03,2.87,2.07,1.52,3.74,3.53,4.86,5.86h10.1c-1.64-5.87-5.35-10.94-10.43-14.28-5.08-3.34-11.19-4.72-17.21-3.89-6.02,.83-11.53,3.82-15.52,8.42-3.99,4.6-6.19,10.48-6.19,16.58s2.2,11.99,6.19,16.58,9.5,7.58,15.52,8.42c6.02,.83,12.13-.55,17.21-3.89,5.08-3.34,8.78-8.41,10.43-14.28h-10.1c-1.11,2.31-2.77,4.32-4.84,5.84s-4.47,2.51-7,2.88Z"/>
  <path class="cls-1" d="M72.7,60.13h-3.51v7.04h3.51v-7.04Z"/>
  <path class="cls-1" d="M77.72,55.43h-3.51v11.74h3.51v-11.74Z"/>
  <path class="cls-1" d="M82.73,61.89h-3.51v5.28h3.51v-5.28Z"/>
  <path class="cls-1" d="M87.75,52.5h-3.51v14.67h3.51v-14.67Z"/>
</svg>