<?xml version="1.0" encoding="utf-8"?>
<!-- Generator: Adobe Illustrator 27.0.0, SVG Export Plug-In . SVG Version: 6.00 Build 0)  -->
<svg version="1.1" id="Layer_1" xmlns="http://www.w3.org/2000/svg" xmlns:xlink="http://www.w3.org/1999/xlink" x="0px" y="0px"
	 viewBox="0 0 280 120" style="enable-background:new 0 0 280 120;" xml:space="preserve">
<style type="text/css">
	.st0{fill:#5B5B5B;}
</style>
<g>
	<path class="st0" d="M140.1,61.6c-3,0-5.5-2.5-5.5-5.5s2.5-5.5,5.5-5.5s5.5,2.5,5.5,5.5S143.1,61.6,140.1,61.6z M140.1,54.2
		c-1.1,0-2,0.9-2,2s0.9,2,2,2s2-0.9,2-2S141.1,54.2,140.1,54.2z"/>
	<path class="st0" d="M157,74.1c-2.3,0-4.5-1.5-5.2-3.8c-0.4-1.4-0.3-2.9,0.3-4.2s1.8-2.3,3.2-2.7c1.4-0.5,2.9-0.3,4.2,0.3
		c1.3,0.7,2.3,1.8,2.7,3.2c0.4,1.4,0.3,2.9-0.3,4.2s-1.8,2.3-3.2,2.7C158.2,74,157.6,74.1,157,74.1L157,74.1z M157,66.6
		c-0.2,0-0.4,0-0.6,0.1c-1,0.3-1.6,1.5-1.3,2.5c0.3,1,1.5,1.6,2.5,1.3c0.5-0.2,0.9-0.5,1.2-1s0.3-1,0.1-1.5c-0.2-0.5-0.5-0.9-1-1.2
		C157.6,66.7,157.3,66.6,157,66.6z"/>
	<path class="st0" d="M122.6,74.1c-3,0-5.5-2.5-5.5-5.5c0-3,2.5-5.5,5.5-5.5s5.5,2.5,5.5,5.5C128.1,71.7,125.6,74.1,122.6,74.1z
		 M122.6,66.6c-1.1,0-2,0.9-2,2c0,1.1,0.9,2,2,2s2-0.9,2-2C124.6,67.5,123.7,66.6,122.6,66.6z"/>
	<path class="st0" d="M140,100c-0.9,0-1.7-0.9-1.7-1.8c0-5.4,0-32.2,0-37.6c0-1,0.7-1.8,1.7-1.8c1,0,1.8,0.8,1.8,1.7v37.9
		C141.8,99.3,141,100.1,140,100z"/>
	<path class="st0" d="M113.9,68.6c0-4.8,3.9-8.7,8.7-8.7c1.2,0,2.3,0.2,3.3,0.6c-0.6-3.5-2.2-6.8-4.8-9.4c-5-5-12.6-6.3-19.4-3.9
		c-2.4,6.8-1.2,14.4,3.9,19.4c2.4,2.4,5.5,4,8.8,4.7C114.1,70.5,113.9,69.6,113.9,68.6z"/>
	<path class="st0" d="M178.3,47.3c-6.9-2.4-14.4-1.2-19.4,3.9c-2.6,2.6-4.1,5.8-4.8,9.2c0.1,0,0.1,0,0.2-0.1
		c2.2-0.7,4.6-0.5,6.6,0.5s3.6,2.8,4.3,5.1c0.6,1.8,0.6,3.8-0.1,5.5c3.4-0.6,6.6-2.2,9.2-4.7C179.4,61.7,180.7,54.2,178.3,47.3
		L178.3,47.3z"/>
	<path class="st0" d="M140.1,47.5c3.9,0,7.2,2.6,8.3,6.1c3.2-3.8,5-8.5,5-13.5c0-8.6-5.4-16.1-13.3-20c-7.9,3.8-13.3,11.3-13.3,20
		c0,5.1,1.9,9.8,5,13.5C132.9,50,136.2,47.4,140.1,47.5L140.1,47.5z"/>
	<path class="st0" d="M145.8,96.5c-1,0-1.7-0.8-1.7-1.7V79.6c0-0.5,0.2-0.9,0.5-1.2l7.7-7.7c0.7-0.7,1.8-0.7,2.5,0
		c0.7,0.7,0.7,1.8,0,2.5l-7.2,7.2v14.5C147.5,95.7,146.8,96.5,145.8,96.5L145.8,96.5z"/>
	<path class="st0" d="M133.8,96.5c-1,0-1.7-0.8-1.7-1.7V80.3l-7.2-7.2c-0.7-0.7-0.7-1.8,0-2.5c0.7-0.7,1.8-0.7,2.5,0l7.7,7.7
		c0.3,0.3,0.5,0.8,0.5,1.2v15.2C135.6,95.7,134.8,96.5,133.8,96.5L133.8,96.5z"/>
</g>
</svg>
