<?xml version="1.0" encoding="UTF-8"?>
<svg id="Layer_1" data-name="Layer 1" xmlns="http://www.w3.org/2000/svg" viewBox="0 0 280 120">
  <defs>
    <style>
      .cls-1 {
        fill: #fff;
      }

      .cls-2 {
        fill: #5b5b5b;
      }

      .cls-3 {
        fill: #2b2b2b;
      }
    </style>
  </defs>
  <polygon class="cls-2" points="20.08 33.07 20.08 72.03 34.98 86.93 73.94 86.93 73.94 48.54 58.47 33.07 20.08 33.07"/>
  <g>
    <g>
      <path class="cls-2" d="M94.11,39.61h-1.82c-.89,0-1.57,.22-2.04,.65s-.7,1.12-.7,2.07h-.6v-1.87c0-1.23,.65-1.84,1.96-1.84h10.78v.99h-4.97v14.21h-2.6v-14.21Z"/>
      <path class="cls-2" d="M112.19,53.3c-.75-.41-1.37-1.2-1.84-2.38l-.55-1.36h-6.26l-1.87,4.26h-1.13l6.65-15.2h.87l5.14,12.3c.32,.77,.67,1.34,1.05,1.7,.38,.37,.84,.58,1.39,.65v.53c-.28,.08-.61,.12-1.01,.12-.88,0-1.69-.2-2.44-.61Zm-2.86-4.73l-2.63-6.29-2.74,6.29h5.37Z"/>
      <path class="cls-2" d="M121.3,46.52l-3.25-4.9c-1.03-1.6-2.13-2.44-3.32-2.53v-.46h2.62c.74,0,1.39,.24,1.96,.71,.57,.48,1.09,1.08,1.57,1.82l2.14,3.25,4.51-5.78h1.34l-5.23,6.7,3.64,5.5c.45,.68,.95,1.26,1.51,1.74,.56,.48,1.12,.75,1.69,.79v.46h-2.49c-1.3,0-2.49-.84-3.55-2.53l-2.51-3.82-4.97,6.35h-1.36l5.69-7.3Z"/>
      <path class="cls-2" d="M137.98,53.28c-.88-.67-1.31-1.54-1.31-2.61,0-.91,.3-1.69,.91-2.35,.61-.66,1.47-1.33,2.59-2-.6-.54-1.16-1.21-1.69-2-.53-.8-.79-1.65-.79-2.56,0-1.12,.39-2,1.17-2.64,.78-.64,1.86-.96,3.25-.96,1.29,0,2.29,.3,3,.89s1.07,1.37,1.07,2.34c0,.91-.31,1.72-.92,2.44-.61,.72-1.47,1.44-2.56,2.16l4.4,4.79c.37-.4,.85-1.03,1.45-1.89,.23-.37,.41-.68,.55-.92l.69,.46c-.15,.34-.32,.67-.51,.99-.46,.78-.97,1.47-1.52,2.07l2.14,2.33h-2.88l-.9-.92c-.38,.31-.94,.61-1.66,.92-.72,.31-1.54,.46-2.46,.46-1.81,0-3.15-.33-4.03-1Zm6.1-.21c.55-.22,1.04-.51,1.45-.86l-4.54-4.9c-1.11,.97-1.66,2.01-1.66,3.13,0,.95,.25,1.69,.75,2.2,.5,.51,1.24,.77,2.22,.77,.63,0,1.22-.11,1.77-.33Zm-.83-9.57c.32-.55,.48-1.18,.48-1.89,0-.88-.16-1.52-.5-1.95-.33-.42-.71-.63-1.14-.63-1.17,0-1.75,.91-1.75,2.72,0,.74,.17,1.39,.51,1.97,.34,.58,.68,1.03,1.04,1.37,.58-.51,1.04-1.04,1.36-1.59Z"/>
      <path class="cls-2" d="M158.35,41.52c0-.78-.11-1.36-.32-1.74-.22-.38-.64-.56-1.29-.56h-.35v-.6h6.12c1.83,0,3.38,.27,4.65,.82s1.91,1.62,1.91,3.21c0,.71-.26,1.36-.79,1.97s-1.3,1.06-2.31,1.35c1.4,.18,2.39,.6,2.97,1.23,.58,.64,.88,1.45,.88,2.43,0,2.79-2.2,4.19-6.61,4.19h-4.86v-12.3Zm4.51,4.03c1,0,1.82-.25,2.46-.75,.64-.5,.97-1.25,.97-2.27s-.38-1.81-1.14-2.3-1.65-.74-2.68-.74c-.4,0-.91,.06-1.52,.18v5.87h1.91Zm3.05,6.56c.71-.55,1.07-1.34,1.07-2.37s-.35-1.84-1.05-2.38c-.7-.54-1.72-.82-3.07-.82h-1.91v6.12c.65,.18,1.28,.28,1.91,.28,1.32,0,2.34-.28,3.05-.83Z"/>
      <path class="cls-2" d="M174.17,52.37c-.97-1.12-1.45-2.84-1.45-5.16v-5.69c0-.75-.1-1.32-.31-1.7-.21-.38-.6-.58-1.19-.6h-.3v-.6h2.33c.55,0,.97,.08,1.27,.25,.29,.17,.5,.46,.62,.86,.12,.41,.18,1,.18,1.78l.02,6.38c.03,3.44,1.3,5.16,3.82,5.16,1.63,0,2.8-.46,3.51-1.39s1.07-2.41,1.07-4.46v-8.59h1.06v8.59c0,1.54-.19,2.8-.56,3.8-.38,1-1,1.75-1.88,2.27-.87,.51-2.06,.77-3.57,.77-2.12,0-3.66-.56-4.63-1.68Z"/>
      <path class="cls-2" d="M190.33,53.87c-.81-.23-1.46-.56-1.97-.98-.51-.42-.76-.91-.76-1.46v-2.6h.55c.25,1.57,.74,2.69,1.47,3.37,.74,.68,1.77,1.02,3.09,1.02,.87,0,1.58-.2,2.13-.6,.54-.4,.82-.96,.82-1.68,0-.63-.19-1.17-.58-1.61-.38-.44-1-.93-1.84-1.45l-2.83-1.68c-1.01-.6-1.73-1.21-2.16-1.84-.43-.63-.64-1.37-.64-2.21,0-1.2,.45-2.15,1.34-2.87s2.07-1.07,3.55-1.07c.83,0,1.64,.11,2.43,.33,.79,.22,1.44,.55,1.93,.97s.75,.91,.75,1.46v2.6h-.55c-.26-1.55-.75-2.67-1.46-3.35s-1.69-1.02-2.94-1.02c-.78,0-1.43,.21-1.93,.62-.51,.41-.76,.97-.76,1.66,0,.6,.19,1.1,.58,1.51,.38,.41,1.01,.86,1.89,1.37l2.83,1.68c1.04,.61,1.8,1.21,2.26,1.8,.46,.58,.69,1.28,.69,2.1,0,1.32-.48,2.36-1.43,3.13s-2.26,1.15-3.94,1.15c-.86,0-1.69-.12-2.5-.35Z"/>
      <path class="cls-2" d="M201.83,53.58c-.29-.16-.5-.45-.62-.86s-.18-1.01-.18-1.8v-12.3h2.62v12.3c0,.78,.11,1.36,.32,1.74,.22,.38,.65,.56,1.29,.56h.32v.6h-2.49c-.55,0-.97-.08-1.27-.24Z"/>
      <path class="cls-2" d="M209.36,42.15v11.67h-1.06v-12.43c0-.69-.16-1.22-.47-1.6-.31-.38-.85-.56-1.6-.56h-.16v-.6h1.57c.8,0,1.46,.12,1.98,.35,.52,.23,.97,.58,1.34,1.04l7.99,9.53v-10.91h1.06v15.34h-.83l-9.81-11.81Z"/>
      <path class="cls-2" d="M224.09,41.52c0-.78-.11-1.36-.32-1.74-.22-.38-.64-.56-1.29-.56h-.35v-.6h10.02c1.3,0,1.96,.61,1.96,1.84v1.87h-.6c0-1.81-.96-2.72-2.88-2.72h-3.94v5.85h6.08v.99h-6.08v6.38h3.98c.95,0,1.72-.19,2.3-.58,.58-.38,1.07-1.05,1.45-2l.55,.18-.74,1.96c-.17,.48-.39,.83-.67,1.07-.28,.24-.68,.36-1.22,.36h-8.27v-12.3Z"/>
      <path class="cls-2" d="M239.39,53.87c-.81-.23-1.46-.56-1.97-.98-.51-.42-.76-.91-.76-1.46v-2.6h.55c.25,1.57,.74,2.69,1.47,3.37,.74,.68,1.77,1.02,3.09,1.02,.87,0,1.58-.2,2.13-.6,.54-.4,.82-.96,.82-1.68,0-.63-.19-1.17-.58-1.61-.38-.44-1-.93-1.84-1.45l-2.83-1.68c-1.01-.6-1.73-1.21-2.16-1.84-.43-.63-.64-1.37-.64-2.21,0-1.2,.45-2.15,1.34-2.87s2.07-1.07,3.55-1.07c.83,0,1.64,.11,2.43,.33,.79,.22,1.44,.55,1.93,.97s.75,.91,.75,1.46v2.6h-.55c-.26-1.55-.75-2.67-1.46-3.35s-1.69-1.02-2.94-1.02c-.78,0-1.43,.21-1.93,.62-.51,.41-.76,.97-.76,1.66,0,.6,.19,1.1,.58,1.51,.38,.41,1.01,.86,1.89,1.37l2.83,1.68c1.04,.61,1.8,1.21,2.26,1.8,.46,.58,.69,1.28,.69,2.1,0,1.32-.48,2.36-1.43,3.13s-2.26,1.15-3.94,1.15c-.86,0-1.69-.12-2.5-.35Z"/>
      <path class="cls-2" d="M252.06,53.87c-.81-.23-1.46-.56-1.97-.98-.51-.42-.76-.91-.76-1.46v-2.6h.55c.25,1.57,.74,2.69,1.47,3.37,.74,.68,1.77,1.02,3.09,1.02,.87,0,1.58-.2,2.13-.6,.54-.4,.82-.96,.82-1.68,0-.63-.19-1.17-.58-1.61-.38-.44-1-.93-1.84-1.45l-2.83-1.68c-1.01-.6-1.73-1.21-2.16-1.84-.43-.63-.64-1.37-.64-2.21,0-1.2,.45-2.15,1.34-2.87s2.07-1.07,3.55-1.07c.83,0,1.64,.11,2.43,.33,.79,.22,1.44,.55,1.93,.97s.75,.91,.75,1.46v2.6h-.55c-.26-1.55-.75-2.67-1.46-3.35s-1.69-1.02-2.94-1.02c-.78,0-1.43,.21-1.93,.62-.51,.41-.76,.97-.76,1.66,0,.6,.19,1.1,.58,1.51,.38,.41,1.01,.86,1.89,1.37l2.83,1.68c1.04,.61,1.8,1.21,2.26,1.8,.46,.58,.69,1.28,.69,2.1,0,1.32-.48,2.36-1.43,3.13s-2.26,1.15-3.94,1.15c-.86,0-1.69-.12-2.5-.35Z"/>
    </g>
    <g>
      <path class="cls-2" d="M91.57,81.13c-.78-.47-1.37-1.12-1.78-1.94-.41-.82-.61-1.75-.61-2.77s.23-2.02,.68-2.89c.45-.88,1.07-1.57,1.86-2.08,.79-.51,1.65-.77,2.6-.77,.89,0,1.66,.12,2.3,.36,.64,.24,1.12,.55,1.43,.93,.18,.23,.29,.53,.34,.88,.04,.36,.06,.86,.06,1.52h-.41c-.4-2.01-1.48-3.01-3.24-3.01-1.12,0-2,.39-2.66,1.18-.66,.79-.99,2.08-.99,3.87,0,.85,.13,1.63,.38,2.34,.26,.71,.66,1.29,1.2,1.73,.55,.44,1.24,.66,2.06,.66,.76,0,1.43-.19,2.04-.58,.61-.39,1.11-.95,1.51-1.68l.46,.35c-.5,.91-1.11,1.58-1.83,1.99-.72,.41-1.61,.61-2.67,.61s-1.97-.24-2.74-.71Z"/>
      <path class="cls-2" d="M102.36,81.1c-.78-.49-1.38-1.16-1.8-2.01-.42-.85-.64-1.8-.64-2.84s.21-1.99,.64-2.84,1.03-1.52,1.8-2.01c.78-.49,1.67-.73,2.68-.73s1.92,.25,2.69,.73c.78,.49,1.38,1.16,1.8,2.01,.43,.85,.64,1.8,.64,2.84s-.21,1.99-.64,2.84-1.03,1.52-1.8,2.01c-.78,.49-1.67,.73-2.69,.73s-1.9-.24-2.68-.73Zm5.01-1.24c.56-.86,.84-2.06,.84-3.6s-.28-2.74-.84-3.6-1.34-1.29-2.34-1.29-1.78,.43-2.33,1.29c-.55,.86-.83,2.06-.83,3.6s.28,2.74,.83,3.6c.55,.86,1.33,1.29,2.33,1.29s1.78-.43,2.34-1.29Z"/>
      <path class="cls-2" d="M113.07,73.44v8.08h-.73v-8.61c0-.48-.11-.85-.33-1.11-.22-.26-.59-.39-1.11-.39h-.11v-.41h1.08c.55,0,1.01,.08,1.37,.24,.36,.16,.67,.4,.92,.72l5.53,6.6v-7.56h.73v10.62h-.57l-6.79-8.18Z"/>
      <path class="cls-2" d="M124.37,81.55c-.56-.16-1.01-.39-1.36-.68-.35-.29-.53-.63-.53-1.01v-1.8h.38c.17,1.08,.51,1.86,1.02,2.34,.51,.47,1.22,.71,2.14,.71,.61,0,1.1-.14,1.47-.41,.38-.28,.57-.66,.57-1.16,0-.44-.13-.81-.4-1.12-.27-.31-.69-.64-1.28-1l-1.96-1.16c-.7-.41-1.2-.84-1.5-1.28-.3-.44-.45-.95-.45-1.53,0-.83,.31-1.49,.92-1.98s1.43-.74,2.46-.74c.57,0,1.13,.08,1.68,.23,.55,.15,.99,.38,1.34,.67s.52,.63,.52,1.01v1.8h-.38c-.18-1.07-.52-1.85-1.01-2.32-.49-.47-1.17-.71-2.03-.71-.54,0-.99,.14-1.34,.43s-.53,.67-.53,1.15c0,.41,.13,.76,.4,1.04,.27,.28,.7,.6,1.31,.95l1.96,1.16c.72,.42,1.24,.84,1.56,1.24,.32,.4,.48,.89,.48,1.45,0,.91-.33,1.64-.99,2.17-.66,.53-1.57,.8-2.73,.8-.6,0-1.17-.08-1.73-.24Z"/>
      <path class="cls-2" d="M132.97,80.51c-.67-.78-1-1.97-1-3.57v-3.94c0-.52-.07-.91-.22-1.18-.14-.27-.42-.4-.82-.41h-.21v-.41h1.61c.38,0,.68,.06,.88,.18,.2,.12,.35,.32,.43,.6,.08,.28,.13,.69,.13,1.24l.02,4.42c.02,2.38,.9,3.57,2.65,3.57,1.13,0,1.94-.32,2.43-.96s.74-1.67,.74-3.08v-5.95h.73v5.95c0,1.06-.13,1.94-.39,2.63-.26,.69-.69,1.21-1.3,1.57-.61,.36-1.43,.53-2.47,.53-1.47,0-2.53-.39-3.2-1.16Z"/>
      <path class="cls-2" d="M143.06,73.01c0-.54-.07-.94-.22-1.2-.15-.26-.45-.39-.89-.39h-.24v-.41h1.72c.38,0,.67,.06,.88,.18,.2,.12,.35,.32,.43,.6,.08,.28,.13,.69,.13,1.24v7.83h5.56v.69h-7.36v-8.51Z"/>
      <path class="cls-2" d="M152.45,71.68h-1.26c-.62,0-1.09,.15-1.41,.45-.32,.3-.49,.78-.49,1.44h-.41v-1.29c0-.85,.45-1.28,1.35-1.28h7.46v.69h-3.44v9.84h-1.8v-9.84Z"/>
      <path class="cls-2" d="M159.68,81.35c-.2-.11-.35-.31-.43-.6-.09-.29-.13-.7-.13-1.24v-8.51h1.82v8.51c0,.54,.07,.94,.22,1.2,.15,.26,.45,.39,.89,.39h.22v.41h-1.72c-.38,0-.68-.06-.88-.17Z"/>
      <path class="cls-2" d="M164.9,73.44v8.08h-.73v-8.61c0-.48-.11-.85-.33-1.11-.22-.26-.59-.39-1.11-.39h-.11v-.41h1.08c.55,0,1.01,.08,1.37,.24,.36,.16,.67,.4,.92,.72l5.53,6.6v-7.56h.73v10.62h-.57l-6.79-8.18Z"/>
      <path class="cls-2" d="M176.85,81.07c-.85-.51-1.52-1.2-2-2.07-.48-.87-.73-1.84-.73-2.9s.21-1.93,.64-2.76c.42-.83,1.03-1.48,1.8-1.95,.78-.47,1.67-.71,2.68-.71,.94,0,1.73,.12,2.39,.36,.66,.24,1.15,.55,1.47,.93,.17,.22,.28,.51,.33,.87,.05,.36,.07,.79,.07,1.32h-.41c-.2-.96-.58-1.66-1.12-2.11-.55-.45-1.29-.68-2.24-.68-.83,0-1.51,.22-2.06,.66s-.94,1.02-1.2,1.73c-.26,.71-.38,1.49-.38,2.34,0,1.81,.33,3.11,.99,3.91,.66,.8,1.54,1.2,2.65,1.2,.49,0,.91-.04,1.28-.12,.36-.08,.7-.2,1.02-.36v-2.81c0-.56,.19-1.02,.58-1.38,.39-.36,1.16-.53,2.32-.53v.37c-.4,0-.69,.13-.85,.37-.16,.25-.25,.63-.25,1.14v2.92c-.6,.36-1.22,.62-1.89,.79-.66,.16-1.4,.25-2.21,.25-1.06,0-2.02-.25-2.87-.77Z"/>
      <path class="cls-2" d="M191.78,81.55c-.56-.16-1.01-.39-1.36-.68-.35-.29-.53-.63-.53-1.01v-1.8h.38c.17,1.08,.51,1.86,1.02,2.34,.51,.47,1.22,.71,2.14,.71,.61,0,1.1-.14,1.47-.41,.38-.28,.57-.66,.57-1.16,0-.44-.13-.81-.4-1.12-.27-.31-.69-.64-1.28-1l-1.96-1.16c-.7-.41-1.2-.84-1.5-1.28-.3-.44-.45-.95-.45-1.53,0-.83,.31-1.49,.92-1.98s1.43-.74,2.46-.74c.57,0,1.13,.08,1.68,.23,.55,.15,.99,.38,1.34,.67s.52,.63,.52,1.01v1.8h-.38c-.18-1.07-.52-1.85-1.01-2.32-.49-.47-1.17-.71-2.03-.71-.54,0-.99,.14-1.34,.43s-.53,.67-.53,1.15c0,.41,.13,.76,.4,1.04,.27,.28,.7,.6,1.31,.95l1.96,1.16c.72,.42,1.24,.84,1.56,1.24,.32,.4,.48,.89,.48,1.45,0,.91-.33,1.64-.99,2.17-.66,.53-1.57,.8-2.73,.8-.6,0-1.17-.08-1.73-.24Z"/>
      <path class="cls-2" d="M199.46,73.01c0-.54-.07-.94-.22-1.2-.15-.26-.45-.39-.89-.39h-.24v-.41h6.93c.9,0,1.35,.43,1.35,1.28v1.29h-.41c0-1.25-.66-1.88-1.99-1.88h-2.73v4.05h4.21v.69h-4.21v4.42h2.76c.66,0,1.19-.13,1.59-.4,.4-.27,.74-.73,1-1.39l.38,.13-.51,1.35c-.12,.33-.27,.58-.46,.74-.19,.16-.47,.25-.85,.25h-5.72v-8.51Z"/>
      <path class="cls-2" d="M214.65,81.16c-.46-.35-.94-.94-1.45-1.79l-1.59-2.68h-.83v4.83h-1.82v-8.51c0-.54-.07-.94-.22-1.2-.15-.26-.45-.39-.89-.39h-.24v-.41h4.3c1.05,0,2.01,.2,2.88,.6s1.3,1.16,1.3,2.27c0,.8-.24,1.4-.72,1.82-.48,.41-1.1,.71-1.87,.89l1.67,2.79c.37,.63,.72,1.07,1.05,1.33,.33,.26,.66,.41,1,.45v.37c-.1,.04-.24,.08-.45,.11-.2,.03-.4,.05-.61,.05-.56,0-1.07-.17-1.53-.52Zm-2.84-5.08c.36,0,.72-.07,1.07-.22s.64-.39,.88-.73c.23-.33,.35-.76,.35-1.28s-.12-.95-.35-1.28c-.23-.33-.52-.58-.87-.73s-.7-.23-1.06-.23c-.25,0-.61,.04-1.05,.13v4.35h1.04Z"/>
      <path class="cls-2" d="M218,72.86c-.26-.6-.5-1.01-.73-1.25-.23-.24-.54-.38-.91-.42v-.32l.61-.03c.64,0,1.21,.14,1.73,.41s.94,.81,1.28,1.62l2.6,6.15,3.43-8.02h.78l-4.58,10.68h-.49l-3.71-8.82Z"/>
      <path class="cls-2" d="M228.77,81.35c-.2-.11-.35-.31-.43-.6-.09-.29-.13-.7-.13-1.24v-8.51h1.82v8.51c0,.54,.07,.94,.22,1.2,.15,.26,.45,.39,.89,.39h.22v.41h-1.72c-.38,0-.68-.06-.88-.17Z"/>
      <path class="cls-2" d="M234.53,81.13c-.78-.47-1.37-1.12-1.78-1.94-.41-.82-.61-1.75-.61-2.77s.23-2.02,.68-2.89c.45-.88,1.07-1.57,1.86-2.08,.79-.51,1.65-.77,2.6-.77,.89,0,1.66,.12,2.3,.36,.64,.24,1.12,.55,1.43,.93,.18,.23,.29,.53,.33,.88,.04,.36,.06,.86,.06,1.52h-.41c-.4-2.01-1.48-3.01-3.24-3.01-1.12,0-2,.39-2.66,1.18-.66,.79-.99,2.08-.99,3.87,0,.85,.13,1.63,.38,2.34,.26,.71,.66,1.29,1.2,1.73,.55,.44,1.24,.66,2.06,.66,.75,0,1.43-.19,2.04-.58s1.11-.95,1.51-1.68l.46,.35c-.5,.91-1.11,1.58-1.82,1.99-.72,.41-1.61,.61-2.67,.61s-1.97-.24-2.74-.71Z"/>
      <path class="cls-2" d="M243.82,73.01c0-.54-.07-.94-.22-1.2-.15-.26-.45-.39-.89-.39h-.24v-.41h6.93c.9,0,1.35,.43,1.35,1.28v1.29h-.41c0-1.25-.66-1.88-1.99-1.88h-2.73v4.05h4.21v.69h-4.21v4.42h2.76c.66,0,1.19-.13,1.59-.4,.4-.27,.74-.73,1-1.39l.38,.13-.51,1.35c-.12,.33-.27,.58-.46,.74-.19,.16-.47,.25-.85,.25h-5.72v-8.51Z"/>
      <path class="cls-2" d="M254.41,81.55c-.56-.16-1.01-.39-1.36-.68-.35-.29-.53-.63-.53-1.01v-1.8h.38c.17,1.08,.51,1.86,1.02,2.34,.51,.47,1.22,.71,2.14,.71,.61,0,1.1-.14,1.47-.41,.38-.28,.57-.66,.57-1.16,0-.44-.13-.81-.4-1.12-.27-.31-.69-.64-1.28-1l-1.96-1.16c-.7-.41-1.2-.84-1.5-1.28-.3-.44-.45-.95-.45-1.53,0-.83,.31-1.49,.92-1.98s1.43-.74,2.46-.74c.57,0,1.13,.08,1.68,.23,.55,.15,.99,.38,1.34,.67s.52,.63,.52,1.01v1.8h-.38c-.18-1.07-.52-1.85-1.01-2.32-.49-.47-1.17-.71-2.03-.71-.54,0-.99,.14-1.34,.43s-.53,.67-.53,1.15c0,.41,.13,.76,.4,1.04,.27,.28,.7,.6,1.31,.95l1.96,1.16c.72,.42,1.24,.84,1.56,1.24,.32,.4,.48,.89,.48,1.45,0,.91-.33,1.64-.99,2.17-.66,.53-1.57,.8-2.73,.8-.6,0-1.17-.08-1.73-.24Z"/>
    </g>
  </g>
  <g>
    <path class="cls-1" d="M39.39,44.52h-1.68c-.82,0-1.45,.2-1.88,.6-.43,.4-.65,1.03-.65,1.91h-.55v-1.72c0-1.13,.6-1.7,1.81-1.7h9.95v.91h-4.59v13.11h-2.4v-13.11Z"/>
    <path class="cls-1" d="M48.66,46.29c0-.72-.1-1.26-.3-1.61-.2-.35-.6-.52-1.19-.52h-.32v-.55h5.65c1.69,0,3.12,.25,4.29,.75,1.18,.5,1.76,1.49,1.76,2.97,0,.65-.24,1.26-.73,1.82s-1.2,.97-2.14,1.24c1.29,.17,2.2,.55,2.74,1.14s.81,1.34,.81,2.24c0,2.58-2.03,3.87-6.1,3.87h-4.49v-11.35Zm4.17,3.72c.92,0,1.68-.23,2.27-.69s.89-1.16,.89-2.09-.35-1.67-1.05-2.13c-.7-.45-1.53-.68-2.48-.68-.37,0-.84,.06-1.4,.17v5.42h1.76Zm2.82,6.06c.66-.51,.99-1.24,.99-2.19s-.32-1.7-.97-2.2c-.65-.5-1.59-.75-2.84-.75h-1.76v5.65c.6,.17,1.18,.25,1.76,.25,1.22,0,2.16-.25,2.82-.77Z"/>
    <path class="cls-1" d="M38.29,76.01c-1.03-.63-1.82-1.5-2.37-2.59-.55-1.1-.82-2.33-.82-3.69s.3-2.69,.9-3.86c.6-1.17,1.43-2.09,2.48-2.77,1.05-.68,2.2-1.02,3.46-1.02,1.19,0,2.21,.16,3.06,.48s1.49,.73,1.91,1.24c.24,.31,.39,.71,.45,1.18,.06,.48,.09,1.15,.09,2.03h-.55c-.54-2.68-1.98-4.02-4.31-4.02-1.49,0-2.67,.52-3.55,1.57-.88,1.05-1.32,2.77-1.32,5.16,0,1.13,.17,2.17,.51,3.12,.34,.95,.87,1.72,1.6,2.31,.73,.59,1.65,.88,2.75,.88,1.01,0,1.91-.26,2.72-.78,.81-.52,1.48-1.27,2.02-2.24l.62,.47c-.67,1.22-1.48,2.1-2.43,2.65s-2.14,.82-3.56,.82-2.62-.32-3.66-.95Z"/>
    <path class="cls-1" d="M52.13,76.57c-.74-.21-1.35-.51-1.82-.9s-.7-.84-.7-1.35v-2.4h.51c.23,1.44,.68,2.48,1.36,3.11,.68,.63,1.63,.95,2.85,.95,.81,0,1.46-.18,1.97-.55,.5-.37,.75-.89,.75-1.55,0-.58-.18-1.08-.53-1.49-.35-.41-.92-.86-1.7-1.34l-2.61-1.55c-.94-.55-1.6-1.12-2-1.7s-.6-1.26-.6-2.04c0-1.11,.41-1.99,1.23-2.65,.82-.66,1.91-.99,3.27-.99,.77,0,1.51,.1,2.24,.31,.73,.21,1.32,.5,1.79,.89,.46,.39,.69,.84,.69,1.35v2.4h-.51c-.24-1.43-.69-2.46-1.35-3.09-.66-.63-1.56-.95-2.71-.95-.72,0-1.32,.19-1.79,.57-.47,.38-.7,.89-.7,1.53,0,.55,.18,1.02,.53,1.39,.35,.38,.94,.8,1.74,1.27l2.61,1.55c.96,.57,1.66,1.12,2.08,1.66,.42,.54,.64,1.18,.64,1.93,0,1.22-.44,2.18-1.32,2.89-.88,.71-2.09,1.06-3.63,1.06-.79,0-1.56-.11-2.31-.32Z"/>
  </g>
  <polygon class="cls-3" points="73.94 46.74 73.94 33.07 60.28 33.07 73.94 46.74"/>
</svg>