<?xml version="1.0" encoding="UTF-8"?>
<svg id="Layer_1" data-name="Layer 1" xmlns="http://www.w3.org/2000/svg" viewBox="0 0 280 120">
  <defs>
    <style>
      .cls-1 {
        fill: #fff;
      }

      .cls-2 {
        fill: #5b5b5b;
      }
    </style>
  </defs>
  <path class="cls-2" d="M125.64,52.9v16.41h-4.92v-1.54c-1.08,1.25-2.69,2-4.89,2-4.3,0-7.84-3.78-7.84-8.67s3.55-8.67,7.84-8.67c2.2,0,3.81,.76,4.89,2v-1.54h4.92Zm-4.92,8.21c0-2.46-1.64-4.01-3.91-4.01s-3.91,1.54-3.91,4.01,1.64,4,3.91,4,3.91-1.54,3.91-4Z"/>
  <path class="cls-2" d="M145.01,59.24v10.08h-4.93v-9.35c0-2.04-1.28-2.99-2.86-2.99-1.8,0-3.05,1.05-3.05,3.38v8.96h-4.92v-16.41h4.92v1.54c.89-1.21,2.53-2,4.69-2,3.32,0,6.14,2.36,6.14,6.8Z"/>
  <path class="cls-2" d="M163.65,52.9l-5.61,15.92c-1.84,5.22-4.76,7.29-9.36,7.06v-4.6c2.3,0,3.38-.72,4.1-2.72l-6.53-15.66h5.42l3.64,10.04,3.09-10.04h5.25Z"/>
  <g>
    <path class="cls-2" d="M181.64,46.34v22.98h-4.92v-1.54c-1.08,1.25-2.69,2-4.89,2-4.3,0-7.84-3.78-7.84-8.67s3.55-8.67,7.84-8.67c2.2,0,3.81,.76,4.89,2v-8.11h4.92Zm-4.92,14.77c0-2.46-1.64-4.01-3.91-4.01s-3.91,1.54-3.91,4.01,1.64,4,3.91,4,3.91-1.54,3.91-4Z"/>
    <path class="cls-2" d="M184.43,61.11c0-4.89,3.87-8.67,8.7-8.67s8.7,3.78,8.7,8.67-3.87,8.67-8.7,8.67-8.7-3.78-8.7-8.67Zm12.47,0c0-2.33-1.64-3.87-3.77-3.87s-3.78,1.54-3.78,3.87,1.64,3.87,3.78,3.87,3.77-1.54,3.77-3.87Z"/>
    <path class="cls-2" d="M220.37,59.24v10.08h-4.92v-9.35c0-2.04-1.28-2.99-2.86-2.99-1.8,0-3.05,1.05-3.05,3.38v8.96h-4.92v-16.41h4.92v1.54c.89-1.21,2.53-2,4.69-2,3.32,0,6.14,2.36,6.14,6.8h0Z"/>
    <path class="cls-2" d="M232.09,65.38c1.35,0,2.49-.52,3.15-1.25l3.94,2.27c-1.61,2.23-4.04,3.38-7.16,3.38-5.61,0-9.09-3.78-9.09-8.67s3.55-8.67,8.73-8.67c4.79,0,8.34,3.71,8.34,8.67,0,.66-.06,1.32-.2,1.97h-11.65c.62,1.71,2.13,2.3,3.94,2.3h0Zm3.02-5.97c-.52-1.9-2-2.59-3.48-2.59-1.87,0-3.12,.92-3.58,2.59h7.06Z"/>
  </g>
  <path class="cls-2" d="M70.34,90.4c16.76,0,30.34-13.61,30.34-30.4s-13.58-30.4-30.34-30.4-30.34,13.61-30.34,30.4,13.59,30.4,30.34,30.4h0Z"/>
  <path class="cls-1" d="M88.49,69.03c2.48-4.99,3-11.13,.41-17.45-1.97-4.78-5.81-8.53-10.64-10.38-17.17-6.58-33.22,9.48-26.71,26.68,1.87,4.9,5.69,8.8,10.55,10.77,6.54,2.65,12.86,1.94,17.91-.82,.68-.39,1.47-.53,2.25-.41l4.47,.77c.51,.09,1.03-.07,1.41-.42,.38-.35,.57-.86,.52-1.38-.17-1.74-.42-4.1-.55-5.43-.06-.67,.07-1.35,.38-1.94h0Z"/>
  <path class="cls-2" d="M62.72,59.96c2.19,0,3.97-1.77,3.98-3.96,0-2.19-1.77-3.97-3.96-3.98-2.19,0-3.97,1.77-3.98,3.96,0,0,0,0,0,0,0,2.19,1.77,3.97,3.96,3.97h0Z"/>
  <path class="cls-2" d="M77.34,59.96c2.19,0,3.97-1.77,3.98-3.96,0-2.19-1.77-3.97-3.96-3.98-2.19,0-3.97,1.77-3.98,3.96,0,0,0,0,0,0,0,2.19,1.77,3.97,3.96,3.97h0Z"/>
</svg>