<svg width="280" height="120" viewBox="0 0 280 120" fill="none" xmlns="http://www.w3.org/2000/svg">
<path d="M216.707 57.2873L208.965 58.212H206.584L205.656 56.5963L206.528 55.5097L211.637 55.863L213.596 56.1965L217.029 56.5963" fill="#5B5B5B"/>
<path d="M227.786 60.9549L229.872 60.4749C229.705 59.7276 229.486 58.9845 229.222 58.2666L227.216 59.0197C227.448 59.6488 227.64 60.3005 227.786 60.9549Z" fill="#5B5B5B"/>
<path d="M217.962 49.8346C218.588 50.057 219.205 50.323 219.798 50.6256L220.766 48.696C220.087 48.3497 219.383 48.0458 218.667 47.7924L217.962 49.8346Z" fill="#5B5B5B"/>
<path d="M225.076 55.0802C225.476 55.6164 225.847 56.1837 226.174 56.7664L228.033 55.6953C227.659 55.031 227.238 54.3836 226.78 53.7741L225.076 55.0802Z" fill="#5B5B5B"/>
<path d="M225.016 73.7604L226.713 75.0792C227.174 74.474 227.596 73.8322 227.975 73.1721L226.123 72.0884C225.792 72.6668 225.42 73.2298 225.016 73.7604Z" fill="#5B5B5B"/>
<path d="M215.952 47.0735C215.207 46.9425 214.446 46.8581 213.688 46.8257L213.596 48.9876C214.262 49.0172 214.929 49.0889 215.582 49.2057L215.952 47.0735Z" fill="#5B5B5B"/>
<path d="M221.902 51.9271C222.438 52.3241 222.955 52.7589 223.435 53.2221L224.91 51.6569C224.361 51.1292 223.775 50.6309 223.162 50.1791L221.902 51.9271Z" fill="#5B5B5B"/>
<path d="M227.182 69.8384L229.183 70.604C229.451 69.8876 229.675 69.1445 229.848 68.3985L227.765 67.9045C227.613 68.5604 227.415 69.2106 227.182 69.8384Z" fill="#5B5B5B"/>
<path d="M228.133 63.4193C228.153 63.7374 228.163 64.0611 228.163 64.3806C228.163 64.7353 228.15 65.0928 228.126 65.4419L230.261 65.5882C230.287 65.1899 230.301 64.7832 230.301 64.3792C230.301 64.0147 230.29 63.6474 230.268 63.2857L228.133 63.4193Z" fill="#5B5B5B"/>
<path d="M216.6 43.6407C215.709 43.4817 214.794 43.3818 213.885 43.341L213.774 45.9363C214.573 45.9715 215.374 46.0588 216.157 46.1981L216.6 43.6407Z" fill="#5B5B5B"/>
<path d="M223.741 49.4633C224.384 49.9389 225.003 50.4625 225.58 51.0184L227.352 49.1381C226.692 48.5048 225.987 47.908 225.255 47.3661L223.741 49.4633Z" fill="#5B5B5B"/>
<path d="M233.773 65.8584C233.805 65.3798 233.821 64.8915 233.821 64.4087C233.821 63.9695 233.808 63.529 233.781 63.0956L231.218 63.2545C231.242 63.6346 231.254 64.0245 231.254 64.4087C231.254 64.8337 231.239 65.2616 231.211 65.6825L233.773 65.8584Z" fill="#5B5B5B"/>
<path d="M230.118 57.9752C230.396 58.7295 230.626 59.5106 230.802 60.2974L233.306 59.7218C233.104 58.8252 232.842 57.9329 232.526 57.0715L230.118 57.9752Z" fill="#5B5B5B"/>
<path d="M233.545 56.686C233.877 57.5924 234.153 58.5298 234.364 59.4727L237.368 58.783C237.127 57.7064 236.812 56.6368 236.432 55.6023L233.545 56.686Z" fill="#5B5B5B"/>
<path d="M232.919 49.1294L230.465 51.0127C231.044 51.7839 231.575 52.6002 232.048 53.4391L234.725 51.8965C234.187 50.9409 233.579 50.0091 232.919 49.1294Z" fill="#5B5B5B"/>
<path d="M224.259 41.8197C223.285 41.32 222.268 40.8823 221.239 40.5178L220.221 43.4593C221.124 43.7774 222.014 44.1617 222.868 44.5994L224.259 41.8197Z" fill="#5B5B5B"/>
<path d="M233.495 72.2646L236.377 73.368C236.764 72.3364 237.085 71.2668 237.333 70.1928L234.334 69.4821C234.116 70.4237 233.834 71.3596 233.495 72.2646Z" fill="#5B5B5B"/>
<path d="M230.38 77.9123L232.824 79.8109C233.486 78.9384 234.098 78.015 234.641 77.0636L231.976 75.5027C231.498 76.3374 230.962 77.148 230.38 77.9123Z" fill="#5B5B5B"/>
<path d="M226.518 37.2984C225.349 36.7002 224.13 36.1738 222.895 35.7361L221.675 39.266C222.757 39.6488 223.826 40.1091 224.85 40.634L226.518 37.2984Z" fill="#5B5B5B"/>
<path d="M218.195 34.4976C216.91 34.2696 215.594 34.1247 214.284 34.0684L214.125 37.8052C215.276 37.8559 216.431 37.981 217.557 38.1823L218.195 34.4976Z" fill="#5B5B5B"/>
<path d="M239.074 49.3943C238.426 48.2444 237.698 47.1283 236.907 46.0727L233.96 48.3317C234.654 49.2577 235.294 50.2387 235.861 51.2437L239.074 49.3943Z" fill="#5B5B5B"/>
<path d="M233.677 42.4143C232.729 41.5023 231.714 40.6437 230.656 39.8626L228.477 42.8829C229.404 43.567 230.294 44.32 231.128 45.1222L233.677 42.4143Z" fill="#5B5B5B"/>
<path d="M242.927 66.4927C242.974 65.8017 242.997 65.0994 242.997 64.4055C242.997 63.7764 242.978 63.1403 242.94 62.5139L239.25 62.7433C239.283 63.2936 239.301 63.8524 239.301 64.4055C239.301 65.0149 239.28 65.6328 239.24 66.2395L242.927 66.4927Z" fill="#5B5B5B"/>
<path d="M248.104 56.3049C247.756 54.7553 247.302 53.2141 246.756 51.725L242.597 53.2858C243.076 54.5906 243.473 55.9404 243.776 57.2971L248.104 56.3049Z" fill="#5B5B5B"/>
<path d="M237.817 38.0131C236.68 36.9167 235.459 35.8879 234.193 34.9519L231.577 38.5775C232.69 39.398 233.759 40.3016 234.757 41.2629L237.817 38.0131Z" fill="#5B5B5B"/>
<path d="M248.93 62.1329L244.502 62.4074C244.542 63.0662 244.562 63.7374 244.562 64.4003C244.562 65.1336 244.538 65.8739 244.49 66.6017L248.915 66.907C248.972 66.0781 249 65.235 249 64.4003C248.998 63.646 248.974 62.8831 248.93 62.1329Z" fill="#5B5B5B"/>
<path d="M238.039 83.8483L241.557 86.5816C242.511 85.3261 243.39 83.9947 244.174 82.6281L240.334 80.3789C239.647 81.5809 238.876 82.7463 238.039 83.8483Z" fill="#5B5B5B"/>
<path d="M219.242 28.5151C217.699 28.2407 216.121 28.0676 214.548 28L214.357 32.4827C215.737 32.5433 217.122 32.6953 218.475 32.9345L219.242 28.5151Z" fill="#5B5B5B"/>
<path d="M207.576 72.9642C204.46 72.9303 201.88 71.5159 199.48 69.6918C198.016 68.5799 196.692 67.3076 195.553 65.8438C195.359 65.5948 195.151 65.5567 194.913 65.8636C194.333 66.6194 193.725 67.354 193.118 68.0901C192.972 68.2675 192.943 68.3604 193.139 68.556C193.782 69.1978 194.419 69.8509 194.998 70.5518C196.679 72.5883 197.935 74.874 198.82 77.3737C199.67 79.7762 200.132 82.2561 200.276 84.7938C200.404 87.0584 200.262 89.3131 199.731 91.5214C199.62 91.9872 199.746 92.0014 200.097 91.9999C202.58 91.9915 205.065 91.9872 207.55 91.9831C207.549 86.0675 207.547 80.1535 207.548 74.2379C207.548 73.8128 207.566 73.3892 207.576 72.9642Z" fill="#5B5B5B"/>
<path d="M207.426 72.9642C210.542 72.9304 213.121 71.5159 215.522 69.6918C216.986 68.58 218.311 67.3076 219.449 65.8439C219.642 65.5948 219.851 65.5567 220.089 65.8636C220.669 66.6194 221.277 67.354 221.884 68.0901C222.03 68.2675 222.059 68.3604 221.863 68.5561C221.22 69.1978 220.583 69.8509 220.004 70.5518C218.323 72.5884 217.066 74.8741 216.182 77.3737C215.331 79.7762 214.869 82.2561 214.726 84.7938C214.598 87.0584 214.74 89.3131 215.27 91.5215C215.381 91.9873 215.256 92.0014 214.906 91.9999C212.421 91.9916 209.936 91.9873 207.451 91.9831C207.453 86.0675 207.456 80.1535 207.454 74.2379C207.454 73.8129 207.436 73.3892 207.426 72.9642Z" fill="#5B5B5B"/>
<path d="M216.315 57.1801C216.616 57.221 216.518 57.463 216.524 57.6333C216.578 59.2378 216.621 60.8424 216.678 62.4439C216.684 62.6551 216.695 62.8775 216.769 63.0703C216.843 63.2589 216.991 63.4968 217.203 63.4715C217.405 63.4475 217.316 63.18 217.358 63.021C217.42 62.7804 217.494 62.5411 217.56 62.3004C217.581 62.2132 217.569 62.0752 217.716 62.1512C218.032 62.3131 217.998 62.0598 218.059 61.8866C218.183 61.5432 218.136 61.2055 218.086 60.8578C218.012 60.3455 217.796 59.8444 217.907 59.3153C218.136 58.2315 217.766 57.356 217.026 56.5974C216.766 56.7606 216.407 56.8044 216.315 57.1801Z" fill="#5B5B5B"/>
<path d="M203.412 67.8486C203.361 67.8486 203.313 67.8444 203.264 67.8332C203.216 67.8247 203.169 67.8093 203.125 67.7909C203.079 67.7712 203.034 67.7487 202.994 67.7205C202.954 67.6938 202.914 67.6615 202.88 67.6248C202.741 67.4841 202.66 67.2885 202.66 67.0886C202.66 66.8887 202.739 66.6931 202.88 66.551C203.055 66.375 203.314 66.2948 203.556 66.344C203.604 66.3525 203.652 66.368 203.697 66.3862C203.741 66.406 203.786 66.4285 203.826 66.4567C203.867 66.4848 203.906 66.5158 203.94 66.551C203.975 66.5875 204.007 66.6256 204.034 66.6664C204.061 66.7086 204.085 66.7523 204.103 66.7987C204.123 66.8437 204.138 66.8916 204.146 66.9394C204.157 66.9901 204.162 67.0379 204.162 67.0886C204.162 67.1379 204.157 67.1871 204.146 67.2364C204.138 67.2857 204.123 67.3321 204.103 67.3785C204.085 67.4236 204.062 67.4672 204.034 67.5109C204.007 67.5517 203.975 67.5896 203.94 67.6248C203.906 67.6615 203.867 67.6938 203.826 67.7205C203.786 67.7473 203.742 67.7712 203.697 67.7909C203.652 67.8093 203.604 67.8247 203.556 67.8332C203.509 67.8444 203.46 67.8486 203.412 67.8486Z" fill="#5B5B5B"/>
<path d="M215.08 56.4015C213.435 56.434 211.788 56.4185 210.144 56.4044C209.741 56.4015 209.43 56.5085 209.098 56.7577C208.413 57.2742 207.619 57.3586 206.812 57.0758C206.438 56.9462 206.207 56.6662 206.273 56.2298C206.342 55.7809 206.655 55.719 207.039 55.733C207.63 55.7542 208.225 55.7471 208.818 55.7485C210.489 55.7499 215.36 56.5963 217.029 56.5963C216.058 56.1107 211.867 54.8843 210.879 54.4987C209.902 54.1187 208.926 53.7331 207.948 53.3516C207.818 53.3009 207.687 53.3122 207.561 53.3657C207.162 53.5332 206.736 53.6429 206.353 53.8203C204.732 54.5663 203.037 55.1138 201.391 55.7893C200.344 56.2186 199.297 56.6464 198.206 57.0926C198.385 57.2404 198.498 57.3825 198.645 57.4487C199.785 57.9526 200.782 58.6971 201.836 59.3446C202.167 59.5472 202.261 59.802 202.254 60.182C202.226 61.7696 202.211 63.3558 202.226 64.942C202.228 65.3488 202.28 65.7442 202.369 66.1271C202.392 66.2228 202.416 66.182 202.444 66.2763L203.693 65.7401C203.601 65.4121 203.545 65.2066 203.537 64.8562C203.53 64.586 203.5 64.3157 203.5 64.0455C203.5 63.7358 203.521 63.4262 203.496 63.1193C203.46 62.6929 203.605 62.6689 203.943 62.8434C205.045 63.4163 206.164 63.9582 207.262 64.5408C207.582 64.7111 207.832 64.7267 208.161 64.555C209.246 63.9892 210.354 63.4698 211.441 62.9111C211.768 62.7422 211.863 62.7787 211.869 63.1615C211.884 64.0919 211.97 64.8857 211.722 65.7879L213.038 66.3002C213.068 66.1988 213.096 66.2313 213.12 66.1271C213.21 65.7358 213.261 65.3304 213.269 64.911C213.293 63.3431 213.288 61.7738 213.266 60.2074C213.26 59.8119 213.378 59.5768 213.719 59.3755C214.695 58.8041 215.651 58.196 216.614 57.6035C216.706 57.2278 217.065 57.1841 217.326 57.0194C216.624 56.645 215.903 56.3847 215.08 56.4015Z" fill="#5B5B5B"/>
<path d="M207.039 69.4741C206.137 69.2968 205.344 68.8267 204.755 68.1793C204.562 67.9668 204.26 67.8963 203.997 68.009C203.58 68.1892 203.455 68.7324 203.756 69.0745C204.729 70.1779 206.146 70.8745 207.704 70.8647C209.381 70.8534 210.828 70.1131 211.783 68.9449C212.05 68.617 211.963 68.1244 211.596 67.9189L211.562 67.9006C211.286 67.7444 210.935 67.8049 210.732 68.0512C209.826 69.1546 208.402 69.7429 207.039 69.4741Z" fill="#5B5B5B"/>
<path d="M211.089 67.3032L211.116 67.261C211.227 67.0851 211.325 66.9049 211.405 66.722C211.451 66.6192 211.493 66.5094 211.534 66.3869C211.557 66.3194 211.577 66.2533 211.595 66.1858L211.608 66.1365L213.01 66.6825L212.999 66.7234C212.867 67.1737 212.68 67.6044 212.443 68.0042L212.421 68.0421L211.089 67.3032Z" fill="#5B5B5B"/>
<g clip-path="url(#clip0_7121_97731)">
<path d="M178.711 66.8583H176.351V79.9272H178.711V66.8583ZM171.849 69.1073C172.097 68.8946 172.221 68.5907 172.221 68.2259C172.221 67.8612 172.097 67.5877 171.849 67.3749C171.6 67.1622 171.258 67.0406 170.886 67.0406C170.482 67.0406 170.172 67.1622 169.892 67.3749C169.613 67.5877 169.488 67.8916 169.488 68.2259C169.488 68.621 169.613 68.925 169.892 69.1377C170.172 69.3505 170.482 69.4417 170.855 69.4417C171.29 69.4417 171.6 69.3201 171.849 69.1073ZM169.706 79.9576H172.066V70.8701H169.706V79.9576ZM159.334 78.7723C159.8 79.1978 160.327 79.5321 160.949 79.7752C161.57 80.0184 162.253 80.1399 162.967 80.1399C163.619 80.1399 164.209 80.0792 164.737 79.9576C165.265 79.836 165.762 79.6537 166.259 79.4105L165.327 77.3742C165.017 77.5566 164.675 77.7085 164.302 77.7997C163.93 77.8909 163.526 77.9517 163.091 77.9517C162.688 77.9517 162.315 77.8909 161.973 77.7693C161.632 77.6477 161.352 77.4654 161.104 77.2526C160.855 77.0399 160.7 76.7663 160.545 76.432C160.421 76.1281 160.359 75.7634 160.359 75.3683C160.359 74.9732 160.421 74.6388 160.545 74.3045C160.669 74.0006 160.855 73.7271 161.104 73.4839C161.352 73.2408 161.632 73.0888 161.973 72.9368C162.315 72.8153 162.688 72.7545 163.091 72.7545C163.526 72.7545 163.93 72.8153 164.302 72.9064C164.675 72.9976 165.017 73.1496 165.327 73.3319L166.259 71.2956C165.762 71.0525 165.265 70.8701 164.737 70.7485C164.209 70.627 163.619 70.5662 162.967 70.5662C162.253 70.5662 161.57 70.6878 160.949 70.9309C160.327 71.174 159.8 71.5084 159.334 71.9339C158.868 72.3594 158.526 72.876 158.278 73.4535C158.029 74.031 157.905 74.6692 157.905 75.3683C157.905 76.0673 158.029 76.7056 158.278 77.283C158.526 77.8301 158.899 78.3468 159.334 78.7723ZM145.949 79.9576H148.31V72.9368C148.651 72.876 148.962 72.8457 149.272 72.8153C149.583 72.7849 149.862 72.7545 150.111 72.7545C150.794 72.7545 151.322 72.9064 151.694 73.2104C152.067 73.5143 152.222 74.0918 152.222 74.9124V79.9576H154.582V74.2741C154.582 73.5447 154.458 72.9064 154.241 72.4202C154.023 71.9339 153.713 71.5692 153.309 71.2652C152.906 70.9917 152.44 70.7789 151.912 70.6878C151.384 70.5662 150.825 70.5358 150.204 70.5358C149.955 70.5358 149.645 70.5358 149.303 70.5662C148.962 70.5966 148.62 70.627 148.247 70.6574C147.875 70.6878 147.502 70.7485 147.098 70.8093C146.695 70.8701 146.322 70.9309 145.949 70.9917V79.9576ZM139.273 77.7085C138.931 77.7997 138.621 77.8605 138.31 77.8909C138.031 77.9213 137.751 77.9517 137.503 77.9517C136.851 77.9517 136.354 77.7997 136.074 77.4958C135.795 77.1918 135.64 76.6144 135.64 75.7938V70.8701H133.279V76.432C133.279 77.1311 133.404 77.7389 133.621 78.1948C133.838 78.6811 134.149 79.0458 134.522 79.3497C134.894 79.6537 135.36 79.836 135.888 79.9576C136.416 80.0792 136.975 80.1399 137.565 80.1399C137.969 80.1399 138.341 80.1399 138.683 80.1096C139.024 80.0792 139.366 80.0488 139.677 79.988C139.987 79.9272 140.298 79.8664 140.639 79.7752C140.95 79.6841 141.291 79.5929 141.602 79.5017V70.8701H139.242V77.7085H139.273ZM122.938 77.1918C122.721 76.9487 122.535 76.6752 122.41 76.3712C122.286 76.0673 122.224 75.7026 122.224 75.3683C122.224 75.0036 122.286 74.6692 122.41 74.3653C122.535 74.0614 122.721 73.7878 122.938 73.5447C123.156 73.3015 123.435 73.1192 123.777 72.9976C124.087 72.8457 124.46 72.7849 124.895 72.7849C125.33 72.7849 125.671 72.8457 126.013 72.9976C126.323 73.1496 126.603 73.3319 126.851 73.5447C127.069 73.7878 127.255 74.0614 127.379 74.3653C127.503 74.6692 127.565 75.0036 127.565 75.3683C127.565 75.733 127.503 76.0673 127.379 76.3712C127.255 76.6752 127.069 76.9487 126.851 77.1918C126.634 77.435 126.354 77.6173 126.013 77.7389C125.702 77.8605 125.33 77.9517 124.895 77.9517C124.46 77.9517 124.118 77.8909 123.777 77.7389C123.466 77.5869 123.187 77.4046 122.938 77.1918ZM128.528 78.7723C128.994 78.3468 129.336 77.8301 129.615 77.2526C129.863 76.6752 130.019 76.0369 130.019 75.3683C130.019 74.6996 129.895 74.0614 129.615 73.4839C129.336 72.9064 128.994 72.3898 128.528 71.9643C128.062 71.5388 127.534 71.174 126.913 70.9309C126.292 70.6878 125.609 70.5662 124.895 70.5662C124.181 70.5662 123.497 70.6878 122.876 70.9309C122.255 71.174 121.727 71.5084 121.261 71.9643C120.796 72.3898 120.454 72.9064 120.175 73.4839C119.926 74.0614 119.771 74.6996 119.771 75.3683C119.771 76.0369 119.895 76.6752 120.175 77.2526C120.423 77.8301 120.796 78.3468 121.261 78.7723C121.727 79.1978 122.255 79.5321 122.876 79.7752C123.497 80.0184 124.181 80.1399 124.895 80.1399C125.609 80.1399 126.292 80.0184 126.913 79.7752C127.534 79.5321 128.093 79.1978 128.528 78.7723ZM114.709 69.1073C115.299 69.2897 115.827 69.5328 116.324 69.8064L117.256 67.77C116.665 67.4357 115.982 67.1622 115.206 66.9494C114.43 66.7367 113.591 66.6455 112.722 66.6455C111.635 66.6455 110.672 66.8279 109.803 67.1622C108.933 67.4965 108.188 67.9828 107.567 68.5907C106.946 69.1985 106.48 69.8975 106.169 70.7485C105.828 71.5692 105.672 72.4809 105.672 73.4231C105.672 74.3957 105.828 75.2771 106.169 76.0977C106.511 76.9183 106.977 77.6477 107.567 78.2556C108.188 78.8634 108.933 79.3497 109.803 79.6841C110.672 80.0184 111.666 80.2007 112.722 80.2007C113.591 80.2007 114.399 80.1096 115.206 79.8968C115.982 79.6841 116.665 79.4409 117.256 79.0762L116.324 77.0095C115.827 77.3134 115.299 77.5566 114.709 77.7389C114.119 77.9213 113.498 78.0124 112.846 78.0124C112.225 78.0124 111.635 77.9213 111.076 77.7389C110.517 77.5566 110.02 77.283 109.616 76.8879C109.181 76.4928 108.871 76.0369 108.622 75.4594C108.374 74.882 108.25 74.2133 108.25 73.4535C108.25 72.6937 108.374 71.9947 108.622 71.4476C108.871 70.8701 109.213 70.4142 109.616 70.0191C110.051 69.6544 110.517 69.3505 111.076 69.1681C111.635 68.9858 112.225 68.8946 112.846 68.8946C113.529 68.8338 114.15 68.925 114.709 69.1073Z" fill="#5B5B5B"/>
<path d="M97.3807 79.7146C98.095 79.593 98.7471 79.4106 99.3682 79.1979V73.9095C99.3682 73.2409 99.275 72.6938 99.0576 72.2379C98.8403 71.782 98.5608 71.4173 98.1881 71.1134C97.8155 70.8398 97.3807 70.6271 96.8528 70.5055C96.3249 70.384 95.7659 70.3232 95.1759 70.3232C94.5237 70.3232 93.9027 70.384 93.3126 70.5359C92.7226 70.6575 92.2258 70.8398 91.8531 71.0222L91.5426 73.3321C91.791 73.2105 92.0394 73.1193 92.3189 73.0281C92.5984 72.937 92.8779 72.8458 93.1884 72.785C93.499 72.7242 93.7785 72.6634 94.0579 72.6026C94.3374 72.5722 94.6169 72.5418 94.8653 72.5418C95.5175 72.5418 96.0454 72.633 96.4491 72.8154C96.8528 72.9977 97.0391 73.3625 97.0391 73.8487V73.9703C96.6665 73.9095 96.3559 73.8791 96.0454 73.8791C95.7349 73.8487 95.4554 73.8487 95.2069 73.8487C94.5548 73.8487 93.9648 73.9095 93.4369 74.0311C92.9089 74.1527 92.4431 74.3654 92.0394 74.6086C91.6668 74.8517 91.3562 75.186 91.1389 75.5811C90.9215 75.9762 90.7973 76.4017 90.7973 76.9184C90.7973 77.4655 90.9215 77.9518 91.1699 78.3165C91.4183 78.7116 91.7289 79.0155 92.1636 79.2587C92.5673 79.5018 93.0332 79.6538 93.5921 79.7754C94.12 79.8969 94.7101 79.9273 95.3001 79.9273C95.9522 79.8969 96.6665 79.8361 97.3807 79.7146ZM97.0081 77.6175C96.7596 77.7086 96.4802 77.7694 96.1696 77.7998C95.8591 77.8302 95.5796 77.8606 95.269 77.8606C94.679 77.8606 94.2132 77.7694 93.8095 77.6175C93.4058 77.4351 93.2195 77.1616 93.2195 76.7361C93.2195 76.5233 93.2816 76.341 93.4058 76.189C93.53 76.037 93.6853 75.9155 93.8716 75.8243C94.0579 75.7331 94.3064 75.6723 94.5548 75.6419C94.8032 75.6115 95.1138 75.5811 95.3933 75.5811C95.6417 75.5811 95.9212 75.6115 96.2007 75.6419C96.4802 75.6723 96.7596 75.7331 96.977 75.7939V77.6175H97.0081ZM80.4563 82.9362C80.6426 82.997 80.86 83.0274 81.0774 83.0882C81.3258 83.149 81.5432 83.1794 81.7916 83.2098C82.04 83.2401 82.2885 83.2705 82.5058 83.3009C82.7543 83.3313 82.9406 83.3313 83.158 83.3313C84.0896 83.3313 84.8659 83.2705 85.5181 83.1186C86.1392 82.9666 86.636 82.7235 87.0397 82.3891C87.4124 82.0548 87.6919 81.5989 87.8471 81.0519C88.0024 80.5048 88.0956 79.8361 88.0956 79.0155V70.5967H85.7355V77.2831C85.3939 77.3743 85.0833 77.4351 84.7728 77.4655C84.4933 77.4959 84.2138 77.5263 83.9654 77.5263C83.6548 77.5263 83.3753 77.4959 83.1269 77.4351C82.8785 77.3743 82.6922 77.2527 82.5369 77.0704C82.3816 76.9184 82.2885 76.6753 82.1953 76.4017C82.1332 76.1282 82.0711 75.7939 82.0711 75.3684V70.5967H79.711V76.0066C79.711 76.7361 79.8041 77.3743 80.0215 77.8302C80.2078 78.3165 80.5184 78.6812 80.86 78.9851C81.2326 79.2587 81.6674 79.4714 82.1642 79.5626C82.6611 79.6842 83.2201 79.7146 83.8101 79.7146C84.4312 79.7146 85.0523 79.6538 85.6734 79.5322V79.7146C85.6734 79.9881 85.6112 80.2009 85.487 80.4136C85.3628 80.596 85.2075 80.7479 84.9902 80.8695C84.7728 80.9911 84.5243 81.0822 84.2138 81.143C83.9033 81.2038 83.5927 81.2342 83.2201 81.2342C82.9716 81.2342 82.7232 81.2038 82.4437 81.1734C82.1642 81.143 81.8537 81.0822 81.5742 81.0215C81.2637 80.9607 80.9842 80.8695 80.7047 80.8087C80.4252 80.7175 80.1457 80.6264 79.9284 80.5352L80.4563 82.9362ZM75.0218 79.7146C75.7361 79.593 76.3882 79.4106 77.0093 79.1979V73.9095C77.0093 73.2409 76.9161 72.6938 76.6987 72.2379C76.4814 71.782 76.2019 71.4173 75.8292 71.1134C75.4566 70.8398 75.0218 70.6271 74.4939 70.5055C73.966 70.384 73.407 70.3232 72.817 70.3232C72.1648 70.3232 71.5438 70.384 70.9227 70.5359C70.3327 70.6575 69.8358 70.8398 69.4631 71.0222L69.1526 73.3321C69.401 73.2105 69.6495 73.1193 69.929 73.0281C70.2084 72.937 70.4879 72.8458 70.7985 72.785C71.109 72.7242 71.3885 72.6634 71.668 72.6026C71.9475 72.5722 72.227 72.5418 72.4754 72.5418C73.1275 72.5418 73.6554 72.633 74.0591 72.8154C74.4628 72.9977 74.6492 73.3625 74.6492 73.8487V73.9703C74.2765 73.9095 73.966 73.8791 73.6554 73.8791C73.3449 73.8487 73.0654 73.8487 72.817 73.8487C72.1648 73.8487 71.5748 73.9095 71.0469 74.0311C70.519 74.1527 70.0532 74.3654 69.6495 74.6086C69.2768 74.8517 68.9663 75.186 68.7489 75.5811C68.5315 75.9762 68.4073 76.4017 68.4073 76.9184C68.4073 77.4655 68.5315 77.9518 68.78 78.3165C69.0284 78.7116 69.3389 79.0155 69.7737 79.2587C70.1774 79.5018 70.6432 79.6538 71.2022 79.7754C71.7301 79.8969 72.3201 79.9273 72.9101 79.9273C73.5933 79.8969 74.3076 79.8361 75.0218 79.7146ZM74.6492 77.6175C74.4007 77.7086 74.1212 77.7694 73.8107 77.7998C73.5002 77.8302 73.2207 77.8606 72.9101 77.8606C72.3201 77.8606 71.8543 77.7694 71.4506 77.6175C71.0469 77.4351 70.8606 77.1616 70.8606 76.7361C70.8606 76.5233 70.9227 76.341 71.0469 76.189C71.1711 76.037 71.3264 75.9155 71.5127 75.8243C71.699 75.7331 71.9475 75.6723 72.1959 75.6419C72.4443 75.6115 72.7549 75.5811 73.0344 75.5811C73.2828 75.5811 73.5623 75.6115 73.8418 75.6419C74.1212 75.6723 74.4007 75.7331 74.6181 75.7939V77.6175H74.6492ZM63.5629 79.7146H65.923V74.0311C65.923 73.3017 65.8298 72.6634 65.6124 72.2075C65.3951 71.7212 65.1156 71.3565 64.7429 71.0526C64.3703 70.7791 63.9355 70.5663 63.4387 70.4751C62.9418 70.3536 62.3828 70.3232 61.8239 70.3232C61.358 70.3232 60.8301 70.384 60.2401 70.5055C59.6501 70.6271 59.1221 70.7791 58.6253 70.9918C58.3147 70.7487 57.911 70.5663 57.4452 70.4751C56.9794 70.384 56.4826 70.3232 55.9546 70.3232C55.4888 70.3232 54.8988 70.384 54.1846 70.4751C53.5014 70.5663 52.7561 70.6879 52.0108 70.8095V79.7146H54.3709V72.7242L55.1783 72.6026C55.3957 72.5722 55.6441 72.5418 55.8925 72.5418C56.2341 72.5418 56.5136 72.5722 56.762 72.633C57.0105 72.6938 57.1968 72.8154 57.3521 72.9673C57.5073 73.1193 57.6316 73.3321 57.6937 73.6056C57.7558 73.8791 57.8179 74.2135 57.8179 74.639V79.6842H60.178V74.5782C60.178 74.4566 60.178 74.3046 60.1469 74.1223C60.1469 73.9703 60.1159 73.788 60.0848 73.636C60.0538 73.484 60.0227 73.3321 59.9917 73.1801C59.9606 73.0281 59.9296 72.937 59.8985 72.8762C60.178 72.7546 60.4885 72.6634 60.7991 72.5722C61.1096 72.5115 61.4201 72.4811 61.6686 72.4811C62.3207 72.4811 62.7865 72.633 63.0971 72.937C63.4076 73.2409 63.5318 73.788 63.5318 74.639V79.7146H63.5629ZM47.2285 73.9703H42.3219C42.4772 73.484 42.7567 73.0889 43.1914 72.7546C43.6262 72.4507 44.1541 72.2683 44.8062 72.2683C45.4584 72.2683 45.9863 72.4203 46.421 72.6938C46.8248 72.9977 47.1042 73.4232 47.2285 73.9703ZM45.0547 77.6782C44.3094 77.6782 43.6883 77.5263 43.1914 77.2224C42.6946 76.9184 42.353 76.4625 42.1977 75.8243H49.6817C49.7128 74.9429 49.6196 74.1831 49.3712 73.484C49.1227 72.785 48.8122 72.2075 48.3775 71.7212C47.9427 71.235 47.4148 70.8702 46.8248 70.6271C46.2037 70.384 45.5515 70.2624 44.8062 70.2624C44.1231 70.2624 43.4709 70.384 42.8498 70.6271C42.2288 70.8702 41.7008 71.2046 41.2661 71.6301C40.8003 72.0556 40.4587 72.5722 40.1792 73.1497C39.9308 73.7272 39.7755 74.3958 39.7755 75.0948C39.7755 75.7635 39.8997 76.4017 40.1481 76.9792C40.3966 77.5567 40.7692 78.0734 41.235 78.4989C41.7008 78.9244 42.2598 79.2587 42.8809 79.5018C43.502 79.745 44.2162 79.8665 44.9615 79.8665C45.8931 79.8665 46.6695 79.7754 47.3527 79.5626C48.0048 79.3499 48.5948 79.1371 49.0917 78.8636L48.0669 76.8576C47.9427 76.9792 47.7874 77.0704 47.57 77.192C47.3527 77.2831 47.1353 77.3743 46.8869 77.4351C46.6384 77.4959 46.3589 77.5567 46.1105 77.6175C45.831 77.6479 45.5826 77.6782 45.3342 77.6782H45.0547ZM28.1302 79.7146V74.0919H34.6516V79.7146H37.0738V66.6456H34.6516V71.934H28.1302V66.6152H25.708V79.6842H28.1302V79.7146Z" fill="#5B5B5B"/>
<path d="M32.0431 43.4558C31.7947 43.243 31.4842 43.1519 31.1115 43.1519C30.7389 43.1519 30.4594 43.2734 30.211 43.4558C29.9625 43.6381 29.8383 43.9421 29.8383 44.2764C29.8383 44.6411 29.9625 44.945 30.211 45.1274C30.4594 45.3401 30.7699 45.4313 31.1115 45.4313C31.4531 45.4313 31.7637 45.3401 32.0121 45.1274C32.2605 44.9146 32.3847 44.6411 32.3847 44.2764C32.4158 43.9421 32.2916 43.6685 32.0431 43.4558ZM28.4719 43.4558C28.2235 43.243 27.913 43.1519 27.5714 43.1519C27.1987 43.1519 26.8882 43.2734 26.6397 43.4558C26.3913 43.6685 26.2671 43.9421 26.2671 44.3068C26.2671 44.6715 26.3913 44.9754 26.6397 45.1578C26.8882 45.3705 27.1987 45.4617 27.5403 45.4617C27.8819 45.4617 28.1924 45.3705 28.4409 45.1578C28.6893 44.945 28.8135 44.6715 28.8135 44.3068C28.8446 43.9421 28.7204 43.6685 28.4719 43.4558ZM36.4839 57.9836C36.2354 57.7708 35.9249 57.6493 35.5833 57.6493C35.2107 57.6493 34.9001 57.7708 34.6517 57.9836C34.4032 58.1963 34.279 58.4699 34.279 58.8346C34.279 59.1993 34.4032 59.5032 34.6517 59.6856C34.9001 59.8679 35.2107 59.9895 35.5522 59.9895C35.8938 59.9895 36.2044 59.8983 36.4528 59.6856C36.7012 59.5032 36.8255 59.1993 36.8255 58.8346C36.8565 58.4699 36.7323 58.1963 36.4839 57.9836ZM40.0551 57.9836C39.8066 57.7708 39.4961 57.6493 39.1235 57.6493C38.7508 57.6493 38.4403 57.7708 38.2229 57.9836C37.9745 58.1963 37.8502 58.4699 37.8502 58.8346C37.8502 59.1993 37.9745 59.5032 38.2229 59.6856C38.4713 59.8679 38.7819 59.9895 39.1235 59.9895C39.4651 59.9895 39.7756 59.8983 40.024 59.6856C40.2725 59.5032 40.3967 59.1993 40.3967 58.8346C40.4277 58.4699 40.3035 58.1963 40.0551 57.9836Z" fill="#5B5B5B"/>
<path d="M37.167 47.4676V54.2756H32.5089V46.647H30.2109V47.4676H29.8693C28.9687 47.4676 28.1924 47.5892 27.4782 47.8019C26.795 48.045 26.1739 48.349 25.7081 48.7441C25.2423 49.1696 24.8696 49.6255 24.6212 50.2029C24.3728 50.75 24.2485 51.3579 24.2485 52.0265C24.2485 52.7863 24.4038 53.455 24.6522 54.0324C24.9317 54.6099 25.3354 55.0658 25.8323 55.4609C26.3292 55.8256 26.9192 56.1296 27.6024 56.3119C28.2856 56.4943 29.0619 56.5854 29.8693 56.5854H39.465V47.4676H37.167ZM30.2109 54.2756H29.2172C28.8756 54.2756 28.534 54.2148 28.2235 54.1236C27.9129 54.0324 27.6334 53.8805 27.385 53.6981C27.1366 53.5158 26.9502 53.2726 26.795 52.9991C26.6397 52.7256 26.5776 52.3912 26.5776 52.0265C26.5776 51.6618 26.6708 51.3275 26.826 51.0539C26.9813 50.7804 27.1987 50.5373 27.4471 50.3245C27.7266 50.1422 28.0061 49.9902 28.3477 49.8686C28.6893 49.7774 28.9998 49.7167 29.3414 49.7167H30.2109V54.2756Z" fill="#5B5B5B"/>
<path d="M97.3187 49.99C97.0392 49.3518 96.6977 48.8351 96.2318 48.4096C95.8281 48.0145 95.3623 47.7106 94.8034 47.4978C94.2444 47.2851 93.6233 47.1635 92.9401 47.1635C92.2569 47.1635 91.6048 47.2547 91.0148 47.437C90.4247 47.6194 89.8658 47.8625 89.3068 48.1665L90.2695 50.142C90.7042 49.8685 91.1079 49.6861 91.4495 49.5949C91.8222 49.5038 92.2259 49.443 92.6606 49.443C93.468 49.443 94.1202 49.6557 94.617 50.0508C94.8965 50.294 95.1139 50.5979 95.2381 50.9626C95.3623 51.3273 95.4244 51.6616 95.4244 51.996C95.4244 52.3303 95.3934 52.7254 95.3623 53.1509C95.3313 53.5764 95.2381 53.9715 95.145 54.3058H78.0342C78.0652 54.1539 78.0963 53.9715 78.1273 53.7891C78.1584 53.6068 78.1584 53.4548 78.1584 53.2421C78.1584 52.543 78.0342 51.9048 77.7857 51.2969C77.5373 50.6891 77.1647 50.1724 76.6989 49.7469C76.233 49.3214 75.7051 48.9567 75.1151 48.7135C74.494 48.4704 73.8419 48.3488 73.1587 48.3488C72.4755 48.3488 71.8544 48.4704 71.2333 48.7439C70.6433 49.0175 70.1154 49.3518 69.6806 49.8077C69.2459 50.2636 68.8732 50.7803 68.6248 51.3577C68.3764 51.9656 68.2522 52.6038 68.2522 53.2725C68.2522 53.4548 68.2522 53.6372 68.2832 53.8195C68.3143 54.0019 68.3453 54.1539 68.3764 54.3362H47.4459V43.4556H45.1479V56.5245H69.5564C70.0222 57.0108 70.5502 57.3755 71.1712 57.649C71.7923 57.9226 72.4444 58.0745 73.1587 58.0745C73.8729 58.0745 74.5561 57.953 75.1772 57.6794C75.7983 57.4059 76.3573 57.0412 76.8231 56.5549H96.9461C97.0082 56.3118 97.1014 56.0382 97.1945 55.7039C97.2877 55.3696 97.3808 55.0353 97.4429 54.6401C97.5051 54.245 97.5672 53.8499 97.6293 53.4244C97.6914 52.9989 97.7224 52.5734 97.7224 52.1479C97.7224 51.3273 97.5982 50.5979 97.3187 49.99ZM75.643 54.245C75.5188 54.5794 75.3014 54.8225 75.053 55.0656C74.8046 55.3088 74.5251 55.4608 74.1835 55.6127C73.8419 55.7343 73.5003 55.7951 73.1276 55.7951C72.755 55.7951 72.4134 55.7343 72.1029 55.5823C71.7923 55.4304 71.5128 55.2784 71.2644 55.0353C71.016 54.7921 70.8296 54.5186 70.7054 54.2146C70.5812 53.9107 70.5191 53.546 70.5191 53.1813C70.5191 52.8166 70.5812 52.4823 70.7054 52.1479C70.8296 51.8136 71.016 51.5401 71.2644 51.2969C71.4818 51.0538 71.7613 50.8714 72.1029 50.7195C72.4134 50.5979 72.755 50.5067 73.1587 50.5067C73.5624 50.5067 73.904 50.5675 74.2456 50.7195C74.5872 50.841 74.8667 51.0538 75.1151 51.2665C75.3635 51.5097 75.5499 51.7832 75.6741 52.1175C75.7983 52.4519 75.8604 52.7862 75.8604 53.1509C75.8604 53.6068 75.7983 53.9411 75.643 54.245Z" fill="#5B5B5B"/>
<path d="M128.994 56.2207H129.428C129.273 56.2207 129.118 56.2207 128.994 56.2207ZM155.576 57.5884C155.296 57.3756 154.986 57.2541 154.582 57.2541C154.178 57.2541 153.868 57.3756 153.588 57.5884C153.309 57.8011 153.185 58.1051 153.185 58.4394C153.185 58.8345 153.309 59.1384 153.588 59.3512C153.868 59.5639 154.178 59.6551 154.551 59.6551C154.924 59.6551 155.234 59.5639 155.545 59.3512C155.824 59.1384 155.949 58.8345 155.949 58.4394C155.98 58.1051 155.824 57.8011 155.576 57.5884Z" fill="#5B5B5B"/>
<path d="M178.308 50.9932C178.028 50.3854 177.687 49.8687 177.19 49.4432C176.693 49.0177 176.165 48.653 175.544 48.4098C174.923 48.1667 174.24 48.0451 173.525 48.0451C172.811 48.0451 172.159 48.1667 171.538 48.4402C170.917 48.7138 170.389 49.0481 169.923 49.504C169.457 49.9599 169.116 50.4765 168.836 51.054C168.557 51.6619 168.433 52.3001 168.433 52.9688C168.433 53.1511 168.433 53.3335 168.464 53.5158C168.464 53.6982 168.495 53.8502 168.557 54.0021H159.396C159.458 53.6678 159.52 53.3031 159.551 52.9384C159.582 52.5736 159.613 52.2393 159.613 51.8442C159.613 51.0236 159.458 50.2942 159.178 49.6863C158.899 49.0481 158.526 48.5314 158.061 48.1059C157.657 47.7108 157.16 47.4069 156.601 47.1941C156.042 46.9814 155.39 46.8598 154.676 46.8598C153.961 46.8598 153.309 46.951 152.688 47.1333C152.067 47.3157 151.477 47.5588 150.949 47.8628L151.943 49.8383C152.378 49.5648 152.781 49.3824 153.154 49.2912C153.527 49.2 153.93 49.1393 154.396 49.1393C155.235 49.1393 155.918 49.352 156.415 49.7471C156.694 49.9903 156.912 50.2942 157.067 50.6589C157.191 51.0236 157.253 51.3579 157.253 51.6923C157.253 52.0266 157.222 52.4217 157.191 52.8472C157.129 53.2727 157.067 53.6678 156.974 54.0021H145.08V43.1519H142.689V53.9717H129.429C128.994 53.9717 128.559 53.9109 128.124 53.8198C127.69 53.7286 127.348 53.5462 127.069 53.3335C127.162 52.8776 127.224 52.3609 127.224 51.8138V46.0392H124.864V52.1178C124.864 52.756 124.677 53.2423 124.367 53.607C124.025 53.9717 123.528 54.1541 122.845 54.1541C122.193 54.1541 121.665 53.9717 121.293 53.607C120.889 53.2423 120.702 52.6648 120.702 51.8746V47.9539H118.311V51.9658C118.311 52.3609 118.249 52.6952 118.094 52.9384C117.97 53.2119 117.783 53.3943 117.566 53.5766C117.349 53.7286 117.1 53.8502 116.821 53.9109C116.572 53.9717 116.293 54.0021 116.044 54.0021H114.305V47.1637H111.914V56.008H110.548C110.051 56.008 109.554 55.9473 109.119 55.8865C108.685 55.7953 108.312 55.6433 108.001 55.4002C107.753 55.1874 107.567 54.9139 107.442 54.5796C107.349 54.2453 107.287 53.8198 107.287 53.3639V48.3186H104.896V53.5766C104.896 54.2453 104.989 54.8531 105.144 55.461C105.3 56.0688 105.61 56.5551 106.014 56.9198C106.262 57.163 106.542 57.3453 106.852 57.5277C107.132 57.71 107.473 57.8316 107.815 57.9532C108.157 58.0444 108.56 58.1355 108.964 58.1963C109.368 58.2571 109.834 58.2571 110.362 58.2571H114.274V56.2512H116.013C116.665 56.2512 117.287 56.1296 117.877 55.8865C118.467 55.6433 118.963 55.309 119.398 54.8835C119.585 55.1874 119.802 55.4306 120.081 55.6433C120.33 55.8561 120.609 56.008 120.92 56.1296C121.199 56.2512 121.51 56.3424 121.82 56.3728C122.131 56.4335 122.473 56.4335 122.783 56.4335C124.46 56.4335 125.671 55.9473 126.385 54.9747C126.479 55.1267 126.603 55.309 126.758 55.461C126.913 55.6129 127.1 55.7649 127.348 55.8865C127.596 56.008 127.876 56.0992 128.218 56.1904C128.435 56.2512 128.683 56.2816 128.963 56.2816C129.087 56.2816 129.242 56.2816 129.398 56.2816H169.799C170.265 56.7679 170.824 57.1326 171.476 57.4061C172.097 57.6797 172.78 57.8316 173.525 57.8316C174.209 57.8316 174.861 57.71 175.513 57.4669C176.134 57.2238 176.693 56.8894 177.159 56.4639C177.625 56.0384 177.997 55.5218 178.277 54.9443C178.556 54.3668 178.68 53.7286 178.68 53.0295C178.711 52.2393 178.587 51.6011 178.308 50.9932ZM176.134 53.9413C175.979 54.2757 175.792 54.5188 175.544 54.7619C175.295 55.0051 174.985 55.157 174.643 55.309C174.302 55.4306 173.929 55.4914 173.556 55.4914C173.184 55.4914 172.811 55.4306 172.47 55.2786C172.159 55.157 171.848 54.9747 171.6 54.7315C171.352 54.4884 171.165 54.2149 171.041 53.9109C170.917 53.607 170.855 53.2423 170.855 52.8776C170.855 52.5129 170.917 52.1785 171.041 51.8442C171.165 51.5099 171.383 51.2364 171.6 50.9932C171.848 50.7501 172.128 50.5677 172.439 50.4158C172.78 50.2638 173.122 50.203 173.525 50.203C173.929 50.203 174.302 50.2638 174.643 50.4158C174.985 50.5373 175.264 50.7501 175.513 50.9628C175.761 51.206 175.948 51.4795 176.103 51.8138C176.227 52.1481 176.289 52.4825 176.289 52.8472C176.351 53.2727 176.258 53.6374 176.134 53.9413Z" fill="#5B5B5B"/>
</g>
<defs>
<clipPath id="clip0_7121_97731">
<rect width="155" height="41" fill="white" transform="translate(24 43)"/>
</clipPath>
</defs>
</svg>
