<svg width="280" height="120" viewBox="0 0 280 120" fill="none" xmlns="http://www.w3.org/2000/svg">
<g clip-path="url(#clip0_691_385)">
<path d="M28.6923 72.1049H24V85.0886H28.5786C32.9581 85.0886 35.8304 82.1119 35.8304 78.54C35.8304 74.9681 33.0434 72.1049 28.6923 72.1049ZM28.7208 82.5372H26.9576V74.7129H28.7208C31.1665 74.7129 32.8728 76.3855 32.8728 78.6251C32.8728 80.8646 31.2233 82.5655 28.7208 82.5372Z" fill="#5B5B5B"/>
<path d="M46.2388 79.7023C46.2388 81.5166 45.1297 82.5655 43.594 82.5655C42.0583 82.5655 40.9493 81.4883 40.9493 79.7023V72.1049H37.9632V79.8157C37.9632 83.1325 40.153 85.3154 43.5371 85.3154C46.9213 85.3154 49.1679 83.0758 49.1679 79.7307V72.1332H46.2388V79.7023Z" fill="#5B5B5B"/>
<path d="M60.3726 78.3132C61.4249 77.7463 62.0505 76.669 62.0505 75.4784C62.0505 73.3239 60.1736 72.1049 57.9269 72.1049H52.0686V85.0886H58.2682C60.6286 85.0886 62.6193 83.6995 62.6193 81.4599C62.6477 80.0425 61.7377 78.7668 60.3726 78.3132ZM57.3297 77.3494H55.0547V74.4295H57.3297C58.4957 74.4295 59.0929 75.1382 59.0929 75.9036C59.0929 76.669 58.4957 77.3494 57.3297 77.3494ZM55.0547 79.5322H57.7563C58.9223 79.5322 59.6901 80.1842 59.6901 81.1764C59.6901 82.0553 59.0076 82.849 57.7563 82.849H55.0547V79.5322Z" fill="#5B5B5B"/>
<path d="M71.4636 72.1049H68.5629L63.2734 85.0886H66.3731L67.3969 82.3954H72.4589L73.4827 85.0886H76.7247L71.492 72.1616L71.4636 72.1049ZM71.6342 80.0425H68.2501L69.9564 75.5918L71.6342 80.0425Z" fill="#5B5B5B"/>
<path d="M81.3601 72.1049H78.3172V85.0886H81.3601V72.1049Z" fill="#5B5B5B"/>
<path d="M94.7546 72.1049H89.0954V85.0886H92.0529V81.0063H94.6408C97.7406 81.0063 99.6175 78.9936 99.6175 76.4989C99.646 73.7774 97.5416 72.1049 94.7546 72.1049ZM92.0529 74.6279H94.4702C95.8921 74.6279 96.7168 75.5067 96.7168 76.6123C96.7168 77.7179 95.8921 78.5967 94.4702 78.5967H92.0529V74.6279Z" fill="#5B5B5B"/>
<path d="M108.064 71.9348C104.196 71.9348 101.182 74.883 101.182 78.6818C101.182 82.4238 104.054 85.3153 107.978 85.3153C111.846 85.3153 114.861 82.3954 114.861 78.5967C114.861 74.8547 111.988 71.9348 108.064 71.9348ZM108.007 82.5939C105.732 82.5939 104.111 80.893 104.111 78.6251C104.111 76.4139 105.703 74.6846 108.007 74.6846C110.225 74.6846 111.903 76.3855 111.903 78.6251C111.903 80.8646 110.253 82.5939 108.007 82.5939Z" fill="#5B5B5B"/>
<path d="M143.469 81.1764C142.73 82.1119 141.621 82.6222 140.455 82.5939C138.208 82.5939 136.559 80.9213 136.559 78.6251C136.559 76.3288 138.208 74.6846 140.455 74.6846C141.593 74.6562 142.673 75.1382 143.413 76.017L143.469 76.0737L145.631 74.146L145.574 74.0893C144.266 72.6718 142.417 71.9064 140.512 71.9348C136.644 71.9348 133.63 74.883 133.63 78.6818C133.63 82.4805 136.559 85.3153 140.427 85.3153C142.417 85.372 144.351 84.5216 145.659 83.0191L145.716 82.9624L143.555 81.1197L143.469 81.1764Z" fill="#5B5B5B"/>
<path d="M120.178 72.1049H117.221V85.1169H126.492V82.4805H120.178V72.1049Z" fill="#5B5B5B"/>
<path d="M131.241 72.1049H128.198V85.0886H131.241V72.1049Z" fill="#5B5B5B"/>
<path d="M150.437 82.5372V79.6456H156.21V77.2076H150.437V74.6846H157.12V72.1049H147.479V85.1169H157.319V82.5372H150.437Z" fill="#5B5B5B"/>
<path d="M95.7215 40.5528C96.8022 40.5528 97.6553 39.674 97.6553 38.6251C97.6553 37.5478 96.7737 36.6974 95.7215 36.6974C94.6693 36.6974 93.7877 37.5762 93.7877 38.6251C93.7877 39.7023 94.6693 40.5528 95.7215 40.5528Z" fill="#5B5B5B"/>
<path d="M146.74 37.6329C147.821 37.6329 148.674 36.754 148.674 35.7051C148.674 34.6279 147.792 33.7774 146.74 33.7774C145.659 33.7774 144.806 34.6562 144.806 35.7051C144.806 36.7824 145.688 37.6329 146.74 37.6329Z" fill="#5B5B5B"/>
<path d="M144.038 42.1119C145.119 42.1119 145.972 41.2331 145.972 40.1842C145.972 39.107 145.09 38.2565 144.038 38.2565C142.958 38.2565 142.104 39.1353 142.104 40.1842C142.104 41.2331 142.986 42.1119 144.038 42.1119Z" fill="#5B5B5B"/>
<path d="M147.508 40.1842C147.508 41.2615 148.389 42.1119 149.442 42.1119C150.522 42.1119 151.375 41.2331 151.375 40.1842C151.375 39.107 150.494 38.2565 149.442 38.2565C148.361 38.2282 147.508 39.107 147.508 40.1842Z" fill="#5B5B5B"/>
<path d="M154.504 42.5655L151.233 44.5499C152.001 45.7973 154.248 50.163 153.224 56.3713H148.645V44.5499H144.835V56.3713H141.934V44.5499H138.123V56.3713H132.72V42.9908H128.909V57.9872C128.909 61.0489 126.406 63.5436 123.335 63.5436H122.368V67.3423H123.335C127.686 67.3423 131.469 64.3657 132.492 60.1417H156.295L156.636 58.6959C158.684 50.3331 155.527 44.2381 154.504 42.5655Z" fill="#5B5B5B"/>
<path d="M71.8617 42.5372L70.1554 45.939C75.1037 48.4337 75.4165 53.3097 75.0184 56.343H66.5153V60.1417H78.1466L78.4879 58.6392C80.8483 47.9801 74.023 43.6144 71.8617 42.5372Z" fill="#5B5B5B"/>
<path d="M124.416 60.1417L125.411 56.7399C126.321 53.6782 125.724 50.3614 123.819 47.7817C120.463 43.3026 114.093 42.3671 109.599 45.6839C109.429 45.8256 109.258 45.9674 109.088 46.1091L105.732 48.9723V38.6251H101.921V56.343H97.6269V42.9908H93.6739C88.4128 42.9908 84.1471 47.2431 84.1186 52.5159V60.1701H87.9294V52.5159C87.9294 49.3692 90.4888 46.8178 93.6455 46.8178H93.7593V60.1701L124.416 60.1417ZM105.732 53.9901L111.562 49.029C114.235 46.7611 118.245 47.073 120.52 49.7377C120.605 49.8511 120.69 49.9645 120.776 50.0779C121.97 51.6938 122.34 53.7633 121.771 55.691L121.572 56.3713H105.732V53.9901Z" fill="#5B5B5B"/>
<path d="M60.202 62.5797C59.1214 62.5797 58.2682 63.4585 58.2682 64.5074C58.2682 65.5847 59.1498 66.4351 60.202 66.4351C61.2827 66.4351 62.1358 65.5563 62.1358 64.5074C62.1643 63.4585 61.2827 62.5797 60.202 62.5797Z" fill="#5B5B5B"/>
<path d="M39.8402 62.5797C38.7595 62.5797 37.9063 63.4585 37.9063 64.5074C37.9063 65.5563 38.7879 66.4351 39.8402 66.4351C40.9208 66.4351 41.774 65.5563 41.774 64.5074C41.774 63.4585 40.9208 62.5797 39.8402 62.5797Z" fill="#5B5B5B"/>
<path d="M34.9488 62.5797C33.8681 62.5797 33.015 63.4585 33.015 64.5074C33.015 65.5563 33.8965 66.4351 34.9488 66.4351C36.0294 66.4351 36.8826 65.5563 36.8826 64.5074C36.911 63.4585 36.0294 62.5797 34.9488 62.5797Z" fill="#5B5B5B"/>
<path d="M90.9723 40.5528C92.053 40.5528 92.9061 39.674 92.9061 38.6251C92.9061 37.5478 92.0245 36.6974 90.9723 36.6974C89.8916 36.6974 89.0385 37.5762 89.0385 38.6251C89.0385 39.7023 89.8916 40.5528 90.9723 40.5528Z" fill="#5B5B5B"/>
<path d="M60.4011 54.0184C60.4011 55.2941 59.3489 56.343 58.0691 56.343H56.306V42.9908H52.3246C47.1772 42.9908 43.139 47.158 43.139 52.5159V56.3713H27.8107V55.8611C27.8107 51.8639 28.7776 47.9234 30.6546 44.3798L27.2988 42.5939C25.1375 46.6477 24 51.2119 24 55.8327V60.1417H46.9213V52.4876C46.9213 49.2275 49.2248 46.7895 52.2961 46.7895H52.4952V60.1417H58.0691C61.4533 60.1417 64.2118 57.3919 64.2118 54.0184V42.9908H60.4011V54.0184Z" fill="#5B5B5B"/>
<path d="M255.261 64.7626C254.607 64.7342 253.924 64.7626 253.27 64.8759C253.753 64.3373 254.18 63.7703 254.578 63.175C256 60.9638 256.37 58.2424 255.63 55.7193C254.976 55.8327 254.322 56.0028 253.725 56.2579C254.095 55.6343 254.379 54.9823 254.635 54.3302C255.545 51.8639 255.346 49.1141 254.066 46.8178C253.441 47.073 252.843 47.3848 252.303 47.7533C252.531 47.073 252.673 46.3643 252.786 45.6555C253.128 43.0475 252.36 40.411 250.654 38.4266C250.085 38.7952 249.601 39.2204 249.146 39.7023C249.232 38.9936 249.232 38.2849 249.175 37.5762C248.976 34.9681 247.668 32.5584 245.563 30.9709C245.108 31.4528 244.682 31.9631 244.34 32.5301C244.255 31.8214 244.113 31.1127 243.914 30.4323C243.174 27.9093 241.383 25.8398 238.994 24.7342C238.653 25.3012 238.368 25.8965 238.141 26.5202C237.913 25.8398 237.629 25.1878 237.288 24.5641C236.036 22.2395 233.847 20.5953 231.259 20.0283C230.804 21.304 230.633 22.6931 230.775 24.0255C230.491 23.7987 230.15 23.6003 229.808 23.3735C227.562 22.0127 224.832 21.6725 222.329 22.438C222.812 25.0177 224.377 27.2856 226.652 28.618C226.993 28.8164 227.334 29.0149 227.675 29.1566C226.396 29.6385 225.258 30.4323 224.348 31.4528C225.77 33.0971 227.704 34.2027 229.865 34.5145C230.889 36.3855 232.567 37.8596 234.558 38.6251C235.155 40.6662 236.491 42.4521 238.283 43.6144C238.454 45.7406 239.364 47.7533 240.871 49.2842C240.586 51.4103 241.041 53.5648 242.207 55.3791C241.468 57.3919 241.468 59.6031 242.236 61.6158C241.098 63.4302 240.643 65.5847 240.956 67.7108C239.449 69.2416 238.539 71.2544 238.397 73.4089C236.605 74.5995 235.297 76.3855 234.7 78.4266C232.709 79.2204 231.031 80.6662 230.036 82.5655C227.903 82.9057 225.998 83.983 224.604 85.6272C221.988 85.4854 219.457 86.4776 217.637 88.3487C216.385 89.596 215.646 90.8433 215.276 91.9773C214.935 93.1112 213.741 93.7633 212.575 93.4231C211.864 93.2246 211.323 92.6577 211.124 91.9773C210.755 90.815 210.015 89.596 208.764 88.3487C206.944 86.4776 204.413 85.5138 201.797 85.6272C200.403 83.983 198.498 82.9057 196.365 82.5372C195.341 80.6378 193.692 79.192 191.701 78.3983C191.104 76.3288 189.796 74.5712 188.004 73.3806C187.862 71.2544 186.952 69.2133 185.444 67.6825C185.757 65.5563 185.302 63.4018 184.165 61.5875C184.904 59.5747 184.933 57.3635 184.193 55.3508C185.359 53.5365 185.814 51.382 185.53 49.2558C187.037 47.725 187.975 45.7122 188.118 43.5861C189.909 42.4238 191.246 40.6378 191.843 38.5967C193.862 37.8313 195.512 36.3855 196.535 34.4862C198.697 34.146 200.631 33.0687 202.052 31.4245C201.142 30.4039 199.976 29.6385 198.725 29.1283C199.066 28.9582 199.408 28.7881 199.749 28.5896C202.024 27.2572 203.588 25.0177 204.072 22.438C201.569 21.6442 198.81 21.9844 196.592 23.3735C196.251 23.5719 195.938 23.7987 195.625 24.0255C195.768 22.6647 195.625 21.304 195.142 20.0283C192.583 20.5953 190.364 22.2679 189.113 24.5641C188.772 25.1878 188.487 25.8398 188.26 26.5202C188.032 25.8965 187.748 25.3012 187.407 24.7342C185.018 25.8398 183.226 27.9093 182.487 30.4323C182.288 31.1127 182.146 31.8214 182.06 32.5301C181.719 31.9631 181.321 31.4245 180.837 30.9709C178.733 32.5584 177.396 34.9681 177.226 37.6045C177.169 38.3132 177.169 39.0219 177.254 39.759C176.799 39.2771 176.287 38.8519 175.719 38.455C173.984 40.4394 173.216 43.0758 173.586 45.6839C173.671 46.3926 173.842 47.1013 174.069 47.7817C173.529 47.4132 172.932 47.1013 172.306 46.8462C171.026 49.1424 170.827 51.8922 171.737 54.3586C171.965 55.039 172.278 55.691 172.647 56.2863C172.022 56.0312 171.396 55.8611 170.742 55.7477C170.002 58.2707 170.372 60.9922 171.794 63.2034C172.164 63.7987 172.619 64.3657 173.102 64.9043C172.448 64.7909 171.766 64.7342 171.112 64.7909C170.912 67.399 171.851 69.9787 173.699 71.8497C174.183 72.36 174.752 72.8419 175.32 73.2388C174.666 73.2672 173.984 73.3522 173.358 73.5223C173.728 76.1304 175.178 78.455 177.396 79.9008C177.994 80.2976 178.619 80.6378 179.273 80.9213C178.619 81.0914 177.994 81.3182 177.425 81.63C178.335 84.0964 180.24 86.0808 182.714 87.0163C183.368 87.2714 184.079 87.4982 184.762 87.6116C184.165 87.8951 183.596 88.2636 183.084 88.6888C184.478 90.9 186.781 92.4309 189.397 92.8278C190.108 92.9411 190.819 92.9978 191.53 92.9978C191.018 93.4231 190.535 93.8767 190.108 94.4153C191.957 96.3146 194.516 97.3069 197.161 97.1651C197.872 97.1368 198.583 97.0517 199.294 96.8816C198.867 97.3919 198.498 97.9589 198.213 98.5542C200.403 100 203.133 100.454 205.664 99.7448C206.773 99.4613 207.825 99.0078 208.792 98.3557C211.437 96.5698 214.907 96.5698 217.551 98.3557C218.518 98.9794 219.57 99.4613 220.68 99.7448C223.211 100.454 225.941 100 228.13 98.5542C227.846 97.9589 227.476 97.3919 227.05 96.8816C227.761 97.0517 228.472 97.1368 229.183 97.1651C231.827 97.3069 234.387 96.3146 236.235 94.4436C235.809 93.9334 235.354 93.4514 234.813 93.0262C235.524 93.0545 236.235 92.9978 236.946 92.8561C239.563 92.4592 241.838 90.9284 243.26 88.7172C242.748 88.292 242.179 87.9234 241.582 87.6399C242.293 87.4982 242.975 87.2998 243.629 87.0446C246.103 86.1091 248.009 84.1247 248.919 81.6584C248.322 81.3465 247.696 81.1197 247.07 80.9497C247.724 80.6662 248.35 80.326 248.947 79.9291C251.137 78.4833 252.616 76.1587 252.986 73.5506C252.331 73.3805 251.677 73.2955 251.023 73.2672C251.621 72.8419 252.161 72.3883 252.644 71.8781C254.493 69.9504 255.431 67.3706 255.261 64.7626ZM197.474 84.4082C199.038 85.0035 200.346 86.0524 201.256 87.4699C202.394 89.2275 202.763 90.7867 202.479 92.1757C201.114 91.8639 199.863 90.8717 198.725 89.1141C197.815 87.6966 197.36 86.0808 197.474 84.4082ZM192.383 80.4677C193.777 81.3749 194.829 82.7073 195.426 84.2665C196.166 86.2225 196.194 87.81 195.654 89.1141C194.374 88.5188 193.35 87.2714 192.611 85.3154C191.985 83.7845 191.928 82.0836 192.383 80.4677ZM188.231 75.5634C189.397 76.7257 190.165 78.2565 190.393 79.9008C190.706 81.9702 190.393 83.5294 189.568 84.6917C188.459 83.8412 187.72 82.4238 187.407 80.3543C187.151 78.7101 187.464 77.0375 188.231 75.5634ZM185.217 69.8937C186.127 71.2827 186.525 72.927 186.411 74.5996C186.269 76.6974 185.644 78.1431 184.591 79.107C183.681 78.0297 183.255 76.4989 183.397 74.4011C183.511 72.7285 184.136 71.1694 185.217 69.8937ZM179.558 60.652C180.326 59.1779 181.577 58.0156 183.056 57.3068C183.283 58.9511 182.999 60.6236 182.203 62.0694C181.207 63.9121 180.041 64.9893 178.705 65.4429C178.306 64.0538 178.562 62.4947 179.558 60.652ZM178.051 57.9589C177.965 56.5414 178.534 55.0673 179.899 53.4798C180.98 52.2041 182.43 51.3253 184.023 50.9284C183.909 52.5726 183.255 54.1601 182.174 55.4075C180.837 56.995 179.444 57.8171 178.051 57.9589ZM180.752 67.7108C181.207 66.1233 182.146 64.7059 183.482 63.6853C184.051 65.2445 184.136 66.9454 183.653 68.5329C183.084 70.5457 182.146 71.8497 180.923 72.5584C180.269 71.3111 180.183 69.7236 180.752 67.7108ZM183.539 48.9156C181.861 50.1913 180.354 50.7016 178.961 50.5315C179.16 49.1424 180.041 47.81 181.719 46.5343C183.027 45.5138 184.648 44.9468 186.298 44.9185C185.814 46.506 184.876 47.9234 183.539 48.9156ZM199.749 31.4812C198.441 32.5017 196.82 33.0404 195.142 33.0687C193.038 33.0971 191.53 32.6151 190.478 31.6513C191.473 30.6591 192.981 30.0921 195.085 30.0638C196.763 30.0354 198.412 30.5173 199.749 31.4812ZM197.36 24.7059C198.782 23.827 200.431 23.4585 202.109 23.6003C201.484 25.1311 200.346 26.4068 198.924 27.2572C197.133 28.3345 195.569 28.6747 194.175 28.3628C194.545 27.0021 195.54 25.7831 197.36 24.7059ZM190.45 25.3012C191.246 23.827 192.497 22.6647 194.004 21.9844C194.232 23.6286 193.891 25.3012 193.094 26.747C192.071 28.5896 190.905 29.6385 189.54 30.0638C189.198 28.703 189.454 27.1438 190.45 25.3012ZM189.511 34.5712C191.132 34.1743 192.81 34.3161 194.346 34.9681C193.265 36.2438 191.815 37.1226 190.194 37.4911C188.146 37.973 186.554 37.8029 185.359 37.0942C186.099 35.9036 187.464 35.0531 189.511 34.5712ZM183.937 30.8859C184.421 29.2983 185.388 27.9093 186.696 26.9171C187.265 28.4762 187.293 30.1772 186.81 31.7647C186.212 33.7774 185.274 35.0531 184.023 35.7618C183.397 34.4862 183.34 32.8986 183.937 30.8859ZM184.961 40.1275C186.468 39.3905 188.146 39.192 189.796 39.5039C188.999 40.978 187.776 42.1403 186.269 42.849C184.364 43.7562 182.771 43.9263 181.435 43.4727C181.918 42.1403 183.056 41.0347 184.961 40.1275ZM178.761 37.6896C178.875 36.0453 179.529 34.4578 180.638 33.2105C181.52 34.6279 181.918 36.2721 181.776 37.9163C181.605 40.0141 180.98 41.4599 179.899 42.3954C178.989 41.3182 178.591 39.7874 178.761 37.6896ZM176.003 40.6945C177.169 41.8852 177.908 43.416 178.107 45.0602C178.392 47.1297 178.051 48.6888 177.226 49.8228C176.117 48.944 175.406 47.5265 175.121 45.4571C174.894 43.8129 175.207 42.1403 176.003 40.6945ZM173.045 48.9723C174.439 49.9078 175.463 51.2402 176.031 52.7994C176.742 54.7838 176.771 56.3713 176.174 57.647C174.894 57.0234 173.898 55.776 173.188 53.82C172.619 52.2608 172.59 50.5599 173.045 48.9723ZM171.908 57.6754C173.443 58.299 174.752 59.3763 175.633 60.7937C176.742 62.5797 177.112 64.1389 176.799 65.4996C175.434 65.1594 174.183 64.1672 173.074 62.3813C172.192 60.9638 171.794 59.3196 171.908 57.6754ZM174.809 70.7441C173.643 69.5535 172.903 68.0227 172.676 66.3784C174.325 66.6619 175.832 67.4557 176.97 68.6463C178.42 70.1772 179.103 71.5946 179.103 73.012C177.681 72.9553 176.259 72.2466 174.809 70.7441ZM178.25 78.5967C176.856 77.6896 175.804 76.3572 175.235 74.798C176.885 74.7129 178.534 75.1949 179.927 76.102C181.691 77.2643 182.629 78.54 182.942 79.9008C181.548 80.1559 179.984 79.759 178.25 78.5967ZM183.255 85.5421C181.691 84.9468 180.382 83.8696 179.501 82.4521C181.122 82.0269 182.8 82.1403 184.364 82.764C186.326 83.5294 187.52 84.5783 188.118 85.854C186.81 86.3926 185.217 86.3076 183.255 85.5421ZM189.625 91.2969C187.975 91.0418 186.468 90.248 185.302 89.0574C186.781 88.292 188.459 88.0368 190.108 88.3203C192.184 88.6605 193.578 89.4259 194.431 90.5599C193.265 91.3536 191.701 91.6371 189.625 91.2969ZM197.076 95.5492C195.426 95.6343 193.777 95.1807 192.383 94.2735C193.663 93.2246 195.284 92.6293 196.934 92.5443C199.038 92.4309 200.574 92.8845 201.626 93.82C200.659 94.8689 199.18 95.4642 197.076 95.5492ZM205.266 98.1573C203.673 98.5825 201.967 98.4975 200.403 97.9022C201.455 96.5981 202.877 95.691 204.47 95.2657C206.489 94.7271 208.081 94.8405 209.333 95.5209C208.622 96.7399 207.285 97.647 205.266 98.1573ZM205.494 91.5237C204.299 90.3614 203.531 88.8306 203.304 87.1864C204.953 87.4415 206.46 88.2069 207.626 89.3976C209.105 90.8717 209.788 92.3175 209.816 93.7349C208.394 93.7066 206.972 92.9978 205.494 91.5237ZM254.407 57.647C254.55 59.2913 254.123 60.9638 253.241 62.3529C252.132 64.1389 250.881 65.1311 249.516 65.4713C249.232 64.0822 249.573 62.5514 250.682 60.7654C251.564 59.348 252.872 58.2424 254.407 57.647ZM253.27 48.944C253.753 50.5315 253.696 52.2324 253.128 53.7916C252.417 55.776 251.421 56.995 250.142 57.6187C249.573 56.343 249.573 54.7271 250.284 52.7711C250.853 51.2119 251.876 49.8795 253.27 48.944ZM248.236 45.0602C248.435 43.416 249.175 41.8852 250.341 40.6945C251.137 42.1403 251.45 43.8129 251.222 45.4571C250.938 47.5265 250.227 48.944 249.118 49.8228C248.265 48.6888 247.952 47.1297 248.236 45.0602ZM244.141 62.0694C243.345 60.6236 243.061 58.9511 243.288 57.3068C244.795 58.0156 246.018 59.2062 246.786 60.652C247.781 62.4947 248.009 64.0822 247.639 65.4429C246.303 64.9893 245.137 63.9121 244.141 62.0694ZM245.421 72.5868C244.198 71.8781 243.288 70.574 242.691 68.5613C242.236 66.9738 242.293 65.2728 242.861 63.7136C244.17 64.7342 245.137 66.1233 245.592 67.7392C246.16 69.7519 246.103 71.3394 245.421 72.5868ZM244.17 55.4358C243.089 54.1885 242.435 52.601 242.321 50.9567C243.942 51.3536 245.393 52.2324 246.445 53.5081C247.81 55.0956 248.379 56.5981 248.293 57.9872C246.9 57.8455 245.535 57.0234 244.17 55.4358ZM245.734 33.2388C246.814 34.4862 247.468 36.0453 247.611 37.7179C247.781 39.8157 247.383 41.3465 246.473 42.4238C245.421 41.4883 244.767 40.0425 244.596 37.9447C244.454 36.3005 244.852 34.6279 245.734 33.2388ZM239.62 26.8887C240.956 27.8809 241.923 29.27 242.406 30.8575C243.004 32.8703 242.947 34.4578 242.293 35.7051C241.07 35.0248 240.131 33.7207 239.506 31.708C239.022 30.1488 239.079 28.4479 239.62 26.8887ZM232.339 21.9844C233.847 22.6647 235.098 23.827 235.894 25.3012C236.918 27.1438 237.174 28.703 236.804 30.0638C235.439 29.6385 234.273 28.5896 233.249 26.747C232.425 25.3012 232.112 23.6286 232.339 21.9844ZM227.419 27.2572C225.998 26.4068 224.888 25.1311 224.234 23.6003C225.884 23.4585 227.562 23.827 228.984 24.7059C230.775 25.7831 231.799 27.0021 232.169 28.3628C230.775 28.6747 229.24 28.3628 227.419 27.2572ZM231.173 33.0687C229.524 33.0404 227.903 32.5017 226.566 31.4812C227.931 30.5173 229.552 30.0354 231.202 30.0638C233.306 30.0921 234.813 30.6591 235.809 31.6513C234.785 32.6151 233.278 33.0971 231.173 33.0687ZM231.998 34.9681C233.534 34.3161 235.212 34.1743 236.833 34.5712C238.88 35.0531 240.217 35.9036 240.985 37.0942C239.762 37.8029 238.169 37.973 236.15 37.4911C234.529 37.1226 233.079 36.2438 231.998 34.9681ZM236.548 39.5039C238.198 39.192 239.875 39.3905 241.383 40.1275C243.288 41.0347 244.426 42.1403 244.909 43.4727C243.572 43.9263 241.98 43.7562 240.075 42.849C238.567 42.1403 237.344 40.978 236.548 39.5039ZM240.046 44.8901C241.696 44.9185 243.316 45.4854 244.625 46.506C246.303 47.7817 247.156 49.1141 247.383 50.5032C245.99 50.6733 244.454 50.163 242.805 48.8873C241.468 47.8951 240.501 46.4776 240.046 44.8901ZM241.127 69.8937C242.207 71.1694 242.833 72.7285 242.947 74.4011C243.089 76.4989 242.662 78.0297 241.752 79.107C240.7 78.1715 240.075 76.6974 239.932 74.5996C239.819 72.927 240.245 71.2827 241.127 69.8937ZM235.951 79.9008C236.178 78.2565 236.946 76.7257 238.112 75.5634C238.88 77.0375 239.193 78.7101 238.937 80.3543C238.624 82.4238 237.885 83.8412 236.776 84.6917C235.951 83.5577 235.638 81.9702 235.951 79.9008ZM230.917 84.2665C231.486 82.7073 232.567 81.3749 233.96 80.4677C234.415 82.0553 234.33 83.7562 233.761 85.3154C233.022 87.2714 231.998 88.4904 230.718 89.1141C230.15 87.8384 230.178 86.2225 230.917 84.2665ZM225.088 87.4699C225.969 86.0808 227.306 85.0035 228.841 84.4082C228.955 86.0524 228.529 87.6966 227.619 89.0857C226.481 90.8433 225.23 91.8356 223.865 92.1474C223.58 90.7867 223.978 89.2275 225.088 87.4699ZM218.717 89.3976C219.883 88.2069 221.391 87.4415 223.04 87.1864C222.784 88.8306 222.016 90.3331 220.85 91.5237C219.371 93.0262 217.95 93.7066 216.528 93.7349C216.556 92.3175 217.239 90.9 218.717 89.3976ZM221.106 98.1573C219.087 97.6187 217.75 96.7399 217.011 95.5209C218.234 94.8405 219.826 94.7271 221.874 95.2657C223.495 95.691 224.917 96.5981 225.941 97.9022C224.405 98.4975 222.699 98.6109 221.106 98.1573ZM229.268 95.5492C227.164 95.4358 225.685 94.8405 224.718 93.82C225.77 92.8845 227.306 92.4309 229.41 92.5443C231.06 92.601 232.681 93.2246 233.96 94.2735C232.595 95.1807 230.946 95.6343 229.268 95.5492ZM236.719 91.2686C234.643 91.6088 233.079 91.3536 231.913 90.5315C232.766 89.3976 234.159 88.6321 236.235 88.292C237.885 88.0085 239.563 88.2636 241.041 89.029C239.875 90.248 238.368 91.0134 236.719 91.2686ZM243.089 85.5421C241.127 86.3076 239.534 86.3926 238.226 85.854C238.823 84.5783 240.018 83.5294 241.98 82.764C243.516 82.1403 245.222 82.0269 246.843 82.4521C245.961 83.8696 244.653 84.9468 243.089 85.5421ZM251.109 74.798C250.54 76.3572 249.488 77.6896 248.094 78.5967C246.331 79.759 244.795 80.1559 243.402 79.9008C243.715 78.5117 244.653 77.2643 246.416 76.102C247.81 75.1665 249.459 74.7129 251.109 74.798ZM247.241 73.012C247.241 71.5946 247.924 70.1488 249.374 68.6463C250.511 67.4557 252.019 66.6619 253.668 66.3784C253.441 68.0227 252.701 69.5535 251.535 70.7441C250.085 72.2466 248.663 72.9837 247.241 73.012Z" fill="#5B5B5B"/>
<path d="M189.397 63.2317V64.309C190.762 66.9454 192.298 69.4684 194.004 71.9064H190.194C190.194 71.9064 190.962 73.4656 193.293 73.4656H233.079C235.439 73.4656 236.178 71.9064 236.178 71.9064H232.681C234.444 69.2983 236.065 66.5769 237.487 63.7703H239.392V60.7937H229.04C218.149 51.9773 215.817 36.8958 222.158 25.613C203.986 29.1849 190.364 44.8901 189.397 63.2317ZM190.194 63.2601C195.569 59.9433 201.711 58.0439 208.025 57.6754V63.2601H190.194ZM228.102 62.0411L227.192 63.2601H210.47V57.6187C216.641 57.647 222.67 59.1779 228.102 62.0411ZM224.689 58.7526C213.741 54.5003 201.484 55.2657 191.189 60.8788C193.123 45.2587 204.157 32.3033 219.315 27.8809C214.992 38.3416 217.096 50.3614 224.689 58.7526Z" fill="#5B5B5B"/>
<path d="M211.409 86.6194H214.935C217.295 86.6194 218.035 85.0602 218.035 85.0602H208.28C208.309 85.0602 209.048 86.6194 211.409 86.6194Z" fill="#5B5B5B"/>
<path d="M225.144 81.7718H201.199C201.199 81.7718 201.967 83.3309 204.299 83.3309H222.016C224.377 83.3309 225.144 81.7718 225.144 81.7718Z" fill="#5B5B5B"/>
<path d="M230.548 78.4833H195.796C195.796 78.4833 196.564 80.0425 198.896 80.0425H227.419C229.808 80.0425 230.548 78.4833 230.548 78.4833Z" fill="#5B5B5B"/>
<path d="M233.847 75.1949H192.497C192.497 75.1949 193.265 76.754 195.597 76.754H230.747C233.107 76.754 233.847 75.1949 233.847 75.1949Z" fill="#5B5B5B"/>
</g>
<defs>
<clipPath id="clip0_691_385">
<rect width="232" height="80" fill="white" transform="translate(24 20)"/>
</clipPath>
</defs>
</svg>
