<?xml version="1.0" encoding="UTF-8"?>
<svg id="Layer_1" data-name="Layer 1" xmlns="http://www.w3.org/2000/svg" viewBox="0 0 280 120">
  <defs>
    <style>
      .cls-1 {
        fill: #5b5b5b;
      }
    </style>
  </defs>
  <g>
    <path class="cls-1" d="M133.71,77.59h-2.97v-13.13h-3.43v-2.99h9.87v2.99h-3.45s-.03,13.13-.03,13.13Z"/>
    <path class="cls-1" d="M147.08,61.47h2.99v16.1h-2.99v-6.71h-3.56v6.71h-2.99v-16.1h2.99v6.71h3.56v-6.71Z"/>
    <path class="cls-1" d="M163.06,77.57h-9.17v-16.1h9.16l.02,2.67h-6.19v4.07h4.37v2.67h-4.37v4.02h6.18v2.67h0Z"/>
  </g>
  <g>
    <path class="cls-1" d="M135.94,80.3c.58,0,1.06,.47,1.06,1.05v3.94h-2.99v-1.86c0-.26-.21-.46-.46-.46h-2.97v10.76h2.94c.27,0,.49-.22,.49-.49v-1.84h2.99v3.94c0,.58-.47,1.05-1.06,1.05h-7.31c-.58,0-1.06-.47-1.06-1.05v-13.99c0-.58,.47-1.05,1.06-1.05h7.31Z"/>
    <path class="cls-1" d="M143.45,80.3v13.43h6.93v2.67h-9.64c-.21,0-.3-.09-.3-.3l.02-15.8s2.99,0,2.99,0Z"/>
    <path class="cls-1" d="M153.47,96.39v-16.1h2.99v16.1h-2.99Z"/>
    <path class="cls-1" d="M160.28,96.39v-16.1h9.47v2.67h-6.47v4.05h4.14v2.67h-4.14v6.71h-2.99Z"/>
    <path class="cls-1" d="M173.2,96.39v-16.1h9.47v2.67h-6.47v4.05h4.14v2.67h-4.14v6.71h-2.99Z"/>
  </g>
  <path class="cls-1" d="M97.33,47.26l20.27,52.74V51.25c0-1.74,1.41-3.16,3.16-3.16h43.6l-39.74-28.1-11.21,28.65-16.09-1.39Z"/>
</svg>