<?xml version="1.0" encoding="UTF-8"?>
<svg id="Layer_1" data-name="Layer 1" xmlns="http://www.w3.org/2000/svg" viewBox="0 0 280 120">
  <defs>
    <style>
      .cls-1 {
        fill: #fff;
      }

      .cls-2 {
        fill: #5b5b5b;
      }
    </style>
  </defs>
  <circle class="cls-2" cx="140" cy="60" r="40.03"/>
  <g>
    <path class="cls-1" d="M132.84,72.39v-6.74c0-.38,.29-.63,.63-.63h3.75c.34,.08,.55,.42,.46,.8-.04,.25-.25,.42-.46,.46h-3.12v2.11h2.65c.34,.08,.55,.42,.46,.8-.04,.25-.25,.42-.46,.46h-2.65v2.74c0,.38-.29,.63-.63,.63-.38-.04-.63-.29-.63-.63Z"/>
    <path class="cls-1" d="M144.89,66.03c1.56,1.6,1.56,4.17,0,5.77-.72,.76-1.69,1.22-2.74,1.22s-2.06-.42-2.82-1.22c-1.52-1.64-1.52-4.13,0-5.77,.72-.76,1.73-1.22,2.78-1.22s2.11,.42,2.78,1.22Zm-.13,2.87c0-.76-.29-1.43-.76-1.98-.93-1.01-2.49-1.1-3.5-.17l-.17,.17c-.51,.55-.8,1.26-.76,1.98,0,.72,.29,1.43,.76,1.94,.88,1.01,2.44,1.1,3.46,.21l.21-.21c.46-.51,.76-1.18,.76-1.94Z"/>
    <path class="cls-1" d="M153.61,66.03c1.56,1.6,1.56,4.17,0,5.77-.72,.76-1.69,1.22-2.74,1.22s-2.06-.46-2.78-1.22c-1.52-1.64-1.52-4.13,0-5.77,.72-.76,1.73-1.22,2.78-1.22s2.02,.42,2.74,1.22Zm-.17,2.87c0-.76-.29-1.43-.76-1.98-.93-1.01-2.49-1.1-3.5-.17l-.17,.17c-.51,.55-.8,1.26-.76,1.98,0,.72,.29,1.43,.76,1.94,.88,1.01,2.44,1.1,3.46,.21l.21-.21c.46-.51,.76-1.18,.76-1.94Z"/>
    <path class="cls-1" d="M155.76,72.39v-6.74c0-.38,.29-.63,.63-.63h1.35c2.19,0,4,1.81,4,4s-1.81,4-4,4h-1.39c-.29-.04-.59-.29-.59-.63Zm1.26-.63h.72c1.52-.08,2.65-1.35,2.61-2.87-.08-1.39-1.18-2.53-2.61-2.61h-.76l.04,5.48Z"/>
    <path class="cls-1" d="M114.42,56.38v6.74c0,.38-.29,.63-.63,.63-.38,0-.63-.29-.63-.63v-4.8l-1.64,2.28c-.13,.17-.29,.25-.51,.25s-.42-.08-.55-.25l-1.64-2.28v4.8c-.08,.34-.42,.55-.8,.46-.25-.04-.42-.25-.46-.46v-6.74c0-.38,.29-.63,.63-.63,.21,0,.38,.08,.51,.25l2.28,3.16,2.23-3.16c.13-.17,.29-.25,.51-.25,.42,0,.72,.25,.72,.63Z"/>
    <path class="cls-1" d="M121.84,56.84l-2.36,3.2v3.08c0,.38-.29,.63-.63,.63-.38,0-.63-.29-.63-.63v-3.08l-2.32-3.2c-.21-.25-.17-.63,.08-.84l.04-.04c.25-.21,.63-.17,.84,.13v.04l1.94,2.7,1.94-2.7c.29-.21,.67-.17,.93,.13,.13,.17,.17,.42,.08,.63l.08-.04Z"/>
    <path class="cls-1" d="M137.56,57.47c0-.67-.08-1.39-.25-2.06-.38-1.56-1.1-2.99-2.11-4.26,.59-.55,.76-.76,.76-.97v-.08l-.17-.29h-.17c-.08,0-.17,0-1.1,.55-.13-.17-.29-.29-.46-.46-2.15-1.94-4.09-2.91-5.73-2.91h-.42c-.34,0-.72,.08-1.05,.17-1.73,.63-2.61,1.47-2.61,2.49s.8,2.02,2.49,2.78c-.29,3.2-.63,5.98-1.01,8.34-.17,.93-.29,1.31-.34,1.52h-.17c-.88-.04-1.77,.21-2.49,.72-.59,.42-.97,1.05-1.05,1.77v.13c0,.13,.04,.29,.08,.42,.21,.67,.8,1.1,1.47,1.14h.08c1.05,0,2.02-.84,2.91-2.53l.51,.04c1.64,.51,3.37,.8,5.1,.93,1.39,.04,2.74-.55,3.67-1.56,1.31-1.52,2.02-3.41,2.11-5.39l-.04-.46Zm-9.23-8.89c.76,.13,1.52,.38,2.19,.76,.8,.51,1.56,1.1,2.23,1.77-.88,.25-1.77,.38-2.7,.38-.59,0-1.22-.04-1.81-.17l.08-2.36,.04-.29-.04-.08Zm-1.22,.21c-.17,.08-.21,.34-.25,.76,0,.25-.04,.63-.08,1.1-.76-.46-1.14-.93-1.14-1.35v-.21s.04-.08,.04-.13c.42-.29,.88-.46,1.39-.51h.46c-.13,.08-.29,.21-.42,.34Zm5.39,14.41h-.17c-.42,0-.88-.04-1.31-.13-2.57-.46-3.71-.63-4.21-.72,.34-1.05,.55-2.11,.72-3.2,.38-3.03,.59-5.1,.63-6.24,.46,.08,.88,.13,1.35,.13,1.43,0,2.87-.34,4.17-.93,1.47,1.64,2.28,3.75,2.32,5.98,0,.72-.08,1.43-.29,2.11-.51,2.02-1.56,2.99-3.2,2.99Zm-9.4,1.18v-.17c.17-.38,.59-.59,.97-.55l.63,.04-.04,.08c-.38,.8-.8,1.22-1.26,1.22-.08,0-.25,0-.34-.46l.04-.17Z"/>
    <path class="cls-1" d="M153.99,54.35h.13c.08,0,.17,0,.25-.04,.13-.04,.25-.08,.38-.17,.17-.13,.25-.25,.29-.46v-.63c0-.17-.13-.34-.29-.38-.13-.04-.21-.04-.34,0s-.25,.08-.38,.13c-.21,.08-.34,.29-.38,.55v.67c-.04,.17,.13,.34,.34,.34Z"/>
    <path class="cls-1" d="M172.57,59.66c-.04-.08-.04-.21-.08-.29-.08-.17-.25-.25-.42-.17-.08,.04-.17,.13-.21,.21s-.04,.17-.04,.29c-.04,.13-.04,.25-.08,.38-.08,.29-.17,.55-.34,.8s-.34,.46-.55,.63c-.21,.21-.46,.42-.72,.59l-.25,.17v-.29c0-.38,0-.76,.04-1.14,0-.38,0-.8,.04-1.18s.04-.76,.04-1.1v-1.22c0-.13-.04-.21-.13-.29-.13-.08-.29-.13-.42-.13l-.08,.08-.21-.13c-.17-.08-.29-.13-.46-.17s-.34-.13-.51-.13c-.17-.04-.34-.04-.55,0s-.42,.08-.59,.17c-.21,.08-.42,.21-.59,.38-.21,.17-.38,.34-.55,.51s-.34,.38-.46,.59c-.13,.25-.21,.46-.29,.76s-.17,.59-.17,.88c0,.13-.08,.29-.13,.46s-.13,.42-.25,.63c-.08,.21-.17,.38-.29,.59-.08,.13-.21,.25-.34,.38-.04,.04-.13,.08-.21,.08s-.13-.04-.21-.08c-.04-.04-.08-.08-.13-.17s-.04-.21-.08-.29v-.38c0-.46-.04-.93-.04-1.35,0-.46-.08-.93-.21-1.39v-.04c-.13-.29-.29-.59-.51-.88-.25-.29-.55-.55-.88-.72-.13-.08-.25-.13-.38-.13-.34-.04-.63-.04-.97,.04-.21,.04-.38,.13-.55,.25-.21,.13-.38,.25-.51,.42l-.13,.17c-.08-.13-.21-.21-.34-.29-.29-.17-.63-.17-.93,0-.17,.08-.34,.17-.46,.29s-.25,.29-.34,.46c-.13,.17-.21,.38-.29,.59s-.17,.42-.21,.72l-.55,1.94-.08,.17-.04,.04-.04,.08-.08,.13-.04,.04-.08,.08-.08,.08-.04,.04-.08,.04h-.13l-.29-.29-.04-.25c0-.08,0-.17-.04-.29v-4.26l-.08-.08-.04-.04s-.08-.04-.13-.08-.08-.04-.17-.04c-.13,0-.29,0-.42,.04l-.17,.08s-.08,.04-.13,.08l-.08,.04-.08,.08-.04,.08v1.22c-.04,.34-.08,.72-.08,1.01v.21l-.08,.34c-.04,.13-.08,.34-.13,.55s-.13,.38-.21,.59c-.08,.17-.17,.38-.25,.55-.08,.13-.17,.25-.29,.38-.08,.08-.17,.13-.25,.17h-.29s-.13,0-.17-.04c-.04,0-.08-.04-.13-.08-.13-.13-.25-.29-.34-.46s-.17-.38-.25-.59-.13-.46-.17-.67l-.17-.67,.29-1.01c.04-.17,.08-.29,.13-.42,.08-.25,.17-.46,.25-.72,.08-.21,.13-.38,.21-.55,.13-.38,.21-.72,.29-1.01s.17-.55,.21-.8,.13-.51,.17-.76,.13-.51,.21-.8v-.04c.17-1.01,.21-2.06,.17-3.08-.04-.88-.21-1.77-.51-2.61-.13-.25-.29-.51-.55-.63-.29-.17-.67-.13-.88,.13-.17,.17-.42,.34-.55,.55-.21,.34-.42,.67-.51,1.1-.46,.93-.67,3.24-.72,3.75s-.04,1.01-.08,1.47v2.28s.08,.88,.08,1.35,.08,.97,.13,1.47c0,.13,.04,.25,.04,.38l-.04,.21c0,.17-.08,.34-.13,.55-.08,.21-.13,.42-.21,.63s-.17,.38-.29,.55c-.08,.13-.21,.25-.34,.38-.08,.08-.17,.08-.25,.08,0,0-.04,0-.08-.13-.13-.34-.17-.63-.21-.97s-.08-.63-.08-1.05v-2.36c0-.21-.17-.38-.34-.38-.25-.04-.46,0-.67,.13-.13,.08-.25,.21-.29,.34l-.04,.04c-.17-.04-.29-.13-.42-.25l-.13-.13v-.08c0-.08,0-.21-.04-.29v-.04c-.08-.08-.21-.17-.34-.17-.13-.04-.25-.04-.38,0s-.25,.13-.38,.25c-.13,.17-.21,.38-.17,.59,.04,.25,.04,.46,.04,.72v.72s-.04,.51-.08,.76l-.04,.25c-.04,.17-.08,.38-.17,.59-.08,.17-.13,.38-.21,.59-.08,.17-.17,.38-.29,.55-.08,.13-.21,.25-.34,.38-.08,.08-.17,.08-.29,.08,0,0-.04,0-.08-.13-.13-.34-.17-.67-.21-1.01s-.08-.63-.08-1.05v-2.4s0-.34-.42-.38h-.29l-.21-.13c-.17-.08-.34-.13-.51-.17s-.34-.08-.55-.13c-.17-.04-.34-.04-.55-.04-.21,.04-.42,.08-.59,.17-.21,.08-.42,.21-.59,.38-.21,.17-.38,.34-.55,.51s-.34,.38-.46,.59v.04c-.13,.25-.21,.51-.29,.76-.08,.29-.17,.59-.21,.93s-.04,.67,0,1.01c.04,.38,.17,.76,.34,1.1s.38,.67,.72,.88c.25,.21,.59,.34,.93,.42s.67,.04,.97-.04c.34-.08,.59-.29,.8-.55l.38-.51c.08,.25,.17,.46,.34,.67,.17,.17,.34,.29,.55,.38s.38,.08,.59,.04c.17-.04,.38-.08,.55-.17,.34-.25,.63-.55,.84-.93,.25-.51,.46-1.05,.59-1.6,.04-.08,.04-.17,.04-.25v-.08c.08-.42,.17-.8,.21-1.18,0-.21,.04-.42,.08-.59,.13,.08,.29,.13,.46,.13h.38v1.77c.04,.29,.08,.55,.17,.88,.08,.29,.17,.59,.25,.84s.21,.51,.38,.72c.17,.17,.34,.29,.55,.38s.38,.08,.59,.04c.17-.04,.38-.08,.55-.17,.34-.21,.63-.55,.84-.88,.13-.21,.21-.42,.29-.63,.04,.13,.08,.21,.13,.29,.13,.34,.34,.63,.55,.88,.29,.34,.72,.51,1.18,.55,.25,.04,.51,0,.76-.13,.21-.08,.42-.21,.59-.38,.21-.29,.38-.59,.55-.93l.08-.21c.04,.13,.08,.29,.17,.42,.04,.17,.08,.29,.17,.42v.08l.08,.08v.04l.17,.17s.13,.08,.17,.13l.29,.17h.59l.17-.08,.13-.04,.17-.13h.04l.04-.04,.04-.04c.08-.08,.13-.13,.17-.21l.04-.08c.13-.17,.21-.34,.29-.51,.25-.46,.42-.97,.55-1.52v-.25c0-.13,.08-.29,.13-.55,.04-.21,.13-.38,.21-.59l.17-.42s.04-.08,.08-.13v.34c0,.34,0,.76-.04,1.26s0,.97-.04,1.39-.04,.93-.04,1.35c0,.21,.17,.38,.38,.38h.34c.13-.04,.21-.08,.34-.13,.17-.08,.25-.25,.25-.42v-1.6c0-.21,0-.42,.04-.59s0-.25,0-.42c.04-.42,.13-.84,.29-1.22,.08-.21,.21-.46,.38-.63,.04-.08,.13-.17,.17-.21,.08-.08,.13-.13,.21-.17s.21-.08,.34-.13,.25-.04,.38,0c.21,.04,.38,.17,.46,.34,.17,.25,.25,.55,.34,.84,.08,.51,.17,1.05,.21,1.6s.13,1.05,.25,1.6c.04,.21,.13,.38,.25,.55s.29,.29,.46,.42c.21,.13,.42,.21,.63,.21,.25,0,.51-.04,.76-.17,.34-.25,.63-.55,.8-.93l.13-.21c.17,.42,.51,.76,.88,1.01,.34,.21,.76,.29,1.14,.29,.42-.04,.8-.17,1.1-.42l.21-.17v.55c-.29,.29-.59,.55-.93,.8s-.76,.63-1.14,.93c-.25,.34-.51,.72-.76,1.1-.38,.42-.76,.93-1.01,1.43-.17,.29-.29,.59-.42,.88-.13,.34-.25,.72-.29,1.1-.08,.38-.08,.76-.04,1.18,.08,.8,.55,1.52,1.26,1.9,.29,.17,.63,.29,1.01,.34h.42c.21,0,.38,0,.59-.04,.29-.04,.59-.17,.84-.38,.17-.17,.34-.34,.51-.51s.29-.34,.42-.55,.21-.42,.34-.63c.08-.25,.17-.51,.25-.8,.13-.51,.21-1.01,.25-1.52,.08-.55,.13-1.14,.21-1.77,.08-.59,.08-1.1,.08-1.64v-1.26c.29-.17,.55-.38,.8-.55,.29-.21,.59-.46,.84-.72s.46-.55,.63-.84c.21-.34,.34-.67,.42-1.05,.04-.17,.08-.34,.08-.51,.17-.29,.17-.42,.13-.59h0Zm-31.44,.63c-.04,.21-.13,.42-.21,.63s-.21,.42-.34,.59-.25,.29-.42,.42c-.13,.08-.25,.13-.38,.13-.21,0-.42-.13-.59-.29-.21-.25-.38-.51-.51-.84s-.21-.72-.25-1.1c-.04-.34,0-.67,.08-1.01,.08-.25,.25-.46,.46-.63,.17-.17,.42-.25,.63-.34,.25-.04,.51-.04,.76,0,.21,.08,.46,.17,.63,.29v1.69c.13,.21,.13,.34,.13,.46Zm9.52-4.26c-.04,.29-.13,.55-.21,.84-.04,.13-.08,.25-.13,.38v-.25c0-.34-.04-.67-.04-1.05s0-.72-.04-1.05,0-.8,0-1.18,0-.8,.04-1.22,.04-.84,.08-1.31,.04-.88,.13-1.39c0-.04,0-.13,.04-.29s.08-.29,.13-.46,.08-.29,.13-.46v-.04c.08,.21,.13,.42,.21,.63,.08,.25,.13,.55,.17,.8,.04,.42,.08,.8,.08,1.22,0,.51-.04,1.1-.13,1.85,0,.29-.04,.55-.04,.8s-.04,.46-.08,.63-.08,.46-.13,.72-.13,.51-.21,.84Zm17.99,9.23v.8c0,.29,0,.55-.04,.84s-.04,.55-.08,.8c-.04,.29-.17,.46-.21,.72l-.13,.76c-.04,.25-.08,.46-.13,.63s-.04,.34-.13,.51c-.04,.17-.13,.34-.21,.51s-.21,.34-.34,.46-.29,.25-.46,.34c-.21,.13-.42,.17-.63,.13s-.42-.17-.59-.29c-.21-.17-.38-.38-.46-.63-.08-.29-.13-.63-.08-.93,0-.17,.04-.38,.08-.59s.08-.42,.17-.63,.17-.42,.25-.63,.21-.38,.34-.55c.46-.59,1.01-1.18,1.56-1.73,.38-.38,.76-.72,1.14-1.05-.04,.17-.04,.38-.04,.55h0Zm.04-6.83v1.94c-.08,.21-.13,.42-.21,.63s-.21,.42-.29,.59c-.13,.13-.25,.25-.38,.34v.04c-.13,.08-.25,.13-.38,.13-.21,0-.46-.13-.59-.29-.21-.25-.38-.51-.51-.84s-.21-.72-.25-1.1c-.04-.34,0-.67,.13-1.01,.08-.25,.25-.46,.46-.63,.17-.17,.42-.25,.63-.29h.34c.13,0,.29,0,.42,.04,.21,.04,.46,.17,.63,.25v.21Z"/>
    <path class="cls-1" d="M125.97,51.53h-17.61c-.38,0-.67-.29-.67-.67s.29-.67,.67-.67h17.61c.38,0,.67,.29,.67,.67,.04,.38-.29,.67-.67,.67Z"/>
    <path class="cls-1" d="M136.67,69.73h-14.83c-.38,0-.67-.29-.67-.67s.29-.67,.67-.67h14.83c.38,0,.67,.29,.67,.67s-.29,.67-.67,.67Z"/>
    <path class="cls-1" d="M149.44,51.53h-15.3c-.38,0-.67-.29-.67-.67s.29-.67,.67-.67h15.3c.38,0,.67,.29,.67,.67s-.29,.67-.67,.67Z"/>
    <path class="cls-1" d="M160.06,51.53h-7.63c-.38,0-.67-.29-.67-.67s.29-.67,.67-.67h7.63c.38,0,.67,.29,.67,.67s-.29,.67-.67,.67Z"/>
    <path class="cls-1" d="M159.64,52.5v.13c0,1.14,.93,2.02,2.02,2.02h9.99c.38,0,.67-.29,.67-.67s-.29-.67-.67-.67h-7.84v-1.77h7.84c.38,0,.67-.29,.67-.67s-.29-.67-.67-.67h-7.84v-1.77h7.84c.38,0,.67-.29,.67-.67s-.29-.67-.67-.67h-9.99c-1.14,0-2.02,.93-2.02,2.02v.17m1.39,3.37v-3.58c0-.38,.29-.63,.63-.63h.76v4.89h-.76c-.34,0-.63-.29-.63-.67Z"/>
    <path class="cls-1" d="M114.76,73.02c-4.13,0-7.42-1.77-7.42-3.96s3.24-3.96,7.42-3.96,7.42,1.77,7.42,3.96c.04,2.19-3.24,3.96-7.42,3.96Zm0-6.57c-3.54,0-6.03,1.39-6.03,2.61s2.49,2.61,6.03,2.61,6.03-1.39,6.03-2.61c.04-1.26-2.44-2.61-6.03-2.61Z"/>
  </g>
  <path class="cls-1" d="M118.55,44.96c-.17,0-.35-.05-.5-.16-.37-.28-.45-.8-.18-1.18,5.21-7.07,13.28-11.13,22.13-11.13s16.91,4.06,22.13,11.13c.28,.37,.2,.9-.18,1.18-.38,.28-.9,.2-1.18-.18-4.89-6.64-12.46-10.45-20.77-10.45s-15.88,3.81-20.77,10.45c-.17,.22-.42,.34-.68,.34Z"/>
  <path class="cls-1" d="M140,87.52c-8.85,0-16.91-4.06-22.13-11.13-.28-.37-.2-.9,.18-1.18s.9-.2,1.18,.18c4.89,6.64,12.46,10.45,20.77,10.45s15.92-3.91,20.77-10.45c.28-.37,.8-.45,1.18-.17s.45,.81,.17,1.18c-5.17,6.97-13.44,11.13-22.13,11.13Z"/>
</svg>