<svg width="20" height="25" viewBox="0 0 20 25" fill="none" xmlns="http://www.w3.org/2000/svg">
<g clip-path="url(#clip0_26_153)">
<path d="M0.721558 12.103H17.4881L0.721558 1.33646V24.2601H17.4881L0.721558 7.06738V12.103Z" fill="#DC143C" stroke="#003893" stroke-width="1.5"/>
<path d="M0.721558 12.103H17.4881L0.721558 1.33646V24.2601H17.4881L0.721558 7.06738V12.103Z" fill="#DC143C"/>
<path d="M1.57373 8.06555C1.83738 8.75345 2.29697 9.34397 2.89262 9.76019C3.48826 10.1764 4.19234 10.399 4.91314 10.399C5.63393 10.399 6.33801 10.1764 6.93366 9.76019C7.5293 9.34397 7.98889 8.75345 8.25254 8.06555C8.25254 8.97373 7.90071 9.84472 7.27445 10.4869C6.64819 11.1291 5.7988 11.4899 4.91314 11.4899C4.02747 11.4899 3.17808 11.1291 2.55182 10.4869C1.92556 9.84472 1.57373 8.97373 1.57373 8.06555Z" fill="white"/>
<path d="M4.91312 11.2527C5.77137 11.2527 6.46711 10.5393 6.46711 9.6592C6.46711 8.77914 5.77137 8.0657 4.91312 8.0657C4.05488 8.0657 3.35913 8.77914 3.35913 9.6592C3.35913 10.5393 4.05488 11.2527 4.91312 11.2527Z" fill="white"/>
<path d="M5.50786 8.18699L5.33421 7.48869L4.91317 8.06569" fill="white"/>
<path d="M6.01201 8.53243L6.11218 7.81914L5.50786 8.187" fill="white"/>
<path d="M6.34887 9.04937L6.70762 8.42969L6.01201 8.53241" fill="white"/>
<path d="M6.46393 9.65919L7.03152 9.22573L6.3489 9.05283" fill="white"/>
<path d="M6.34885 10.2725L7.02822 10.0892L6.47039 9.65919" fill="white"/>
<path d="M6.01206 10.7889L6.70628 10.8872L6.35171 10.269" fill="white"/>
<path d="M4.31856 8.18699L4.49221 7.48869L4.91324 8.06569" fill="white"/>
<path d="M3.8144 8.53243L3.71423 7.81914L4.31855 8.187" fill="white"/>
<path d="M3.47754 9.04937L3.1188 8.42969L3.81441 8.53241" fill="white"/>
<path d="M3.36248 9.65919L2.7949 9.22573L3.47752 9.05283" fill="white"/>
<path d="M3.47756 10.2725L2.79819 10.0892L3.35603 9.65919" fill="white"/>
<path d="M3.81435 10.7889L3.12014 10.8872L3.47471 10.269" fill="white"/>
<path d="M4.91318 20.5151C6.16996 20.5151 7.18878 19.4704 7.18878 18.1816C7.18878 16.8929 6.16996 15.8482 4.91318 15.8482C3.6564 15.8482 2.63757 16.8929 2.63757 18.1816C2.63757 19.4704 3.6564 20.5151 4.91318 20.5151Z" fill="white"/>
<path d="M5.50216 20.4356L4.91319 21.8609L4.32422 20.4356" fill="white"/>
<path d="M4.32426 15.9277L4.91323 14.5024L5.5022 15.9277" fill="white"/>
<path d="M2.71509 18.7856L1.32509 18.1817L2.71509 17.5777" fill="white"/>
<path d="M7.11121 17.5777L8.5012 18.1817L7.11121 18.7856" fill="white"/>
<path d="M4.32412 20.441L3.12183 21.3653L3.29846 19.8316" fill="white"/>
<path d="M5.50205 15.9223L6.70434 14.998L6.52771 16.5316" fill="white"/>
<path d="M2.7204 17.5777L1.80318 16.3392L3.30408 16.5373" fill="white"/>
<path d="M7.1059 18.7856L8.02312 20.0241L6.52222 19.826" fill="white"/>
<path d="M3.30402 19.826L1.80312 20.0241L2.72034 18.7856" fill="white"/>
<path d="M6.52216 16.5373L8.02305 16.3392L7.10583 17.5777" fill="white"/>
<path d="M3.29843 16.5316L3.12181 14.998L4.3241 15.9222" fill="white"/>
<path d="M6.52774 19.8317L6.70437 21.3653L5.50208 20.441" fill="white"/>
</g>
<defs>
<clipPath id="clip0_26_153">
<rect width="20" height="25" fill="white"/>
</clipPath>
</defs>
</svg>
