<svg width="843" height="157" viewBox="0 0 843 157" fill="none" xmlns="http://www.w3.org/2000/svg">
<path d="M4.6 40H0.2L12.48 11.68H16.08L28.24 40H23.76L20.88 33.04H7.44L4.6 40ZM8.84 29.56H19.44L14.16 16.28L8.84 29.56ZM40.3631 40H36.2831L28.5631 21.04H32.7231L38.2831 35.96H38.3631L43.9631 21.04H47.9631L40.3631 40ZM65.4794 28.84C65.4527 28.0933 65.3194 27.4 65.0794 26.76C64.866 26.0933 64.5327 25.52 64.0794 25.04C63.6527 24.56 63.106 24.1867 62.4394 23.92C61.7994 23.6267 61.0394 23.48 60.1594 23.48C59.3594 23.48 58.5994 23.6267 57.8794 23.92C57.186 24.1867 56.5727 24.56 56.0394 25.04C55.5327 25.52 55.106 26.0933 54.7594 26.76C54.4394 27.4 54.2527 28.0933 54.1994 28.84H65.4794ZM69.2794 30.36C69.2794 30.5733 69.2794 30.7867 69.2794 31C69.2794 31.2133 69.266 31.4267 69.2394 31.64H54.1994C54.226 32.44 54.3994 33.2 54.7194 33.92C55.066 34.6133 55.5194 35.2267 56.0794 35.76C56.6394 36.2667 57.2794 36.6667 57.9994 36.96C58.746 37.2533 59.5327 37.4 60.3594 37.4C61.6394 37.4 62.746 37.12 63.6794 36.56C64.6127 36 65.346 35.32 65.8794 34.52L68.5194 36.64C67.506 37.9733 66.306 38.96 64.9194 39.6C63.5594 40.2133 62.0394 40.52 60.3594 40.52C58.9194 40.52 57.586 40.28 56.3594 39.8C55.1327 39.32 54.0794 38.6533 53.1994 37.8C52.3194 36.92 51.626 35.8667 51.1194 34.64C50.6127 33.4133 50.3594 32.0533 50.3594 30.56C50.3594 29.0933 50.5994 27.7467 51.0794 26.52C51.586 25.2667 52.2794 24.2 53.1594 23.32C54.0394 22.44 55.0794 21.76 56.2794 21.28C57.4794 20.7733 58.7727 20.52 60.1594 20.52C61.546 20.52 62.7994 20.7467 63.9194 21.2C65.066 21.6533 66.026 22.3067 66.7994 23.16C67.5994 24.0133 68.2127 25.0533 68.6394 26.28C69.066 27.48 69.2794 28.84 69.2794 30.36ZM77.9291 21.04C77.9824 21.52 78.0224 22.0667 78.0491 22.68C78.0757 23.2667 78.0891 23.76 78.0891 24.16H78.2091C78.4491 23.6533 78.7691 23.1867 79.1691 22.76C79.5957 22.3067 80.0757 21.92 80.6091 21.6C81.1424 21.2533 81.7291 20.9867 82.3691 20.8C83.0091 20.6133 83.6757 20.52 84.3691 20.52C85.5957 20.52 86.6491 20.7333 87.5291 21.16C88.4091 21.56 89.1424 22.1067 89.7291 22.8C90.3157 23.4933 90.7424 24.3067 91.0091 25.24C91.3024 26.1733 91.4491 27.1733 91.4491 28.24V40H87.6891V29.48C87.6891 28.7067 87.6224 27.9733 87.4891 27.28C87.3824 26.5867 87.1691 25.9733 86.8491 25.44C86.5291 24.9067 86.0891 24.48 85.5291 24.16C84.9691 23.84 84.2491 23.68 83.3691 23.68C81.8757 23.68 80.6491 24.2533 79.6891 25.4C78.7557 26.52 78.2891 28.0267 78.2891 29.92V40H74.5291V25.12C74.5291 24.6133 74.5157 23.96 74.4891 23.16C74.4624 22.36 74.4224 21.6533 74.3691 21.04H77.9291ZM101.61 40H97.8503V21.04H101.61V40ZM102.25 14.2C102.25 14.8933 101.997 15.4667 101.49 15.92C101.01 16.3733 100.424 16.6 99.7303 16.6C99.037 16.6 98.4503 16.3733 97.9703 15.92C97.4903 15.44 97.2503 14.8667 97.2503 14.2C97.2503 13.5067 97.4903 12.9333 97.9703 12.48C98.4503 12 99.037 11.76 99.7303 11.76C100.424 11.76 101.01 12 101.49 12.48C101.997 12.9333 102.25 13.5067 102.25 14.2ZM108.162 25.12C108.162 24.6133 108.149 23.96 108.122 23.16C108.095 22.36 108.055 21.6533 108.002 21.04H111.562C111.615 21.52 111.655 22.08 111.682 22.72C111.709 23.3333 111.722 23.84 111.722 24.24H111.842C112.375 23.12 113.149 22.2267 114.162 21.56C115.202 20.8667 116.362 20.52 117.642 20.52C118.229 20.52 118.722 20.5733 119.122 20.68L118.962 24.16C118.429 24.0267 117.855 23.96 117.242 23.96C116.335 23.96 115.549 24.1333 114.882 24.48C114.215 24.8 113.655 25.24 113.202 25.8C112.775 26.36 112.455 27.0133 112.242 27.76C112.029 28.48 111.922 29.24 111.922 30.04V40H108.162V25.12ZM152.814 34.32H152.894V11.68H156.854V40H151.854L136.894 16.88H136.814V40H132.854V11.68H138.014L152.814 34.32ZM177.433 28.84C177.406 28.0933 177.273 27.4 177.033 26.76C176.819 26.0933 176.486 25.52 176.033 25.04C175.606 24.56 175.059 24.1867 174.393 23.92C173.753 23.6267 172.993 23.48 172.113 23.48C171.313 23.48 170.553 23.6267 169.833 23.92C169.139 24.1867 168.526 24.56 167.993 25.04C167.486 25.52 167.059 26.0933 166.713 26.76C166.393 27.4 166.206 28.0933 166.153 28.84H177.433ZM181.233 30.36C181.233 30.5733 181.233 30.7867 181.233 31C181.233 31.2133 181.219 31.4267 181.193 31.64H166.153C166.179 32.44 166.353 33.2 166.673 33.92C167.019 34.6133 167.473 35.2267 168.033 35.76C168.593 36.2667 169.233 36.6667 169.953 36.96C170.699 37.2533 171.486 37.4 172.313 37.4C173.593 37.4 174.699 37.12 175.633 36.56C176.566 36 177.299 35.32 177.833 34.52L180.473 36.64C179.459 37.9733 178.259 38.96 176.873 39.6C175.513 40.2133 173.993 40.52 172.313 40.52C170.873 40.52 169.539 40.28 168.313 39.8C167.086 39.32 166.033 38.6533 165.153 37.8C164.273 36.92 163.579 35.8667 163.073 34.64C162.566 33.4133 162.313 32.0533 162.313 30.56C162.313 29.0933 162.553 27.7467 163.033 26.52C163.539 25.2667 164.233 24.2 165.113 23.32C165.993 22.44 167.033 21.76 168.233 21.28C169.433 20.7733 170.726 20.52 172.113 20.52C173.499 20.52 174.753 20.7467 175.873 21.2C177.019 21.6533 177.979 22.3067 178.753 23.16C179.553 24.0133 180.166 25.0533 180.593 26.28C181.019 27.48 181.233 28.84 181.233 30.36ZM190.732 30.04L183.812 21.04H188.452L193.092 27.56L197.772 21.04H202.172L195.332 30L202.972 40H198.292L193.012 32.6L187.652 40H183.132L190.732 30.04ZM215.801 24.12H210.761V34C210.761 35.1467 210.975 35.9733 211.401 36.48C211.828 36.96 212.508 37.2 213.441 37.2C213.788 37.2 214.161 37.16 214.561 37.08C214.961 37 215.321 36.88 215.641 36.72L215.761 39.8C215.308 39.96 214.801 40.08 214.241 40.16C213.708 40.2667 213.148 40.32 212.561 40.32C210.775 40.32 209.401 39.8267 208.441 38.84C207.508 37.8533 207.041 36.3733 207.041 34.4V24.12H203.401V21.04H207.041V15.6H210.761V21.04H215.801V24.12Z" fill="black"/>
<path d="M3.68 101H0.16L9.984 78.344H12.864L22.592 101H19.008L16.704 95.432H5.952L3.68 101ZM7.072 92.648H15.552L11.328 82.024L7.072 92.648ZM34.782 91.176C34.782 90.0453 34.4407 89.2133 33.758 88.68C33.0753 88.1253 32.1687 87.848 31.038 87.848C30.1847 87.848 29.374 88.0187 28.606 88.36C27.8593 88.68 27.23 89.096 26.718 89.608L25.118 87.688C25.8647 86.984 26.7713 86.4293 27.838 86.024C28.926 85.6187 30.0887 85.416 31.326 85.416C32.414 85.416 33.3527 85.576 34.142 85.896C34.9527 86.1947 35.614 86.6107 36.126 87.144C36.638 87.6773 37.022 88.3067 37.278 89.032C37.534 89.7573 37.662 90.536 37.662 91.368V97.992C37.662 98.504 37.6727 99.048 37.694 99.624C37.7367 100.179 37.8007 100.637 37.886 101H35.166C34.9953 100.275 34.91 99.5493 34.91 98.824H34.814C34.2593 99.6347 33.5553 100.264 32.702 100.712C31.87 101.16 30.878 101.384 29.726 101.384C29.1287 101.384 28.4993 101.299 27.838 101.128C27.198 100.979 26.6113 100.723 26.078 100.36C25.5447 99.9973 25.0967 99.5173 24.734 98.92C24.3927 98.3227 24.222 97.5867 24.222 96.712C24.222 95.56 24.5313 94.6533 25.15 93.992C25.7687 93.3093 26.5793 92.7973 27.582 92.456C28.5847 92.0933 29.7153 91.8587 30.974 91.752C32.2327 91.6453 33.502 91.592 34.782 91.592V91.176ZM34.046 93.768C33.2993 93.768 32.5207 93.8 31.71 93.864C30.9207 93.928 30.1953 94.056 29.534 94.248C28.894 94.44 28.3607 94.728 27.934 95.112C27.5073 95.496 27.294 96.008 27.294 96.648C27.294 97.096 27.3793 97.4693 27.55 97.768C27.742 98.0667 27.9873 98.312 28.286 98.504C28.5847 98.696 28.9153 98.8347 29.278 98.92C29.6407 98.984 30.014 99.016 30.398 99.016C31.806 99.016 32.8833 98.6 33.63 97.768C34.398 96.9147 34.782 95.848 34.782 94.568V93.768H34.046ZM50.8458 78.344H58.6538C59.5071 78.344 60.3604 78.44 61.2138 78.632C62.0671 78.824 62.8244 79.144 63.4858 79.592C64.1684 80.04 64.7124 80.6267 65.1178 81.352C65.5444 82.0773 65.7578 82.984 65.7578 84.072C65.7578 85.3307 65.3951 86.3867 64.6698 87.24C63.9444 88.0933 62.9844 88.68 61.7898 89V89.064C62.5151 89.1493 63.1871 89.3413 63.8058 89.64C64.4244 89.9173 64.9578 90.2907 65.4058 90.76C65.8538 91.2293 66.1951 91.784 66.4298 92.424C66.6858 93.064 66.8138 93.7787 66.8138 94.568C66.8138 95.656 66.5898 96.6053 66.1418 97.416C65.6938 98.2267 65.0858 98.8987 64.3178 99.432C63.5498 99.944 62.6431 100.339 61.5978 100.616C60.5738 100.872 59.4751 101 58.3018 101H50.8458V78.344ZM54.0138 87.912H58.1418C58.7391 87.912 59.3044 87.848 59.8378 87.72C60.3924 87.5707 60.8724 87.3573 61.2778 87.08C61.6831 86.7813 62.0031 86.4187 62.2378 85.992C62.4724 85.544 62.5898 85.0107 62.5898 84.392C62.5898 83.176 62.1418 82.312 61.2458 81.8C60.3498 81.2667 59.1444 81 57.6298 81H54.0138V87.912ZM54.0138 98.312H57.9818C58.6431 98.312 59.3044 98.2587 59.9658 98.152C60.6484 98.024 61.2564 97.8107 61.7898 97.512C62.3444 97.2133 62.7818 96.8187 63.1018 96.328C63.4431 95.816 63.6138 95.176 63.6138 94.408C63.6138 93.064 63.1551 92.0933 62.2378 91.496C61.3204 90.8987 59.9978 90.6 58.2698 90.6H54.0138V98.312ZM74.193 98.6V101H71.281V76.808H74.289V88.104H74.385C74.897 87.3573 75.6117 86.728 76.529 86.216C77.4463 85.6827 78.5343 85.416 79.793 85.416C80.9237 85.416 81.9477 85.6187 82.865 86.024C83.8037 86.4293 84.6037 86.9947 85.265 87.72C85.9477 88.4453 86.4703 89.2987 86.833 90.28C87.1957 91.24 87.377 92.2747 87.377 93.384C87.377 94.4933 87.1957 95.5387 86.833 96.52C86.4703 97.5013 85.9583 98.3547 85.297 99.08C84.6357 99.8053 83.8357 100.381 82.897 100.808C81.9583 101.213 80.9023 101.416 79.729 101.416C78.641 101.416 77.6063 101.181 76.625 100.712C75.6437 100.221 74.8543 99.5173 74.257 98.6H74.193ZM84.273 93.384C84.273 92.68 84.1663 91.9973 83.953 91.336C83.7397 90.6747 83.4197 90.088 82.993 89.576C82.5663 89.064 82.033 88.6587 81.393 88.36C80.7743 88.0613 80.049 87.912 79.217 87.912C78.449 87.912 77.745 88.0613 77.105 88.36C76.4863 88.6587 75.953 89.064 75.505 89.576C75.057 90.088 74.705 90.6747 74.449 91.336C74.2143 91.9973 74.097 92.6907 74.097 93.416C74.097 94.1413 74.2143 94.8347 74.449 95.496C74.705 96.1573 75.057 96.744 75.505 97.256C75.953 97.7467 76.4863 98.1413 77.105 98.44C77.745 98.7387 78.449 98.888 79.217 98.888C80.049 98.888 80.7743 98.7387 81.393 98.44C82.033 98.12 82.5663 97.704 82.993 97.192C83.4197 96.68 83.7397 96.0933 83.953 95.432C84.1663 94.7707 84.273 94.088 84.273 93.384ZM119.145 97.48C118.249 98.696 117.086 99.688 115.657 100.456C114.227 101.203 112.51 101.576 110.505 101.576C108.777 101.576 107.177 101.288 105.705 100.712C104.254 100.115 102.995 99.2933 101.929 98.248C100.883 97.1813 100.062 95.9227 99.4648 94.472C98.8674 93 98.5688 91.3893 98.5688 89.64C98.5688 87.8693 98.8674 86.2587 99.4648 84.808C100.083 83.336 100.926 82.088 101.993 81.064C103.081 80.0187 104.361 79.208 105.833 78.632C107.305 78.056 108.905 77.768 110.633 77.768C111.401 77.768 112.179 77.8427 112.969 77.992C113.758 78.1413 114.515 78.3653 115.241 78.664C115.966 78.9627 116.627 79.336 117.225 79.784C117.822 80.2107 118.334 80.712 118.761 81.288L116.265 83.208C115.71 82.44 114.921 81.8107 113.897 81.32C112.894 80.808 111.806 80.552 110.633 80.552C109.31 80.552 108.115 80.7973 107.049 81.288C106.003 81.7573 105.107 82.408 104.361 83.24C103.614 84.072 103.038 85.0427 102.633 86.152C102.227 87.24 102.025 88.4027 102.025 89.64C102.025 90.92 102.217 92.1147 102.601 93.224C103.006 94.3333 103.571 95.304 104.297 96.136C105.043 96.9467 105.939 97.5867 106.985 98.056C108.051 98.5253 109.235 98.76 110.537 98.76C111.817 98.76 112.979 98.504 114.025 97.992C115.07 97.48 115.934 96.7333 116.617 95.752L119.145 97.48ZM132.841 89.672C132.521 89.1813 132.041 88.776 131.401 88.456C130.761 88.1147 130.078 87.944 129.353 87.944C128.564 87.944 127.86 88.0933 127.241 88.392C126.644 88.6907 126.132 89.096 125.705 89.608C125.278 90.0987 124.948 90.6747 124.713 91.336C124.5 91.9973 124.393 92.6907 124.393 93.416C124.393 94.1413 124.5 94.8347 124.713 95.496C124.948 96.1573 125.278 96.744 125.705 97.256C126.132 97.7467 126.654 98.1413 127.273 98.44C127.892 98.7387 128.596 98.888 129.385 98.888C130.153 98.888 130.846 98.7387 131.465 98.44C132.105 98.1413 132.628 97.736 133.033 97.224L135.049 99.048C134.409 99.7947 133.609 100.381 132.649 100.808C131.689 101.213 130.601 101.416 129.385 101.416C128.212 101.416 127.124 101.224 126.121 100.84C125.14 100.456 124.286 99.9227 123.561 99.24C122.836 98.536 122.26 97.6933 121.833 96.712C121.428 95.7307 121.225 94.632 121.225 93.416C121.225 92.2213 121.428 91.1333 121.833 90.152C122.238 89.1707 122.804 88.328 123.529 87.624C124.254 86.92 125.108 86.376 126.089 85.992C127.092 85.608 128.169 85.416 129.321 85.416C130.388 85.416 131.444 85.6293 132.489 86.056C133.556 86.4827 134.398 87.1013 135.017 87.912L132.841 89.672ZM146.19 78.344H153.966C155.416 78.344 156.867 78.5573 158.318 78.984C159.768 79.4107 161.08 80.0827 162.253 81C163.427 81.9173 164.376 83.0907 165.102 84.52C165.827 85.9493 166.19 87.6667 166.19 89.672C166.19 91.6133 165.827 93.2987 165.102 94.728C164.376 96.136 163.427 97.3093 162.253 98.248C161.08 99.1653 159.768 99.8587 158.318 100.328C156.867 100.776 155.416 101 153.966 101H146.19V78.344ZM149.358 98.216H153.326C154.691 98.216 155.95 98.024 157.102 97.64C158.275 97.256 159.278 96.7013 160.11 95.976C160.963 95.2507 161.624 94.3547 162.094 93.288C162.563 92.2213 162.798 91.016 162.798 89.672C162.798 88.264 162.563 87.0267 162.094 85.96C161.624 84.8933 160.963 84.008 160.11 83.304C159.278 82.5787 158.275 82.0347 157.102 81.672C155.95 81.288 154.691 81.096 153.326 81.096H149.358V98.216ZM182.469 98.6C181.893 99.5173 181.104 100.221 180.101 100.712C179.12 101.181 178.085 101.416 176.997 101.416C175.824 101.416 174.768 101.213 173.829 100.808C172.891 100.381 172.091 99.8053 171.429 99.08C170.768 98.3547 170.256 97.5013 169.893 96.52C169.531 95.5387 169.349 94.4933 169.349 93.384C169.349 92.2747 169.531 91.24 169.893 90.28C170.256 89.2987 170.768 88.4453 171.429 87.72C172.112 86.9947 172.923 86.4293 173.861 86.024C174.8 85.6187 175.835 85.416 176.965 85.416C178.203 85.416 179.28 85.6827 180.197 86.216C181.115 86.728 181.84 87.3573 182.373 88.104H182.437V76.808H185.445V101H182.533V98.6H182.469ZM172.485 93.384C172.485 94.088 172.592 94.7707 172.805 95.432C173.019 96.0933 173.339 96.68 173.765 97.192C174.192 97.704 174.715 98.12 175.333 98.44C175.952 98.7387 176.677 98.888 177.509 98.888C178.277 98.888 178.971 98.7387 179.589 98.44C180.229 98.1413 180.773 97.7467 181.221 97.256C181.669 96.744 182.011 96.1573 182.245 95.496C182.501 94.8347 182.629 94.1413 182.629 93.416C182.629 92.6907 182.501 91.9973 182.245 91.336C182.011 90.6747 181.669 90.088 181.221 89.576C180.773 89.064 180.229 88.6587 179.589 88.36C178.971 88.0613 178.277 87.912 177.509 87.912C176.677 87.912 175.952 88.0613 175.333 88.36C174.715 88.6587 174.192 89.064 173.765 89.576C173.339 90.088 173.019 90.6747 172.805 91.336C172.592 91.9973 172.485 92.68 172.485 93.384ZM202.014 98.184H213.854V101H198.846V78.344H213.374V81.128H202.014V87.912H212.702V90.632H202.014V98.184ZM229.009 92.072C228.987 91.4747 228.881 90.92 228.689 90.408C228.518 89.8747 228.251 89.416 227.889 89.032C227.547 88.648 227.11 88.3493 226.577 88.136C226.065 87.9013 225.457 87.784 224.753 87.784C224.113 87.784 223.505 87.9013 222.929 88.136C222.374 88.3493 221.883 88.648 221.457 89.032C221.051 89.416 220.71 89.8747 220.433 90.408C220.177 90.92 220.027 91.4747 219.985 92.072H229.009ZM232.049 93.288C232.049 93.4587 232.049 93.6293 232.049 93.8C232.049 93.9707 232.038 94.1413 232.017 94.312H219.985C220.006 94.952 220.145 95.56 220.401 96.136C220.678 96.6907 221.041 97.1813 221.489 97.608C221.937 98.0133 222.449 98.3333 223.025 98.568C223.622 98.8027 224.251 98.92 224.913 98.92C225.937 98.92 226.822 98.696 227.569 98.248C228.315 97.8 228.902 97.256 229.329 96.616L231.441 98.312C230.63 99.3787 229.67 100.168 228.561 100.68C227.473 101.171 226.257 101.416 224.913 101.416C223.761 101.416 222.694 101.224 221.713 100.84C220.731 100.456 219.889 99.9227 219.185 99.24C218.481 98.536 217.926 97.6933 217.521 96.712C217.115 95.7307 216.913 94.6427 216.913 93.448C216.913 92.2747 217.105 91.1973 217.489 90.216C217.894 89.2133 218.449 88.36 219.153 87.656C219.857 86.952 220.689 86.408 221.649 86.024C222.609 85.6187 223.643 85.416 224.753 85.416C225.862 85.416 226.865 85.5973 227.761 85.96C228.678 86.3227 229.446 86.8453 230.065 87.528C230.705 88.2107 231.195 89.0427 231.537 90.024C231.878 90.984 232.049 92.072 232.049 93.288ZM247.576 101H244.408V78.344H258.552V81.128H247.576V88.168H257.848V90.888H247.576V101ZM269.572 88.296H266.052V101H263.044V88.296H260.036V85.832H263.044V82.664C263.044 81.768 263.14 80.9467 263.332 80.2C263.545 79.432 263.876 78.7707 264.324 78.216C264.793 77.6613 265.38 77.224 266.084 76.904C266.809 76.584 267.684 76.424 268.708 76.424C269.433 76.424 270.062 76.4987 270.596 76.648L270.244 79.24C270.009 79.176 269.774 79.1227 269.54 79.08C269.305 79.0373 269.038 79.016 268.74 79.016C268.164 79.016 267.694 79.1227 267.332 79.336C266.99 79.528 266.724 79.7947 266.532 80.136C266.34 80.4773 266.212 80.872 266.148 81.32C266.084 81.7467 266.052 82.1947 266.052 82.664V85.832H269.572V88.296ZM298.371 83.016C297.689 82.2693 296.814 81.672 295.747 81.224C294.702 80.776 293.529 80.552 292.227 80.552C290.905 80.552 289.71 80.7973 288.643 81.288C287.577 81.7573 286.67 82.408 285.923 83.24C285.177 84.072 284.601 85.0427 284.195 86.152C283.79 87.24 283.587 88.4027 283.587 89.64C283.587 90.8987 283.79 92.0827 284.195 93.192C284.601 94.3013 285.177 95.272 285.923 96.104C286.67 96.9147 287.587 97.5547 288.675 98.024C289.763 98.4933 290.979 98.728 292.323 98.728C293.39 98.728 294.371 98.632 295.267 98.44C296.163 98.248 296.942 97.9707 297.603 97.608V91.304H292.579V88.616H300.739V99.592C299.545 100.232 298.243 100.723 296.835 101.064C295.427 101.405 293.891 101.576 292.227 101.576C290.457 101.576 288.825 101.288 287.331 100.712C285.859 100.115 284.59 99.2933 283.523 98.248C282.457 97.1813 281.625 95.9227 281.027 94.472C280.43 93 280.131 91.3893 280.131 89.64C280.131 87.8693 280.43 86.2587 281.027 84.808C281.646 83.336 282.489 82.088 283.555 81.064C284.643 80.0187 285.923 79.208 287.395 78.632C288.867 78.056 290.467 77.768 292.195 77.768C294.009 77.768 295.619 78.0347 297.027 78.568C298.457 79.1013 299.641 79.816 300.579 80.712L298.371 83.016ZM307.214 103.592C307.875 104.339 308.696 104.936 309.678 105.384C310.68 105.832 311.704 106.056 312.75 106.056C313.752 106.056 314.595 105.907 315.278 105.608C315.96 105.331 316.504 104.936 316.91 104.424C317.336 103.933 317.635 103.347 317.806 102.664C317.998 101.981 318.094 101.245 318.094 100.456V98.504H318.03C317.475 99.3573 316.718 100.008 315.758 100.456C314.798 100.904 313.774 101.128 312.686 101.128C311.534 101.128 310.478 100.925 309.518 100.52C308.579 100.115 307.779 99.56 307.118 98.856C306.456 98.152 305.944 97.3307 305.582 96.392C305.219 95.432 305.038 94.408 305.038 93.32C305.038 92.232 305.219 91.208 305.582 90.248C305.944 89.288 306.456 88.456 307.118 87.752C307.779 87.0267 308.579 86.4613 309.518 86.056C310.456 85.6293 311.502 85.416 312.654 85.416C313.742 85.416 314.776 85.6507 315.758 86.12C316.76 86.5893 317.55 87.304 318.126 88.264H318.19V85.832H321.102V100.232C321.102 101.341 320.963 102.397 320.686 103.4C320.408 104.424 319.939 105.32 319.278 106.088C318.616 106.877 317.752 107.507 316.686 107.976C315.619 108.445 314.296 108.68 312.718 108.68C311.395 108.68 310.062 108.435 308.718 107.944C307.395 107.475 306.254 106.803 305.294 105.928L307.214 103.592ZM308.141 93.256C308.141 93.96 308.248 94.632 308.462 95.272C308.696 95.912 309.027 96.4773 309.454 96.968C309.902 97.4587 310.435 97.8533 311.054 98.152C311.672 98.4507 312.376 98.6 313.166 98.6C313.934 98.6 314.638 98.4613 315.278 98.184C315.918 97.9067 316.462 97.5333 316.91 97.064C317.358 96.5733 317.699 96.008 317.934 95.368C318.19 94.7067 318.318 94.0027 318.318 93.256C318.318 92.5307 318.19 91.848 317.934 91.208C317.699 90.568 317.347 90.0027 316.878 89.512C316.43 89.0213 315.886 88.6373 315.246 88.36C314.627 88.0613 313.934 87.912 313.166 87.912C312.376 87.912 311.672 88.0613 311.054 88.36C310.435 88.6373 309.902 89.0213 309.454 89.512C309.027 89.9813 308.696 90.5467 308.462 91.208C308.248 91.848 308.141 92.5307 308.141 93.256ZM334.408 78.344H337.576V87.816H349.032V78.344H352.232V101H349.032V90.632H337.576V101H334.408V78.344ZM360.697 88.136C361.059 87.3893 361.678 86.7493 362.553 86.216C363.427 85.6827 364.409 85.416 365.497 85.416C366.478 85.416 367.321 85.5867 368.025 85.928C368.729 86.248 369.315 86.6853 369.785 87.24C370.254 87.7947 370.595 88.4453 370.809 89.192C371.043 89.9387 371.161 90.7387 371.161 91.592V101H368.153V92.616C368.153 91.9973 368.099 91.4107 367.993 90.856C367.907 90.3013 367.737 89.8107 367.481 89.384C367.225 88.9573 366.873 88.616 366.425 88.36C365.998 88.104 365.433 87.976 364.729 87.976C363.534 87.976 362.553 88.4347 361.785 89.352C361.017 90.248 360.633 91.4533 360.633 92.968V101H357.625V76.808H360.633V88.136H360.697ZM387.576 101H384.408V78.344H387.576V101ZM395.976 101H392.968V85.832H395.976V101ZM396.488 80.36C396.488 80.9147 396.285 81.3733 395.88 81.736C395.496 82.0987 395.026 82.28 394.472 82.28C393.917 82.28 393.448 82.0987 393.064 81.736C392.68 81.352 392.488 80.8933 392.488 80.36C392.488 79.8053 392.68 79.3467 393.064 78.984C393.448 78.6 393.917 78.408 394.472 78.408C395.026 78.408 395.496 78.6 395.88 78.984C396.285 79.3467 396.488 79.8053 396.488 80.36ZM409.674 95.944C409.845 96.7547 410.218 97.4267 410.794 97.96C411.37 98.4933 412.085 98.76 412.938 98.76C413.621 98.76 414.175 98.632 414.602 98.376C415.05 98.12 415.402 97.7787 415.658 97.352C415.914 96.904 416.095 96.392 416.202 95.816C416.309 95.2187 416.362 94.5893 416.362 93.928V78.344H419.53V94.056C419.53 94.8453 419.445 95.6773 419.274 96.552C419.103 97.4267 418.783 98.2373 418.314 98.984C417.845 99.7307 417.183 100.349 416.33 100.84C415.498 101.331 414.421 101.576 413.098 101.576C411.37 101.576 409.962 101.128 408.874 100.232C407.786 99.336 407.071 98.184 406.73 96.776L409.674 95.944ZM421.422 105.928C421.848 106.035 422.254 106.088 422.638 106.088C423.086 106.088 423.448 106.003 423.726 105.832C424.003 105.661 424.216 105.427 424.366 105.128C424.515 104.851 424.611 104.509 424.654 104.104C424.718 103.72 424.75 103.304 424.75 102.856V85.832H427.758V102.952C427.758 103.72 427.683 104.445 427.534 105.128C427.406 105.811 427.16 106.419 426.798 106.952C426.435 107.485 425.934 107.901 425.294 108.2C424.654 108.52 423.832 108.68 422.83 108.68C422.552 108.68 422.254 108.659 421.934 108.616C421.614 108.573 421.336 108.531 421.102 108.488L421.422 105.928ZM428.27 80.36C428.27 80.9147 428.067 81.3733 427.662 81.736C427.278 82.0987 426.808 82.28 426.254 82.28C425.699 82.28 425.219 82.0987 424.814 81.736C424.43 81.352 424.238 80.8933 424.238 80.36C424.238 79.8053 424.43 79.3467 424.814 78.984C425.219 78.6 425.699 78.408 426.254 78.408C426.808 78.408 427.278 78.6 427.662 78.984C428.067 79.3467 428.27 79.8053 428.27 80.36ZM444.326 88.328H444.39L454.502 78.344H458.886L447.878 88.712L459.558 101H455.014L444.39 89.288H444.326V101H441.158V78.344H444.326V88.328ZM465.164 92.424H465.26L471.628 85.832H475.66L468.556 92.712L476.268 101H472.108L465.26 93.128H465.164V101H462.156V76.808H465.164V92.424ZM490.295 98.184H500.407V101H487.127V78.344H490.295V98.184ZM506.383 101H503.375V76.808H506.383V101ZM531.495 95.752H531.559L538.247 78.344H543.175V101H540.007V82.056H539.943L532.423 101H530.407L522.919 82.056H522.855V101H519.783V78.344H524.711L531.495 95.752ZM551.474 88.328C551.858 87.5173 552.466 86.8347 553.298 86.28C554.151 85.704 555.154 85.416 556.306 85.416C557.33 85.416 558.247 85.6507 559.058 86.12C559.89 86.5893 560.54 87.368 561.01 88.456C561.522 87.4747 562.236 86.728 563.154 86.216C564.071 85.6827 565.074 85.416 566.162 85.416C567.143 85.416 567.986 85.5867 568.69 85.928C569.394 86.248 569.98 86.6853 570.45 87.24C570.919 87.7947 571.26 88.4453 571.474 89.192C571.708 89.9387 571.826 90.7387 571.826 91.592V101H568.818V92.584C568.818 91.9653 568.764 91.3787 568.658 90.824C568.551 90.2693 568.37 89.7787 568.114 89.352C567.858 88.9253 567.516 88.584 567.09 88.328C566.663 88.072 566.119 87.944 565.458 87.944C564.775 87.944 564.188 88.0933 563.698 88.392C563.207 88.6693 562.802 89.0427 562.482 89.512C562.183 89.96 561.959 90.472 561.81 91.048C561.682 91.624 561.618 92.2107 561.618 92.808V101H558.61V91.976C558.61 91.3787 558.556 90.8347 558.45 90.344C558.343 89.8533 558.162 89.4373 557.906 89.096C557.65 88.7333 557.319 88.456 556.914 88.264C556.508 88.0507 556.007 87.944 555.41 87.944C554.3 87.944 553.372 88.4027 552.626 89.32C551.9 90.216 551.538 91.4213 551.538 92.936V101H548.53V89.096C548.53 88.6907 548.519 88.168 548.498 87.528C548.476 86.888 548.444 86.3227 548.402 85.832H551.25C551.292 86.216 551.324 86.6533 551.346 87.144C551.367 87.6133 551.378 88.008 551.378 88.328H551.474ZM601.033 96.456H601.097V78.344H604.265V101H600.265L588.297 82.504H588.233V101H585.065V78.344H589.193L601.033 96.456ZM612.343 85.832C612.386 86.216 612.418 86.6533 612.439 87.144C612.461 87.6133 612.471 88.008 612.471 88.328H612.567C612.759 87.9227 613.015 87.5493 613.335 87.208C613.677 86.8453 614.061 86.536 614.487 86.28C614.914 86.0027 615.383 85.7893 615.895 85.64C616.407 85.4907 616.941 85.416 617.495 85.416C618.477 85.416 619.319 85.5867 620.023 85.928C620.727 86.248 621.314 86.6853 621.783 87.24C622.253 87.7947 622.594 88.4453 622.807 89.192C623.042 89.9387 623.159 90.7387 623.159 91.592V101H620.151V92.584C620.151 91.9653 620.098 91.3787 619.991 90.824C619.906 90.2693 619.735 89.7787 619.479 89.352C619.223 88.9253 618.871 88.584 618.423 88.328C617.975 88.072 617.399 87.944 616.695 87.944C615.501 87.944 614.519 88.4027 613.751 89.32C613.005 90.216 612.631 91.4213 612.631 92.936V101H609.623V89.096C609.623 88.6907 609.613 88.168 609.591 87.528C609.57 86.888 609.538 86.3227 609.495 85.832H612.343ZM659.256 89.64C659.256 91.3893 658.947 93 658.328 94.472C657.731 95.9227 656.899 97.1813 655.832 98.248C654.766 99.2933 653.496 100.115 652.024 100.712C650.552 101.288 648.952 101.576 647.224 101.576C645.496 101.576 643.896 101.288 642.424 100.712C640.974 100.115 639.715 99.2933 638.648 98.248C637.582 97.1813 636.75 95.9227 636.152 94.472C635.555 93 635.256 91.3893 635.256 89.64C635.256 87.8693 635.555 86.2587 636.152 84.808C636.75 83.336 637.582 82.088 638.648 81.064C639.715 80.0187 640.974 79.208 642.424 78.632C643.896 78.056 645.496 77.768 647.224 77.768C648.952 77.768 650.552 78.056 652.024 78.632C653.496 79.208 654.766 80.0187 655.832 81.064C656.899 82.088 657.731 83.336 658.328 84.808C658.947 86.2587 659.256 87.8693 659.256 89.64ZM655.832 89.64C655.832 88.4027 655.63 87.24 655.224 86.152C654.819 85.0427 654.243 84.072 653.496 83.24C652.75 82.408 651.843 81.7573 650.776 81.288C649.731 80.7973 648.547 80.552 647.224 80.552C645.923 80.552 644.739 80.7973 643.672 81.288C642.627 81.7573 641.731 82.408 640.984 83.24C640.259 84.072 639.694 85.0427 639.288 86.152C638.883 87.24 638.68 88.4027 638.68 89.64C638.68 90.8987 638.883 92.0827 639.288 93.192C639.694 94.3013 640.27 95.272 641.016 96.104C641.763 96.9147 642.659 97.5547 643.704 98.024C644.75 98.4933 645.923 98.728 647.224 98.728C648.526 98.728 649.71 98.4933 650.776 98.024C651.843 97.5547 652.75 96.9147 653.496 96.104C654.243 95.272 654.819 94.3013 655.224 93.192C655.63 92.0827 655.832 90.8987 655.832 89.64ZM678.765 93.384C678.765 94.5573 678.551 95.6347 678.125 96.616C677.719 97.5973 677.143 98.4507 676.397 99.176C675.671 99.88 674.807 100.435 673.805 100.84C672.802 101.224 671.725 101.416 670.573 101.416C669.421 101.416 668.343 101.224 667.341 100.84C666.338 100.435 665.474 99.88 664.749 99.176C664.023 98.4507 663.447 97.5973 663.021 96.616C662.615 95.6347 662.413 94.5573 662.413 93.384C662.413 92.2107 662.615 91.144 663.021 90.184C663.447 89.2027 664.023 88.36 664.749 87.656C665.474 86.952 666.338 86.408 667.341 86.024C668.343 85.6187 669.421 85.416 670.573 85.416C671.725 85.416 672.802 85.6187 673.805 86.024C674.807 86.408 675.671 86.952 676.397 87.656C677.143 88.36 677.719 89.2027 678.125 90.184C678.551 91.144 678.765 92.2107 678.765 93.384ZM675.629 93.384C675.629 92.6587 675.511 91.9653 675.277 91.304C675.063 90.6427 674.743 90.0667 674.317 89.576C673.89 89.064 673.357 88.6587 672.717 88.36C672.098 88.0613 671.383 87.912 670.573 87.912C669.762 87.912 669.037 88.0613 668.397 88.36C667.778 88.6587 667.255 89.064 666.829 89.576C666.402 90.0667 666.071 90.6427 665.837 91.304C665.623 91.9653 665.516 92.6587 665.516 93.384C665.516 94.1093 665.623 94.8027 665.837 95.464C666.071 96.1253 666.402 96.712 666.829 97.224C667.255 97.736 667.778 98.1413 668.397 98.44C669.037 98.7387 669.762 98.888 670.573 98.888C671.383 98.888 672.098 98.7387 672.717 98.44C673.357 98.1413 673.89 97.736 674.317 97.224C674.743 96.712 675.063 96.1253 675.277 95.464C675.511 94.8027 675.629 94.1093 675.629 93.384ZM691.096 78.344H698.008C699.224 78.344 700.333 78.472 701.336 78.728C702.338 78.9627 703.192 79.336 703.896 79.848C704.6 80.36 705.144 81.0107 705.528 81.8C705.912 82.5893 706.104 83.5387 706.104 84.648C706.104 85.7787 705.89 86.7493 705.464 87.56C705.058 88.3707 704.482 89.032 703.736 89.544C703.01 90.056 702.136 90.44 701.112 90.696C700.109 90.9307 699.021 91.048 697.848 91.048H694.264V101H691.096V78.344ZM694.264 88.36H697.624C698.392 88.36 699.096 88.296 699.736 88.168C700.397 88.0187 700.962 87.8053 701.432 87.528C701.901 87.2293 702.264 86.8453 702.52 86.376C702.776 85.9067 702.904 85.3307 702.904 84.648C702.904 83.9653 702.765 83.4 702.488 82.952C702.232 82.4827 701.869 82.1093 701.4 81.832C700.952 81.5333 700.408 81.3307 699.768 81.224C699.128 81.096 698.434 81.032 697.688 81.032H694.264V88.36ZM712.975 108.68H709.967V85.832H712.911V88.2H713.007C713.498 87.3893 714.212 86.728 715.151 86.216C716.111 85.6827 717.22 85.416 718.479 85.416C719.61 85.416 720.634 85.6187 721.551 86.024C722.49 86.4293 723.29 86.9947 723.951 87.72C724.634 88.4453 725.156 89.2987 725.519 90.28C725.882 91.24 726.063 92.2747 726.063 93.384C726.063 94.4933 725.882 95.5387 725.519 96.52C725.156 97.5013 724.644 98.3547 723.983 99.08C723.322 99.8053 722.522 100.381 721.583 100.808C720.644 101.213 719.588 101.416 718.415 101.416C717.327 101.416 716.303 101.181 715.343 100.712C714.383 100.243 713.626 99.5813 713.071 98.728H712.975V108.68ZM722.959 93.384C722.959 92.68 722.852 91.9973 722.639 91.336C722.426 90.6747 722.106 90.088 721.679 89.576C721.252 89.064 720.719 88.6587 720.079 88.36C719.46 88.0613 718.735 87.912 717.903 87.912C717.135 87.912 716.431 88.0613 715.791 88.36C715.172 88.6587 714.639 89.064 714.191 89.576C713.743 90.088 713.391 90.6747 713.135 91.336C712.9 91.9973 712.783 92.6907 712.783 93.416C712.783 94.1413 712.9 94.8347 713.135 95.496C713.391 96.1573 713.743 96.744 714.191 97.256C714.639 97.7467 715.172 98.1413 715.791 98.44C716.431 98.7387 717.135 98.888 717.903 98.888C718.735 98.888 719.46 98.7387 720.079 98.44C720.719 98.12 721.252 97.704 721.679 97.192C722.106 96.68 722.426 96.0933 722.639 95.432C722.852 94.7707 722.959 94.088 722.959 93.384ZM762.344 101H749.032C747.304 101 745.715 100.723 744.264 100.168C742.835 99.6133 741.598 98.8347 740.552 97.832C739.507 96.8293 738.696 95.6133 738.12 94.184C737.544 92.7547 737.256 91.1547 737.256 89.384C737.256 87.6773 737.555 86.12 738.152 84.712C738.75 83.2827 739.571 82.056 740.616 81.032C741.662 80.008 742.899 79.208 744.328 78.632C745.779 78.056 747.358 77.768 749.064 77.768C750.75 77.768 752.307 78.056 753.736 78.632C755.166 79.208 756.403 80.008 757.448 81.032C758.494 82.056 759.304 83.2827 759.88 84.712C760.478 86.12 760.776 87.6773 760.776 89.384C760.776 91.4107 760.35 93.1813 759.496 94.696C758.643 96.2107 757.512 97.4053 756.104 98.28V98.344H762.344V101ZM740.68 89.384C740.68 90.6213 740.872 91.784 741.256 92.872C741.662 93.9387 742.227 94.8667 742.952 95.656C743.678 96.4453 744.552 97.0747 745.576 97.544C746.6 97.992 747.752 98.216 749.032 98.216C750.27 98.216 751.4 97.992 752.424 97.544C753.47 97.0747 754.355 96.4453 755.08 95.656C755.806 94.8667 756.371 93.9387 756.776 92.872C757.182 91.784 757.384 90.6213 757.384 89.384C757.384 88.168 757.192 87.0267 756.808 85.96C756.424 84.8933 755.87 83.9653 755.144 83.176C754.419 82.3653 753.544 81.7253 752.52 81.256C751.496 80.7867 750.344 80.552 749.064 80.552C747.784 80.552 746.632 80.7867 745.608 81.256C744.584 81.7253 743.699 82.3653 742.952 83.176C742.227 83.9653 741.662 84.8933 741.256 85.96C740.872 87.0267 740.68 88.168 740.68 89.384ZM777.311 98.728C776.756 99.5813 775.988 100.243 775.007 100.712C774.047 101.181 773.023 101.416 771.935 101.416C770.761 101.416 769.705 101.213 768.767 100.808C767.828 100.381 767.028 99.8053 766.367 99.08C765.705 98.3547 765.193 97.5013 764.831 96.52C764.468 95.5387 764.287 94.4933 764.287 93.384C764.287 92.2747 764.468 91.24 764.831 90.28C765.193 89.2987 765.705 88.4453 766.367 87.72C767.049 86.9947 767.86 86.4293 768.799 86.024C769.737 85.6187 770.772 85.416 771.903 85.416C773.14 85.416 774.228 85.6827 775.167 86.216C776.127 86.728 776.863 87.3893 777.375 88.2H777.471V85.832H780.383V108.68H777.375V98.728H777.311ZM767.423 93.384C767.423 94.088 767.529 94.7707 767.743 95.432C767.956 96.0933 768.276 96.68 768.703 97.192C769.129 97.704 769.652 98.12 770.271 98.44C770.889 98.7387 771.615 98.888 772.447 98.888C773.215 98.888 773.908 98.7387 774.527 98.44C775.167 98.1413 775.711 97.7467 776.159 97.256C776.607 96.744 776.948 96.1573 777.183 95.496C777.439 94.8347 777.567 94.1413 777.567 93.416C777.567 92.6907 777.439 91.9973 777.183 91.336C776.948 90.6747 776.607 90.088 776.159 89.576C775.711 89.064 775.167 88.6587 774.527 88.36C773.908 88.0613 773.215 87.912 772.447 87.912C771.615 87.912 770.889 88.0613 770.271 88.36C769.652 88.6587 769.129 89.064 768.703 89.576C768.276 90.088 767.956 90.6747 767.743 91.336C767.529 91.9973 767.423 92.68 767.423 93.384ZM796.889 101H793.721V78.344H800.985C802.073 78.344 803.107 78.4613 804.089 78.696C805.07 78.9093 805.923 79.2613 806.649 79.752C807.395 80.2427 807.982 80.8933 808.409 81.704C808.835 82.4933 809.049 83.464 809.049 84.616C809.049 86.28 808.537 87.624 807.513 88.648C806.489 89.672 805.166 90.3227 803.545 90.6L809.881 101H806.041L800.281 90.92H796.889V101ZM796.889 88.264H800.537C801.283 88.264 801.977 88.2 802.617 88.072C803.257 87.944 803.811 87.7413 804.281 87.464C804.771 87.1653 805.155 86.792 805.433 86.344C805.71 85.8747 805.849 85.2987 805.849 84.616C805.849 83.9333 805.71 83.368 805.433 82.92C805.155 82.4507 804.782 82.0773 804.313 81.8C803.865 81.5227 803.331 81.3307 802.713 81.224C802.094 81.096 801.443 81.032 800.761 81.032H796.889V88.264ZM813.217 89.096C813.217 88.6907 813.206 88.168 813.185 87.528C813.164 86.888 813.132 86.3227 813.089 85.832H815.937C815.98 86.216 816.012 86.664 816.033 87.176C816.054 87.6667 816.065 88.072 816.065 88.392H816.161C816.588 87.496 817.206 86.7813 818.017 86.248C818.849 85.6933 819.777 85.416 820.801 85.416C821.27 85.416 821.665 85.4587 821.985 85.544L821.857 88.328C821.43 88.2213 820.972 88.168 820.481 88.168C819.756 88.168 819.126 88.3067 818.593 88.584C818.06 88.84 817.612 89.192 817.249 89.64C816.908 90.088 816.652 90.6107 816.481 91.208C816.31 91.784 816.225 92.392 816.225 93.032V101H813.217V89.096ZM14.016 126.536C13.568 125.917 12.96 125.416 12.192 125.032C11.424 124.627 10.56 124.424 9.6 124.424C9.088 124.424 8.56533 124.499 8.032 124.648C7.52 124.776 7.05067 125 6.624 125.32C6.19733 125.619 5.84533 126.003 5.568 126.472C5.312 126.92 5.184 127.464 5.184 128.104C5.184 128.723 5.30133 129.245 5.536 129.672C5.792 130.077 6.12267 130.429 6.528 130.728C6.95467 131.005 7.44533 131.251 8 131.464C8.576 131.656 9.184 131.859 9.824 132.072C10.592 132.307 11.3707 132.573 12.16 132.872C12.9493 133.171 13.664 133.565 14.304 134.056C14.944 134.547 15.4667 135.165 15.872 135.912C16.2773 136.637 16.48 137.565 16.48 138.696C16.48 139.869 16.256 140.893 15.808 141.768C15.3813 142.621 14.8053 143.336 14.08 143.912C13.3547 144.467 12.512 144.883 11.552 145.16C10.6133 145.437 9.64267 145.576 8.64 145.576C7.21067 145.576 5.824 145.299 4.48 144.744C3.15733 144.189 2.05867 143.368 1.184 142.28L3.648 140.2C4.18133 140.989 4.896 141.629 5.792 142.12C6.688 142.611 7.65867 142.856 8.704 142.856C9.23733 142.856 9.77067 142.781 10.304 142.632C10.8373 142.483 11.3173 142.248 11.744 141.928C12.192 141.608 12.5547 141.213 12.832 140.744C13.1093 140.253 13.248 139.667 13.248 138.984C13.248 138.301 13.0987 137.736 12.8 137.288C12.5227 136.819 12.1387 136.424 11.648 136.104C11.1573 135.784 10.5813 135.517 9.92 135.304C9.28 135.069 8.59733 134.835 7.872 134.6C7.14667 134.387 6.432 134.131 5.728 133.832C5.024 133.512 4.39467 133.117 3.84 132.648C3.28533 132.157 2.83733 131.56 2.496 130.856C2.15467 130.152 1.984 129.277 1.984 128.232C1.984 127.101 2.208 126.131 2.656 125.32C3.12533 124.509 3.72267 123.837 4.448 123.304C5.19467 122.771 6.02667 122.387 6.944 122.152C7.88267 121.896 8.82133 121.768 9.76 121.768C11.0827 121.768 12.32 122.003 13.472 122.472C14.624 122.941 15.552 123.571 16.256 124.36L14.016 126.536ZM29.0028 133.672C28.6614 133.117 28.1814 132.669 27.5628 132.328C26.9441 131.965 26.2508 131.784 25.4828 131.784C25.1414 131.784 24.8001 131.827 24.4588 131.912C24.1174 131.976 23.8081 132.093 23.5308 132.264C23.2748 132.413 23.0614 132.616 22.8908 132.872C22.7414 133.107 22.6668 133.405 22.6668 133.768C22.6668 134.408 22.9548 134.888 23.5308 135.208C24.1068 135.507 24.9708 135.784 26.1228 136.04C26.8481 136.211 27.5201 136.413 28.1388 136.648C28.7574 136.883 29.2908 137.181 29.7388 137.544C30.2081 137.885 30.5708 138.301 30.8268 138.792C31.0828 139.283 31.2108 139.859 31.2108 140.52C31.2108 141.416 31.0401 142.173 30.6988 142.792C30.3574 143.411 29.8988 143.923 29.3228 144.328C28.7681 144.712 28.1281 144.989 27.4028 145.16C26.6774 145.331 25.9308 145.416 25.1628 145.416C24.0108 145.416 22.8801 145.192 21.7708 144.744C20.6828 144.296 19.7761 143.613 19.0508 142.696L21.1948 140.872C21.6001 141.469 22.1548 141.971 22.8588 142.376C23.5841 142.781 24.3734 142.984 25.2268 142.984C25.6108 142.984 25.9734 142.952 26.3148 142.888C26.6774 142.803 26.9974 142.675 27.2748 142.504C27.5734 142.333 27.8081 142.109 27.9788 141.832C28.1494 141.555 28.2348 141.203 28.2348 140.776C28.2348 140.072 27.8934 139.549 27.2108 139.208C26.5494 138.867 25.5681 138.547 24.2668 138.248C23.7548 138.12 23.2321 137.971 22.6988 137.8C22.1868 137.608 21.7174 137.352 21.2908 137.032C20.8641 136.712 20.5121 136.317 20.2348 135.848C19.9788 135.357 19.8508 134.76 19.8508 134.056C19.8508 133.245 20.0108 132.552 20.3307 131.976C20.6721 131.379 21.1094 130.899 21.6428 130.536C22.1761 130.152 22.7841 129.875 23.4668 129.704C24.1494 129.512 24.8534 129.416 25.5788 129.416C26.6668 129.416 27.7121 129.629 28.7148 130.056C29.7388 130.483 30.5281 131.101 31.0828 131.912L29.0028 133.672ZM50.3443 145H47.1763V125.128H39.9123V122.344H57.6083V125.128H50.3443V145ZM67.891 132.296H63.859V140.2C63.859 141.117 64.0297 141.779 64.371 142.184C64.7123 142.568 65.2563 142.76 66.003 142.76C66.2803 142.76 66.579 142.728 66.899 142.664C67.219 142.6 67.507 142.504 67.763 142.376L67.859 144.84C67.4963 144.968 67.091 145.064 66.643 145.128C66.2163 145.213 65.7683 145.256 65.299 145.256C63.8697 145.256 62.771 144.861 62.003 144.072C61.2563 143.283 60.883 142.099 60.883 140.52V132.296H57.971V129.832H60.883V125.48H63.859V129.832H67.891V132.296ZM87.7983 145.576C86.3049 145.576 85.0036 145.331 83.8943 144.84C82.7849 144.328 81.8676 143.656 81.1423 142.824C80.4169 141.992 79.8729 141.043 79.5103 139.976C79.1689 138.888 78.9983 137.768 78.9983 136.616V122.344H82.1663V136.424C82.1663 137.192 82.2623 137.96 82.4543 138.728C82.6463 139.475 82.9556 140.147 83.3823 140.744C83.8303 141.341 84.4063 141.821 85.1103 142.184C85.8356 142.547 86.7316 142.728 87.7983 142.728C88.8436 142.728 89.7289 142.547 90.4543 142.184C91.1796 141.821 91.7556 141.341 92.1823 140.744C92.6303 140.147 92.9502 139.475 93.1423 138.728C93.3343 137.96 93.4303 137.192 93.4303 136.424V122.344H96.5983V136.616C96.5983 137.768 96.4169 138.888 96.0543 139.976C95.7129 141.043 95.1796 141.992 94.4543 142.824C93.7289 143.656 92.8116 144.328 91.7023 144.84C90.5929 145.331 89.2916 145.576 87.7983 145.576ZM112.468 145C112.425 144.616 112.393 144.189 112.372 143.72C112.35 143.229 112.34 142.824 112.34 142.504H112.276C111.892 143.315 111.241 144.008 110.324 144.584C109.428 145.139 108.425 145.416 107.316 145.416C106.334 145.416 105.481 145.256 104.756 144.936C104.052 144.616 103.465 144.179 102.996 143.624C102.548 143.048 102.206 142.387 101.972 141.64C101.758 140.893 101.652 140.093 101.652 139.24V129.832H104.66V138.216C104.66 138.835 104.702 139.432 104.788 140.008C104.894 140.563 105.076 141.053 105.332 141.48C105.588 141.907 105.94 142.248 106.388 142.504C106.836 142.76 107.412 142.888 108.116 142.888C109.332 142.888 110.313 142.44 111.06 141.544C111.806 140.627 112.18 139.411 112.18 137.896V129.832H115.188V141.736C115.188 142.141 115.198 142.664 115.22 143.304C115.241 143.944 115.273 144.509 115.316 145H112.468ZM135.522 140.904H135.618L142.434 122.344H145.858L136.962 145H134.018L125.186 122.344H128.706L135.522 140.904ZM155.509 145H152.245L146.069 129.832H149.397L153.845 141.768H153.909L158.389 129.832H161.589L155.509 145ZM178.267 140.392H178.331L183.643 122.344H187.131L192.411 140.392H192.475L197.467 122.344H200.827L194.171 145H190.875L185.371 126.792H185.307L179.803 145H176.507L169.851 122.344H173.275L178.267 140.392ZM204.868 129.832L208.292 141.416H208.356L211.972 129.832H215.14L218.82 141.416H218.884L222.308 129.832H225.476L220.452 145H217.316L213.572 133.608H213.508L209.796 145H206.66L201.604 129.832H204.868ZM244.219 130.792L249.595 122.344H253.307L246.075 133.064L254.299 145H250.299L244.091 135.464L238.011 145H234.107L242.203 133L234.907 122.344H238.779L244.219 130.792ZM261.21 137.032L255.674 129.832H259.386L263.098 135.048L266.842 129.832H270.362L264.89 137L271.002 145H267.258L263.034 139.08L258.746 145H255.13L261.21 137.032ZM290.053 145H286.853V135.208L278.373 122.344H282.277L288.549 132.584L294.853 122.344H298.533L290.053 135.208V145ZM306.79 141.736H306.854L311.046 129.832H314.246L306.885 148.584C306.63 149.224 306.352 149.789 306.054 150.28C305.755 150.792 305.403 151.219 304.998 151.56C304.592 151.923 304.112 152.2 303.558 152.392C303.024 152.584 302.384 152.68 301.638 152.68C301.318 152.68 300.987 152.659 300.646 152.616C300.326 152.595 299.995 152.541 299.654 152.456L299.942 149.8C300.454 149.971 300.955 150.056 301.446 150.056C302.235 150.056 302.822 149.832 303.206 149.384C303.59 148.957 303.942 148.339 304.262 147.528L305.222 145L298.726 129.832H302.086L306.79 141.736ZM340.259 125.128L327.459 142.184H340.451V145H323.618V142.216L336.387 125.128H323.875V122.344H340.259V125.128ZM354.908 132.296L346.268 142.472H355.26V145H342.556V142.536L351.132 132.296H342.972V129.832H354.908V132.296ZM373.817 121.768C375.161 121.768 376.313 122.077 377.273 122.696C378.255 123.315 379.055 124.168 379.673 125.256C380.313 126.323 380.783 127.581 381.081 129.032C381.38 130.483 381.529 132.029 381.529 133.672C381.529 135.336 381.38 136.893 381.081 138.344C380.783 139.773 380.313 141.032 379.673 142.12C379.055 143.187 378.255 144.029 377.273 144.648C376.313 145.267 375.161 145.576 373.817 145.576C372.473 145.576 371.311 145.267 370.329 144.648C369.348 144.029 368.537 143.187 367.897 142.12C367.279 141.032 366.82 139.773 366.521 138.344C366.223 136.893 366.073 135.336 366.073 133.672C366.073 132.029 366.223 130.483 366.521 129.032C366.82 127.581 367.279 126.323 367.897 125.256C368.537 124.168 369.348 123.315 370.329 122.696C371.311 122.077 372.473 121.768 373.817 121.768ZM373.817 124.36C372.879 124.36 372.111 124.669 371.513 125.288C370.916 125.885 370.447 126.653 370.105 127.592C369.785 128.509 369.561 129.512 369.433 130.6C369.305 131.688 369.241 132.712 369.241 133.672C369.241 134.632 369.305 135.656 369.433 136.744C369.561 137.832 369.785 138.835 370.105 139.752C370.447 140.669 370.916 141.437 371.513 142.056C372.111 142.653 372.879 142.952 373.817 142.952C374.735 142.952 375.481 142.653 376.057 142.056C376.655 141.437 377.124 140.669 377.465 139.752C377.807 138.835 378.041 137.832 378.169 136.744C378.297 135.656 378.361 134.632 378.361 133.672C378.361 132.712 378.297 131.688 378.169 130.6C378.041 129.512 377.807 128.509 377.465 127.592C377.124 126.653 376.655 125.885 376.057 125.288C375.481 124.669 374.735 124.36 373.817 124.36ZM403.441 145H400.337V126.12L396.049 129.704L394.225 127.56L400.657 122.344H403.441V145ZM435.048 145H420.264V142.024L429.288 133.064C429.97 132.36 430.557 131.624 431.048 130.856C431.538 130.088 431.784 129.224 431.784 128.264C431.784 127.667 431.677 127.133 431.464 126.664C431.25 126.173 430.962 125.757 430.6 125.416C430.237 125.075 429.81 124.819 429.32 124.648C428.829 124.456 428.306 124.36 427.752 124.36C426.6 124.36 425.65 124.733 424.904 125.48C424.157 126.205 423.688 127.144 423.496 128.296L420.456 127.784C420.584 126.931 420.85 126.141 421.256 125.416C421.682 124.669 422.216 124.029 422.856 123.496C423.496 122.941 424.232 122.515 425.064 122.216C425.917 121.917 426.824 121.768 427.784 121.768C428.722 121.768 429.618 121.907 430.472 122.184C431.346 122.461 432.114 122.867 432.776 123.4C433.437 123.933 433.96 124.605 434.344 125.416C434.749 126.227 434.952 127.155 434.952 128.2C434.952 128.925 434.856 129.597 434.664 130.216C434.472 130.835 434.205 131.421 433.864 131.976C433.544 132.531 433.16 133.064 432.712 133.576C432.264 134.067 431.794 134.557 431.304 135.048L423.944 142.216H435.048V145ZM452.191 131.88H453.183C453.823 131.88 454.442 131.827 455.039 131.72C455.658 131.592 456.202 131.389 456.671 131.112C457.14 130.813 457.514 130.419 457.791 129.928C458.09 129.437 458.239 128.829 458.239 128.104C458.239 127.528 458.132 127.016 457.919 126.568C457.706 126.099 457.407 125.704 457.023 125.384C456.66 125.064 456.234 124.819 455.743 124.648C455.274 124.456 454.772 124.36 454.239 124.36C453.279 124.36 452.458 124.605 451.775 125.096C451.114 125.587 450.612 126.269 450.271 127.144L447.455 126.152C448.01 124.787 448.895 123.72 450.111 122.952C451.348 122.163 452.767 121.768 454.367 121.768C455.306 121.768 456.191 121.907 457.023 122.184C457.876 122.44 458.623 122.824 459.263 123.336C459.903 123.848 460.404 124.488 460.767 125.256C461.151 126.024 461.343 126.909 461.343 127.912C461.343 128.552 461.236 129.149 461.023 129.704C460.831 130.259 460.554 130.76 460.191 131.208C459.85 131.656 459.434 132.04 458.943 132.36C458.452 132.68 457.919 132.915 457.343 133.064V133.128C458.004 133.256 458.612 133.48 459.167 133.8C459.743 134.12 460.234 134.525 460.639 135.016C461.044 135.485 461.364 136.029 461.599 136.648C461.834 137.267 461.951 137.939 461.951 138.664C461.951 139.795 461.738 140.797 461.311 141.672C460.884 142.525 460.319 143.24 459.615 143.816C458.911 144.392 458.1 144.829 457.183 145.128C456.266 145.427 455.327 145.576 454.367 145.576C452.575 145.576 450.996 145.171 449.631 144.36C448.266 143.549 447.274 142.291 446.655 140.584L449.535 139.624C449.876 140.605 450.452 141.405 451.263 142.024C452.095 142.643 453.108 142.952 454.303 142.952C454.879 142.952 455.434 142.867 455.967 142.696C456.522 142.504 457.012 142.227 457.439 141.864C457.866 141.501 458.207 141.053 458.463 140.52C458.719 139.987 458.847 139.357 458.847 138.632C458.847 137.843 458.676 137.181 458.335 136.648C457.994 136.115 457.546 135.688 456.991 135.368C456.458 135.027 455.85 134.792 455.167 134.664C454.484 134.515 453.812 134.44 453.151 134.44H452.191V131.88ZM486.838 137.256H490.102V139.912H486.838V145H483.83V139.912H473.398V137.096L483.03 122.344H486.838V137.256ZM483.83 125.896H483.766L476.598 137.256H483.83V125.896ZM515.118 125.096H505.774L505.582 131.048C506.008 130.899 506.478 130.792 506.99 130.728C507.523 130.664 508.024 130.632 508.494 130.632C509.582 130.632 510.584 130.803 511.502 131.144C512.44 131.464 513.24 131.933 513.902 132.552C514.584 133.171 515.118 133.928 515.502 134.824C515.886 135.699 516.078 136.68 516.078 137.768C516.078 138.963 515.875 140.04 515.47 141C515.064 141.96 514.51 142.781 513.806 143.464C513.102 144.125 512.27 144.637 511.31 145C510.35 145.384 509.304 145.576 508.174 145.576C506.403 145.576 504.91 145.171 503.694 144.36C502.478 143.528 501.56 142.419 500.942 141.032L503.758 139.912C504.12 140.829 504.686 141.565 505.454 142.12C506.243 142.675 507.15 142.952 508.174 142.952C508.835 142.952 509.454 142.835 510.03 142.6C510.606 142.365 511.107 142.035 511.534 141.608C511.96 141.181 512.291 140.669 512.526 140.072C512.782 139.475 512.91 138.813 512.91 138.088C512.91 137.235 512.76 136.499 512.462 135.88C512.184 135.24 511.8 134.717 511.31 134.312C510.819 133.907 510.254 133.608 509.614 133.416C508.974 133.224 508.302 133.128 507.598 133.128C506.744 133.128 505.87 133.245 504.974 133.48C504.078 133.715 503.278 134.013 502.574 134.376L502.894 122.344H515.118V125.096ZM533.861 131.464L533.893 131.528C534.213 131.336 534.639 131.187 535.173 131.08C535.706 130.973 536.218 130.92 536.709 130.92C537.69 130.92 538.607 131.101 539.461 131.464C540.335 131.805 541.093 132.296 541.733 132.936C542.373 133.555 542.874 134.301 543.237 135.176C543.599 136.051 543.781 137 543.781 138.024C543.781 139.155 543.578 140.189 543.173 141.128C542.789 142.045 542.245 142.835 541.541 143.496C540.837 144.157 540.005 144.669 539.045 145.032C538.106 145.395 537.082 145.576 535.973 145.576C534.842 145.576 533.797 145.384 532.837 145C531.877 144.637 531.045 144.125 530.341 143.464C529.658 142.803 529.114 142.013 528.709 141.096C528.325 140.179 528.133 139.187 528.133 138.12C528.133 136.883 528.335 135.763 528.741 134.76C529.146 133.757 529.679 132.733 530.341 131.688L536.261 122.344H539.941L533.861 131.464ZM531.269 138.152C531.269 138.813 531.375 139.443 531.589 140.04C531.823 140.616 532.143 141.117 532.549 141.544C532.975 141.971 533.477 142.312 534.053 142.568C534.629 142.824 535.269 142.952 535.973 142.952C536.677 142.952 537.306 142.835 537.861 142.6C538.437 142.365 538.927 142.035 539.333 141.608C539.759 141.16 540.079 140.648 540.293 140.072C540.527 139.475 540.645 138.824 540.645 138.12C540.645 137.437 540.527 136.808 540.293 136.232C540.079 135.656 539.77 135.155 539.365 134.728C538.981 134.301 538.501 133.971 537.925 133.736C537.349 133.501 536.709 133.384 536.005 133.384C535.301 133.384 534.65 133.501 534.053 133.736C533.477 133.971 532.975 134.301 532.549 134.728C532.143 135.155 531.823 135.656 531.589 136.232C531.375 136.808 531.269 137.448 531.269 138.152ZM569.98 125.16L560.892 145H557.34L566.78 125.096H555.548V122.344H569.98V125.16ZM593.363 133.064C593.961 133.213 594.515 133.469 595.027 133.832C595.561 134.173 596.019 134.589 596.403 135.08C596.787 135.571 597.086 136.136 597.299 136.776C597.534 137.416 597.651 138.099 597.651 138.824C597.651 139.891 597.449 140.84 597.043 141.672C596.638 142.504 596.083 143.208 595.379 143.784C594.697 144.36 593.897 144.797 592.979 145.096C592.062 145.416 591.091 145.576 590.067 145.576C589.043 145.576 588.062 145.416 587.123 145.096C586.206 144.797 585.395 144.36 584.691 143.784C584.009 143.208 583.465 142.504 583.059 141.672C582.654 140.84 582.451 139.891 582.451 138.824C582.451 138.077 582.558 137.384 582.771 136.744C583.006 136.104 583.315 135.539 583.699 135.048C584.105 134.557 584.563 134.152 585.075 133.832C585.609 133.491 586.163 133.235 586.739 133.064V133C585.715 132.637 584.873 132.019 584.211 131.144C583.571 130.269 583.251 129.203 583.251 127.944C583.251 127.005 583.433 126.163 583.795 125.416C584.158 124.648 584.649 123.997 585.267 123.464C585.886 122.909 586.601 122.493 587.411 122.216C588.243 121.917 589.129 121.768 590.067 121.768C590.985 121.768 591.859 121.917 592.691 122.216C593.523 122.493 594.238 122.899 594.835 123.432C595.454 123.944 595.945 124.584 596.307 125.352C596.67 126.099 596.851 126.941 596.851 127.88C596.851 129.117 596.521 130.195 595.859 131.112C595.219 132.029 594.387 132.659 593.363 133V133.064ZM586.355 128.04C586.355 128.552 586.441 129.032 586.611 129.48C586.803 129.928 587.059 130.323 587.379 130.664C587.721 130.984 588.115 131.24 588.563 131.432C589.033 131.624 589.534 131.72 590.067 131.72C590.579 131.72 591.059 131.624 591.507 131.432C591.955 131.24 592.35 130.984 592.691 130.664C593.033 130.323 593.299 129.928 593.491 129.48C593.683 129.032 593.779 128.552 593.779 128.04C593.779 127.507 593.673 127.016 593.459 126.568C593.267 126.099 593.001 125.704 592.659 125.384C592.339 125.043 591.955 124.787 591.507 124.616C591.059 124.424 590.579 124.328 590.067 124.328C589.534 124.328 589.033 124.424 588.563 124.616C588.115 124.787 587.721 125.043 587.379 125.384C587.059 125.704 586.803 126.099 586.611 126.568C586.441 127.016 586.355 127.507 586.355 128.04ZM585.619 138.664C585.619 139.304 585.726 139.891 585.939 140.424C586.153 140.957 586.451 141.416 586.835 141.8C587.241 142.163 587.71 142.451 588.243 142.664C588.798 142.877 589.406 142.984 590.067 142.984C590.707 142.984 591.294 142.877 591.827 142.664C592.382 142.451 592.851 142.163 593.235 141.8C593.619 141.416 593.918 140.957 594.131 140.424C594.366 139.891 594.483 139.304 594.483 138.664C594.483 138.045 594.366 137.48 594.131 136.968C593.918 136.435 593.619 135.976 593.235 135.592C592.851 135.208 592.382 134.909 591.827 134.696C591.294 134.483 590.707 134.376 590.067 134.376C589.427 134.376 588.83 134.483 588.275 134.696C587.742 134.909 587.273 135.208 586.867 135.592C586.483 135.976 586.174 136.435 585.939 136.968C585.726 137.48 585.619 138.045 585.619 138.664ZM619.243 135.848L619.211 135.816C618.891 136.008 618.453 136.157 617.899 136.264C617.643 136.307 617.376 136.349 617.099 136.392C616.843 136.413 616.597 136.424 616.363 136.424C615.36 136.424 614.432 136.253 613.579 135.912C612.725 135.549 611.979 135.059 611.339 134.44C610.699 133.8 610.197 133.043 609.835 132.168C609.472 131.293 609.291 130.344 609.291 129.32C609.291 128.189 609.483 127.165 609.867 126.248C610.272 125.309 610.827 124.509 611.531 123.848C612.235 123.187 613.067 122.675 614.027 122.312C614.987 121.949 616.021 121.768 617.131 121.768C618.24 121.768 619.275 121.96 620.235 122.344C621.195 122.707 622.016 123.219 622.699 123.88C623.403 124.541 623.947 125.331 624.331 126.248C624.736 127.165 624.939 128.157 624.939 129.224C624.939 130.461 624.736 131.581 624.331 132.584C623.925 133.587 623.403 134.611 622.763 135.656L616.843 145H613.163L619.243 135.848ZM621.835 129.192C621.835 128.531 621.717 127.912 621.483 127.336C621.269 126.739 620.949 126.227 620.523 125.8C620.117 125.352 619.627 125 619.051 124.744C618.475 124.488 617.835 124.36 617.131 124.36C616.427 124.36 615.787 124.488 615.211 124.744C614.635 124.979 614.133 125.309 613.707 125.736C613.301 126.163 612.981 126.675 612.747 127.272C612.533 127.869 612.427 128.52 612.427 129.224C612.427 129.907 612.533 130.536 612.747 131.112C612.981 131.688 613.301 132.189 613.707 132.616C614.112 133.043 614.603 133.373 615.179 133.608C615.755 133.843 616.395 133.96 617.099 133.96C617.803 133.96 618.443 133.843 619.019 133.608C619.616 133.373 620.117 133.043 620.523 132.616C620.949 132.189 621.269 131.688 621.483 131.112C621.717 130.536 621.835 129.896 621.835 129.192Z" fill="black"/>
</svg>
