<svg width="60" height="48" viewBox="0 0 60 48" fill="none" xmlns="http://www.w3.org/2000/svg">
<path d="M21.3636 25.1111C24.5455 27.3333 26.5909 31.3333 26.5909 35.3333C26.5909 42.2222 20.6818 48 13.6364 48C7.04545 48 0 44.2222 0 32.2222C0 22.8889 8.18182 8.22222 18.6364 0L21.3636 2.44444C17.7273 6 16.1364 9.77778 15.2273 13.1111C13.8636 19.1111 16.3636 21.5556 21.3636 25.1111ZM54.7727 25.1111C57.9545 27.3333 60 31.3333 60 35.3333C60 42.2222 54.0909 48 47.0455 48C40.4545 48 33.4091 44.2222 33.4091 32.2222C33.4091 22.8889 41.5909 8.22222 52.0455 0L54.7727 2.44444C51.1364 6 49.5455 9.77778 48.6364 13.1111C47.2727 19.1111 49.7727 21.5556 54.7727 25.1111Z" fill="#1ED760"/>
</svg>
