<svg width="843" height="145" viewBox="0 0 843 145" fill="none" xmlns="http://www.w3.org/2000/svg">
<path d="M3.6 38V9.6H15.56C16.7867 9.6 17.92 9.86666 18.96 10.4C20 10.9067 20.8933 11.5867 21.64 12.44C22.3867 13.2667 22.96 14.2133 23.36 15.28C23.7867 16.3467 24 17.4267 24 18.52C24 19.56 23.84 20.56 23.52 21.52C23.2267 22.4533 22.8 23.3067 22.24 24.08C21.68 24.8267 21.0133 25.4667 20.24 26C19.4667 26.5067 18.6 26.8533 17.64 27.04L24.64 38H21.48L14.76 27.52H6.36V38H3.6ZM6.36 25.04H15.68C16.5067 25.04 17.2533 24.8667 17.92 24.52C18.6133 24.1467 19.2 23.6533 19.68 23.04C20.16 22.4267 20.5333 21.7333 20.8 20.96C21.0667 20.1867 21.2 19.3733 21.2 18.52C21.2 17.6667 21.04 16.8533 20.72 16.08C20.4267 15.28 20.0133 14.5867 19.48 14C18.9733 13.4133 18.36 12.9467 17.64 12.6C16.9467 12.2533 16.2133 12.08 15.44 12.08H6.36V25.04ZM34.4556 38.4C33.389 38.4 32.4156 38.24 31.5356 37.92C30.6556 37.5733 29.8956 37.1067 29.2556 36.52C28.6423 35.9333 28.1623 35.2533 27.8156 34.48C27.469 33.7067 27.2956 32.8933 27.2956 32.04C27.2956 31.08 27.509 30.2133 27.9356 29.44C28.3623 28.64 28.9623 27.96 29.7356 27.4C30.509 26.84 31.429 26.4133 32.4956 26.12C33.589 25.8 34.789 25.64 36.0956 25.64C37.1356 25.64 38.2023 25.7333 39.2956 25.92C40.389 26.1067 41.3623 26.3733 42.2156 26.72V24.84C42.2156 23 41.6823 21.5467 40.6156 20.48C39.5756 19.3867 38.1623 18.84 36.3756 18.84C35.2556 18.84 34.1356 19.0533 33.0156 19.48C31.9223 19.9067 30.8023 20.52 29.6556 21.32L28.6956 19.52C30.0556 18.6133 31.3756 17.9333 32.6556 17.48C33.9356 17.0267 35.269 16.8 36.6556 16.8C39.189 16.8 41.2023 17.5333 42.6956 19C44.189 20.4667 44.9356 22.4933 44.9356 25.08V34.48C44.9356 35.2267 45.2556 35.6 45.8956 35.6V38C45.6823 38.0267 45.4823 38.04 45.2956 38.04C45.109 38.0667 44.949 38.08 44.8156 38.08C44.2823 38.08 43.789 37.92 43.3356 37.6C42.909 37.28 42.669 36.8 42.6156 36.16L42.5356 34.52C41.629 35.7467 40.429 36.7067 38.9356 37.4C37.469 38.0667 35.9756 38.4 34.4556 38.4ZM35.1356 36.32C36.3356 36.32 37.5223 36.0667 38.6956 35.56C39.8956 35.0267 40.8423 34.3067 41.5356 33.4C41.7223 33.16 41.8823 32.9067 42.0156 32.64C42.149 32.3467 42.2156 32.08 42.2156 31.84V28.44C41.309 28.0933 40.3623 27.8267 39.3756 27.64C38.389 27.4533 37.429 27.36 36.4956 27.36C34.549 27.36 32.9623 27.76 31.7356 28.56C30.5356 29.3333 29.9356 30.4133 29.9356 31.8C29.9356 32.36 30.0423 32.9067 30.2556 33.44C30.469 33.9733 30.789 34.4533 31.2156 34.88C31.669 35.3067 32.2156 35.6533 32.8556 35.92C33.4956 36.1867 34.2556 36.32 35.1356 36.32ZM50.9697 8.8H53.6897V33.28C53.6897 34.0533 53.903 34.6667 54.3297 35.12C54.7564 35.5467 55.3564 35.76 56.1297 35.76C56.423 35.76 56.7697 35.72 57.1697 35.64C57.5697 35.56 57.943 35.4533 58.2897 35.32L58.7697 37.52C58.263 37.7333 57.6364 37.9067 56.8897 38.04C56.1697 38.1733 55.543 38.24 55.0097 38.24C53.7564 38.24 52.7697 37.8933 52.0497 37.2C51.3297 36.48 50.9697 35.48 50.9697 34.2V8.8ZM70.5166 38.4C68.9966 38.4 67.5966 38.12 66.3166 37.56C65.0366 36.9733 63.9299 36.1867 62.9966 35.2C62.0632 34.1867 61.3299 33.0267 60.7966 31.72C60.2899 30.4133 60.0366 29.0133 60.0366 27.52C60.0366 26.0533 60.2899 24.68 60.7966 23.4C61.3299 22.0933 62.0632 20.96 62.9966 20C63.9299 19.0133 65.0232 18.24 66.2766 17.68C67.5566 17.0933 68.9566 16.8 70.4766 16.8C71.9966 16.8 73.3832 17.0933 74.6366 17.68C75.9166 18.24 77.0099 19.0133 77.9166 20C78.8232 20.9867 79.5299 22.12 80.0366 23.4C80.5432 24.68 80.7966 26.04 80.7966 27.48C80.7966 27.6933 80.7832 27.9067 80.7566 28.12C80.7566 28.3333 80.7432 28.48 80.7166 28.56H62.9166C62.9966 29.68 63.2499 30.72 63.6766 31.68C64.1299 32.6133 64.6899 33.4267 65.3566 34.12C66.0499 34.8133 66.8366 35.36 67.7166 35.76C68.6232 36.1333 69.5832 36.32 70.5966 36.32C71.2899 36.32 71.9699 36.2267 72.6366 36.04C73.3032 35.8533 73.9166 35.6 74.4766 35.28C75.0366 34.96 75.5299 34.5733 75.9566 34.12C76.4099 33.64 76.7566 33.12 76.9966 32.56L79.3566 33.2C79.0366 33.9733 78.5832 34.68 77.9966 35.32C77.4099 35.9333 76.7299 36.48 75.9566 36.96C75.1832 37.4133 74.3299 37.76 73.3966 38C72.4632 38.2667 71.5032 38.4 70.5166 38.4ZM78.1966 26.48C78.1166 25.36 77.8499 24.3467 77.3966 23.44C76.9699 22.5067 76.4099 21.7067 75.7166 21.04C75.0499 20.3733 74.2632 19.8533 73.3566 19.48C72.4499 19.1067 71.4899 18.92 70.4766 18.92C69.4632 18.92 68.5032 19.1067 67.5966 19.48C66.6899 19.8533 65.8899 20.3733 65.1966 21.04C64.5299 21.7067 63.9832 22.5067 63.5566 23.44C63.1566 24.3733 62.9166 25.3867 62.8366 26.48H78.1966ZM110.648 17.16H113.288L104.368 38H102.088L97.6481 27.36L93.2081 38H90.9281L82.0081 17.16H84.6081L92.2081 35.2L96.1681 25.68L92.6081 17.2H94.9281L97.6481 24L100.328 17.2H102.648L99.1281 25.68L103.088 35.2L110.648 17.16ZM121.838 38.4C120.772 38.4 119.798 38.24 118.918 37.92C118.038 37.5733 117.278 37.1067 116.638 36.52C116.025 35.9333 115.545 35.2533 115.198 34.48C114.852 33.7067 114.678 32.8933 114.678 32.04C114.678 31.08 114.892 30.2133 115.318 29.44C115.745 28.64 116.345 27.96 117.118 27.4C117.892 26.84 118.812 26.4133 119.878 26.12C120.972 25.8 122.172 25.64 123.478 25.64C124.518 25.64 125.585 25.7333 126.678 25.92C127.772 26.1067 128.745 26.3733 129.598 26.72V24.84C129.598 23 129.065 21.5467 127.998 20.48C126.958 19.3867 125.545 18.84 123.758 18.84C122.638 18.84 121.518 19.0533 120.398 19.48C119.305 19.9067 118.185 20.52 117.038 21.32L116.078 19.52C117.438 18.6133 118.758 17.9333 120.038 17.48C121.318 17.0267 122.652 16.8 124.038 16.8C126.572 16.8 128.585 17.5333 130.078 19C131.572 20.4667 132.318 22.4933 132.318 25.08V34.48C132.318 35.2267 132.638 35.6 133.278 35.6V38C133.065 38.0267 132.865 38.04 132.678 38.04C132.492 38.0667 132.332 38.08 132.198 38.08C131.665 38.08 131.172 37.92 130.718 37.6C130.292 37.28 130.052 36.8 129.998 36.16L129.918 34.52C129.012 35.7467 127.812 36.7067 126.318 37.4C124.852 38.0667 123.358 38.4 121.838 38.4ZM122.518 36.32C123.718 36.32 124.905 36.0667 126.078 35.56C127.278 35.0267 128.225 34.3067 128.918 33.4C129.105 33.16 129.265 32.9067 129.398 32.64C129.532 32.3467 129.598 32.08 129.598 31.84V28.44C128.692 28.0933 127.745 27.8267 126.758 27.64C125.772 27.4533 124.812 27.36 123.878 27.36C121.932 27.36 120.345 27.76 119.118 28.56C117.918 29.3333 117.318 30.4133 117.318 31.8C117.318 32.36 117.425 32.9067 117.638 33.44C117.852 33.9733 118.172 34.4533 118.598 34.88C119.052 35.3067 119.598 35.6533 120.238 35.92C120.878 36.1867 121.638 36.32 122.518 36.32ZM138.768 44.44C138.902 44.4667 139.035 44.48 139.168 44.48C139.302 44.5067 139.435 44.52 139.568 44.52C139.835 44.52 140.115 44.4933 140.408 44.44C140.728 44.3867 140.955 44.3333 141.088 44.28C141.222 44.2267 141.355 44.1067 141.488 43.92C141.648 43.76 141.835 43.4533 142.048 43C142.288 42.5733 142.582 41.96 142.928 41.16C143.275 40.3867 143.715 39.3333 144.248 38L135.168 17.16H138.008L145.728 35.48L152.848 17.16H155.448L144.608 44.04C144.208 45.0267 143.662 45.76 142.968 46.24C142.302 46.72 141.355 46.96 140.128 46.96C139.622 46.96 139.168 46.92 138.768 46.84V44.44Z" fill="black"/>
<path d="M0.48 99L9.984 76.28H11.808L21.312 99H18.912L15.968 91.896H5.76L2.848 99H0.48ZM10.912 78.904L6.24 90.136H15.456L10.912 78.904ZM28.2208 99.32C27.3674 99.32 26.5888 99.192 25.8848 98.936C25.1808 98.6587 24.5728 98.2853 24.0608 97.816C23.5701 97.3467 23.1861 96.8027 22.9088 96.184C22.6314 95.5653 22.4928 94.9147 22.4928 94.232C22.4928 93.464 22.6634 92.7707 23.0048 92.152C23.3461 91.512 23.8261 90.968 24.4448 90.52C25.0634 90.072 25.7994 89.7307 26.6528 89.496C27.5274 89.24 28.4874 89.112 29.5328 89.112C30.3648 89.112 31.2181 89.1867 32.0928 89.336C32.9674 89.4853 33.7461 89.6987 34.4288 89.976V88.472C34.4288 87 34.0021 85.8373 33.1488 84.984C32.3168 84.1093 31.1861 83.672 29.7568 83.672C28.8608 83.672 27.9648 83.8427 27.0688 84.184C26.1941 84.5253 25.2981 85.016 24.3808 85.656L23.6128 84.216C24.7008 83.4907 25.7568 82.9467 26.7808 82.584C27.8048 82.2213 28.8714 82.04 29.9808 82.04C32.0074 82.04 33.6181 82.6267 34.8128 83.8C36.0074 84.9733 36.6048 86.5947 36.6048 88.664V96.184C36.6048 96.7813 36.8608 97.08 37.3728 97.08V99C37.2021 99.0213 37.0421 99.032 36.8928 99.032C36.7434 99.0533 36.6154 99.064 36.5088 99.064C36.0821 99.064 35.6874 98.936 35.3248 98.68C34.9834 98.424 34.7914 98.04 34.7488 97.528L34.6848 96.216C33.9594 97.1973 32.9994 97.9653 31.8048 98.52C30.6314 99.0533 29.4368 99.32 28.2208 99.32ZM28.7648 97.656C29.7248 97.656 30.6741 97.4533 31.6128 97.048C32.5728 96.6213 33.3301 96.0453 33.8848 95.32C34.0341 95.128 34.1621 94.9253 34.2688 94.712C34.3754 94.4773 34.4288 94.264 34.4288 94.072V91.352C33.7034 91.0747 32.9461 90.8613 32.1568 90.712C31.3674 90.5627 30.5994 90.488 29.8528 90.488C28.2954 90.488 27.0261 90.808 26.0448 91.448C25.0848 92.0667 24.6048 92.9307 24.6048 94.04C24.6048 94.488 24.6901 94.9253 24.8608 95.352C25.0314 95.7787 25.2874 96.1627 25.6288 96.504C25.9914 96.8453 26.4288 97.1227 26.9408 97.336C27.4528 97.5493 28.0608 97.656 28.7648 97.656ZM67.1235 93.144C67.1235 93.9973 66.9528 94.7867 66.6115 95.512C66.2702 96.216 65.8115 96.8347 65.2355 97.368C64.6595 97.88 63.9875 98.2853 63.2195 98.584C62.4515 98.8613 61.6302 99 60.7555 99H50.0675V76.28H60.9795C61.7688 76.28 62.4835 76.4507 63.1235 76.792C63.7635 77.1333 64.3075 77.5813 64.7555 78.136C65.2035 78.6693 65.5448 79.288 65.7795 79.992C66.0355 80.6747 66.1635 81.368 66.1635 82.072C66.1635 83.224 65.8755 84.28 65.2995 85.24C64.7235 86.1787 63.9235 86.8827 62.8995 87.352C64.2008 87.736 65.2248 88.4507 65.9715 89.496C66.7395 90.5413 67.1235 91.7573 67.1235 93.144ZM64.8835 92.76C64.8835 92.2053 64.7875 91.672 64.5955 91.16C64.4035 90.6267 64.1262 90.168 63.7635 89.784C63.4222 89.3787 63.0062 89.0587 62.5155 88.824C62.0462 88.568 61.5342 88.44 60.9795 88.44H52.2755V97.048H60.7555C61.3315 97.048 61.8755 96.9307 62.3875 96.696C62.8995 96.4613 63.3368 96.152 63.6995 95.768C64.0622 95.3627 64.3502 94.904 64.5635 94.392C64.7768 93.8587 64.8835 93.3147 64.8835 92.76ZM52.2755 78.232V86.616H60.0835C60.6382 86.616 61.1502 86.4987 61.6195 86.264C62.1102 86.0293 62.5262 85.72 62.8675 85.336C63.2302 84.952 63.5075 84.5147 63.6995 84.024C63.8915 83.512 63.9875 82.9787 63.9875 82.424C63.9875 81.848 63.8915 81.304 63.6995 80.792C63.5288 80.28 63.2728 79.8427 62.9315 79.48C62.6115 79.096 62.2168 78.7973 61.7475 78.584C61.2995 78.3493 60.8088 78.232 60.2755 78.232H52.2755ZM79.0585 99.32C77.7572 99.32 76.5518 98.9893 75.4425 98.328C74.3332 97.6667 73.4692 96.8133 72.8505 95.768V99H70.8985V75.64H73.0745V85.816C73.8212 84.6853 74.7172 83.7787 75.7625 83.096C76.8078 82.392 78.0345 82.04 79.4425 82.04C80.5945 82.04 81.6398 82.2853 82.5785 82.776C83.5172 83.2667 84.3065 83.928 84.9465 84.76C85.6078 85.5707 86.1092 86.4987 86.4505 87.544C86.8132 88.568 86.9945 89.624 86.9945 90.712C86.9945 91.8853 86.7918 92.9947 86.3865 94.04C85.9812 95.0853 85.4158 96.0027 84.6905 96.792C83.9865 97.56 83.1438 98.1787 82.1625 98.648C81.2025 99.096 80.1678 99.32 79.0585 99.32ZM78.5465 97.4C79.4638 97.4 80.2958 97.2187 81.0425 96.856C81.8105 96.472 82.4612 95.9707 82.9945 95.352C83.5492 94.712 83.9758 93.9973 84.2745 93.208C84.5945 92.3973 84.7545 91.5653 84.7545 90.712C84.7545 89.8373 84.6052 88.9947 84.3065 88.184C84.0292 87.3733 83.6238 86.6587 83.0905 86.04C82.5785 85.4 81.9598 84.8987 81.2345 84.536C80.5092 84.152 79.7092 83.96 78.8345 83.96C78.1732 83.96 77.5545 84.0773 76.9785 84.312C76.4025 84.5253 75.8692 84.824 75.3785 85.208C74.8878 85.592 74.4398 86.04 74.0345 86.552C73.6505 87.0427 73.3305 87.5653 73.0745 88.12V93.304C73.1598 93.88 73.3838 94.424 73.7465 94.936C74.1305 95.4267 74.5892 95.8533 75.1225 96.216C75.6558 96.5787 76.2212 96.8667 76.8185 97.08C77.4158 97.2933 77.9918 97.4 78.5465 97.4ZM97.8768 87.48C97.8768 86.1147 98.1114 84.76 98.5807 83.416C99.0714 82.0507 99.7754 80.8347 100.693 79.768C101.61 78.7013 102.741 77.8373 104.085 77.176C105.429 76.4933 106.954 76.152 108.661 76.152C110.687 76.152 112.415 76.6107 113.845 77.528C115.274 78.4453 116.341 79.64 117.045 81.112L115.253 82.2C114.89 81.4533 114.453 80.824 113.941 80.312C113.429 79.8 112.874 79.384 112.277 79.064C111.679 78.744 111.061 78.52 110.421 78.392C109.781 78.2427 109.151 78.168 108.533 78.168C107.167 78.168 105.962 78.4453 104.917 79C103.871 79.5547 102.986 80.28 102.261 81.176C101.557 82.072 101.023 83.0853 100.661 84.216C100.298 85.3253 100.117 86.456 100.117 87.608C100.117 88.8667 100.33 90.072 100.757 91.224C101.205 92.376 101.802 93.4 102.549 94.296C103.317 95.1707 104.213 95.8747 105.237 96.408C106.282 96.92 107.413 97.176 108.629 97.176C109.269 97.176 109.919 97.1013 110.581 96.952C111.263 96.7813 111.914 96.5253 112.533 96.184C113.173 95.8213 113.759 95.384 114.293 94.872C114.826 94.3387 115.274 93.6987 115.637 92.952L117.493 93.912C117.13 94.7653 116.618 95.5227 115.957 96.184C115.295 96.824 114.559 97.368 113.749 97.816C112.938 98.264 112.074 98.6053 111.157 98.84C110.261 99.0747 109.375 99.192 108.501 99.192C106.943 99.192 105.514 98.8507 104.213 98.168C102.911 97.4853 101.791 96.6 100.853 95.512C99.9141 94.4027 99.1781 93.1547 98.6448 91.768C98.1328 90.36 97.8768 88.9307 97.8768 87.48ZM119.779 90.616C119.779 89.4427 119.982 88.3333 120.387 87.288C120.793 86.2427 121.358 85.336 122.083 84.568C122.83 83.7787 123.715 83.16 124.739 82.712C125.763 82.264 126.894 82.04 128.131 82.04C129.71 82.04 131.086 82.4027 132.259 83.128C133.433 83.832 134.318 84.792 134.915 86.008L132.803 86.68C132.334 85.8267 131.683 85.1653 130.851 84.696C130.019 84.2053 129.091 83.96 128.067 83.96C127.214 83.96 126.414 84.1307 125.667 84.472C124.942 84.8133 124.302 85.2827 123.747 85.88C123.214 86.456 122.787 87.1493 122.467 87.96C122.169 88.7707 122.019 89.656 122.019 90.616C122.019 91.5547 122.179 92.44 122.499 93.272C122.819 94.104 123.257 94.8293 123.811 95.448C124.366 96.0453 125.006 96.5253 125.731 96.888C126.478 97.2293 127.267 97.4 128.099 97.4C128.633 97.4 129.155 97.3253 129.667 97.176C130.201 97.0267 130.691 96.824 131.139 96.568C131.587 96.2907 131.971 95.9813 132.291 95.64C132.611 95.2987 132.835 94.936 132.963 94.552L135.075 95.192C134.841 95.7893 134.499 96.344 134.051 96.856C133.603 97.3467 133.07 97.784 132.451 98.168C131.854 98.5307 131.182 98.808 130.435 99C129.71 99.2133 128.953 99.32 128.163 99.32C126.947 99.32 125.827 99.096 124.803 98.648C123.779 98.1787 122.894 97.5493 122.147 96.76C121.401 95.9493 120.814 95.0213 120.387 93.976C119.982 92.9307 119.779 91.8107 119.779 90.616ZM147.193 99V76.28H154.873C156.686 76.28 158.275 76.5787 159.641 77.176C161.006 77.7733 162.137 78.584 163.033 79.608C163.95 80.632 164.633 81.8373 165.081 83.224C165.529 84.5893 165.753 86.0507 165.753 87.608C165.753 89.336 165.497 90.904 164.985 92.312C164.473 93.6987 163.747 94.8933 162.809 95.896C161.87 96.8773 160.729 97.6453 159.385 98.2C158.041 98.7333 156.537 99 154.873 99H147.193ZM163.513 87.608C163.513 86.2427 163.321 84.9947 162.937 83.864C162.553 82.712 161.987 81.72 161.241 80.888C160.515 80.056 159.619 79.416 158.553 78.968C157.486 78.4987 156.259 78.264 154.873 78.264H149.401V97.016H154.873C156.281 97.016 157.518 96.7813 158.585 96.312C159.673 95.8213 160.579 95.16 161.305 94.328C162.03 93.4747 162.574 92.4827 162.937 91.352C163.321 90.2 163.513 88.952 163.513 87.608ZM176.529 99.32C175.377 99.32 174.311 99.0853 173.329 98.616C172.348 98.1253 171.495 97.4853 170.769 96.696C170.065 95.9067 169.511 95 169.105 93.976C168.721 92.9307 168.529 91.8427 168.529 90.712C168.529 89.5387 168.721 88.4293 169.105 87.384C169.489 86.3173 170.012 85.3893 170.673 84.6C171.356 83.8107 172.156 83.192 173.073 82.744C174.012 82.2747 175.036 82.04 176.145 82.04C177.553 82.04 178.801 82.4133 179.889 83.16C180.977 83.8853 181.841 84.7707 182.481 85.816V75.64H184.657V96.184C184.657 96.7813 184.913 97.08 185.425 97.08V99C185.063 99.064 184.775 99.096 184.561 99.096C184.028 99.096 183.591 98.9467 183.249 98.648C182.908 98.328 182.737 97.9547 182.737 97.528V95.768C182.055 96.856 181.148 97.72 180.017 98.36C178.908 99 177.745 99.32 176.529 99.32ZM176.977 97.4C177.532 97.4 178.108 97.2933 178.705 97.08C179.324 96.8667 179.889 96.5787 180.401 96.216C180.935 95.832 181.393 95.3947 181.777 94.904C182.161 94.392 182.396 93.848 182.481 93.272V88.12C182.268 87.544 181.948 87.0107 181.521 86.52C181.116 86.008 180.647 85.56 180.113 85.176C179.601 84.792 179.047 84.4933 178.449 84.28C177.873 84.0667 177.297 83.96 176.721 83.96C175.825 83.96 175.004 84.152 174.257 84.536C173.532 84.92 172.913 85.432 172.401 86.072C171.889 86.6907 171.484 87.4053 171.185 88.216C170.908 89.0267 170.769 89.8587 170.769 90.712C170.769 91.608 170.929 92.4613 171.249 93.272C171.569 94.0827 172.007 94.7973 172.561 95.416C173.116 96.0133 173.767 96.4933 174.513 96.856C175.281 97.2187 176.103 97.4 176.977 97.4ZM213.55 97.016V99H198.286V76.28H213.262V78.264H200.494V86.456H211.63V88.344H200.494V97.016H213.55ZM224.663 99.32C223.447 99.32 222.327 99.096 221.303 98.648C220.279 98.1787 219.394 97.5493 218.647 96.76C217.901 95.9493 217.314 95.0213 216.887 93.976C216.482 92.9307 216.279 91.8107 216.279 90.616C216.279 89.4427 216.482 88.344 216.887 87.32C217.314 86.2747 217.901 85.368 218.647 84.6C219.394 83.8107 220.269 83.192 221.271 82.744C222.295 82.2747 223.415 82.04 224.631 82.04C225.847 82.04 226.957 82.2747 227.959 82.744C228.983 83.192 229.858 83.8107 230.583 84.6C231.309 85.3893 231.874 86.296 232.279 87.32C232.685 88.344 232.887 89.432 232.887 90.584C232.887 90.7547 232.877 90.9253 232.855 91.096C232.855 91.2667 232.845 91.384 232.823 91.448H218.583C218.647 92.344 218.85 93.176 219.191 93.944C219.554 94.6907 220.002 95.3413 220.535 95.896C221.09 96.4507 221.719 96.888 222.423 97.208C223.149 97.5067 223.917 97.656 224.727 97.656C225.282 97.656 225.826 97.5813 226.359 97.432C226.893 97.2827 227.383 97.08 227.831 96.824C228.279 96.568 228.674 96.2587 229.015 95.896C229.378 95.512 229.655 95.096 229.847 94.648L231.735 95.16C231.479 95.7787 231.117 96.344 230.647 96.856C230.178 97.3467 229.634 97.784 229.015 98.168C228.397 98.5307 227.714 98.808 226.967 99C226.221 99.2133 225.453 99.32 224.663 99.32ZM230.807 89.784C230.743 88.888 230.53 88.0773 230.167 87.352C229.826 86.6053 229.378 85.9653 228.823 85.432C228.29 84.8987 227.661 84.4827 226.935 84.184C226.21 83.8853 225.442 83.736 224.631 83.736C223.821 83.736 223.053 83.8853 222.327 84.184C221.602 84.4827 220.962 84.8987 220.407 85.432C219.874 85.9653 219.437 86.6053 219.095 87.352C218.775 88.0987 218.583 88.9093 218.519 89.784H230.807ZM244.88 99V76.28H259.76V78.264H247.088V86.616H257.808V88.472H247.088V99H244.88ZM263.451 99V86.008H261.147V84.28H263.451V81.88C263.451 79.832 263.888 78.232 264.763 77.08C265.637 75.9067 266.843 75.32 268.379 75.32C269.019 75.32 269.648 75.416 270.267 75.608C270.885 75.8 271.419 76.056 271.867 76.376L271.195 77.944C270.896 77.7093 270.523 77.528 270.075 77.4C269.648 77.272 269.221 77.208 268.795 77.208C267.771 77.208 266.981 77.6027 266.427 78.392C265.893 79.1813 265.627 80.3227 265.627 81.816V84.28H270.235V86.008H265.627V99H263.451ZM298.234 95.704C296.122 98.008 293.701 99.16 290.97 99.16C289.434 99.16 288.016 98.8293 286.714 98.168C285.434 97.5067 284.314 96.632 283.354 95.544C282.416 94.456 281.68 93.2293 281.146 91.864C280.613 90.4773 280.346 89.0587 280.346 87.608C280.346 86.0933 280.602 84.6427 281.114 83.256C281.648 81.8693 282.373 80.6533 283.29 79.608C284.229 78.5413 285.338 77.6987 286.618 77.08C287.92 76.44 289.328 76.12 290.842 76.12C291.952 76.12 292.954 76.248 293.85 76.504C294.768 76.7387 295.578 77.08 296.282 77.528C297.008 77.9547 297.637 78.4773 298.17 79.096C298.704 79.6933 299.152 80.3547 299.514 81.08L297.786 82.232C297.04 80.824 296.069 79.7893 294.874 79.128C293.68 78.4667 292.325 78.136 290.81 78.136C289.552 78.136 288.41 78.4027 287.386 78.936C286.384 79.4693 285.52 80.184 284.794 81.08C284.09 81.9547 283.546 82.968 283.162 84.12C282.778 85.2507 282.586 86.424 282.586 87.64C282.586 88.92 282.8 90.136 283.226 91.288C283.674 92.44 284.282 93.4533 285.05 94.328C285.818 95.1813 286.714 95.864 287.738 96.376C288.784 96.888 289.914 97.144 291.13 97.144C292.432 97.144 293.669 96.8453 294.842 96.248C296.016 95.6293 297.146 94.6693 298.234 93.368V89.56H293.21V87.832H300.154V99H298.234V95.704ZM311.088 99.224C309.936 99.224 308.88 98.9893 307.92 98.52C306.981 98.0293 306.16 97.3893 305.456 96.6C304.773 95.8107 304.24 94.904 303.856 93.88C303.472 92.856 303.28 91.8 303.28 90.712C303.28 89.56 303.461 88.4613 303.824 87.416C304.208 86.3493 304.741 85.4213 305.424 84.632C306.107 83.8427 306.917 83.2133 307.856 82.744C308.816 82.2747 309.872 82.04 311.024 82.04C312.453 82.04 313.691 82.4027 314.736 83.128C315.781 83.832 316.677 84.728 317.424 85.816V82.328H319.376V99.064C319.376 100.216 319.152 101.229 318.704 102.104C318.277 103 317.691 103.747 316.944 104.344C316.219 104.941 315.355 105.389 314.352 105.688C313.349 105.987 312.293 106.136 311.184 106.136C309.285 106.136 307.749 105.795 306.576 105.112C305.403 104.429 304.453 103.512 303.728 102.36L305.072 101.304C305.733 102.371 306.608 103.149 307.696 103.64C308.784 104.152 309.947 104.408 311.184 104.408C311.995 104.408 312.763 104.291 313.488 104.056C314.235 103.843 314.875 103.512 315.408 103.064C315.963 102.637 316.4 102.083 316.72 101.4C317.04 100.739 317.2 99.96 317.2 99.064V95.768C316.539 96.8347 315.653 97.6773 314.544 98.296C313.456 98.9147 312.304 99.224 311.088 99.224ZM311.696 97.4C312.336 97.4 312.965 97.2827 313.584 97.048C314.203 96.8133 314.757 96.504 315.248 96.12C315.76 95.7147 316.187 95.2667 316.528 94.776C316.869 94.2853 317.093 93.784 317.2 93.272V88.12C316.965 87.5227 316.635 86.968 316.208 86.456C315.803 85.944 315.344 85.5067 314.832 85.144C314.32 84.7813 313.765 84.4933 313.168 84.28C312.592 84.0667 312.005 83.96 311.408 83.96C310.469 83.96 309.637 84.1627 308.912 84.568C308.187 84.952 307.568 85.464 307.056 86.104C306.544 86.744 306.149 87.4693 305.872 88.28C305.616 89.0907 305.488 89.912 305.488 90.744C305.488 91.64 305.648 92.4933 305.968 93.304C306.288 94.1147 306.725 94.8293 307.28 95.448C307.835 96.0453 308.485 96.5253 309.232 96.888C310 97.2293 310.821 97.4 311.696 97.4ZM350.706 76.28V99H348.466V88.376H334.994V99H332.786V76.28H334.994V86.392H348.466V76.28H350.706ZM369.915 99H367.739V89.688C367.739 87.7893 367.408 86.3707 366.747 85.432C366.107 84.4933 365.157 84.024 363.899 84.024C363.28 84.024 362.661 84.152 362.043 84.408C361.445 84.6427 360.88 84.9733 360.347 85.4C359.813 85.8267 359.344 86.328 358.939 86.904C358.555 87.48 358.267 88.1093 358.075 88.792V99H355.899V75.64H358.075V86.104C358.757 84.8453 359.685 83.8533 360.859 83.128C362.032 82.4027 363.291 82.04 364.635 82.04C365.595 82.04 366.405 82.2213 367.067 82.584C367.749 82.9253 368.293 83.416 368.699 84.056C369.125 84.6747 369.435 85.432 369.627 86.328C369.819 87.2027 369.915 88.1733 369.915 89.24V99ZM383.161 99V76.312H385.369V99H383.161ZM390.586 99V82.328H392.762V99H390.586ZM390.586 78.84V75.64H392.762V78.84H390.586ZM403.591 96.152C404.06 96.472 404.658 96.7493 405.383 96.984C406.13 97.2187 406.962 97.336 407.879 97.336C409.031 97.336 409.948 97.1333 410.631 96.728C411.335 96.3013 411.868 95.6827 412.231 94.872C412.594 94.0613 412.828 93.0693 412.935 91.896C413.042 90.7013 413.095 89.3467 413.095 87.832V76.312H415.335V87.832C415.335 89.56 415.25 91.1387 415.079 92.568C414.93 93.976 414.599 95.1813 414.087 96.184C413.575 97.1867 412.828 97.9653 411.847 98.52C410.866 99.0747 409.543 99.352 407.879 99.352C405.959 99.352 404.316 98.8827 402.951 97.944L403.591 96.152ZM417.553 104.792C416.849 104.792 416.188 104.696 415.569 104.504C414.951 104.312 414.396 103.992 413.905 103.544L414.961 102.072C415.303 102.371 415.676 102.573 416.081 102.68C416.487 102.787 416.892 102.84 417.297 102.84C417.681 102.84 418.044 102.765 418.386 102.616C418.748 102.467 419.068 102.253 419.346 101.976C419.623 101.72 419.847 101.411 420.018 101.048C420.188 100.685 420.274 100.291 420.274 99.864V82.328H422.45V99.736C422.45 100.483 422.311 101.165 422.034 101.784C421.756 102.403 421.383 102.936 420.914 103.384C420.466 103.832 419.943 104.173 419.346 104.408C418.77 104.664 418.172 104.792 417.553 104.792ZM420.274 78.84V75.64H422.45V78.84H420.274ZM435.849 99V76.312H438.057V89.496L450.569 76.28H453.033L443.753 86.264L453.545 99H451.081L442.377 87.576L438.057 92.024V99H435.849ZM467.709 99L461.565 90.456L457.981 93.784V99H455.805V75.64H457.981V91.512L467.357 82.36H469.821L463.005 89.176L470.077 99H467.709ZM481.411 99V76.28H483.619V97.016H496.771V99H481.411ZM499.838 75.64H502.014V95.224C502.014 95.8427 502.185 96.3333 502.526 96.696C502.868 97.0373 503.348 97.208 503.966 97.208C504.201 97.208 504.478 97.176 504.798 97.112C505.118 97.048 505.417 96.9627 505.694 96.856L506.078 98.616C505.673 98.7867 505.172 98.9253 504.574 99.032C503.998 99.1387 503.497 99.192 503.07 99.192C502.068 99.192 501.278 98.9147 500.702 98.36C500.126 97.784 499.838 96.984 499.838 95.96V75.64ZM536.133 99V80.344L527.845 94.776H526.533L518.213 80.344V99H516.005V76.28H518.277L527.173 91.832L536.069 76.28H538.341V99H536.133ZM568.355 99H566.179V89.688C566.179 87.7467 565.869 86.3173 565.251 85.4C564.653 84.4827 563.736 84.024 562.499 84.024C561.859 84.024 561.251 84.1413 560.675 84.376C560.12 84.6107 559.597 84.9413 559.107 85.368C558.637 85.7947 558.221 86.3067 557.859 86.904C557.496 87.48 557.219 88.12 557.027 88.824V99H554.851V89.688C554.851 87.704 554.552 86.264 553.955 85.368C553.357 84.472 552.44 84.024 551.203 84.024C549.944 84.024 548.824 84.4613 547.843 85.336C546.861 86.2107 546.157 87.3627 545.731 88.792V99H543.555V82.328H545.539V86.104C546.221 84.824 547.117 83.832 548.227 83.128C549.336 82.4027 550.563 82.04 551.907 82.04C553.315 82.04 554.445 82.4347 555.299 83.224C556.152 84.0133 556.664 85.048 556.835 86.328C558.392 83.4693 560.547 82.04 563.299 82.04C564.216 82.04 564.995 82.2107 565.635 82.552C566.296 82.8933 566.819 83.384 567.203 84.024C567.608 84.6427 567.896 85.4 568.067 86.296C568.259 87.1707 568.355 88.152 568.355 89.24V99ZM583.807 80.44V99H581.599V76.28H583.327L598.367 95.192V76.312H600.575V99H598.655L583.807 80.44ZM619.821 99H617.645V89.688C617.645 87.704 617.357 86.264 616.781 85.368C616.205 84.472 615.309 84.024 614.093 84.024C613.453 84.024 612.813 84.1413 612.173 84.376C611.533 84.6107 610.935 84.9413 610.381 85.368C609.826 85.7947 609.335 86.3067 608.909 86.904C608.503 87.48 608.194 88.1093 607.981 88.792V99H605.805V82.328H607.789V86.104C608.13 85.5067 608.546 84.9627 609.037 84.472C609.549 83.96 610.114 83.5227 610.733 83.16C611.351 82.7973 612.002 82.52 612.685 82.328C613.389 82.136 614.114 82.04 614.861 82.04C615.799 82.04 616.578 82.2107 617.197 82.552C617.837 82.8933 618.349 83.3733 618.733 83.992C619.117 84.6107 619.394 85.368 619.565 86.264C619.735 87.16 619.821 88.152 619.821 89.24V99ZM642.284 99.16C640.705 99.16 639.254 98.84 637.932 98.2C636.63 97.5387 635.51 96.6747 634.572 95.608C633.633 94.52 632.908 93.2827 632.396 91.896C631.884 90.5093 631.628 89.0907 631.628 87.64C631.628 86.1253 631.894 84.6747 632.428 83.288C632.982 81.9013 633.74 80.6747 634.7 79.608C635.66 78.5413 636.79 77.6987 638.092 77.08C639.393 76.44 640.801 76.12 642.316 76.12C643.894 76.12 645.334 76.4613 646.635 77.144C647.958 77.8053 649.078 78.68 649.996 79.768C650.934 80.856 651.66 82.0933 652.172 83.48C652.684 84.8453 652.94 86.2427 652.94 87.672C652.94 89.1867 652.662 90.6373 652.108 92.024C651.574 93.4107 650.828 94.6373 649.868 95.704C648.929 96.7493 647.809 97.592 646.508 98.232C645.206 98.8507 643.798 99.16 642.284 99.16ZM633.868 87.64C633.868 88.8773 634.07 90.072 634.476 91.224C634.881 92.3547 635.457 93.368 636.204 94.264C636.95 95.1387 637.836 95.8427 638.86 96.376C639.884 96.888 641.025 97.144 642.284 97.144C643.564 97.144 644.726 96.8667 645.772 96.312C646.817 95.7573 647.702 95.032 648.428 94.136C649.153 93.24 649.708 92.2267 650.092 91.096C650.497 89.9653 650.7 88.8133 650.7 87.64C650.7 86.4027 650.486 85.2187 650.06 84.088C649.654 82.936 649.078 81.9227 648.332 81.048C647.585 80.1733 646.7 79.48 645.676 78.968C644.652 78.4347 643.521 78.168 642.284 78.168C641.004 78.168 639.841 78.4453 638.796 79C637.75 79.5333 636.865 80.248 636.14 81.144C635.414 82.04 634.849 83.0533 634.444 84.184C634.06 85.3147 633.868 86.4667 633.868 87.64ZM663.911 99.32C662.695 99.32 661.575 99.096 660.551 98.648C659.548 98.1787 658.674 97.5493 657.927 96.76C657.202 95.9707 656.636 95.0533 656.231 94.008C655.826 92.9627 655.623 91.864 655.623 90.712C655.623 89.5387 655.826 88.4293 656.231 87.384C656.658 86.3387 657.234 85.4213 657.959 84.632C658.706 83.8427 659.58 83.2133 660.583 82.744C661.607 82.2747 662.716 82.04 663.911 82.04C665.106 82.04 666.204 82.2747 667.207 82.744C668.231 83.2133 669.106 83.8427 669.831 84.632C670.578 85.4213 671.154 86.3387 671.559 87.384C671.986 88.4293 672.199 89.5387 672.199 90.712C672.199 91.864 671.986 92.9627 671.559 94.008C671.154 95.0533 670.578 95.9707 669.831 96.76C669.106 97.5493 668.231 98.1787 667.207 98.648C666.204 99.096 665.106 99.32 663.911 99.32ZM657.863 90.744C657.863 91.6827 658.012 92.5573 658.311 93.368C658.631 94.1573 659.058 94.8613 659.591 95.48C660.146 96.0773 660.786 96.5467 661.511 96.888C662.258 97.2293 663.047 97.4 663.879 97.4C664.711 97.4 665.49 97.2293 666.215 96.888C666.962 96.5253 667.612 96.0453 668.167 95.448C668.722 94.8293 669.159 94.1147 669.479 93.304C669.799 92.4933 669.959 91.6187 669.959 90.68C669.959 89.7627 669.799 88.8987 669.479 88.088C669.159 87.256 668.722 86.5413 668.167 85.944C667.612 85.3253 666.972 84.8453 666.247 84.504C665.522 84.1413 664.743 83.96 663.911 83.96C663.079 83.96 662.29 84.1413 661.543 84.504C660.818 84.8453 660.178 85.3253 659.623 85.944C659.09 86.5627 658.663 87.288 658.343 88.12C658.023 88.9307 657.863 89.8053 657.863 90.744ZM684.474 99V76.28H693.882C694.863 76.28 695.759 76.4933 696.57 76.92C697.402 77.3253 698.116 77.8693 698.714 78.552C699.311 79.2133 699.77 79.9707 700.09 80.824C700.431 81.6773 700.602 82.5413 700.602 83.416C700.602 84.3547 700.442 85.2613 700.122 86.136C699.823 86.9893 699.386 87.7467 698.81 88.408C698.234 89.0693 697.54 89.6027 696.73 90.008C695.94 90.4133 695.055 90.616 694.074 90.616H686.682V99H684.474ZM686.682 88.632H693.946C694.607 88.632 695.204 88.4933 695.738 88.216C696.292 87.9173 696.762 87.5333 697.146 87.064C697.53 86.5733 697.828 86.0187 698.042 85.4C698.255 84.76 698.362 84.0987 698.362 83.416C698.362 82.712 698.234 82.0507 697.978 81.432C697.743 80.792 697.412 80.2373 696.986 79.768C696.58 79.2987 696.09 78.936 695.514 78.68C694.959 78.4027 694.372 78.264 693.754 78.264H686.682V88.632ZM712.349 99.32C710.941 99.32 709.693 98.968 708.605 98.264C707.517 97.5387 706.642 96.632 705.981 95.544V105.816H703.805V82.328H705.757V85.56C706.439 84.5147 707.325 83.672 708.413 83.032C709.501 82.3707 710.685 82.04 711.965 82.04C713.117 82.04 714.173 82.2853 715.133 82.776C716.114 83.2453 716.957 83.8853 717.661 84.696C718.365 85.4853 718.909 86.4027 719.293 87.448C719.698 88.4933 719.901 89.5707 719.901 90.68C719.901 91.8533 719.719 92.9627 719.357 94.008C718.994 95.0533 718.471 95.9707 717.789 96.76C717.127 97.5493 716.327 98.1787 715.389 98.648C714.471 99.096 713.458 99.32 712.349 99.32ZM711.741 97.4C712.637 97.4 713.447 97.208 714.173 96.824C714.898 96.44 715.517 95.9387 716.029 95.32C716.562 94.68 716.967 93.9653 717.245 93.176C717.522 92.3653 717.661 91.5333 717.661 90.68C717.661 89.784 717.501 88.9307 717.181 88.12C716.861 87.3093 716.423 86.5947 715.869 85.976C715.314 85.3573 714.653 84.8667 713.885 84.504C713.138 84.1413 712.327 83.96 711.453 83.96C710.898 83.96 710.322 84.0773 709.725 84.312C709.127 84.5253 708.562 84.824 708.029 85.208C707.495 85.5707 707.037 86.008 706.653 86.52C706.29 87.0107 706.066 87.5333 705.981 88.088V93.208C706.237 93.8053 706.557 94.36 706.941 94.872C707.346 95.384 707.794 95.832 708.285 96.216C708.797 96.5787 709.341 96.8667 709.917 97.08C710.514 97.2933 711.122 97.4 711.741 97.4ZM747.648 96.984C746.773 97.6667 745.813 98.2 744.768 98.584C743.744 98.968 742.634 99.16 741.44 99.16C739.861 99.16 738.41 98.8293 737.088 98.168C735.786 97.5067 734.666 96.6427 733.728 95.576C732.789 94.5093 732.064 93.2827 731.552 91.896C731.04 90.5093 730.784 89.0907 730.784 87.64C730.784 86.1253 731.05 84.6747 731.584 83.288C732.138 81.9013 732.896 80.6747 733.856 79.608C734.816 78.5413 735.946 77.6987 737.248 77.08C738.549 76.44 739.957 76.12 741.472 76.12C743.05 76.12 744.49 76.4613 745.792 77.144C747.114 77.8053 748.234 78.68 749.152 79.768C750.09 80.856 750.816 82.0933 751.328 83.48C751.84 84.8453 752.096 86.2427 752.096 87.672C752.096 89.2293 751.808 90.712 751.232 92.12C750.677 93.528 749.898 94.7653 748.896 95.832L751.584 99H749.376L747.648 96.984ZM741.44 97.144C742.4 97.144 743.285 96.9947 744.096 96.696C744.906 96.376 745.653 95.9493 746.336 95.416L743.488 92.024H745.696L747.52 94.2C748.266 93.304 748.842 92.2907 749.248 91.16C749.653 90.008 749.856 88.8347 749.856 87.64C749.856 86.4027 749.642 85.2187 749.216 84.088C748.81 82.936 748.234 81.9227 747.488 81.048C746.741 80.1733 745.856 79.4693 744.832 78.936C743.808 78.4027 742.677 78.136 741.44 78.136C740.16 78.136 738.997 78.4133 737.952 78.968C736.906 79.5013 736.021 80.216 735.296 81.112C734.57 82.008 734.005 83.032 733.6 84.184C733.216 85.3147 733.024 86.4667 733.024 87.64C733.024 88.8773 733.226 90.072 733.632 91.224C734.037 92.3547 734.613 93.368 735.36 94.264C736.106 95.1387 736.992 95.8427 738.016 96.376C739.04 96.888 740.181 97.144 741.44 97.144ZM762.331 99.32C761.201 99.32 760.166 99.0853 759.227 98.616C758.31 98.1253 757.521 97.4853 756.859 96.696C756.198 95.8853 755.686 94.968 755.323 93.944C754.961 92.8987 754.779 91.8107 754.779 90.68C754.779 89.528 754.982 88.4293 755.387 87.384C755.793 86.3387 756.347 85.4213 757.051 84.632C757.777 83.8427 758.619 83.2133 759.579 82.744C760.561 82.2747 761.606 82.04 762.715 82.04C764.017 82.04 765.211 82.3813 766.299 83.064C767.409 83.7253 768.283 84.568 768.923 85.592V82.328H770.875V102.904C770.875 103.501 771.131 103.811 771.643 103.832V105.72C771.345 105.784 771.035 105.816 770.715 105.816C770.161 105.816 769.681 105.624 769.275 105.24C768.891 104.856 768.699 104.387 768.699 103.832V95.544C767.889 96.7813 766.939 97.72 765.851 98.36C764.785 99 763.611 99.32 762.331 99.32ZM763.003 97.4C763.665 97.4 764.273 97.2933 764.827 97.08C765.403 96.8667 765.926 96.5893 766.395 96.248C766.886 95.8853 767.313 95.4693 767.675 95C768.059 94.5093 768.401 93.9973 768.699 93.464V88.312C768.614 87.736 768.39 87.192 768.027 86.68C767.665 86.1467 767.217 85.6773 766.683 85.272C766.171 84.8667 765.606 84.5467 764.987 84.312C764.369 84.0773 763.761 83.96 763.163 83.96C762.267 83.96 761.435 84.152 760.667 84.536C759.921 84.92 759.27 85.432 758.715 86.072C758.182 86.6907 757.766 87.4053 757.467 88.216C757.169 89.0267 757.019 89.8587 757.019 90.712C757.019 91.608 757.169 92.4613 757.467 93.272C757.766 94.0827 758.171 94.7973 758.683 95.416C759.217 96.0133 759.846 96.4933 760.571 96.856C761.318 97.2187 762.129 97.4 763.003 97.4ZM784.286 99V76.28H793.854C794.836 76.28 795.742 76.4933 796.574 76.92C797.406 77.3253 798.121 77.8693 798.718 78.552C799.316 79.2133 799.774 79.9707 800.094 80.824C800.436 81.6773 800.606 82.5413 800.606 83.416C800.606 84.248 800.478 85.048 800.222 85.816C799.988 86.5627 799.646 87.2453 799.198 87.864C798.75 88.4613 798.217 88.9733 797.598 89.4C796.98 89.8053 796.286 90.0827 795.518 90.232L801.118 99H798.59L793.214 90.616H786.494V99H784.286ZM786.494 88.632H793.95C794.612 88.632 795.209 88.4933 795.742 88.216C796.297 87.9173 796.766 87.5227 797.15 87.032C797.534 86.5413 797.833 85.9867 798.046 85.368C798.26 84.7493 798.366 84.0987 798.366 83.416C798.366 82.7333 798.238 82.0827 797.982 81.464C797.748 80.824 797.417 80.2693 796.99 79.8C796.585 79.3307 796.094 78.9573 795.518 78.68C794.964 78.4027 794.377 78.264 793.758 78.264H786.494V88.632ZM813.187 84.248C811.715 84.2907 810.435 84.696 809.347 85.464C808.259 86.232 807.491 87.288 807.043 88.632V99H804.867V82.328H806.915V86.328C807.491 85.1547 808.249 84.184 809.187 83.416C810.126 82.6267 811.139 82.232 812.227 82.232C812.419 82.232 812.601 82.232 812.771 82.232C812.942 82.232 813.081 82.2427 813.187 82.264V84.248ZM16.224 118.536C15.584 117.811 14.72 117.224 13.632 116.776C12.5653 116.328 11.36 116.104 10.016 116.104C7.98933 116.104 6.51733 116.488 5.6 117.256C4.68267 118.003 4.224 119.027 4.224 120.328C4.224 121.011 4.34133 121.576 4.576 122.024C4.832 122.451 5.216 122.824 5.728 123.144C6.26133 123.464 6.92267 123.741 7.712 123.976C8.52267 124.211 9.472 124.445 10.56 124.68C11.776 124.936 12.864 125.224 13.824 125.544C14.784 125.843 15.6053 126.237 16.288 126.728C16.9707 127.197 17.4933 127.784 17.856 128.488C18.2187 129.171 18.4 130.024 18.4 131.048C18.4 132.093 18.1973 133 17.792 133.768C17.3867 134.536 16.8213 135.176 16.096 135.688C15.3707 136.2 14.5067 136.584 13.504 136.84C12.5013 137.075 11.4133 137.192 10.24 137.192C6.67733 137.192 3.63733 136.093 1.12 133.896L2.208 132.072C3.04 132.947 4.16 133.693 5.568 134.312C6.976 134.909 8.544 135.208 10.272 135.208C12.0853 135.208 13.504 134.888 14.528 134.248C15.552 133.587 16.064 132.595 16.064 131.272C16.064 130.568 15.9147 129.981 15.616 129.512C15.3387 129.021 14.912 128.605 14.336 128.264C13.76 127.901 13.0347 127.592 12.16 127.336C11.3067 127.08 10.3147 126.824 9.184 126.568C7.98933 126.291 6.944 126.003 6.048 125.704C5.152 125.405 4.39467 125.032 3.776 124.584C3.17867 124.136 2.72 123.603 2.4 122.984C2.10133 122.344 1.952 121.565 1.952 120.648C1.952 119.603 2.144 118.675 2.528 117.864C2.93333 117.032 3.488 116.349 4.192 115.816C4.91733 115.261 5.77067 114.845 6.752 114.568C7.75467 114.269 8.85333 114.12 10.048 114.12C11.5413 114.12 12.8747 114.355 14.048 114.824C15.2427 115.272 16.32 115.912 17.28 116.744L16.224 118.536ZM27.436 137.32C26.1347 137.32 24.8653 137.107 23.628 136.68C22.3907 136.253 21.324 135.635 20.428 134.824L21.42 133.352C22.3587 134.12 23.308 134.696 24.268 135.08C25.2493 135.464 26.2947 135.656 27.404 135.656C28.748 135.656 29.8147 135.389 30.604 134.856C31.4147 134.301 31.82 133.523 31.82 132.52C31.82 132.051 31.7133 131.667 31.5 131.368C31.2867 131.048 30.9667 130.771 30.54 130.536C30.1347 130.301 29.612 130.099 28.972 129.928C28.3533 129.736 27.628 129.544 26.796 129.352C25.836 129.117 25.004 128.883 24.3 128.648C23.596 128.413 23.0093 128.147 22.54 127.848C22.092 127.549 21.7507 127.187 21.516 126.76C21.3027 126.312 21.196 125.757 21.196 125.096C21.196 124.264 21.356 123.528 21.676 122.888C22.0173 122.248 22.4653 121.725 23.02 121.32C23.596 120.893 24.2573 120.573 25.004 120.36C25.772 120.147 26.5827 120.04 27.436 120.04C28.716 120.04 29.8787 120.253 30.924 120.68C31.9693 121.085 32.812 121.629 33.452 122.312L32.396 123.592C31.7773 122.952 31.02 122.472 30.124 122.152C29.2493 121.832 28.332 121.672 27.372 121.672C26.796 121.672 26.2627 121.736 25.772 121.864C25.2813 121.971 24.844 122.152 24.46 122.408C24.0973 122.664 23.8093 122.995 23.596 123.4C23.3827 123.784 23.276 124.243 23.276 124.776C23.276 125.224 23.3507 125.587 23.5 125.864C23.6493 126.141 23.8947 126.387 24.236 126.6C24.5773 126.792 25.004 126.973 25.516 127.144C26.0493 127.293 26.6893 127.453 27.436 127.624C28.5027 127.88 29.4413 128.136 30.252 128.392C31.0627 128.648 31.7347 128.947 32.268 129.288C32.8227 129.629 33.2387 130.045 33.516 130.536C33.7933 131.027 33.932 131.624 33.932 132.328C33.932 133.864 33.3453 135.08 32.172 135.976C30.9987 136.872 29.42 137.32 27.436 137.32ZM61.4463 116.264H53.3503V137H51.1103V116.264H43.0143V114.28H61.4463V116.264ZM72.1813 136.2C72.0533 136.264 71.8613 136.349 71.6053 136.456C71.3706 136.563 71.0933 136.669 70.7733 136.776C70.4533 136.883 70.0906 136.979 69.6853 137.064C69.2799 137.149 68.8533 137.192 68.4053 137.192C67.9359 137.192 67.4879 137.128 67.0613 137C66.6346 136.872 66.2613 136.68 65.9413 136.424C65.6213 136.147 65.3653 135.805 65.1733 135.4C64.9813 134.995 64.8853 134.525 64.8853 133.992V122.056H62.5813V120.328H64.8853V114.696H67.0613V120.328H70.9013V122.056H67.0613V133.384C67.1039 134.003 67.3173 134.461 67.7013 134.76C68.0853 135.037 68.5439 135.176 69.0773 135.176C69.6959 135.176 70.2399 135.08 70.7093 134.888C71.1786 134.675 71.4773 134.525 71.6053 134.44L72.1813 136.2ZM92.6578 135.144C94.0871 135.144 95.2711 134.877 96.2098 134.344C97.1698 133.789 97.9271 133.075 98.4818 132.2C99.0578 131.304 99.4524 130.291 99.6658 129.16C99.9004 128.029 100.018 126.888 100.018 125.736V114.28H102.258V125.736C102.258 127.272 102.087 128.733 101.746 130.12C101.404 131.485 100.85 132.691 100.082 133.736C99.3351 134.781 98.3538 135.613 97.1378 136.232C95.9218 136.851 94.4391 137.16 92.6898 137.16C90.8764 137.16 89.3618 136.84 88.1458 136.2C86.9298 135.539 85.9484 134.675 85.2018 133.608C84.4551 132.541 83.9218 131.325 83.6018 129.96C83.2818 128.595 83.1218 127.187 83.1218 125.736V114.28H85.3298V125.736C85.3298 126.931 85.4471 128.093 85.6818 129.224C85.9164 130.355 86.3111 131.357 86.8658 132.232C87.4418 133.107 88.1991 133.811 89.1378 134.344C90.0764 134.877 91.2498 135.144 92.6578 135.144ZM111.988 137.32C110.239 137.32 108.916 136.723 108.02 135.528C107.124 134.312 106.676 132.509 106.676 130.12V120.328H108.852V129.736C108.852 133.512 110.143 135.4 112.724 135.4C113.364 135.4 113.993 135.293 114.612 135.08C115.231 134.867 115.796 134.557 116.308 134.152C116.841 133.747 117.311 133.267 117.716 132.712C118.143 132.157 118.484 131.528 118.74 130.824V120.328H120.916V134.184C120.916 134.781 121.183 135.08 121.716 135.08V137C121.289 137.064 120.991 137.096 120.82 137.096C120.329 137.096 119.903 136.947 119.54 136.648C119.199 136.349 119.028 135.976 119.028 135.528V133.224C118.281 134.525 117.289 135.539 116.052 136.264C114.815 136.968 113.46 137.32 111.988 137.32ZM133.283 114.28L141.411 134.216L149.475 114.28H151.843L142.371 137H140.419L130.947 114.28H133.283ZM159.047 137L152.263 120.328H154.535L160.263 134.984L166.023 120.328H168.135L161.351 137H159.047ZM186.235 114.44H188.379L191.579 122.504L194.811 114.44H196.923L192.955 124.136L197.307 134.408L205.531 114.28H207.963L198.363 137H196.379L191.611 125.768L186.811 137H184.827L175.259 114.28H177.627L185.883 134.408L190.203 124.136L186.235 114.44ZM231.331 120.328H233.443L226.307 137H224.483L220.931 128.488L217.379 137H215.555L208.419 120.328H210.499L216.579 134.76L219.747 127.144L216.899 120.36H218.755L220.931 125.8L223.075 120.36H224.931L222.115 127.144L225.283 134.76L231.331 120.328ZM243.656 114.28L251.112 124.2L258.568 114.28H261.032L252.296 125.8L260.776 137H258.312L251.112 127.4L243.912 137H241.416L249.896 125.8L241.16 114.28H243.656ZM263.94 120.328L268.932 126.856L269.188 127.336L269.476 126.856L274.436 120.328H276.772L270.404 128.712L276.772 137H274.436L269.476 130.504L269.188 130.056L268.932 130.504L263.972 137H261.604L267.972 128.712L261.604 120.328H263.94ZM286.876 114.28L294.332 126.504L301.819 114.28H304.252L295.42 128.552V137H293.212V128.488L284.444 114.28H286.876ZM306.577 142.152C306.684 142.173 306.791 142.184 306.897 142.184C307.004 142.205 307.111 142.216 307.217 142.216C307.431 142.216 307.655 142.195 307.889 142.152C308.145 142.109 308.327 142.067 308.433 142.024C308.54 141.981 308.647 141.885 308.753 141.736C308.881 141.608 309.031 141.363 309.201 141C309.393 140.659 309.628 140.168 309.905 139.528C310.183 138.909 310.535 138.067 310.961 137L303.697 120.328H305.969L312.145 134.984L317.841 120.328H319.921L311.249 141.832C310.929 142.621 310.492 143.208 309.937 143.592C309.404 143.976 308.647 144.168 307.665 144.168C307.26 144.168 306.897 144.136 306.577 144.072V142.152ZM328.834 135.24L344.29 116.264H329.09V114.28H346.882V116.04L331.618 135.016H346.85V137H328.834V135.24ZM348.802 135.528L360.066 121.96H349.058V120.328H362.434V121.8L351.234 135.368H362.434V137H348.802V135.528ZM389.544 127.624C389.544 129.032 389.342 130.333 388.936 131.528C388.531 132.701 387.966 133.725 387.24 134.6C386.536 135.453 385.694 136.125 384.712 136.616C383.731 137.085 382.664 137.32 381.512 137.32C380.36 137.32 379.294 137.085 378.312 136.616C377.331 136.125 376.478 135.453 375.752 134.6C375.048 133.725 374.494 132.701 374.088 131.528C373.683 130.333 373.48 129.032 373.48 127.624C373.48 126.216 373.683 124.925 374.088 123.752C374.494 122.557 375.048 121.533 375.752 120.68C376.478 119.805 377.331 119.123 378.312 118.632C379.294 118.141 380.36 117.896 381.512 117.896C382.664 117.896 383.731 118.141 384.712 118.632C385.694 119.123 386.536 119.805 387.24 120.68C387.966 121.533 388.531 122.557 388.936 123.752C389.342 124.925 389.544 126.216 389.544 127.624ZM387.336 127.624C387.336 126.472 387.187 125.427 386.888 124.488C386.611 123.549 386.216 122.749 385.704 122.088C385.192 121.405 384.574 120.883 383.848 120.52C383.144 120.136 382.366 119.944 381.512 119.944C380.638 119.944 379.838 120.136 379.112 120.52C378.408 120.883 377.8 121.405 377.288 122.088C376.776 122.749 376.371 123.549 376.072 124.488C375.795 125.427 375.656 126.472 375.656 127.624C375.656 128.776 375.795 129.821 376.072 130.76C376.371 131.699 376.776 132.509 377.288 133.192C377.8 133.853 378.408 134.365 379.112 134.728C379.838 135.091 380.638 135.272 381.512 135.272C382.366 135.272 383.144 135.091 383.848 134.728C384.574 134.365 385.192 133.853 385.704 133.192C386.216 132.509 386.611 131.699 386.888 130.76C387.187 129.821 387.336 128.776 387.336 127.624ZM412.523 135.016V137H401.675V135.016H406.219V121.32C406.027 121.576 405.729 121.853 405.323 122.152C404.918 122.451 404.459 122.728 403.947 122.984C403.457 123.24 402.945 123.453 402.411 123.624C401.878 123.795 401.409 123.88 401.003 123.88V121.768C401.494 121.768 402.027 121.629 402.603 121.352C403.201 121.075 403.755 120.755 404.267 120.392C404.801 120.029 405.249 119.688 405.611 119.368C405.974 119.048 406.177 118.835 406.219 118.728H408.459V135.016H412.523ZM423.038 137C423.038 136.211 423.102 135.443 423.23 134.696C423.38 133.928 423.646 133.192 424.03 132.488C424.436 131.784 424.98 131.112 425.662 130.472C426.366 129.811 427.262 129.192 428.35 128.616C428.926 128.317 429.545 128.019 430.206 127.72C430.889 127.4 431.518 127.048 432.094 126.664C432.67 126.28 433.14 125.853 433.502 125.384C433.886 124.915 434.078 124.36 434.078 123.72C434.078 123.315 433.982 122.909 433.79 122.504C433.62 122.099 433.353 121.736 432.99 121.416C432.649 121.096 432.212 120.84 431.678 120.648C431.166 120.456 430.569 120.36 429.886 120.36C429.182 120.36 428.542 120.467 427.966 120.68C427.412 120.872 426.921 121.107 426.494 121.384C426.068 121.661 425.705 121.96 425.406 122.28C425.129 122.579 424.916 122.824 424.766 123.016L423.326 121.448C423.454 121.32 423.7 121.085 424.062 120.744C424.425 120.403 424.894 120.061 425.47 119.72C426.068 119.379 426.761 119.08 427.55 118.824C428.361 118.547 429.268 118.408 430.27 118.408C431.23 118.408 432.084 118.547 432.83 118.824C433.598 119.08 434.249 119.443 434.782 119.912C435.316 120.381 435.721 120.925 435.998 121.544C436.276 122.141 436.414 122.781 436.414 123.464C436.414 124.36 436.201 125.139 435.774 125.8C435.369 126.44 434.868 126.995 434.27 127.464C433.673 127.933 433.054 128.317 432.414 128.616C431.796 128.915 431.284 129.16 430.878 129.352C429.918 129.779 429.118 130.195 428.478 130.6C427.838 131.005 427.316 131.421 426.91 131.848C426.505 132.275 426.196 132.744 425.982 133.256C425.79 133.768 425.652 134.355 425.566 135.016H436.766V137H423.038ZM457.664 129.448C459.072 129.683 460.192 130.323 461.024 131.368C461.878 132.413 462.304 133.704 462.304 135.24C462.304 136.2 462.123 137.075 461.76 137.864C461.419 138.675 460.918 139.357 460.256 139.912C459.616 140.488 458.838 140.925 457.92 141.224C457.024 141.544 456.022 141.704 454.912 141.704C453.291 141.704 451.872 141.373 450.656 140.712C449.44 140.072 448.523 139.176 447.904 138.024L449.408 136.648C449.856 137.587 450.539 138.333 451.456 138.888C452.374 139.443 453.526 139.72 454.912 139.72C456.512 139.72 457.771 139.325 458.688 138.536C459.606 137.768 460.064 136.659 460.064 135.208C460.064 133.736 459.584 132.573 458.624 131.72C457.664 130.867 456.278 130.44 454.464 130.44H453.664V128.584H454.528C456.171 128.584 457.43 128.2 458.304 127.432C459.179 126.664 459.616 125.672 459.616 124.456C459.616 123.816 459.499 123.261 459.264 122.792C459.03 122.301 458.699 121.896 458.272 121.576C457.867 121.235 457.376 120.979 456.8 120.808C456.246 120.637 455.638 120.552 454.976 120.552C453.76 120.552 452.683 120.829 451.744 121.384C450.827 121.917 450.134 122.664 449.664 123.624L448.256 122.28C448.512 121.725 448.875 121.224 449.344 120.776C449.814 120.307 450.347 119.912 450.944 119.592C451.542 119.272 452.203 119.027 452.928 118.856C453.654 118.664 454.4 118.568 455.168 118.568C456.15 118.568 457.046 118.707 457.856 118.984C458.688 119.261 459.403 119.656 460 120.168C460.598 120.659 461.056 121.256 461.376 121.96C461.718 122.664 461.888 123.443 461.888 124.296C461.888 124.936 461.792 125.555 461.6 126.152C461.408 126.728 461.131 127.251 460.768 127.72C460.406 128.168 459.958 128.552 459.424 128.872C458.912 129.171 458.326 129.363 457.664 129.448ZM483.36 141.064V135.368H472.672V133.448L484.032 118.728H485.536V133.384H488.352V135.368H485.536V141.064H483.36ZM474.976 133.384H483.552V122.152L474.976 133.384ZM506.491 127.016C507.537 127.016 508.507 127.197 509.403 127.56C510.299 127.901 511.078 128.392 511.739 129.032C512.422 129.672 512.955 130.44 513.339 131.336C513.723 132.211 513.915 133.181 513.915 134.248C513.915 135.379 513.702 136.403 513.275 137.32C512.87 138.259 512.305 139.048 511.579 139.688C510.875 140.349 510.043 140.861 509.083 141.224C508.123 141.587 507.099 141.768 506.011 141.768C505.201 141.768 504.422 141.661 503.675 141.448C502.95 141.256 502.278 140.968 501.659 140.584C501.041 140.2 500.475 139.741 499.963 139.208C499.473 138.675 499.067 138.077 498.747 137.416L500.187 136.328C500.785 137.373 501.595 138.216 502.619 138.856C503.665 139.496 504.806 139.816 506.043 139.816C506.833 139.816 507.569 139.677 508.251 139.4C508.934 139.144 509.531 138.771 510.043 138.28C510.555 137.789 510.95 137.203 511.227 136.52C511.526 135.837 511.675 135.091 511.675 134.28C511.675 133.491 511.537 132.776 511.259 132.136C510.982 131.475 510.598 130.909 510.107 130.44C509.617 129.971 509.041 129.608 508.379 129.352C507.739 129.096 507.035 128.968 506.267 128.968C505.243 128.968 504.283 129.192 503.387 129.64C502.513 130.067 501.798 130.696 501.243 131.528H499.227C499.249 131.4 499.302 131.112 499.387 130.664C499.473 130.216 499.579 129.683 499.707 129.064C499.835 128.445 499.974 127.763 500.123 127.016C500.273 126.248 500.422 125.48 500.571 124.712C500.934 122.92 501.329 120.925 501.755 118.728H512.731V120.744H503.387L501.819 128.904C502.374 128.307 503.046 127.848 503.835 127.528C504.646 127.187 505.531 127.016 506.491 127.016ZM541.296 129.512C541.296 130.6 541.082 131.624 540.656 132.584C540.25 133.523 539.685 134.344 538.96 135.048C538.256 135.752 537.413 136.307 536.432 136.712C535.45 137.117 534.394 137.32 533.264 137.32C532.069 137.32 530.97 137.107 529.968 136.68C528.965 136.232 528.101 135.603 527.376 134.792C526.65 133.981 526.085 132.989 525.68 131.816C525.296 130.621 525.104 129.288 525.104 127.816C525.104 125.512 525.306 123.507 525.712 121.8C526.117 120.072 526.682 118.643 527.408 117.512C528.154 116.36 529.04 115.507 530.064 114.952C531.088 114.397 532.229 114.12 533.488 114.12C534.981 114.12 536.325 114.493 537.52 115.24C538.714 115.987 539.621 117.021 540.24 118.344L538.832 119.624C538.405 118.536 537.701 117.672 536.72 117.032C535.738 116.371 534.65 116.04 533.456 116.04C532.517 116.04 531.664 116.264 530.896 116.712C530.128 117.16 529.466 117.811 528.912 118.664C528.378 119.496 527.952 120.531 527.632 121.768C527.333 123.005 527.184 124.403 527.184 125.96C527.653 124.701 528.453 123.699 529.584 122.952C530.736 122.205 532.037 121.832 533.488 121.832C534.576 121.832 535.589 122.035 536.528 122.44C537.488 122.824 538.32 123.368 539.024 124.072C539.728 124.755 540.282 125.565 540.688 126.504C541.093 127.443 541.296 128.445 541.296 129.512ZM533.296 135.4C534.106 135.4 534.864 135.251 535.568 134.952C536.293 134.632 536.922 134.205 537.456 133.672C538.01 133.139 538.437 132.52 538.736 131.816C539.056 131.091 539.216 130.323 539.216 129.512C539.216 128.701 539.056 127.944 538.736 127.24C538.416 126.515 537.989 125.885 537.456 125.352C536.922 124.819 536.293 124.403 535.568 124.104C534.842 123.784 534.085 123.624 533.296 123.624C532.485 123.624 531.717 123.784 530.992 124.104C530.266 124.403 529.626 124.819 529.072 125.352C528.538 125.885 528.112 126.515 527.792 127.24C527.493 127.944 527.344 128.701 527.344 129.512C527.344 130.323 527.504 131.08 527.824 131.784C528.144 132.488 528.57 133.117 529.104 133.672C529.658 134.205 530.288 134.632 530.992 134.952C531.717 135.251 532.485 135.4 533.296 135.4ZM564.666 120.36H552.41V118.344H568.122L556.634 141.064H554.138L564.666 120.36ZM594.127 130.696C594.127 131.699 593.913 132.605 593.487 133.416C593.06 134.205 592.484 134.888 591.759 135.464C591.033 136.04 590.18 136.488 589.199 136.808C588.239 137.107 587.225 137.256 586.159 137.256C585.028 137.256 583.983 137.085 583.023 136.744C582.063 136.381 581.231 135.901 580.527 135.304C579.844 134.685 579.311 133.971 578.927 133.16C578.543 132.349 578.351 131.485 578.351 130.568C578.351 129.843 578.479 129.171 578.735 128.552C579.012 127.933 579.364 127.389 579.791 126.92C580.217 126.429 580.697 126.013 581.231 125.672C581.785 125.309 582.34 125.032 582.895 124.84C582.383 124.627 581.903 124.371 581.455 124.072C581.007 123.752 580.612 123.389 580.271 122.984C579.929 122.579 579.652 122.131 579.439 121.64C579.247 121.149 579.151 120.627 579.151 120.072C579.151 119.133 579.364 118.312 579.791 117.608C580.217 116.883 580.761 116.275 581.423 115.784C582.105 115.293 582.863 114.92 583.695 114.664C584.548 114.408 585.401 114.28 586.255 114.28C587.108 114.28 587.951 114.408 588.783 114.664C589.636 114.92 590.393 115.293 591.055 115.784C591.737 116.253 592.292 116.851 592.719 117.576C593.145 118.301 593.359 119.123 593.359 120.04C593.359 120.595 593.252 121.117 593.039 121.608C592.847 122.099 592.569 122.557 592.207 122.984C591.865 123.389 591.46 123.752 590.991 124.072C590.543 124.371 590.063 124.627 589.551 124.84C590.169 125.053 590.756 125.352 591.311 125.736C591.865 126.099 592.345 126.525 592.751 127.016C593.177 127.507 593.508 128.061 593.743 128.68C593.999 129.299 594.127 129.971 594.127 130.696ZM591.919 130.536C591.919 129.768 591.748 129.096 591.407 128.52C591.065 127.923 590.617 127.421 590.063 127.016C589.529 126.611 588.921 126.301 588.239 126.088C587.556 125.875 586.884 125.768 586.223 125.768C585.519 125.768 584.825 125.885 584.143 126.12C583.481 126.333 582.884 126.653 582.351 127.08C581.817 127.485 581.391 127.987 581.071 128.584C580.751 129.181 580.591 129.843 580.591 130.568C580.591 131.315 580.761 131.987 581.103 132.584C581.444 133.16 581.881 133.651 582.415 134.056C582.969 134.461 583.577 134.771 584.239 134.984C584.921 135.197 585.604 135.304 586.287 135.304C586.969 135.304 587.641 135.197 588.303 134.984C588.985 134.749 589.593 134.429 590.127 134.024C590.66 133.597 591.087 133.096 591.407 132.52C591.748 131.923 591.919 131.261 591.919 130.536ZM581.359 120.168C581.359 120.787 581.508 121.341 581.807 121.832C582.105 122.301 582.489 122.707 582.959 123.048C583.428 123.368 583.951 123.613 584.527 123.784C585.103 123.955 585.679 124.04 586.255 124.04C586.809 124.04 587.375 123.955 587.951 123.784C588.548 123.613 589.081 123.357 589.551 123.016C590.02 122.675 590.404 122.259 590.703 121.768C591.001 121.277 591.151 120.723 591.151 120.104C591.151 119.507 591.012 118.973 590.735 118.504C590.457 118.013 590.084 117.608 589.615 117.288C589.167 116.947 588.644 116.691 588.047 116.52C587.471 116.349 586.863 116.264 586.223 116.264C585.583 116.264 584.964 116.36 584.367 116.552C583.791 116.723 583.279 116.979 582.831 117.32C582.383 117.64 582.02 118.045 581.743 118.536C581.487 119.027 581.359 119.571 581.359 120.168ZM605.185 126.536C605.185 125.448 605.387 124.435 605.793 123.496C606.219 122.536 606.785 121.704 607.489 121C608.214 120.296 609.067 119.741 610.049 119.336C611.03 118.931 612.086 118.728 613.217 118.728C614.411 118.728 615.51 118.952 616.513 119.4C617.515 119.827 618.369 120.445 619.073 121.256C619.798 122.067 620.363 123.069 620.769 124.264C621.174 125.437 621.377 126.76 621.377 128.232C621.377 130.536 621.174 132.552 620.769 134.28C620.363 135.987 619.787 137.405 619.041 138.536C618.315 139.688 617.441 140.541 616.417 141.096C615.393 141.651 614.251 141.928 612.993 141.928C611.499 141.928 610.155 141.555 608.961 140.808C607.766 140.061 606.859 139.027 606.241 137.704L607.649 136.424C608.075 137.512 608.779 138.376 609.761 139.016C610.742 139.677 611.83 140.008 613.025 140.008C613.963 140.008 614.817 139.784 615.585 139.336C616.353 138.888 617.003 138.237 617.537 137.384C618.091 136.552 618.518 135.528 618.817 134.312C619.137 133.075 619.297 131.667 619.297 130.088C618.827 131.347 618.017 132.349 616.865 133.096C615.734 133.843 614.443 134.216 612.993 134.216C611.905 134.216 610.881 134.024 609.921 133.64C608.982 133.235 608.161 132.691 607.457 132.008C606.753 131.304 606.198 130.483 605.793 129.544C605.387 128.605 605.185 127.603 605.185 126.536ZM613.185 120.648C612.374 120.648 611.606 120.808 610.881 121.128C610.177 121.427 609.547 121.843 608.993 122.376C608.459 122.909 608.033 123.539 607.713 124.264C607.414 124.968 607.265 125.725 607.265 126.536C607.265 127.347 607.425 128.115 607.745 128.84C608.065 129.544 608.491 130.163 609.025 130.696C609.558 131.229 610.177 131.656 610.881 131.976C611.606 132.275 612.374 132.424 613.185 132.424C613.995 132.424 614.763 132.275 615.489 131.976C616.214 131.656 616.843 131.229 617.377 130.696C617.931 130.163 618.358 129.544 618.657 128.84C618.977 128.115 619.137 127.347 619.137 126.536C619.137 125.747 618.977 125 618.657 124.296C618.337 123.571 617.899 122.941 617.345 122.408C616.811 121.853 616.182 121.427 615.457 121.128C614.753 120.808 613.995 120.648 613.185 120.648Z" fill="black"/>
</svg>
