<?xml version="1.0" encoding="UTF-8" standalone="no"?>
<!-- Created with Inkscape (http://www.inkscape.org/) -->
<svg
   xmlns:a="http://ns.adobe.com/AdobeSVGViewerExtensions/3.0/"
   xmlns:dc="http://purl.org/dc/elements/1.1/"
   xmlns:cc="http://creativecommons.org/ns#"
   xmlns:rdf="http://www.w3.org/1999/02/22-rdf-syntax-ns#"
   xmlns:svg="http://www.w3.org/2000/svg"
   xmlns="http://www.w3.org/2000/svg"
   xmlns:xlink="http://www.w3.org/1999/xlink"
   xmlns:sodipodi="http://sodipodi.sourceforge.net/DTD/sodipodi-0.dtd"
   xmlns:inkscape="http://www.inkscape.org/namespaces/inkscape"
   version="1.0"
   width="48pt"
   height="48pt"
   viewBox="0 0 256 256"
   id="svg2"
   xml:space="preserve"
   sodipodi:version="0.32"
   inkscape:version="0.46"
   sodipodi:docname="Nuvola_UAE_flag.svg"
   sodipodi:docbase="/home/federico/Desktop/Flags"
   inkscape:output_extension="org.inkscape.output.svg.inkscape"><metadata
   id="metadata45"><rdf:RDF><cc:Work
       rdf:about=""><dc:format>image/svg+xml</dc:format><dc:type
         rdf:resource="http://purl.org/dc/dcmitype/StillImage" /></cc:Work></rdf:RDF></metadata><sodipodi:namedview
   inkscape:window-height="975"
   inkscape:window-width="1280"
   inkscape:pageshadow="2"
   inkscape:pageopacity="0.0"
   guidetolerance="10.0"
   gridtolerance="10.0"
   objecttolerance="10.0"
   borderopacity="1.0"
   bordercolor="#666666"
   pagecolor="#ffffff"
   id="base"
   inkscape:zoom="5.854782"
   inkscape:cx="12.151999"
   inkscape:cy="21.166925"
   inkscape:window-x="0"
   inkscape:window-y="22"
   inkscape:current-layer="svg2"
   showgrid="false"
   showguides="true"
   inkscape:guide-bbox="true"><inkscape:grid
     type="xygrid"
     id="grid3438" /></sodipodi:namedview><defs
   id="defs271"><inkscape:perspective
   sodipodi:type="inkscape:persp3d"
   inkscape:vp_x="0 : 30 : 1"
   inkscape:vp_y="0 : 1000 : 0"
   inkscape:vp_z="60 : 30 : 1"
   inkscape:persp3d-origin="30 : 20 : 1"
   id="perspective27" /><linearGradient
   x1="87.396973"
   y1="141.97266"
   x2="240.94727"
   y2="141.97266"
   id="XMLID_22_"
   gradientUnits="userSpaceOnUse"
   gradientTransform="matrix(1.567692,0,0,1.567692,-129.3706,-94.56783)">
								<stop
   style="stop-color:#ffffff;stop-opacity:0.66666675"
   offset="0"
   id="stop139" />
								
								<stop
   style="stop-color:#d7d7d7;stop-opacity:0.21875"
   offset="0.24074516"
   id="stop143" />
								<stop
   style="stop-color:#4d4d4d;stop-opacity:0"
   offset="0.4585622"
   id="stop145" /><stop
   style="stop-color:#ffffff;stop-opacity:0.51041669"
   offset="0.71891773"
   id="stop3696" /><stop
   style="stop-color:#f2f2f2;stop-opacity:0.40000001"
   offset="0.87351298"
   id="stop2807" /><stop
   style="stop-color:#ffffff;stop-opacity:0.62352943"
   offset="1"
   id="stop3694" />
								
								
								<a:midPointStop
   style="stop-color:#E9E9EF"
   offset="0" />
								<a:midPointStop
   style="stop-color:#E9E9EF"
   offset="0.5" />
								<a:midPointStop
   style="stop-color:#B1B1C5"
   offset="0.157303" />
								<a:midPointStop
   style="stop-color:#B1B1C5"
   offset="0.5" />
								<a:midPointStop
   style="stop-color:#CECEDB"
   offset="0.314607" />
								<a:midPointStop
   style="stop-color:#CECEDB"
   offset="0.5" />
								<a:midPointStop
   style="stop-color:#FFFFFF"
   offset="0.65" />
								<a:midPointStop
   style="stop-color:#FFFFFF"
   offset="0.5" />
								<a:midPointStop
   style="stop-color:#CECEDB"
   offset="0.837079" />
								<a:midPointStop
   style="stop-color:#CECEDB"
   offset="0.5" />
								<a:midPointStop
   style="stop-color:#FFFF66"
   offset="1" />
							</linearGradient><linearGradient
   id="linearGradient25883"><stop
     id="stop25885"
     offset="0"
     style="stop-color:#003f87;stop-opacity:1;" /><stop
     id="stop25887"
     offset="1"
     style="stop-color:#df0018;stop-opacity:1;" /></linearGradient><inkscape:perspective
   id="perspective2490"
   inkscape:persp3d-origin="300 : 100 : 1"
   inkscape:vp_z="600 : 150 : 1"
   inkscape:vp_y="0 : 1000 : 0"
   inkscape:vp_x="0 : 150 : 1"
   sodipodi:type="inkscape:persp3d" /><linearGradient
   inkscape:collect="always"
   xlink:href="#linearGradient25883"
   id="linearGradient2571"
   gradientUnits="userSpaceOnUse"
   x1="128"
   y1="193.7363"
   x2="125.54945"
   y2="90.251701" /><linearGradient
   inkscape:collect="always"
   xlink:href="#XMLID_22_"
   id="linearGradient2577"
   gradientUnits="userSpaceOnUse"
   gradientTransform="matrix(1.567692,0,0,1.567692,-129.3714,-94.56962)"
   x1="87.396973"
   y1="141.97266"
   x2="269.33331"
   y2="141.97276" /><linearGradient
   y2="127.99994"
   x2="248.35974"
   y1="127.99994"
   x1="7.640161"
   gradientUnits="userSpaceOnUse"
   id="linearGradient4844"
   xlink:href="#XMLID_22_"
   inkscape:collect="always" /><linearGradient
   gradientUnits="userSpaceOnUse"
   y2="127.99994"
   x2="248.35974"
   y1="127.99994"
   x1="7.640161"
   id="linearGradient4840"
   xlink:href="#XMLID_22_"
   inkscape:collect="always" /><inkscape:perspective
   sodipodi:type="inkscape:persp3d"
   inkscape:vp_x="0 : 300 : 1"
   inkscape:vp_y="0 : 1000 : 0"
   inkscape:vp_z="1200 : 300 : 1"
   inkscape:persp3d-origin="600 : 200 : 1"
   id="perspective2511" /><inkscape:perspective
   sodipodi:type="inkscape:persp3d"
   inkscape:vp_x="0 : 300 : 1"
   inkscape:vp_y="0 : 1000 : 0"
   inkscape:vp_z="1200 : 300 : 1"
   inkscape:persp3d-origin="600 : 200 : 1"
   id="perspective2569" /><linearGradient
   y2="180.35185"
   x2="115.41695"
   y1="74.262764"
   x1="110.79613"
   gradientUnits="userSpaceOnUse"
   id="linearGradient2199"
   xlink:href="#XMLID_17_"
   inkscape:collect="always" /><linearGradient
   y2="123.21392"
   x2="132.62358"
   y1="151.1393"
   x1="133.17909"
   gradientUnits="userSpaceOnUse"
   id="linearGradient2192"
   xlink:href="#XMLID_17_"
   inkscape:collect="always" />
<linearGradient
   gradientUnits="userSpaceOnUse"
   y2="123.21392"
   x2="132.62358"
   y1="151.1393"
   x1="133.17909"
   id="linearGradient7085"
   xlink:href="#XMLID_17_"
   inkscape:collect="always" /><linearGradient
   y2="141.97276"
   x2="269.33331"
   y1="141.97266"
   x1="87.396973"
   gradientTransform="matrix(1.567692,0,0,1.567692,-129.3714,-94.56962)"
   gradientUnits="userSpaceOnUse"
   id="linearGradient3188"
   xlink:href="#XMLID_22_"
   inkscape:collect="always" /><linearGradient
   x1="126.18921"
   y1="39.617504"
   x2="126.18921"
   y2="112.30453"
   id="XMLID_17_"
   gradientUnits="userSpaceOnUse"
   gradientTransform="matrix(1.567692,0,0,1.567692,-69.82581,15.22741)">
								<stop
   style="stop-color:#009a00;stop-opacity:1;"
   offset="0"
   id="stop18" />
								<stop
   style="stop-color:#009a00;stop-opacity:1;"
   offset="0.19460699"
   id="stop20" />
								<stop
   style="stop-color:#ffffff;stop-opacity:1;"
   offset="0.31460699"
   id="stop22" />
								<stop
   style="stop-color:#ffffff;stop-opacity:1;"
   offset="0.72999996"
   id="stop24" />
								<stop
   style="stop-color:#000000;stop-opacity:1;"
   offset="0.85707897"
   id="stop26" />
								<stop
   style="stop-color:#000000;stop-opacity:1;"
   offset="1"
   id="stop28" />
								<a:midPointStop
   style="stop-color:#CF0000"
   offset="0" />
								<a:midPointStop
   style="stop-color:#CF0000"
   offset="0.5" />
								<a:midPointStop
   style="stop-color:#7C0000"
   offset="0.157303" />
								<a:midPointStop
   style="stop-color:#7C0000"
   offset="0.5" />
								<a:midPointStop
   style="stop-color:#CF0000"
   offset="0.314607" />
								<a:midPointStop
   style="stop-color:#CF0000"
   offset="0.5" />
								<a:midPointStop
   style="stop-color:#B80000"
   offset="0.65" />
								<a:midPointStop
   style="stop-color:#B80000"
   offset="0.5" />
								<a:midPointStop
   style="stop-color:#CF0000"
   offset="0.837079" />
								<a:midPointStop
   style="stop-color:#CF0000"
   offset="0.5" />
								<a:midPointStop
   style="stop-color:#FF0000"
   offset="1" />
							</linearGradient><linearGradient
   gradientTransform="matrix(1.567692,0,0,1.567692,-129.3714,-94.56962)"
   gradientUnits="userSpaceOnUse"
   xlink:href="#XMLID_22_"
   id="linearGradient1945"
   y2="141.97276"
   x2="269.33331"
   y1="141.97266"
   x1="87.396973" /><linearGradient
   gradientTransform="matrix(1.567692,0,0,1.567692,-129.3706,-94.56783)"
   gradientUnits="userSpaceOnUse"
   id="linearGradient3285"
   y2="141.97266"
   x2="240.94727"
   y1="141.97266"
   x1="87.396973">
								<stop
   id="stop3287"
   offset="0"
   style="stop-color:#ffffff;stop-opacity:0.66666669;" />
								
								<stop
   id="stop3289"
   offset="0.24074516"
   style="stop-color:#d7d7d7;stop-opacity:0.21875" />
								<stop
   id="stop3291"
   offset="0.4585622"
   style="stop-color:#4d4d4d;stop-opacity:0" /><stop
   id="stop3293"
   offset="0.71891773"
   style="stop-color:#ffffff;stop-opacity:0.51041669" /><stop
   id="stop3295"
   offset="0.87351298"
   style="stop-color:#f2f2f2;stop-opacity:0.40000001" /><stop
   id="stop3297"
   offset="1"
   style="stop-color:#ffffff;stop-opacity:0.62352943" />
								
								
								<a:midPointStop
   offset="0"
   style="stop-color:#E9E9EF" />
								<a:midPointStop
   offset="0.5"
   style="stop-color:#E9E9EF" />
								<a:midPointStop
   offset="0.157303"
   style="stop-color:#B1B1C5" />
								<a:midPointStop
   offset="0.5"
   style="stop-color:#B1B1C5" />
								<a:midPointStop
   offset="0.314607"
   style="stop-color:#CECEDB" />
								<a:midPointStop
   offset="0.5"
   style="stop-color:#CECEDB" />
								<a:midPointStop
   offset="0.65"
   style="stop-color:#FFFFFF" />
								<a:midPointStop
   offset="0.5"
   style="stop-color:#FFFFFF" />
								<a:midPointStop
   offset="0.837079"
   style="stop-color:#CECEDB" />
								<a:midPointStop
   offset="0.5"
   style="stop-color:#CECEDB" />
								<a:midPointStop
   offset="1"
   style="stop-color:#FFFF66" />
							</linearGradient><inkscape:perspective
   id="perspective2495"
   inkscape:persp3d-origin="30 : 20 : 1"
   inkscape:vp_z="60 : 30 : 1"
   inkscape:vp_y="0 : 1000 : 0"
   inkscape:vp_x="0 : 30 : 1"
   sodipodi:type="inkscape:persp3d" /><linearGradient
   inkscape:collect="always"
   xlink:href="#XMLID_22_"
   id="linearGradient3331"
   gradientUnits="userSpaceOnUse"
   gradientTransform="matrix(1.567692,0,0,1.567692,-129.3714,-94.56962)"
   x1="87.396973"
   y1="141.97266"
   x2="269.33331"
   y2="141.97276" /><linearGradient
   inkscape:collect="always"
   xlink:href="#XMLID_17_"
   id="linearGradient3333"
   gradientUnits="userSpaceOnUse"
   x1="110.79613"
   y1="74.262764"
   x2="115.41695"
   y2="180.35185" /><linearGradient
   inkscape:collect="always"
   xlink:href="#XMLID_22_"
   id="linearGradient3335"
   gradientUnits="userSpaceOnUse"
   x1="7.640161"
   y1="127.99994"
   x2="248.35974"
   y2="127.99994" /><linearGradient
   inkscape:collect="always"
   xlink:href="#XMLID_22_"
   id="linearGradient3337"
   gradientUnits="userSpaceOnUse"
   x1="7.640161"
   y1="127.99994"
   x2="248.35974"
   y2="127.99994" /><linearGradient
   inkscape:collect="always"
   xlink:href="#XMLID_17_"
   id="linearGradient3347"
   gradientUnits="userSpaceOnUse"
   x1="110.79613"
   y1="74.262764"
   x2="115.41695"
   y2="180.35185"
   gradientTransform="translate(7.7642021e-2,-7.764e-2)" /></defs>
	
		
	



<polyline
   style="fill:none"
   points="0,256 0,0 256,0 256,256 "
   id="_x3C_Slice_x3E_" /><path
   d="M 248.36055,32.472022 C 167.27229,-10.429768 86.18327,85.849332 5.09502,40.005058 C 2.28113,38.417463 2e-05,39.212792 2e-05,42.029738 C 2e-05,99.343119 2e-05,156.65726 2e-05,213.97064 C 2e-05,216.78146 2.28113,220.54913 5.09502,222.13519 C 87.03142,268.46019 168.96859,169.6711 250.90499,215.99533 C 253.71887,217.58215 255.99999,216.78759 255.99999,213.97064 C 255.99999,156.65726 255.99999,99.343119 255.99999,42.029738 C 255.99999,39.218915 253.71887,35.452015 250.90499,33.864421 C 250.05685,33.385234 249.2087,32.921355 248.36055,32.472022 z"
   style="fill:#4d4d4d;fill-opacity:1"
   id="path2408" /><g
   style="display:inline"
   id="layer2"
   transform="translate(7.7642021e-2,255.92236)" /><path
   id="path30"
   style="fill:url(#linearGradient3347);fill-opacity:1"
   d="M 248.43819,37.48938 C 248.43819,39.34336 233.54665,27.28407 211.12897,26.43516 C 188.7128,24.08362 158.77356,32.94093 128.67663,41.86177 C 98.579704,50.76118 68.328142,59.75244 45.288123,57.42157 C 22.248101,56.56883 6.4203833,44.39473 5.1726589,45.02242 C 5.1726589,49.89849 5.1726589,212.08572 5.1726589,216.96332 C 6.4073699,216.1611 22.079697,228.44468 44.97045,229.35866 C 67.860437,231.75765 97.96962,222.78935 128.07802,213.85091 C 158.18721,204.92165 188.29638,195.99467 211.18561,198.41358 C 234.07636,199.34593 249.74868,211.62414 250.98263,210.82269 C 250.98263,205.94508 250.98263,43.75785 250.98263,38.88178 C 249.70888,38.15917 248.43819,37.48938 248.43819,37.48938 z" /><path
   id="path5190"
   style="fill:#000000;fill-opacity:1"
   d="M 248.43728,206.85258 C 168.19716,164.40013 87.958582,258.22818 7.719242,215.77955 C 7.719242,160.164 7.719242,104.54844 7.719242,48.93367 C 87.958582,91.38307 168.1987,-2.44575 248.43728,40.00671 C 248.43728,95.62227 248.43728,151.2378 248.43728,206.85258 z" /><path
   id="path9462"
   style="fill:#ffffff;fill-opacity:1"
   d="M 203.27766,86.0557 C 138.08296,85.29354 72.872112,141.27615 7.677642,106.4557 C 7.677642,111.97278 7.677642,117.47196 7.677642,122.98904 C 7.677642,131.84306 7.677642,140.66835 7.677642,149.52237 C 7.677642,154.58546 7.677642,159.65928 7.677642,164.72237 C 87.916992,206.17657 168.23908,114.59777 248.47766,156.05571 C 248.47766,150.90379 248.47766,145.74095 248.47766,140.58904 C 248.47766,131.85107 248.47766,123.06035 248.47766,114.32237 C 248.47766,108.68925 248.47766,103.02215 248.47766,97.38903 C 233.43264,89.35296 218.32259,86.23158 203.27766,86.0557 z" /><path
   id="path9466"
   style="fill:#009a00;fill-opacity:1"
   d="M 203.27766,28.72236 C 138.08296,27.98189 72.872112,82.4185 7.677642,48.58903 C 7.677642,54.50228 7.677642,60.40891 7.677642,66.32236 C 7.677642,74.37 7.677642,82.40792 7.677642,90.4557 C 7.677642,96.05717 7.677642,101.65418 7.677642,107.2557 C 87.916992,147.95795 168.23908,58.0172 248.47766,98.72237 C 248.47766,93.03224 248.47766,87.34603 248.47766,81.6557 C 248.47766,73.69727 248.47766,65.74781 248.47766,57.78903 C 248.47766,51.7866 248.47766,45.79152 248.47766,39.78903 C 233.43264,31.98167 218.32259,28.89324 203.27766,28.72236 z" /><path
   id="path45"
   style="fill:#c60f22;fill-opacity:1"
   d="M 81.377492,226.36306 C 53.287193,231.58499 29.370087,232.17846 5.0285761,216.00499 L 5.0285761,45.12174 C 28.823604,57.5451 46.569157,61.07851 81.206363,54.90488 L 81.377492,226.36306 z"
   sodipodi:nodetypes="ccccc" /><g
   style="display:inline"
   id="layer1"
   transform="translate(1.44e-3,2.4529184e-4)"><path
     d="M 248.35974,206.96001 C 168.11962,164.50832 87.879509,258.33713 7.6401612,215.88544 C 7.6401612,160.27066 7.6401612,104.65509 7.6401612,49.039546 C 87.879509,91.490468 168.11962,-2.3375794 248.35974,40.114878 C 248.35974,95.729664 248.35974,151.34523 248.35974,206.96001 z"
     style="fill:url(#linearGradient2577)"
     id="path3186" /></g></svg>