<svg width="127" height="128" viewBox="0 0 127 128" fill="none" xmlns="http://www.w3.org/2000/svg">
<g clip-path="url(#clip0_312_742)">
<path d="M41.5194 18.901L30.9048 9.15005L33.2079 8.11132L41.97 16.3349L42.1202 16.2601L41.6821 4.26844L43.9728 3.24194L44.2857 17.6493L41.5194 18.901Z" fill="#FAFAFA"/>
<path d="M50.4947 15.5465L47.3779 2.67869L49.4558 2.16559L52.6227 15.0334L50.4947 15.5465Z" fill="#FAFAFA"/>
<path d="M54.4624 14.4075L53.436 1.18923L64.0006 0.375427L64.1508 2.2906L55.7141 2.94152L56.0021 6.6967L64.1383 6.07084L64.2885 7.96095L56.1523 8.58682L56.4401 12.342L64.8767 11.6785L65.0269 13.5937L54.4624 14.4075Z" fill="#FAFAFA"/>
<path d="M69.083 13.7065L68.8701 0.000183105L71.1733 0.575928L71.2484 9.23777L71.1608 12.0667H71.311L72.6754 9.56323L77.2943 2.05288L80.2984 2.79151L81.0495 11.6159V14.5325H81.1997L82.4514 11.9414L86.3943 4.26846L88.6599 4.83167L82.2511 16.8985L79.1968 16.1348L78.4584 8.0111L78.3332 4.48115H78.158L76.4181 7.56034L72.1246 14.4448L69.083 13.7065Z" fill="#FAFAFA"/>
<path d="M89.2354 20.616L97.1713 10.014L102.366 13.9067C104.719 15.6716 105.32 18.2252 103.618 20.591C101.915 22.9568 99.2366 23.0942 96.8708 21.3043L93.3911 18.7009L91.0002 21.8928L89.2354 20.616ZM97.7345 12.8304L94.4801 17.1613L97.8096 19.6647C99.3993 20.9165 100.676 20.9164 101.853 19.3142C103.029 17.712 102.654 16.5355 101.052 15.3338L97.7345 12.8304Z" fill="#FAFAFA"/>
<path d="M99.1489 28.3391L109.501 20.0776L113.794 25.4475C115.672 27.8008 115.709 30.1415 113.794 31.7061C112.079 33.083 110.127 32.7953 108.462 30.9302L108.362 31.0176C108.538 31.4321 108.62 31.8807 108.603 32.3308C108.586 32.7809 108.469 33.2216 108.262 33.6213L106.647 37.7521L105.12 35.8244L106.659 31.8941C106.91 31.3682 106.983 30.7752 106.868 30.2041C106.753 29.6331 106.456 29.1148 106.021 28.7272L104.506 26.8245L100.488 30.029L99.1489 28.3391ZM105.783 25.773L108.725 29.5282C109.839 30.9301 110.865 31.2431 112.167 30.2041C113.469 29.1652 113.419 28.0887 112.28 26.6992L109.325 23.0067L105.783 25.773Z" fill="#FAFAFA"/>
<path d="M113.144 35.6366C114.401 35.0895 115.792 34.9287 117.141 35.1746C118.489 35.4205 119.734 36.0618 120.717 37.0173C121.7 37.9728 122.377 39.1991 122.661 40.5402C122.945 41.8814 122.824 43.2768 122.312 44.5487C121.801 45.8207 120.923 46.9121 119.79 47.6836C118.657 48.4551 117.319 48.8718 115.949 48.8812C114.578 48.8906 113.235 48.492 112.091 47.7361C110.948 46.9802 110.055 45.9013 109.526 44.6365C109.113 43.817 108.879 42.9189 108.84 42.0019C108.801 41.0849 108.958 40.17 109.3 39.3185C109.642 38.4669 110.162 37.6981 110.825 37.0632C111.488 36.4283 112.278 35.942 113.144 35.6366ZM117.612 46.3013C120.666 45.0496 121.443 43.0592 120.228 40.1552C119.014 37.2512 117.062 36.4 113.97 37.6517C110.878 38.9035 110.215 40.8814 111.366 43.7854C112.518 46.6894 114.571 47.5781 117.612 46.3013Z" fill="#FAFAFA"/>
<path d="M117.474 51.0205L118.087 50.9453L118.375 53.1859L117.75 53.2608C115.584 53.5362 114.695 54.3874 115.033 57.016C115.371 59.6446 116.423 60.2205 118.501 59.9577L126.762 58.8936L127.037 61.1092L118.726 62.1357C115.709 62.5237 113.431 61.2596 112.918 57.2415C112.405 53.2235 114.332 51.421 117.474 51.0205Z" fill="#FAFAFA"/>
<path d="M113.845 64.4765L127.013 65.966L125.761 76.5054L123.859 76.2802L124.797 67.8686L121.105 67.4555L120.191 75.5791L118.313 75.3664L119.227 67.2428L115.472 66.8171L114.521 75.2286L112.618 75.0159L113.845 64.4765Z" fill="#FAFAFA"/>
<path d="M118.727 78.4831C119.597 78.7628 120.398 79.2248 121.076 79.8385C121.755 80.4522 122.294 81.2035 122.659 82.0421C123.024 82.8808 123.205 83.7876 123.192 84.702C123.179 85.6165 122.971 86.5174 122.582 87.3451C121.218 90.8249 118.426 92.5401 115.485 91.376L115.222 91.2757L116.085 89.0852L116.336 89.1855C118.213 89.924 119.703 89.1228 120.679 86.6194C121.818 83.7279 120.98 81.7876 117.913 80.586C114.846 79.3843 112.906 80.248 111.792 83.0894C110.803 85.5929 111.329 87.1702 113.231 87.9212L113.469 88.0086L112.606 90.1991L112.368 90.1117C109.401 88.9476 108.512 85.8183 109.864 82.3135C110.147 81.445 110.611 80.6464 111.226 79.9711C111.84 79.2958 112.592 78.759 113.43 78.3967C114.269 78.0343 115.175 77.8546 116.088 77.8695C117.001 77.8844 117.9 78.0937 118.727 78.4831Z" fill="#FAFAFA"/>
<path d="M104.293 93.0031L113.368 99.7876L116.498 95.5942L118.037 96.7457L110.527 106.759L108.987 105.608L112.104 101.44L103.029 94.6554L104.293 93.0031Z" fill="#FAFAFA"/>
<path d="M99.3621 105.671L101.302 108.036L99.2243 109.739L97.2842 107.373L99.3621 105.671Z" fill="#FAFAFA"/>
<path d="M85.7807 108.8L96.4454 118.488L94.1547 119.54L85.3926 111.366L85.2424 111.441L85.7432 123.42L83.4525 124.459L83.0645 110.064L85.7807 108.8Z" fill="#FAFAFA"/>
<path d="M76.8435 112.205L80.0729 125.06L78.0075 125.573L74.7656 112.73L76.8435 112.205Z" fill="#FAFAFA"/>
<path d="M72.8878 113.381L74.0019 126.587L63.4373 127.476L63.2746 125.56L71.7112 124.86L71.3982 121.105L63.262 121.78L63.0993 119.89L71.2355 119.202L70.9226 115.447L62.486 116.16L62.3232 114.245L72.8878 113.381Z" fill="#FAFAFA"/>
<path d="M58.2679 114.17L58.5683 127.876L56.2651 127.313L56.1274 118.663L56.2025 115.785H56.0523L54.7005 118.351L50.1442 125.861L47.1275 125.135L46.314 116.31L46.2389 113.406H46.0886L44.8369 116.01L40.9565 123.708L38.6909 123.157L44.9495 111.053L48.0163 111.779L48.8049 119.903L48.9551 123.445H49.1303L50.8452 120.353L55.0885 113.444L58.2679 114.17Z" fill="#FAFAFA"/>
<path d="M38.0652 107.386L30.1794 118.025L24.9722 114.17C22.5939 112.418 21.9805 109.864 23.7204 107.498C25.4603 105.133 28.089 104.995 30.4673 106.735L33.9596 109.313L36.3378 106.109L38.0652 107.386ZM29.6036 115.209L32.833 110.865L29.4909 108.362C27.8887 107.173 26.6119 107.173 25.4478 108.738C24.2837 110.302 24.6593 111.529 26.274 112.718L29.6036 115.209Z" fill="#FAFAFA"/>
<path d="M28.1016 99.7625L17.8 108.086L13.469 102.741C11.5789 100.401 11.5163 98.06 13.469 96.4829C15.1713 95.106 17.124 95.3815 18.8013 97.234L18.914 97.1463C18.731 96.7322 18.6428 96.2824 18.6558 95.8298C18.6688 95.3772 18.7827 94.9331 18.9891 94.5301L20.5788 90.3997L22.1184 92.3148L20.6038 96.2576C20.3576 96.7833 20.288 97.3745 20.4053 97.943C20.5226 98.5115 20.8206 99.0267 21.2547 99.412L22.7818 101.302L26.7873 98.0726L28.1016 99.7625ZM21.48 102.366L18.5135 98.6859C17.3994 97.309 16.3605 96.9961 15.0712 98.0475C13.7819 99.099 13.8195 100.163 14.9711 101.552L17.9502 105.22L21.48 102.366Z" fill="#FAFAFA"/>
<path d="M14.0817 92.5401C12.8285 93.096 11.4384 93.2665 10.0881 93.03C8.73775 92.7935 7.48829 92.1604 6.49868 91.2117C5.50907 90.263 4.82397 89.0417 4.53064 87.7025C4.2373 86.3634 4.34895 84.9671 4.85136 83.6916C5.35377 82.4161 6.22427 81.319 7.35206 80.5396C8.47986 79.7603 9.81403 79.334 11.1848 79.3151C12.5555 79.2962 13.9009 79.6854 15.0498 80.4333C16.1987 81.1812 17.0991 82.2541 17.6365 83.5152C18.0577 84.3314 18.2996 85.2282 18.3461 86.1455C18.3925 87.0628 18.2424 87.9793 17.9058 88.8338C17.5692 89.6884 17.0538 90.4609 16.3943 91.1002C15.7348 91.7394 14.9463 92.2304 14.0817 92.5401ZM9.53792 81.9005C6.49623 83.1522 5.78274 85.1924 7.03447 88.0839C8.28619 90.9754 10.2264 91.7639 13.2931 90.4746C16.3598 89.1853 17.0483 87.2202 15.7965 84.3287C14.5448 81.4373 12.5671 80.6112 9.53792 81.9005Z" fill="#FAFAFA"/>
<path d="M9.68859 77.1563L9.07526 77.244L8.77478 75.0034L9.40064 74.9157C11.5536 74.6278 12.4424 73.7641 12.0919 71.1605C11.7414 68.5569 10.6775 67.9685 8.5996 68.2439L0.350695 69.3581L0.050293 67.155L8.28666 66.0286C11.3033 65.628 13.5814 66.8671 14.1322 70.8851C14.683 74.9032 12.7803 76.7432 9.68859 77.1563Z" fill="#FAFAFA"/>
<path d="M13.1806 63.6752L0 62.286L1.12651 51.7337L3.02915 51.9342L2.1404 60.3583L5.833 60.7461L6.6967 52.6224L8.58681 52.8229L7.72312 60.9465L11.4783 61.3472L12.367 52.9353L14.2821 53.1358L13.1806 63.6752Z" fill="#FAFAFA"/>
<path d="M8.22381 49.6935C7.3519 49.4187 6.54858 48.9613 5.86735 48.3517C5.18613 47.742 4.64266 46.994 4.27313 46.1578C3.9036 45.3216 3.71654 44.4163 3.72436 43.5022C3.73217 42.588 3.93466 41.686 4.31844 40.8563C5.6703 37.364 8.44917 35.6366 11.4032 36.7757L11.6536 36.8759L10.8149 39.0789L10.5521 38.9787C8.67449 38.2527 7.19744 39.0539 6.23361 41.5699C5.11958 44.4613 5.95822 46.4013 9.03746 47.5904C12.1167 48.7796 14.0444 47.8911 15.1459 44.9996C16.1097 42.4961 15.5715 40.9063 13.6689 40.1803L13.431 40.0801L14.2822 37.8896L14.52 37.9773C17.4866 39.1289 18.4004 42.2456 17.0235 45.763C16.7505 46.6322 16.2961 47.4337 15.6902 48.1142C15.0844 48.7947 14.3409 49.3388 13.509 49.7104C12.6771 50.0819 11.7757 50.2725 10.8646 50.2696C9.95352 50.2667 9.05334 50.0704 8.22381 49.6935Z" fill="#FAFAFA"/>
<path d="M22.5683 35.0857L13.4432 28.3516L10.3514 32.5575L8.79932 31.4183L16.3097 21.3293L17.8618 22.4685L14.7701 26.6491L23.8826 33.3836L22.5683 35.0857Z" fill="#FAFAFA"/>
<path d="M27.4126 22.3808L25.46 20.0278L27.5379 18.3127L29.4906 20.6661L27.4126 22.3808Z" fill="#FAFAFA"/>
</g>
<defs>
<clipPath id="clip0_312_742">
<rect width="127" height="127.864" fill="white"/>
</clipPath>
</defs>
</svg>
